<?xml version="1.0" encoding="utf-8"?>
<!-- Generator: Adobe Illustrator 22.1.0, SVG Export Plug-In . SVG Version: 6.00 Build 0)  -->
<svg version="1.1" xmlns="http://www.w3.org/2000/svg" xmlns:xlink="http://www.w3.org/1999/xlink" x="0px" y="0px"
	 viewBox="0 0 10.5 10.2" style="enable-background:new 0 0 10.5 10.2;" xml:space="preserve">
<style type="text/css">
	.st0{fill-rule:evenodd;clip-rule:evenodd;fill:#F39C12;}
	.st1{fill-rule:evenodd;clip-rule:evenodd;fill:#2C3E50;}
	.st2{fill-rule:evenodd;clip-rule:evenodd;fill:#C0392B;}
	.st3{fill-rule:evenodd;clip-rule:evenodd;fill:#ECF0F1;}
</style>
<g id="Õ_x2021_Ô_xF8FF__x2021__x201A_Î_x2C7__x2DB__x2D8_ËÂ__x2030_Î_x2C7__ÏÓÌÚ_x2021_ÊÌÓÈ_Ó·Î_x2021_ÒÚË">
</g>
<g id="_x2014_ÎÓÈ_1">
	<path class="st0" d="M3.5,8.3c-0.5,0-0.9,0-1.4,0C2,8.3,1.9,8.2,1.9,8.1c0-1.9,0-3.8,0-5.6c0-0.1,0.1-0.3,0.3-0.3
		c0.5,0,0.9,0,1.4,0c0.1,0,0.3,0.1,0.3,0.3c0,1.9,0,3.8,0,5.6C3.8,8.2,3.7,8.3,3.5,8.3z"/>
	<path class="st1" d="M5.8,8.3c-0.5,0-0.9,0-1.4,0c-0.1,0-0.3-0.1-0.3-0.3c0-1.9,0-3.8,0-5.6c0-0.1,0.1-0.3,0.3-0.3
		c0.5,0,0.9,0,1.4,0c0.1,0,0.3,0.1,0.3,0.3c0,1.9,0,3.8,0,5.6C6.1,8.2,6,8.3,5.8,8.3z"/>
	<path class="st2" d="M6.4,2.5c0.3,1.9,0.5,3.7,0.8,5.6c0,0.1,0.2,0.2,0.3,0.2c0.5-0.1,0.9-0.1,1.4-0.2c0.1,0,0.2-0.2,0.2-0.3
		C8.8,5.9,8.6,4.1,8.3,2.2C8.3,2.1,8.2,2,8,2C7.5,2,7.1,2.1,6.6,2.2C6.5,2.2,6.4,2.3,6.4,2.5z"/>
	<path class="st3" d="M2.7,3.2v2.9c0,0,0,0.1,0.1,0.1h0.1c0,0,0.1,0,0.1-0.1V3.2c0,0,0-0.1-0.1-0.1L2.7,3.2C2.8,3.2,2.7,3.2,2.7,3.2
		z"/>
	<path class="st3" d="M4.8,5.9V3.2c0,0,0-0.1,0.1-0.1H5c0,0,0.1,0,0.1,0.1v2.7C5,5.9,5,6,5,6L4.8,5.9C4.8,6,4.8,5.9,4.8,5.9z"/>
	<path class="st3" d="M5.2,6.8V3.2c0,0,0-0.1,0.1-0.1h0.1c0,0,0.1,0,0.1,0.1v3.6c0,0,0,0.1-0.1,0.1L5.2,6.8C5.2,6.9,5.2,6.9,5.2,6.8
		z"/>
	<path class="st3" d="M7.6,5.3L7.3,3.2c0,0,0-0.1,0.1-0.1l0.1,0c0,0,0.1,0,0.1,0.1l0.2,1.6l0.1,0.6c0,0,0,0.1-0.1,0.1L7.6,5.3
		C7.7,5.4,7.6,5.4,7.6,5.3z"/>
</g>
</svg>
