<?xml version="1.0" encoding="utf-8"?>
<!-- Generator: Adobe Illustrator 22.1.0, SVG Export Plug-In . SVG Version: 6.00 Build 0)  -->
<svg version="1.1" xmlns="http://www.w3.org/2000/svg" xmlns:xlink="http://www.w3.org/1999/xlink" x="0px" y="0px"
	 viewBox="0 0 13.7 12.2" style="enable-background:new 0 0 13.7 12.2;" xml:space="preserve">
<style type="text/css">
	.st0{fill-rule:evenodd;clip-rule:evenodd;fill:#2C3E50;}
	.st1{fill-rule:evenodd;clip-rule:evenodd;fill:#3D566E;}
	.st2{fill-rule:evenodd;clip-rule:evenodd;fill:#DAE1E6;}
	.st3{fill-rule:evenodd;clip-rule:evenodd;fill:#FACC4D;}
</style>
<g id="Õ_x2021_Ô_xF8FF__x2021__x201A_Î_x2C7__x2DB__x2D8_ËÂ__x2030_Î_x2C7__ÏÓÌÚ_x2021_ÊÌÓÈ_Ó·Î_x2021_ÒÚË">
</g>
<g id="_x2014_ÎÓÈ_1">
	<g>
		<path class="st0" d="M2.6,6.9l2.2-2.6C4.7,4.1,4.7,3.8,4.9,3.6L5,3.5c0.2-0.2,0.6-0.2,0.8,0c1.5,1.5,2,2,3.3,3.3
			c0.2,0.2,0.2,0.6,0,0.8c-1,1,0.9-0.9-0.1,0.1C8.8,7.9,8.5,7.9,8.3,7.8L5.7,10c-0.2,0.2-0.6,0.2-0.8,0L2.6,7.7
			C2.4,7.5,2.4,7.2,2.6,6.9z"/>
		<path class="st1" d="M2.6,6.9l2.2-2.6l1.7,1.7L3.8,8.9L2.6,7.7C2.4,7.5,2.4,7.2,2.6,6.9z"/>
		<path class="st2" d="M4.8,4.3C4.7,4.1,4.7,3.8,4.9,3.6L5,3.5c0.2-0.2,0.6-0.2,0.8,0L6.3,4l2.3,2.3l0.6,0.6c0.2,0.2,0.2,0.6,0,0.8
			c-1,1,0.9-0.9-0.1,0.1C8.8,7.9,8.5,7.9,8.3,7.8L4.8,4.3z"/>
		<path class="st3" d="M8.9,6.2c1.6,1.3,1.2,1.8,1.3,3.4c0.1,1,1.7,1.1,1.5-0.8C11.4,5.7,8.2,5.6,8.9,6.2z"/>
		<path class="st0" d="M7.2,2L7.2,2c0.2,0,0.4,0.2,0.4,0.4v3.1C7.6,5.8,7.5,6,7.2,6l0,0C7,6,6.8,5.8,6.8,5.6V3.1V2.5
			C6.8,2.2,7,2,7.2,2z"/>
	</g>
</g>
</svg>
