<?xml version="1.0" encoding="utf-8"?>
<!-- Generator: Adobe Illustrator 22.1.0, SVG Export Plug-In . SVG Version: 6.00 Build 0)  -->
<svg version="1.1" xmlns="http://www.w3.org/2000/svg" xmlns:xlink="http://www.w3.org/1999/xlink" x="0px" y="0px"
	 viewBox="0 0 21.8 17.7" style="enable-background:new 0 0 21.8 17.7;" xml:space="preserve">
<style type="text/css">
	.st0{fill-rule:evenodd;clip-rule:evenodd;fill:#2C3E50;}
	.st1{fill-rule:evenodd;clip-rule:evenodd;fill:#3D566E;}
	.st2{fill-rule:evenodd;clip-rule:evenodd;fill:#DAE1E6;}
</style>
<g id="Õ_x2021_Ô_xF8FF__x2021__x201A_Î_x2C7__x2DB__x2D8_ËÂ__x2030_Î_x2C7__ÏÓÌÚ_x2021_ÊÌÓÈ_Ó·Î_x2021_ÒÚË">
</g>
<g id="_x2014_ÎÓÈ_1">
	<g>
		<path class="st0" d="M8.2,4v1H7.4V3.9c0-0.6,0.5-1.1,1.1-1.1h4.2c0.6,0,1.1,0.5,1.1,1.1v1.1h-0.8V4c0-0.2-0.2-0.4-0.4-0.4h-4
			C8.4,3.6,8.2,3.8,8.2,4z"/>
		<path class="st0" d="M18.9,11.7V14c0-0.3-0.1-0.5-0.2-0.5c-6.4,0-9.8,0-16.2,0c-0.1,0-0.2,0.2-0.2,0.5v-2.3c0,0.3,0.1,0.5,0.2,0.5
			c6.4,0,9.8,0,16.2,0C18.8,12.2,18.9,12,18.9,11.7z"/>
		<rect x="7.1" y="4.8" class="st1" width="1.4" height="0.2"/>
		<rect x="12.8" y="4.8" class="st1" width="1.4" height="0.2"/>
		<path class="st2" d="M12,13.1v0.3c0,0.2-0.2,0.4-0.4,0.4H9.7c-0.2,0-0.4-0.2-0.4-0.4v-0.3v-0.5v-0.3c0-0.2,0.2-0.4,0.4-0.4h1.9
			c0.2,0,0.4,0.2,0.4,0.4v0.3V13.1z"/>
		<path class="st1" d="M12,13.1v0.3c0,0.2-0.2,0.4-0.4,0.4H9.7c-0.2,0-0.4-0.2-0.4-0.4v-0.3H2.3c-0.1,0-0.2,0.1-0.2,0.2v1.7
			c0,0.6,0.5,1.1,1.1,1.1H18c0.6,0,1.1-0.5,1.1-1.1v-1.7c0-0.1-0.1-0.2-0.2-0.2H12z"/>
		<path class="st1" d="M19.1,12.4V6.2c0-0.6-0.5-1.1-1.1-1.1H3.3c-0.6,0-1.1,0.5-1.1,1.1v6.2c0,0.1,0.1,0.2,0.2,0.2h6.9v-0.3
			c0-0.2,0.2-0.4,0.4-0.4h1.9c0.2,0,0.4,0.2,0.4,0.4v0.3h6.9C19,12.6,19.1,12.5,19.1,12.4z"/>
	</g>
</g>
</svg>
