<?xml version="1.0" encoding="utf-8"?>
<!-- Generator: Adobe Illustrator 22.1.0, SVG Export Plug-In . SVG Version: 6.00 Build 0)  -->
<svg version="1.1" xmlns="http://www.w3.org/2000/svg" xmlns:xlink="http://www.w3.org/1999/xlink" x="0px" y="0px"
	 viewBox="0 0 18.7 22.8" style="enable-background:new 0 0 18.7 22.8;" xml:space="preserve">
<style type="text/css">
	.st0{fill-rule:evenodd;clip-rule:evenodd;fill:#2C3E50;}
	.st1{fill-rule:evenodd;clip-rule:evenodd;fill:#ECF0F1;}
	.st2{fill-rule:evenodd;clip-rule:evenodd;fill:#3D566E;}
	.st3{fill-rule:evenodd;clip-rule:evenodd;fill:#B4CCFA;}
	.st4{fill-rule:evenodd;clip-rule:evenodd;fill:#40A5BA;}
</style>
<g id="Õ_x2021_Ô_xF8FF__x2021__x201A_Î_x2C7__x2DB__x2D8_ËÂ__x2030_Î_x2C7__ÏÓÌÚ_x2021_ÊÌÓÈ_Ó·Î_x2021_ÒÚË">
</g>
<g id="_x2014_ÎÓÈ_1">
	<g>
		<path class="st0" d="M15.3,5.4c0,4.3,0,8.6,0,12.9c0,0.6-0.5,1.1-1.1,1.1c-3.3,0-6.1,0-9.4,0c-0.6,0-1.1-0.5-1.1-1.1
			c0-4.3,0-8.6,0-12.9c0-0.6,0.5-1.1,1.1-1.1c3.3,0,6.1,0,9.4,0C14.8,4.3,15.3,4.8,15.3,5.4z"/>
		<path class="st1" d="M10.2,17.7h3.6c0.1,0,0.2-0.1,0.2-0.2v-3.1c0-0.1-0.1-0.2-0.2-0.2h-3.6c-0.1,0-0.2,0.1-0.2,0.2v3.1
			C10,17.6,10.1,17.7,10.2,17.7z"/>
		<path class="st1" d="M5.2,17.7h3.6c0.1,0,0.2-0.1,0.2-0.2v-3.1c0-0.1-0.1-0.2-0.2-0.2H5.2c-0.1,0-0.2,0.1-0.2,0.2v3.1
			C5,17.6,5.1,17.7,5.2,17.7z"/>
		<path class="st1" d="M13.8,9.8h-3.6C10.1,9.8,10,9.9,10,10v3.1c0,0.1,0.1,0.2,0.2,0.2h3.6c0.1,0,0.2-0.1,0.2-0.2V10
			C14,9.9,13.9,9.8,13.8,9.8z"/>
		<path class="st1" d="M8.8,9.8H5.2C5.1,9.8,5,9.9,5,10v3.1c0,0.1,0.1,0.2,0.2,0.2h3.6c0.1,0,0.2-0.1,0.2-0.2V10
			C8.9,9.9,8.9,9.8,8.8,9.8z"/>
		<path class="st2" d="M6.3,16.4L6.7,16l-0.4-0.4c-0.1-0.1-0.1-0.2,0-0.2l0,0c0.1-0.1,0.2-0.1,0.2,0L7,15.7l0.4-0.4
			c0.1-0.1,0.2-0.1,0.2,0l0.1,0.1c0.1,0.1,0.1,0.2,0,0.2L7.2,16l0.4,0.4c0.1,0.1,0.1,0.2,0,0.2l0,0c-0.1,0.1-0.2,0.1-0.2,0L7,16.3
			l-0.4,0.4c-0.1,0.1-0.2,0.1-0.2,0l-0.1-0.1C6.3,16.5,6.3,16.4,6.3,16.4z"/>
		<path class="st2" d="M6.8,12.2v-0.5H6.3c-0.1,0-0.2-0.1-0.2-0.2v-0.1c0-0.1,0.1-0.2,0.2-0.2h0.5v-0.5c0-0.1,0.1-0.2,0.2-0.2H7
			c0.1,0,0.2,0.1,0.2,0.2v0.5h0.5c0.1,0,0.2,0.1,0.2,0.2v0.1c0,0.1-0.1,0.2-0.2,0.2H7.2v0.5c0,0.1-0.1,0.2-0.2,0.2H6.9
			C6.8,12.4,6.8,12.3,6.8,12.2z"/>
		<path class="st3" d="M5.2,8.1h8.7C13.9,8.1,14,8,14,7.9V6c0-0.1-0.1-0.2-0.2-0.2H5.2C5.1,5.9,5,5.9,5,6v1.9C5,8,5.1,8.1,5.2,8.1z"
			/>
		<path class="st2" d="M12,15.1c0.1,0,0.2,0.1,0.2,0.2c0,0.1-0.1,0.2-0.2,0.2c-0.1,0-0.2-0.1-0.2-0.2C11.8,15.2,11.9,15.1,12,15.1z"
			/>
		<path class="st2" d="M11.3,15.8h1.4c0.1,0,0.2,0.1,0.2,0.2v0c0,0.1-0.1,0.2-0.2,0.2h-1.4c-0.1,0-0.2-0.1-0.2-0.2v0
			C11.1,15.9,11.2,15.8,11.3,15.8z"/>
		<path class="st2" d="M12,16.9c0.1,0,0.2-0.1,0.2-0.2c0-0.1-0.1-0.2-0.2-0.2c-0.1,0-0.2,0.1-0.2,0.2C11.8,16.8,11.9,16.9,12,16.9z"
			/>
		<path class="st2" d="M12.2,6.2H13h0c0.1,0,0.1,0.1,0.1,0.1v1.3v0c0,0.1-0.1,0.1-0.1,0.1h-0.8h0c-0.1,0-0.1-0.1-0.1-0.1V6.3v0
			C12.1,6.3,12.1,6.2,12.2,6.2z"/>
		<path class="st2" d="M11.3,11.4h1.4c0.1,0,0.2,0.1,0.2,0.2v0c0,0.1-0.1,0.2-0.2,0.2h-1.4c-0.1,0-0.2-0.1-0.2-0.2v0
			C11.1,11.4,11.2,11.4,11.3,11.4z"/>
		<rect x="12.3" y="6.5" class="st3" width="0.5" height="1"/>
	</g>
	<path class="st4" d="M-1-6.2L-1-6.2L-1-6.2z"/>
</g>
</svg>
