<?xml version="1.0" encoding="utf-8"?>
<!-- Generator: Adobe Illustrator 22.1.0, SVG Export Plug-In . SVG Version: 6.00 Build 0)  -->
<svg version="1.1" xmlns="http://www.w3.org/2000/svg" xmlns:xlink="http://www.w3.org/1999/xlink" x="0px" y="0px"
	 viewBox="0 0 14.4 14.4" style="enable-background:new 0 0 14.4 14.4;" xml:space="preserve">
<style type="text/css">
	.st0{fill-rule:evenodd;clip-rule:evenodd;fill:#ECF0F1;}
	.st1{fill-rule:evenodd;clip-rule:evenodd;fill:#2C3E50;}
	.st2{fill-rule:evenodd;clip-rule:evenodd;fill:#FFCB05;}
	.st3{fill-rule:evenodd;clip-rule:evenodd;fill:#3D566E;}
	.st4{fill-rule:evenodd;clip-rule:evenodd;fill:#B4CCFA;}
	.st5{fill-rule:evenodd;clip-rule:evenodd;fill:#D0DEFA;}
	.st6{fill-rule:evenodd;clip-rule:evenodd;fill:#6699FF;}
	.st7{fill-rule:evenodd;clip-rule:evenodd;fill:#95A5A6;}
</style>
<g id="Õ_x2021_Ô_xF8FF__x2021__x201A_Î_x2C7__x2DB__x2D8_ËÂ__x2030_Î_x2C7__ÏÓÌÚ_x2021_ÊÌÓÈ_Ó·Î_x2021_ÒÚË">
</g>
<g id="_x2014_ÎÓÈ_1">
	<path class="st0" d="M7.1-5.9C7-5.9,7-5.8,7-5.7C7-5.6,7-5.5,7.1-5.5c0.1,0,0.2-0.1,0.2-0.2C7.3-5.8,7.3-5.9,7.1-5.9z"/>
	<path class="st0" d="M7.3-5.9c0,0-0.1-0.1-0.2-0.1C7.1-6,7-5.9,7-5.9c0,0-0.1,0.1-0.1,0.2c0,0.1,0,0.1,0.1,0.2c0,0,0.1,0.1,0.2,0.1
		c0.1,0,0.1,0,0.2-0.1c0,0,0.1-0.1,0.1-0.2C7.4-5.8,7.4-5.8,7.3-5.9z"/>
	<path class="st1" d="M7.3-5.9c0,0-0.1-0.1-0.2-0.1C7.1-5.9,7-5.9,7-5.9c0,0-0.1,0.1-0.1,0.2c0,0.1,0,0.1,0.1,0.2
		c0,0,0.1,0.1,0.2,0.1c0.1,0,0.1,0,0.2-0.1c0,0,0.1-0.1,0.1-0.2C7.4-5.8,7.4-5.8,7.3-5.9z"/>
	<path class="st1" d="M3.7,4.7l7,0c0.3,0,0.5,0.2,0.5,0.5l0,4.5c0,0.3-0.2,0.5-0.5,0.5l-7,0c-0.2,0-0.4-0.1-0.5-0.3l0-5
		C3.4,4.8,3.5,4.7,3.7,4.7z"/>
	<rect x="4.7" y="4" class="st2" width="1.5" height="0.7"/>
	<path class="st3" d="M8.3,5.2c-1.2,0-2.2,1-2.3,2.2c0,1.2,1,2.2,2.2,2.3c1.2,0,2.2-1,2.3-2.2C10.6,6.2,9.6,5.2,8.3,5.2z"/>
	<path class="st4" d="M8.3,5.8c-0.9,0-1.7,0.8-1.7,1.7c0,0.9,0.8,1.7,1.7,1.7c0.9,0,1.7-0.8,1.7-1.7C10,6.5,9.3,5.8,8.3,5.8z"/>
	<path class="st5" d="M8.3,7.1C7.7,7.2,7.3,7.5,7,7.9C7,7.9,7,7.8,6.9,7.7C6.7,6.9,7.4,6.2,8.3,6.1L8.3,7.1z"/>
	<path class="st3" d="M3.2,5.5C3.2,5.5,3.2,5.5,3.2,5.5C3.1,5.5,3.1,5.5,3.2,5.5L3.1,9.3c0,0,0,0.1,0,0.1c0,0,0,0,0.1,0h0l0.5,0
		c0.3,0,0.6-0.1,0.8-0.3c0.2-0.2,0.3-0.5,0.3-0.8l0-1.8c0-0.3-0.1-0.6-0.3-0.8C4.3,5.6,4,5.5,3.7,5.5H3.2L3.2,5.5z"/>
	<path class="st6" d="M6-8.7L6-8.7c0.1,0,0.1,0.1,0.1,0.1l0,0c0,0.1,0,0.1-0.1,0.1l0,0c-0.1,0-0.1,0-0.1-0.1l0,0
		C5.9-8.7,6-8.7,6-8.7z"/>
	<rect x="6.4" y="-8.7" class="st7" width="1.5" height="0.1"/>
</g>
</svg>
