<?xml version="1.0" encoding="utf-8"?>
<!-- Generator: Adobe Illustrator 22.1.0, SVG Export Plug-In . SVG Version: 6.00 Build 0)  -->
<svg version="1.1" xmlns="http://www.w3.org/2000/svg" xmlns:xlink="http://www.w3.org/1999/xlink" x="0px" y="0px"
	 viewBox="0 0 8.2 12.9" style="enable-background:new 0 0 8.2 12.9;" xml:space="preserve">
<style type="text/css">
	.st0{fill-rule:evenodd;clip-rule:evenodd;fill:#D0DEFA;}
	.st1{fill-rule:evenodd;clip-rule:evenodd;fill:#B4CCFA;}
	.st2{fill-rule:evenodd;clip-rule:evenodd;fill:#3498DB;}
	@keyframes move {
		0% {
			transform: translate3d(0px, 0px, 0px);
		}
		10% {
			transform: translate3d(0.6px, 0.2px, 0px);
		}
		20% {
			transform: translate3d(0.7px, 0.1px, 0px);
		}
		30% {
			transform: translate3d(0.3px, 0.3px, 0px);
		}
		40% {
			transform: translate3d(0px, 0.3px, 0px);
		}
		50% {
			transform: translate3d(0.3px, 0px, 0px);
		}
		60% {
			transform: translate3d(0.6px, -0.2px, 0px);
		}
		70% {
			transform: translate3d(0.4px, 0.2px, 0px);
		}
		80% {
			transform: translate3d(0.6px, 0.2px, 0px);
		}
		90% {
			transform: translate3d(0px, 0.2px, 0px);
		}
		100% {
			transform: translate3d(0px, 0px, 0px);
		}
	}
</style>
<g id="Õ_x2021_Ô_xF8FF__x2021__x201A_Î_x2C7__x2DB__x2D8_ËÂ__x2030_Î_x2C7__ÏÓÌÚ_x2021_ÊÌÓÈ_Ó·Î_x2021_ÒÚË">
</g>
<g id="_x2014_ÎÓÈ_1">
	<g>
		<path  class="st0" d="M3,2.3H2.8c-0.1,0-0.1-0.1-0.1-0.1V1.9c0-0.1,0.1-0.1,0.1-0.1c0.9,0,1.8,0,2.7,0c0.1,0,0.1,0.1,0.1,0.1v0.3
			c0,0.1-0.1,0.1-0.1,0.1H5.2v1.8c0,0,0,0.1,0,0.1c0,0,0,0.1,0.1,0.1l1,1c0.1,0.1,0.1,0.1,0.1,0.2c0,0.1,0.1,0.2,0.1,0.3v1.9
			c0,0.2-0.1,0.4-0.2,0.5h0C6.1,8.3,6,8.4,5.8,8.4H2.5C2.3,8.4,2.1,8.3,2,8.2h0C1.9,8.1,1.8,7.9,1.8,7.7V5.8c0-0.1,0-0.2,0.1-0.3
			c0-0.1,0.1-0.2,0.1-0.2l1-1c0,0,0.1-0.1,0.1-0.1c0,0,0-0.1,0-0.1V2.3H3z"/>
		<path  class="st1" d="M2.3,7.9L2.3,7.9C2.3,8,2.4,8,2.5,8h3.3C5.9,8,5.9,8,6,7.9l0,0C6,7.9,6.1,7.8,6.1,7.7V5.8c0,0,0-0.1,0-0.1
			c0,0,0-0.1-0.1-0.1l-1-1C4.9,4.5,4.8,4.5,4.8,4.4c0-0.1-0.1-0.2-0.1-0.3V2.3c-0.4,0-0.8,0-1.3,0v1.8c0,0.1,0,0.2-0.1,0.3
			c0,0.1-0.1,0.2-0.1,0.2l-1,1c0,0,0,0.1-0.1,0.1c0,0,0,0.1,0,0.1v1.9C2.2,7.8,2.2,7.9,2.3,7.9z"/>
		<path  class="st2" d="M2.3,7.9L2.3,7.9C2.3,8,2.4,8,2.5,8h3.3C5.9,8,5.9,8,6,7.9l0,0C6,7.9,6.1,7.8,6.1,7.7V5.8c0,0,0-0.1,0-0.1
			c0,0,0-0.1-0.1-0.1L5.7,5.4C4.6,5.6,4.2,4.8,3.1,4.8L2.3,5.6c0,0,0,0.1-0.1,0.1c0,0,0,0.1,0,0.1v1.9C2.2,7.8,2.2,7.9,2.3,7.9z"/>
		<path style="animation: move 3s linear forwards infinite;" class="st1" d="M3.6,7.6C3.8,7.6,4,7.4,4,7.2C4,7,3.8,6.9,3.6,6.9C3.4,6.9,3.3,7,3.3,7.2C3.3,7.4,3.4,7.6,3.6,7.6z"/>
		<path style="animation: move 3s 1s linear forwards infinite;" class="st1" d="M4.5,6.5c0.1,0,0.2-0.1,0.2-0.2c0-0.1-0.1-0.2-0.2-0.2c-0.1,0-0.2,0.1-0.2,0.2C4.3,6.4,4.4,6.5,4.5,6.5z"/>
		<path style="animation: move 3s 2s linear forwards infinite;" class="st1" d="M3.5,5.6c0.1,0,0.1-0.1,0.1-0.1c0-0.1-0.1-0.1-0.1-0.1c-0.1,0-0.1,0.1-0.1,0.1C3.4,5.5,3.5,5.6,3.5,5.6z"/>
	</g>
</g>
</svg>
