<?xml version="1.0" encoding="utf-8"?>
<!-- Generator: Adobe Illustrator 22.1.0, SVG Export Plug-In . SVG Version: 6.00 Build 0)  -->
<svg version="1.1" xmlns="http://www.w3.org/2000/svg" xmlns:xlink="http://www.w3.org/1999/xlink" x="0px" y="0px"
	 viewBox="0 0 30.7 23.2" style="enable-background:new 0 0 30.7 23.2;" xml:space="preserve">
<style type="text/css">
	.st0{fill-rule:evenodd;clip-rule:evenodd;fill:#2C3E50;}
	.st1{fill-rule:evenodd;clip-rule:evenodd;fill:#121220;}
	.st2{fill-rule:evenodd;clip-rule:evenodd;fill:#EEEEEE;}
	.st3{fill-rule:evenodd;clip-rule:evenodd;fill:#4E4E5D;}
	.st4{fill-rule:evenodd;clip-rule:evenodd;fill:#6EBCC6;}
	.st5{fill-rule:evenodd;clip-rule:evenodd;fill:#ECF0F1;}
	.st6{fill-rule:evenodd;clip-rule:evenodd;fill:#DAE1E6;}
	.st7{fill-rule:evenodd;clip-rule:evenodd;fill:#2980B9;}
	.st8{fill-rule:evenodd;clip-rule:evenodd;fill:#9B59B6;}
	.st9{fill-rule:evenodd;clip-rule:evenodd;fill:#FFCB05;}
	.st10{fill-rule:evenodd;clip-rule:evenodd;fill:#6699FF;}
	.st11{fill-rule:evenodd;clip-rule:evenodd;fill:#95A5A6;}
</style>
<g id="Õ_x2021_Ô_xF8FF__x2021__x201A_Î_x2C7__x2DB__x2D8_ËÂ__x2030_Î_x2C7__ÏÓÌÚ_x2021_ÊÌÓÈ_Ó·Î_x2021_ÒÚË">
</g>
<g id="_x2014_ÎÓÈ_1">
	<path class="st0" d="M21.6,4.2l5.1,0c0.7,0,1.2,0.5,1.2,1.2l0,12.4c0,0.7-0.5,1.2-1.2,1.2l-5.1,0c-0.7,0-1.2-0.5-1.2-1.2l0-12.4
		C20.4,4.8,21,4.2,21.6,4.2z"/>
	<path class="st1" d="M27.9,10l0,7.8c0,0.7-0.5,1.2-1.2,1.2l-5.1,0c-0.7,0-1.2-0.5-1.2-1.2l0-10.6l1.7-3L27.9,10z"/>
	<path class="st2" d="M24.2,15.9c0.5,0,0.9,0.4,0.9,0.9c0,0.5-0.4,0.9-0.9,0.9c-0.5,0-0.9-0.4-0.9-0.9
		C23.3,16.3,23.7,15.9,24.2,15.9z"/>
	<path class="st3" d="M22.3,6.1l3.8,0c0.3,0,0.5,0.2,0.5,0.5l0,0.9c0,0.3-0.2,0.5-0.5,0.5l-3.8,0c-0.3,0-0.5-0.2-0.5-0.5l0-0.9
		C21.8,6.3,22,6.1,22.3,6.1z"/>
	<rect x="22.4" y="12.2" class="st3" width="3.7" height="0.5"/>
	<rect x="22.4" y="13.7" class="st3" width="3.7" height="0.5"/>
	<rect x="22.4" y="10.7" class="st3" width="3.7" height="0.5"/>
	<path class="st1" d="M24.2,16.1c0.4,0,0.7,0.3,0.7,0.7c0,0.4-0.3,0.7-0.7,0.7c-0.4,0-0.7-0.3-0.7-0.7
		C23.5,16.4,23.8,16.1,24.2,16.1z"/>
	<path class="st1" d="M11.6,16.6l4.4,0c0,0.5,0,1,0,1.6c10,0-14.7,0-4.4,0C11.6,17.7,11.6,17.2,11.6,16.6z"/>
	<path class="st0" d="M5.6,4.2l16.6,0c0.7,0,1.2,0.5,1.2,1.2l0,10c0,0.7-0.5,1.2-1.2,1.2l-16.6,0c-0.7,0-1.2-0.5-1.2-1.2l0-10
		C4.4,4.8,4.9,4.2,5.6,4.2z"/>
	<path class="st4" d="M5.7,5.1l16.4,0c0.3,0,0.5,0.2,0.5,0.5l0,9.6c0,0.3-0.2,0.5-0.5,0.5l-16.4,0c-0.3,0-0.5-0.2-0.5-0.5l0-9.6
		C5.1,5.3,5.4,5.1,5.7,5.1z"/>
	<path class="st4" d="M13.9,5.1l8.1,0c0.3,0,0.5,0.2,0.5,0.5l0,9.6c0,0.3-0.2,0.5-0.5,0.5l-8.1,0L13.9,5.1z"/>
	<path class="st5" d="M14.1,16c0,0-0.1-0.1-0.2-0.1s-0.1,0-0.2,0.1c0,0-0.1,0.1-0.1,0.2c0,0.1,0,0.1,0.1,0.2c0,0,0.1,0.1,0.2,0.1
		c0.1,0,0.1,0,0.2-0.1c0,0,0.1-0.1,0.1-0.2S14.1,16.1,14.1,16z"/>
	<path class="st0" d="M18.2,18.2c0.3,0,0.5,0.2,0.5,0.5V19l-9.7,0l0-0.4c0-0.3,0.2-0.5,0.5-0.5C12.9,18.2,14.7,18.2,18.2,18.2z"/>
	<rect x="7.7" y="7.2" class="st6" width="12.3" height="7.4"/>
	<rect x="7.7" y="6.2" class="st7" width="12.3" height="1.1"/>
	<path class="st8" d="M10.9,9L10.9,9c0.2,0,0.3,0.1,0.3,0.3l0,0c0,0.2-0.1,0.3-0.3,0.3l0,0c-0.2,0-0.3-0.1-0.3-0.3l0,0
		C10.6,9.1,10.7,9,10.9,9z"/>
	<path class="st9" d="M10.9,10.6L10.9,10.6c0.2,0,0.3,0.1,0.3,0.3l0,0c0,0.2-0.1,0.3-0.3,0.3l0,0c-0.2,0-0.3-0.1-0.3-0.3l0,0
		C10.6,10.7,10.7,10.6,10.9,10.6z"/>
	<path class="st10" d="M10.9,12.3L10.9,12.3c0.2,0,0.3,0.1,0.3,0.3l0,0c0,0.2-0.1,0.3-0.3,0.3l0,0c-0.2,0-0.3-0.1-0.3-0.3l0,0
		C10.6,12.5,10.7,12.3,10.9,12.3z"/>
	<rect x="11.8" y="9.1" class="st11" width="4.7" height="0.3"/>
	<rect x="11.8" y="10.8" class="st11" width="5.1" height="0.3"/>
	<rect x="11.8" y="12.5" class="st11" width="4" height="0.3"/>
</g>
</svg>
