<?xml version="1.0" encoding="utf-8"?>
<!-- Generator: Adobe Illustrator 22.1.0, SVG Export Plug-In . SVG Version: 6.00 Build 0)  -->
<svg version="1.1" xmlns="http://www.w3.org/2000/svg" xmlns:xlink="http://www.w3.org/1999/xlink" x="0px" y="0px"
	 viewBox="0 0 11.5 12.3" style="enable-background:new 0 0 11.5 12.3;" xml:space="preserve">
<style type="text/css">
	.st0{fill-rule:evenodd;clip-rule:evenodd;fill:#D0DEFA;}
	.st1{fill-rule:evenodd;clip-rule:evenodd;fill:#B4CCFA;}
	.st2{fill-rule:evenodd;clip-rule:evenodd;fill:#27AE60;}
</style>
<g id="Õ_x2021_Ô_xF8FF__x2021__x201A_Î_x2C7__x2DB__x2D8_ËÂ__x2030_Î_x2C7__ÏÓÌÚ_x2021_ÊÌÓÈ_Ó·Î_x2021_ÒÚË">
</g>
<g id="_x2014_ÎÓÈ_1">
	<g>
		<path class="st0" d="M8.9,3.5C8.5,3.1,8,2.8,7.5,2.6C7,2.4,6.5,2.3,5.9,2.3S4.8,2.4,4.3,2.6c-0.5,0.2-1,0.5-1.4,0.9
			C2.5,3.9,2.2,4.3,2,4.9c-0.2,0.5-0.3,1-0.3,1.6S1.8,7.6,2,8.1c0.2,0.5,0.5,1,0.9,1.4c0.4,0.4,0.9,0.7,1.4,0.9
			c0.5,0.2,1,0.3,1.6,0.3s1.1-0.1,1.6-0.3c0.5-0.2,1-0.5,1.4-0.9c0.4-0.4,0.7-0.9,0.9-1.4c0.2-0.5,0.3-1,0.3-1.6S10,5.4,9.8,4.9
			C9.6,4.3,9.2,3.9,8.9,3.5z"/>
		<path class="st1" d="M8.6,3.8C8.2,3.4,7.8,3.1,7.4,2.9c-0.5-0.2-1-0.3-1.5-0.3c-0.5,0-1,0.1-1.5,0.3C3.9,3.1,3.5,3.4,3.2,3.8
			C2.8,4.1,2.5,4.5,2.3,5C2.1,5.5,2,5.9,2,6.5s0.1,1,0.3,1.5c0.2,0.5,0.5,0.9,0.8,1.2C3.5,9.5,3.9,9.8,4.4,10c0.5,0.2,1,0.3,1.5,0.3
			c0.5,0,1-0.1,1.5-0.3c0.5-0.2,0.9-0.5,1.2-0.8C9,8.8,9.2,8.4,9.4,7.9c0.2-0.5,0.3-1,0.3-1.5S9.6,5.5,9.4,5C9.2,4.5,9,4.1,8.6,3.8z
			"/>
		<path class="st2" d="M5.6,2.6C4.7,2.7,3.8,3.1,3.2,3.7C2.8,4.1,2.5,4.5,2.3,5c-0.4,0.9-0.4,2,0,3C2.5,8.3,2.7,8.7,3,9
			c0,0,0,0,0.1,0c0,0,0.1,0,0.1,0c0.3-0.3,1-0.5,1-0.9c0-0.3-0.4-0.4-0.6-0.7c-0.1-0.3,0-0.7-0.2-1C3.2,6.2,2.5,6.2,2.3,5.9
			c-0.1-0.2,0-0.4,0-0.6c0-0.1,0.1-0.1,0.2-0.1c0.1,0,0.2,0,0.3,0c0,0,1.1-0.2,1.4-0.3c0.3-0.1,0.2-0.3,0.3-0.4
			C4.7,4.4,5,4.9,5.2,4.7c0.2-0.2,0.4-1.1,0.5-1.4c0.1-0.2,0.4,0,0.5,0c0.1,0-0.1,0.5,0,0.5C6.2,4,6.6,3.7,6.7,3.7
			C7,3.3,6.9,3.1,6.7,2.9C6.6,2.8,6,3,5.6,2.6C5.7,2.6,5.7,2.6,5.6,2.6z"/>
		<path class="st2" d="M8.8,4C8.9,4.1,9.3,4.7,9.5,5c0.2,0.5,0.3,1,0.3,1.5c0,0.5-0.1,1-0.3,1.5C9.2,8.4,8.9,8.9,8.6,9.2
			C8.2,9.6,7.8,9.9,7.3,10c-0.2,0.1,0.3-0.6,0-0.9C7,8.8,5.6,9.2,5.6,8.5c0-0.7,0.4-0.7,0.5-1.1C6.3,7,6.5,7.3,7.2,7.1
			c0.7-0.2,1.6-0.2,2-0.5c0.3-0.3-1.2,0.1-1.4,0C7.5,6.5,7.4,6.1,7.2,6.1C7,6.2,7.1,6.5,6.9,6.6C6.7,6.6,6.1,6.7,6.1,6.5
			c-0.1-1,0.6-0.7,0.6-0.7c0.2-0.2-0.2-0.4,0-0.7C7,4.7,7.3,4.7,7.4,4.5c0.1-0.2-0.3-0.4-0.1-0.6C7.5,3.7,8.7,3.8,8.8,4z"/>
	</g>
</g>
</svg>
