<?xml version="1.0" encoding="utf-8"?>
<!-- Generator: Adobe Illustrator 22.1.0, SVG Export Plug-In . SVG Version: 6.00 Build 0)  -->
<svg version="1.1" xmlns="http://www.w3.org/2000/svg" xmlns:xlink="http://www.w3.org/1999/xlink" x="0px" y="0px"
	 viewBox="0 0 513 527" enable-background="new 0 0 513 527" xml:space="preserve">
<g id="Guides_For_Artboard">
</g>
<g id="Layer_1">
	<g>
		<g>
			<g>
				<g>
					<path fill="rgb(80, 80, 105)" d="M323.732,411.202c-1.919,0-3.839-0.732-5.303-2.196L238.6,329.177
						c-14.332-14.333-14.332-37.654,0-51.987c14.334-14.334,37.655-14.333,51.988-0.001l62.65,62.65
						c2.929,2.93,2.929,7.678,0,10.607c-2.929,2.928-7.678,2.928-10.607,0l-62.65-62.65c-8.484-8.486-22.29-8.484-30.775,0
						c-8.484,8.484-8.484,22.29,0,30.773l79.829,79.829c2.929,2.93,2.929,7.678,0,10.607
						C327.571,410.47,325.652,411.202,323.732,411.202z"/>
					<path fill="rgb(80, 80, 105)" d="M266.499,408.661c-5.602,0-11.216-0.941-16.583-2.857l-78.081-27.867
						c-15.229-5.434-24.944-20.486-23.624-36.603l2.369-28.915c0.338-4.128,3.971-7.211,8.087-6.862
						c4.128,0.338,7.201,3.959,6.863,8.087l-2.369,28.915c-0.767,9.357,4.874,18.097,13.715,21.252l78.081,27.867
						c10.139,3.617,21.563,2.251,30.561-3.657l14.9-9.783c3.462-2.273,8.112-1.31,10.386,2.153
						c2.273,3.463,1.309,8.112-2.153,10.386l-14.9,9.782C285.609,405.905,276.077,408.66,266.499,408.661z"/>
					<path fill="rgb(80, 80, 105)" d="M425.271,521.844c-3.746,0-6.984-2.802-7.438-6.614l-22.35-187.704
						c-2.9-24.409-17.865-45.203-40.061-55.704l-97.733-33.117c-3.923-1.329-6.026-5.588-4.696-9.511
						c1.329-3.923,5.583-6.027,9.51-4.696l98.132,33.253c0.259,0.088,0.514,0.19,0.763,0.307
						c27.137,12.655,45.447,37.962,48.98,67.697l22.349,187.702c0.49,4.113-2.447,7.845-6.56,8.334
						C425.866,521.826,425.567,521.844,425.271,521.844z"/>
					<path fill="rgb(80, 80, 105)" d="M271.315,485.58c-1.193,0-2.315-0.082-3.372-0.244l-59.387-9.122
						c-16.769-2.575-29.879-16.14-31.883-32.986l-2.069-17.39c-8.956-5.524-15.335-14.645-17.297-25.49
						c-0.07-0.389-0.11-0.782-0.118-1.177l-0.73-34.684c-0.087-4.142,3.2-7.569,7.341-7.656c4.157-0.053,7.569,3.199,7.656,7.34
						l0.716,34.05c1.862,9.073,8.872,16.05,18,17.851l71.666,14.139c5.855,1.154,11.85,0.528,17.341-1.814l32.999-14.089
						c1.956-0.836,4.173-0.802,6.102,0.095c1.929,0.895,3.387,2.566,4.012,4.599l4.927,16.022c1.285,4.18,1.391,9.605,0.325,16.584
						c-1.476,9.667-8.065,17.975-17.197,21.679c-13.931,5.649-22.788,9.047-26.324,10.098
						C279.075,484.853,274.88,485.58,271.315,485.58z M190.372,431.4l1.196,10.056c1.211,10.18,9.133,18.376,19.265,19.932
						l59.386,9.122c0.885,0.139,3.583,0.261,9.533-1.506c2.945-0.875,12.042-4.381,24.957-9.619
						c4.256-1.727,7.325-5.575,8.007-10.043c0.962-6.3,0.436-9.03,0.165-9.911l-2.477-8.057l-25.336,10.816
						c-8.275,3.531-17.311,4.477-26.135,2.736L190.372,431.4z"/>
					<path fill="rgb(80, 80, 105)" d="M300.934,515.004c-0.381,0-0.767-0.029-1.156-0.089l-39.976-6.184
						c-16.926-2.617-30.487-15.061-34.546-31.701c-0.982-4.023,1.484-8.082,5.508-9.064c4.026-0.98,8.082,1.483,9.064,5.509
						c2.617,10.725,11.357,18.745,22.267,20.432l39.977,6.184c4.093,0.634,6.898,4.465,6.265,8.559
						C307.763,512.354,304.57,515.004,300.934,515.004z"/>
				</g>
			</g>
			<path fill="rgb(80, 80, 105)" d="M315.117,428.705c-3.498,0-6.627-2.459-7.344-6.02l-5.741-28.494c-0.818-4.061,1.81-8.016,5.871-8.834
				c4.063-0.817,8.016,1.812,8.833,5.871l5.741,28.494c0.818,4.061-1.81,8.016-5.871,8.834
				C316.106,428.657,315.607,428.705,315.117,428.705z"/>
		</g>
		<path fill="rgb(80, 80, 105)" d="M97.257,363.682c-1.359,0-2.722-0.369-3.931-1.113c-2.591-1.595-3.962-4.597-3.47-7.6l17.413-106.275
			l-88.403-63.942c-2.473-1.789-3.615-4.896-2.889-7.861c0.725-2.964,3.175-5.192,6.194-5.636l107.252-15.763l32.635-104.285
			c0.913-2.917,3.505-4.988,6.552-5.235c3.049-0.249,5.938,1.38,7.309,4.113l48.988,97.675l108.391-1.698
			c3.042-0.086,5.827,1.758,7.02,4.566c1.193,2.809,0.566,6.061-1.587,8.224l-76.963,77.332l10.966,32.653
			c1.319,3.927-0.795,8.179-4.722,9.497c-3.927,1.32-8.179-0.796-9.498-4.722l-12.441-37.047c-0.904-2.692-0.21-5.665,1.794-7.679
			l67.216-67.538l-94.65,1.483c-2.9,0.034-5.531-1.562-6.822-4.137l-42.781-85.298l-28.5,91.07c-0.86,2.748-3.218,4.762-6.067,5.18
			l-93.656,13.765l77.208,55.844c2.301,1.665,3.465,4.486,3.006,7.29l-15.207,92.81l76.323-55.616
			c2.276-1.657,5.287-1.901,7.801-0.632l46.977,23.753c3.696,1.869,5.178,6.381,3.309,10.077c-1.87,3.696-6.381,5.18-10.077,3.31
			l-42.883-21.684l-87.389,63.681C100.363,363.199,98.812,363.682,97.257,363.682z"/>
		<path fill="rgb(80, 80, 105)" d="M308.5,103.5c-4.142,0-7.5-3.357-7.5-7.5V42c0-4.143,3.358-7.5,7.5-7.5c4.142,0,7.5,3.357,7.5,7.5v54
			C316,100.143,312.642,103.5,308.5,103.5z"/>
		<path fill="rgb(80, 80, 105)" d="M444,173h-54c-4.142,0-7.5-3.357-7.5-7.5s3.358-7.5,7.5-7.5h54c4.142,0,7.5,3.357,7.5,7.5
			S448.142,173,444,173z"/>
		<path fill="rgb(80, 80, 105)" d="M365.544,122.086c-1.919,0-3.839-0.732-5.303-2.196c-2.929-2.93-2.929-7.678,0-10.607l38.172-38.173
			c2.929-2.928,7.678-2.928,10.606,0c2.929,2.93,2.929,7.678,0,10.607l-38.172,38.173
			C369.383,121.354,367.464,122.086,365.544,122.086z"/>
	</g>
</g>
</svg>
