<?xml version="1.0" encoding="utf-8"?>
<!-- Generator: Adobe Illustrator 22.1.0, SVG Export Plug-In . SVG Version: 6.00 Build 0)  -->
<svg version="1.1" xmlns="http://www.w3.org/2000/svg" xmlns:xlink="http://www.w3.org/1999/xlink" x="0px" y="0px"
	 viewBox="0 0 482 506" enable-background="new 0 0 482 506" xml:space="preserve">
<g id="Guides_For_Artboard">
</g>
<g id="Layer_1">
	<g>
		<g>
			<path fill="rgb(80, 80, 105)" d="M210.018,481.378c-104.85,0-190.151-85.301-190.151-190.151c0-104.85,85.301-190.151,190.151-190.151
				s190.151,85.301,190.151,190.151C400.168,396.077,314.867,481.378,210.018,481.378z M210.018,116.076
				c-96.579,0-175.151,78.572-175.151,175.151c0,96.579,78.572,175.151,175.151,175.151s175.151-78.572,175.151-175.151
				C385.168,194.648,306.596,116.076,210.018,116.076z"/>
			<g>
				<path fill="rgb(80, 80, 105)" d="M168.139,256.672c-4.142,0-7.5-3.358-7.5-7.5c0-13.598-11.062-24.661-24.661-24.661
					c-13.598,0-24.661,11.062-24.661,24.661c0,4.142-3.358,7.5-7.5,7.5c-4.142,0-7.5-3.358-7.5-7.5
					c0-21.869,17.792-39.661,39.661-39.661c21.869,0,39.661,17.792,39.661,39.661C175.639,253.314,172.281,256.672,168.139,256.672z
					"/>
				<path fill="rgb(80, 80, 105)" d="M316.217,256.672c-4.142,0-7.5-3.358-7.5-7.5c0-13.598-11.062-24.661-24.661-24.661
					c-13.598,0-24.661,11.062-24.661,24.661c0,4.142-3.358,7.5-7.5,7.5c-4.142,0-7.5-3.358-7.5-7.5
					c0-21.869,17.792-39.661,39.661-39.661c21.869,0,39.661,17.792,39.661,39.661C323.717,253.314,320.359,256.672,316.217,256.672z
					"/>
			</g>
			<path fill="rgb(80, 80, 105)" d="M210.1,424.975c-71.233,0-129.185-57.952-129.185-129.185c0-4.142,3.358-7.5,7.5-7.5h243.37
				c4.142,0,7.5,3.358,7.5,7.5C339.285,367.023,281.332,424.975,210.1,424.975z M96.158,303.29
				c3.877,59.478,53.5,106.685,113.941,106.685s110.064-47.207,113.941-106.685H96.158z"/>
		</g>
		<path fill="rgb(80, 80, 105)" d="M316.5,90.5c-4.142,0-7.5-3.358-7.5-7.5V29c0-4.142,3.358-7.5,7.5-7.5c4.142,0,7.5,3.358,7.5,7.5v54
			C324,87.142,320.642,90.5,316.5,90.5z"/>
		<path fill="rgb(80, 80, 105)" d="M452,160h-54c-4.142,0-7.5-3.358-7.5-7.5c0-4.142,3.358-7.5,7.5-7.5h54c4.142,0,7.5,3.358,7.5,7.5
			C459.5,156.642,456.142,160,452,160z"/>
		<path fill="rgb(80, 80, 105)" d="M373.439,108.888c-1.919,0-3.839-0.732-5.303-2.197c-2.929-2.929-2.929-7.678,0-10.606l38.172-38.172
			c2.929-2.929,7.678-2.929,10.606,0c2.929,2.929,2.929,7.678,0,10.606l-38.172,38.172
			C377.278,108.155,375.359,108.888,373.439,108.888z"/>
	</g>
</g>
</svg>
