<?xml version="1.0" encoding="utf-8"?>
<!-- Generator: Adobe Illustrator 22.1.0, SVG Export Plug-In . SVG Version: 6.00 Build 0)  -->
<svg version="1.1" xmlns="http://www.w3.org/2000/svg" xmlns:xlink="http://www.w3.org/1999/xlink" x="0px" y="0px"
	 viewBox="0 0 269 528" enable-background="new 0 0 269 528" xml:space="preserve">
<g id="Guides_For_Artboard">
</g>
<g id="Layer_1">
	<g>
		<g>
			<path fill="rgb(80, 80, 105)" d="M89.475,78.182c-2.966,0-5.775-1.771-6.956-4.691L68.8,39.555c-1.553-3.84,0.302-8.212,4.142-9.764
				c3.839-1.553,8.211,0.301,9.764,4.142l13.719,33.936c1.553,3.84-0.302,8.212-4.142,9.764
				C91.362,78.006,90.411,78.182,89.475,78.182z"/>
			<path fill="rgb(80, 80, 105)" d="M49.027,100.365c-1.919,0-3.839-0.732-5.303-2.197L17.328,71.772c-2.929-2.929-2.929-7.678,0-10.606
				c2.929-2.929,7.678-2.929,10.607,0L54.33,87.562c2.929,2.929,2.929,7.678,0,10.606C52.866,99.632,50.946,100.365,49.027,100.365z
				"/>
			<path fill="rgb(80, 80, 105)" d="M132.5,74.5c-4.142,0-7.5-3.358-7.5-7.5V29c0-4.142,3.358-7.5,7.5-7.5s7.5,3.358,7.5,7.5v38
				C140,71.142,136.642,74.5,132.5,74.5z"/>
			<path fill="rgb(80, 80, 105)" d="M175.489,78.182c-0.936,0-1.887-0.176-2.809-0.549c-3.84-1.552-5.695-5.924-4.142-9.764l13.719-33.936
				c1.552-3.84,5.922-5.695,9.764-4.142c3.84,1.552,5.695,5.924,4.142,9.764l-13.719,33.936
				C181.265,76.41,178.456,78.182,175.489,78.182z"/>
			<path fill="rgb(80, 80, 105)" d="M215.937,100.365c-1.919,0-3.839-0.732-5.303-2.197c-2.929-2.929-2.929-7.678,0-10.606l26.395-26.396
				c2.929-2.929,7.678-2.929,10.606,0c2.929,2.929,2.929,7.678,0,10.606L221.24,98.168
				C219.776,99.632,217.856,100.365,215.937,100.365z"/>
		</g>
		<g>
			<path fill="rgb(80, 80, 105)" d="M132.074,280.47c-21.182,0-38.415-17.233-38.415-38.415c0-21.182,17.233-38.415,38.415-38.415
				c21.182,0,38.415,17.233,38.415,38.415C170.489,263.237,153.256,280.47,132.074,280.47z M132.074,218.641
				c-12.911,0-23.415,10.504-23.415,23.415c0,12.911,10.504,23.415,23.415,23.415c12.911,0,23.415-10.504,23.415-23.415
				C155.489,229.145,144.985,218.641,132.074,218.641z"/>
			<path fill="rgb(80, 80, 105)" d="M83.405,447.452c-0.043,0-0.086,0-0.13-0.001c-4.142-0.07-7.442-3.485-7.372-7.626l1.257-74.019
				l-0.849-72.348L50.506,131.296c-0.028-0.179-0.051-0.359-0.066-0.54c-1.084-12.673,7.937-23.962,20.537-25.7
				c12.665-1.749,24.392,6.71,26.744,19.264l19.652,94.536c0.843,4.055-1.761,8.026-5.817,8.869c-4.053,0.847-8.026-1.76-8.87-5.816
				l-19.667-94.615c-0.012-0.058-0.024-0.117-0.035-0.175c-0.859-4.69-5.236-7.856-9.957-7.203
				c-4.611,0.636-7.935,4.711-7.658,9.332l25.843,162.394c0.058,0.361,0.088,0.725,0.093,1.091l0.857,73.004
				c0.001,0.072,0.001,0.144,0,0.215l-1.259,74.128C90.832,444.178,87.488,447.452,83.405,447.452z"/>
			<path fill="rgb(80, 80, 105)" d="M156.726,506.826c-12.218,0-22.161-7.189-27.279-19.722l-10.561-25.86
				c-1.566-3.835,0.274-8.213,4.108-9.779c3.833-1.565,8.212,0.272,9.779,4.108l10.56,25.86
				c4.244,10.393,11.13,10.393,13.393,10.393c3.999,0,7.482-1.418,10.073-4.101c3.072-3.18,4.73-7.988,4.549-13.19l-3.767-108.45
				c-0.009-0.27-0.004-0.541,0.016-0.811l5.37-73.004c0.017-0.226,0.044-0.452,0.081-0.676l26.785-161.656
				c0.323-5.312-3.495-9.996-8.795-10.727c-5.428-0.749-10.449,2.886-11.436,8.274l-17.445,94.953
				c-0.748,4.074-4.659,6.771-8.731,6.021c-4.074-0.749-6.77-4.658-6.021-8.732l17.444-94.949
				c2.437-13.301,14.838-22.277,28.24-20.427c13.297,1.834,22.816,13.747,21.672,27.121c-0.017,0.196-0.041,0.392-0.074,0.587
				l-26.784,161.651l-5.315,72.259l3.753,108.044c0.321,9.246-2.869,18.041-8.751,24.131
				C172.182,503.743,164.773,506.826,156.726,506.826z"/>
			<path fill="rgb(80, 80, 105)" d="M95.584,506.826c-13.6,0-26.03-7.451-32.44-19.446l-41.826-78.273c-0.031-0.058-0.061-0.116-0.09-0.175
				c-6.657-13.284-1.645-29.248,11.409-36.344c6.447-3.504,13.871-4.28,20.9-2.189c7.032,2.093,12.822,6.803,16.303,13.262
				l20.417,37.888c1.965,3.646,0.602,8.195-3.044,10.161c-3.648,1.964-8.195,0.601-10.161-3.044l-20.417-37.888
				c-1.575-2.923-4.195-5.054-7.377-6.001c-3.183-0.948-6.541-0.596-9.457,0.99c-5.881,3.197-8.154,10.373-5.201,16.368
				l41.774,78.176c3.796,7.103,11.156,11.516,19.21,11.516c11.324,0,20.864-8.845,21.718-20.137l6.137-81.09
				c0.312-4.13,3.92-7.218,8.044-6.913c4.13,0.312,7.225,3.914,6.913,8.044l-6.137,81.09
				C130.817,491.889,114.707,506.826,95.584,506.826z"/>
		</g>
	</g>
</g>
</svg>
