<?xml version="1.0" encoding="utf-8"?>
<!-- Generator: Adobe Illustrator 22.1.0, SVG Export Plug-In . SVG Version: 6.00 Build 0)  -->
<svg version="1.1" id="Layer_1" xmlns="http://www.w3.org/2000/svg" xmlns:xlink="http://www.w3.org/1999/xlink" x="0px" y="0px"
	 viewBox="0 0 10.3 14.1" style="enable-background:new 0 0 10.3 14.1;" xml:space="preserve">
<style type="text/css">
	.st0{fill:#FFFFFF;}
	.st1{fill:#404040;}
	.st2{fill:#FFD0CC;}
	.st3{fill:#F1C14F;}
	.st4{fill:#4B89C6;}
	.st5{fill:#946290;}
	.st6{fill:#54A847;}
	.st7{fill:#E08C35;}
	.st8{fill:#B0775A;}
</style>
<g>
	<g>
		<g>
			<path class="st0" d="M67.1,11.9c0,0-0.6-1.1-1.6-2c-1-0.8-1.9-0.8-1.9-0.8s-0.5,1-1.6,1c-1.3,0-1.7-1.1-1.7-1.1s-0.4-0.1-1,0.1
				c-0.1-0.4-0.3-0.9-0.5-0.9c-0.2,0-0.3,0.7-0.3,1.3c-0.1,0.1-0.2,0.1-0.3,0.2c-1.1,0.9-1.2,1.9-1.2,1.9h-0.8v1.8h1.1l0.6,0.8
				l0.7,0.9v1.3h1.5v-0.8h4v0.8h1.7l0-1.4c0,0,0.6-0.5,1.1-1.3c0.2-0.4,0.3-1,0.4-1.3c0.2-0.4,0.5-0.5,0.5-0.5L67.1,11.9z"/>
		</g>
	</g>
	<g>
		<path class="st1" d="M58.2,11.4c-0.2,0-0.4-0.2-0.4-0.4c0-0.2,0.2-0.4,0.4-0.4c0.2,0,0.4,0.2,0.4,0.4
			C58.6,11.3,58.4,11.4,58.2,11.4z"/>
	</g>
	<g>
		<path class="st2" d="M67.5,12l-0.4,0c0,0-0.6-1.1-1.6-2c-1-0.8-1.9-0.8-1.9-0.8s-0.5,1-1.6,1c-0.5,0-0.9-0.2-1.2-0.4
			c-1,0.7-1.6,1.8-1.6,2.9c0,1.2,0.6,2.3,1.6,3h3.2v0.8c0.6-0.1,1.2,0.1,1.7-0.2l0-1.2c0,0,0.6-0.5,1.1-1.3c0.2-0.4,0.3-1,0.4-1.3
			C67.3,12.2,67.5,12.1,67.5,12C67.5,12,67.5,12,67.5,12z"/>
	</g>
	<g>
		<g>
			<path class="st1" d="M65.6,16.8h-1.7c-0.1,0-0.2-0.1-0.2-0.2v-0.6h-3.5v0.6c0,0.1-0.1,0.2-0.2,0.2h-1.5c-0.1,0-0.2-0.1-0.2-0.2
				v-1.2l-1.1-1.5h-1c-0.1,0-0.2-0.1-0.2-0.2v-1.8c0-0.1,0.1-0.2,0.2-0.2h0.6c0.1-0.4,0.4-1.1,1.3-1.9c0.1-0.1,0.2-0.1,0.2-0.2
				c0.1-1.1,0.2-1.3,0.5-1.4C59,8,59.2,8.5,59.4,8.9c0.5-0.1,0.9,0,0.9,0c0.1,0,0.2,0.1,0.2,0.2c0,0,0.4,1,1.5,1
				c0.9,0,1.4-0.9,1.4-0.9C63.4,9,63.5,9,63.6,9c0,0,1,0,2.1,0.8c0.9,0.7,1.5,1.6,1.6,1.9l0.4,0c0.1,0,0.2,0.1,0.2,0.2
				c0,0.1-0.1,0.2-0.2,0.3l0,0c0,0-0.2,0.1-0.3,0.4c-0.1,0.1-0.1,0.3-0.2,0.5c-0.1,0.3-0.1,0.6-0.3,0.8c-0.4,0.7-0.9,1.1-1.1,1.3
				l0,1.3C65.9,16.7,65.8,16.8,65.6,16.8z M64.2,16.3h1.2l0-1.2c0-0.1,0-0.1,0.1-0.2c0,0,0.6-0.5,1-1.2c0.1-0.2,0.2-0.4,0.2-0.7
				c0.1-0.2,0.1-0.5,0.2-0.6c0-0.1,0.1-0.1,0.1-0.2c-0.1,0-0.1-0.1-0.2-0.1c0,0-0.6-1.1-1.6-1.9c-0.7-0.6-1.4-0.7-1.6-0.7
				c-0.2,0.3-0.8,1-1.7,1c-1.2,0-1.7-0.8-1.9-1.1c-0.2,0-0.4,0-0.8,0.1c-0.1,0-0.3,0-0.3-0.2c-0.1-0.3-0.2-0.5-0.3-0.6
				c0,0.1-0.1,0.4-0.1,0.9c0,0.1,0,0.2-0.1,0.2c-0.1,0.1-0.2,0.1-0.3,0.2c-1,0.8-1.1,1.7-1.1,1.8c0,0.1-0.1,0.2-0.2,0.2h-0.5v1.3
				h0.8c0.1,0,0.1,0,0.2,0.1l1.3,1.6c0,0,0.1,0.1,0.1,0.1v1.1h1v-0.6c0-0.1,0.1-0.2,0.2-0.2h4c0.1,0,0.2,0.1,0.2,0.2V16.3z"/>
		</g>
	</g>
	<g>
		<path class="st0" d="M61.9,9.3c0.7,0,1.3-0.6,1.3-1.3c0-0.7-0.6-1.3-1.3-1.3c-0.7,0-1.3,0.6-1.3,1.3C60.6,8.7,61.2,9.3,61.9,9.3z"
			/>
	</g>
	<g>
		<path class="st3" d="M61.2,8.6c0,0.2,0.1,0.5,0.2,0.7c0.2,0.1,0.4,0.2,0.7,0.2c0.7,0,1.3-0.6,1.3-1.3c0-0.2-0.1-0.5-0.2-0.7
			c-0.2-0.1-0.4-0.2-0.7-0.2C61.8,7.3,61.2,7.8,61.2,8.6z"/>
	</g>
	<g>
		<path class="st1" d="M61.9,9.5c-0.9,0-1.6-0.7-1.6-1.6c0-0.9,0.7-1.6,1.6-1.6c0.9,0,1.6,0.7,1.6,1.6C63.5,8.8,62.8,9.5,61.9,9.5z
			 M61.9,6.9c-0.6,0-1.1,0.5-1.1,1.1c0,0.6,0.5,1.1,1.1,1.1C62.5,9,63,8.6,63,8C63,7.4,62.5,6.9,61.9,6.9z"/>
	</g>
</g>
<g>
	<g>
		<g>
			<g>
				<g>
					<g>
						<path class="st0" d="M5.1,1.9c-1.9,0-3.5,1.5-3.5,3.3c0,1.3,0.7,2.2,1.3,2.8c0.3,0.3,0.5,0.6,0.5,0.8c0.1,0.2,0.1,0.4,0.1,0.5
							c0,0.3,0,0.3,0.2,0.4c0.4,0.1,2.5,0.1,2.9,0c0.2,0,0.2-0.1,0.2-0.4c0-0.1,0-0.3,0.1-0.5C7,8.6,7.2,8.4,7.5,8.1
							C8,7.4,8.7,6.5,8.7,5.2C8.7,3.4,7.1,1.9,5.1,1.9L5.1,1.9z"/>
					</g>
				</g>
			</g>
		</g>
	</g>
	<g>
		<path class="st3" d="M7.1,2.6c-2,0-3.7,1.6-3.7,3.6S5,9.3,5.2,9.9c0,0.1,0,0.1,0,0.2c0.6,0,1.3,0,1.5-0.1C7.1,9.8,7,9.5,7.1,8.9
			C7.3,8.3,9,7.2,9,5.2c0-1-0.5-1.9-1.2-2.5C7.6,2.6,7.4,2.6,7.1,2.6L7.1,2.6z"/>
	</g>
	<g>
		<g>
			<g>
				<g>
					<g>
						<g>
							<path class="st1" d="M5.2,10.3c-0.7,0-1.3,0-1.6-0.1c-0.5-0.1-0.5-0.5-0.5-0.8C3.1,9.3,3,9.2,3,9c0-0.1-0.2-0.4-0.5-0.6
								C2,7.7,1.2,6.7,1.2,5.2c0-2.1,1.8-3.8,4-3.8h0.1c2.2,0,4,1.7,4,3.8c0,1.4-0.8,2.5-1.4,3.1C7.6,8.6,7.4,8.9,7.4,9
								C7.3,9.2,7.3,9.3,7.3,9.5c0,0.3-0.1,0.6-0.5,0.8C6.5,10.3,5.8,10.3,5.2,10.3z M5.1,1.9c-1.9,0-3.5,1.5-3.5,3.3
								c0,1.3,0.7,2.2,1.3,2.8c0.3,0.3,0.5,0.6,0.5,0.8c0.1,0.2,0.1,0.4,0.1,0.5c0,0.3,0,0.3,0.2,0.4c0.4,0.1,2.5,0.1,2.9,0
								c0.2,0,0.2-0.1,0.2-0.4c0-0.1,0-0.3,0.1-0.5C7,8.6,7.2,8.4,7.5,8.1C8,7.4,8.7,6.5,8.7,5.2C8.7,3.4,7.1,1.9,5.1,1.9L5.1,1.9z"
								/>
						</g>
					</g>
				</g>
			</g>
		</g>
		<g>
			<g>
				<rect x="3.5" y="10.7" class="st4" width="3.4" height="0.5"/>
			</g>
		</g>
		<g>
			<g>
				<rect x="3.5" y="11.6" class="st4" width="3.4" height="0.5"/>
			</g>
		</g>
		<g>
			<g>
				<rect x="3.5" y="12.4" class="st4" width="3.4" height="0.5"/>
			</g>
		</g>
	</g>
</g>
<g>
	<g>
		<polygon class="st0" points="216.3,3.6 220.4,1.8 220.4,8.6 216.2,6.8 216,6.2 215.9,3.8 		"/>
	</g>
	<g>
		<polygon class="st0" points="213.9,9.2 216,9.2 214.8,6.9 215.8,6.9 216,6.6 216,3.4 215.6,3.3 211.8,3.3 211.7,3.7 211.6,6.6
			211.9,6.9 212.7,7 		"/>
	</g>
	<g>
		<path class="st5" d="M223.2,8.1L223,7.9c0.7-0.7,1.2-1.7,1.2-2.8c0-1.1-0.4-2.1-1.2-2.8l0.3-0.3c0.8,0.8,1.3,1.9,1.3,3.1
			C224.5,6.2,224.1,7.3,223.2,8.1z"/>
	</g>
	<g>
		<path class="st5" d="M222.1,7l-0.3-0.3c0.9-0.9,0.9-2.5,0-3.4l0.3-0.3C223.2,4.2,223.2,5.9,222.1,7z"/>
	</g>
	<g>
		<path class="st5" d="M224.3,9.2L224.1,9c1-1,1.6-2.4,1.6-3.9c0-1.5-0.6-2.9-1.6-3.9l0.3-0.3c1.1,1.1,1.7,2.6,1.7,4.2
			C226,6.6,225.4,8.1,224.3,9.2z"/>
	</g>
	<g>
		<path class="st6" d="M213.3,5.4c0.3,0,0.6-0.2,0.6-0.6c0-0.3-0.3-0.6-0.6-0.6c-0.3,0-0.6,0.3-0.6,0.6C212.7,5.2,213,5.4,213.3,5.4
			z"/>
		<path class="st6" d="M213.3,5.5c-0.4,0-0.7-0.3-0.7-0.7c0-0.4,0.3-0.7,0.7-0.7c0.4,0,0.7,0.3,0.7,0.7
			C213.9,5.2,213.6,5.5,213.3,5.5z M213.3,4.4c-0.2,0-0.4,0.2-0.4,0.4c0,0.2,0.2,0.4,0.4,0.4c0.2,0,0.4-0.2,0.4-0.4
			C213.7,4.6,213.5,4.4,213.3,4.4z"/>
	</g>
	<g>
		<rect x="215.7" y="3.6" class="st1" width="0.5" height="2.8"/>
	</g>
	<g>
		<polygon class="st3" points="216.7,6.9 216.7,4.2 220.5,2.5 220.5,8.6 		"/>
	</g>
	<g>
		<polygon class="st7" points="212.9,6.7 214.6,6.7 215.9,9.2 213.8,9.2 212.7,6.8 		"/>
	</g>
	<g>
		<g>
			<path class="st1" d="M216.4,9.4h-2.6l-1.2-2.2H212c-0.2,0-0.3-0.1-0.4-0.2c-0.1-0.1-0.2-0.3-0.2-0.4v-3c0-0.2,0.1-0.3,0.2-0.4
				c0.1-0.1,0.3-0.2,0.4-0.2h3.6c0.2,0,0.3,0.1,0.4,0.2c0,0,0.1,0.1,0.1,0.1l4.5-2v7.7l-4.5-2c0,0-0.1,0.1-0.1,0.1
				c-0.1,0.1-0.3,0.2-0.4,0.2h-0.4L216.4,9.4z M214.1,8.9h1.5l-1.2-2.2h1.2c0,0,0.1,0,0.1,0c0,0,0,0,0-0.1V6.2l4.4,2V2l-4.4,2V3.6
				c0,0,0-0.1,0-0.1c0,0,0,0-0.1,0H212c0,0-0.1,0-0.1,0c0,0,0,0,0,0.1v3c0,0,0,0.1,0,0.1c0,0,0,0,0.1,0h0.9L214.1,8.9z"/>
		</g>
	</g>
</g>
<g>
	<g>
		<polygon class="st8" points="-27.6,294.1 -26.7,293.4 -25.8,294.1 -26.2,293 -25.3,292.4 -26.4,292.4 -26.7,291.4 -27,292.4
			-28.1,292.4 -27.2,293 		"/>
		<polygon class="st8" points="-29,297.6 -28.5,297.2 -28,297.6 -28.2,297 -27.6,296.6 -28.3,296.6 -28.5,296 -28.7,296.6
			-29.3,296.6 -28.8,297 		"/>
		<path class="st1" d="M-25.2,298.8c-0.1-0.1-0.2-0.1-0.3-0.1c-0.7,0.3-1.4,0.5-2.1,0.5c-2.6,0-4.7-2.1-4.7-4.7
			c0-0.8,0.2-1.6,0.6-2.3c0.1-0.1,0-0.2,0-0.3c-0.1-0.1-0.2-0.1-0.3,0c-1.8,0.9-2.8,2.6-2.8,4.6c0,2.8,2.3,5.1,5.1,5.1
			c1.9,0,3.6-1,4.5-2.6C-25.1,299-25.1,298.9-25.2,298.8z M-29.7,301.2c-2.6,0-4.7-2.1-4.7-4.7c0-1.5,0.7-2.9,1.9-3.7
			c-0.2,0.6-0.3,1.2-0.3,1.7c0,2.8,2.3,5.1,5.1,5.1c0.5,0,1-0.1,1.5-0.2C-26.9,300.6-28.2,301.2-29.7,301.2z"/>
	</g>
	<path class="st8" d="M-29.7,301.2c-2.6,0-4.7-2.1-4.7-4.7c0-1.5,0.7-2.9,1.9-3.7c-0.2,0.6-0.3,1.2-0.3,1.7c0,2.8,2.3,5.1,5.1,5.1
		c0.5,0,1-0.1,1.5-0.2C-26.9,300.6-28.2,301.2-29.7,301.2z"/>
	<g>
		<path class="st0" d="M-33.8,296.6c0-1.2,0.5-2.3,1.2-3.2c0-0.2,0.1-0.4,0.2-0.6c-1.2,0.9-1.9,2.2-1.9,3.7c0,2.6,2.1,4.7,4.7,4.7
			c0.1,0,0.2,0,0.3,0C-31.8,301.1-33.8,299.1-33.8,296.6z"/>
	</g>
</g>
</svg>
