<?xml version="1.0" encoding="utf-8"?>
<!-- Generator: Adobe Illustrator 22.1.0, SVG Export Plug-In . SVG Version: 6.00 Build 0)  -->
<svg version="1.1" id="Layer_1" xmlns="http://www.w3.org/2000/svg" xmlns:xlink="http://www.w3.org/1999/xlink" x="0px" y="0px"
	 viewBox="0 0 1065.235 1036.334" enable-background="new 0 0 1065.235 1036.334" xml:space="preserve">
<g>
	<path fill="#9483AE" d="M540.931,995.719c-132.826-3.364-247.381-49.1-340.845-143.104
		c-87.077-87.58-133.8-194.674-138.444-317.571c-5.3-140.259,42.64-262.095,142.607-361.243
		C289.567,89.182,393.656,42.862,513.697,36.516c142.445-7.531,265.698,39.816,366.863,140.152
		c86.288,85.581,132.827,190.806,139.168,312.138c7.151,136.824-36.534,256.783-130.698,356.287
		C794.791,944.676,676.897,992.605,540.931,995.719z M604.622,396.21c-1.999-30.655-16.076-51.806-44.128-63.251
		c-1.193-0.486-2.249-2.682-2.377-4.167c-0.599-6.941-3.048-9.323-9.922-9.677c-1.683-0.087-3.977-0.897-4.831-2.159
		c-2.692-3.981-6.168-6.02-10.866-5.641c-4.754,0.383-7.398,3.642-8.787,7.787c-0.71,2.118-0.79,4.555-0.66,6.82
		c0.179,3.127-0.73,4.639-4.011,5.595c-13.257,3.863-24.449,11.195-33.171,21.889c-2.296,2.815-4.493,3.833-7.931,3.736
		c-7.206-0.202-14.422-0.061-21.874-0.061c-0.279,11.51,0.125,22.212,9.695,29.119c5.108,3.687,5.749,7.653,4.434,12.94
		c-0.245,0.152-0.513,0.359-0.811,0.498c-10.366,4.843-14.064,11.133-12.358,21.031c1.395,8.092,7.785,12.749,18.3,13.818
		c1.386,0.141,3.392,1.859,3.759,3.213c5.952,21.945,19.667,36.368,41.218,43.537c1.545,0.514,3.167,2.154,3.845,3.675
		c2.577,5.783,7.2,9.243,13.477,9.309c6.998,0.074,14.054,0.543,20.974-0.198c3.65-0.391,8.738-2.069,10.237-4.788
		c3.247-5.886,7.656-6.335,13.112-5.884c1.316,0.109,2.656-0.125,3.983-0.105c8.378,0.125,20.726-9.487,21.125-20.447
		c0.294-8.083,0.878-16.156,1.339-24.346c4.722-1.469,8.936-3.532,9.774-9.261c0.113-0.773,1.103-1.557,1.865-2.074
		c7.374-5.003,7.202-15.785-0.223-21.033c-1.184-0.837-1.898-2.546-2.478-3.993c-1.515-3.783-4.016-5.99-8.25-5.889
		C607.613,396.24,606.143,396.21,604.622,396.21z M600.849,230.618c-40.168,0-79.857,0-119.532,0c0,4.983,0,9.568,0,14.214
		c40.005,0,79.694,0,119.532,0C600.849,239.973,600.849,235.506,600.849,230.618z M600.851,560.62c-40.174,0-79.863,0-119.532,0
		c0,4.985,0,9.57,0,14.21c40.007,0,79.696,0,119.532,0C600.851,569.969,600.851,565.502,600.851,560.62z"/>
	<path d="M703.307,471.437c3.53,0,6.942,0.067,10.35-0.013c9.827-0.231,15.631,4.809,19.147,13.446
		c1.345,3.303,3.002,7.205,5.751,9.116c17.231,11.982,17.632,36.599,0.518,48.021c-1.768,1.18-4.066,2.97-4.329,4.735
		c-1.946,13.079-11.724,17.79-22.684,21.143c-1.07,18.7-2.423,37.131-3.107,55.586c-0.927,25.023-29.582,46.97-49.027,46.684
		c-3.081-0.045-6.191,0.487-9.245,0.239c-12.66-1.028-22.894-0.005-30.429,13.435c-3.48,6.206-15.289,10.038-23.759,10.931
		c-16.059,1.693-32.434,0.622-48.676,0.452c-14.568-0.152-25.295-8.051-31.277-21.255c-1.574-3.473-5.337-7.218-8.923-8.391
		c-50.016-16.369-81.846-49.297-95.659-99.401c-0.852-3.092-5.507-7.015-8.724-7.336c-24.403-2.44-39.234-13.074-42.471-31.548
		c-3.96-22.599,4.623-36.959,28.681-48.017c0.694-0.319,1.314-0.79,1.883-1.138c3.054-12.072,1.566-21.126-10.29-29.545
		c-22.21-15.771-23.149-40.206-22.501-66.484c17.293,0,34.04-0.321,50.765,0.14c7.979,0.22,13.077-2.103,18.406-8.531
		c20.243-24.416,46.216-41.157,76.984-49.977c7.614-2.183,9.724-5.634,9.309-12.773c-0.301-5.171-0.116-10.736,1.531-15.571
		c3.224-9.464,9.361-16.905,20.393-17.78c10.902-0.865,18.97,3.791,25.217,12.88c1.98,2.881,7.305,4.732,11.211,4.93
		c15.952,0.808,21.635,6.248,23.026,22.095c0.297,3.391,2.749,8.404,5.517,9.515C665.998,353.157,698.667,401.447,703.307,471.437z
		 M669.52,527.669c-28.943-4.691-32.669-9.146-32.672-37.726c-0.001-5.325-0.197-10.658,0.041-15.973
		c0.368-8.193-3.336-11.684-11.723-11.662c-51.808,0.139-103.617,0.136-155.425,0.004c-8.484-0.022-11.799,3.717-11.593,11.813
		c0.241,9.485,0.263,18.999-0.211,28.472c-0.64,12.785-9.656,21.998-22.463,23.608c-2.956,0.372-5.944,0.504-11.719,0.974
		c2.225,14.093,2.861,27.714,6.665,40.416c11.481,38.334,36.337,65.214,74.596,79.688c7.019,2.656,12.364,3.892,17.353-4.329
		c2.801-4.616,9.54-9.483,14.706-9.704c23.243-0.997,46.559-0.259,69.847-0.425c4.46-0.032,9.992,0.105,13.201-2.248
		C654.819,605.137,669.686,570.263,669.52,527.669z M576.337,446.354c15.958,0,34.484-0.306,52.994,0.096
		c14.976,0.325,23.309,8.892,23.788,23.673c0.307,9.47-0.388,18.999,0.405,28.416c0.723,8.592,4.614,14.527,16.39,10.019
		c0-12.034,0-24.315,0-37.723c13.086,3.185,17.031-2.094,15.68-13.078c-4.175-33.917-17.572-63.842-43.347-86.726
		c-54.21-48.13-129.132-49.205-185.637-3.765c-4.704,3.783-8.48,8.683-14.651,15.109c28.139,0,52.725-0.518,77.277,0.172
		c18.023,0.506,33.399,8.297,42.068,23.992C567.689,418.097,570.842,431.381,576.337,446.354z M554.158,446.321
		c4.284-25.466-12.988-47.506-37.401-47.783c-44.589-0.505-89.187-0.293-133.781-0.318c-1.83-0.001-3.661,0.625-5.318,0.928
		c-3.62,26.373,14.067,46.963,40.378,47.121c34.73,0.207,69.463,0.051,104.194,0.052
		C532.947,446.321,543.665,446.321,554.158,446.321z M695.478,568.853c-10.002-3.385-13.948-0.67-15.905,6.835
		c-1.509,5.785-4.108,11.342-6.647,16.81c-10.586,22.791-27.107,40.879-47.811,56.063c2.17,2.336,3.669,5.318,5.118,5.295
		c12.225-0.197,24.803,0.645,36.566-1.943c13.612-2.994,23.22-13.274,25.083-26.843C694.429,606.52,694.401,587.629,695.478,568.853
		z M572.22,647.134c0-0.022,0-0.043,0-0.065c-8.068,0-16.153-0.318-24.2,0.085c-9.028,0.452-15.358,4.335-16.09,14.258
		c-0.759,10.285,4.984,16.631,14.288,17.26c16.87,1.139,33.925,1.184,50.796,0.091c9.007-0.584,15.44-6.287,14.906-16.818
		c-0.539-10.619-7.033-14.452-16.651-14.76C587.593,646.938,579.903,647.134,572.22,647.134z M686.059,488.273
		c0,18.76-0.344,36.844,0.372,54.887c0.107,2.699,4.771,6.217,8.075,7.52c3.316,1.308,7.569,0.367,11.41,0.329
		c8.394-0.082,12.831-3.73,12.495-12.548c-0.303-7.934,0.173-15.894,0.147-23.842C718.463,485.401,718.438,485.401,686.059,488.273z
		 M409.077,541.18c0-12.886-0.506-24.989,0.16-37.029c0.536-9.689-4.526-10.816-12.128-9.503
		c-13.539,2.338-21.914,13.774-20.119,27.367C378.794,535.686,391.077,543.325,409.077,541.18z M409.658,477.058
		c5.047,0.822,10.098,1.644,16.113,2.623c0,10.289,0,19.963,0,29.487c12.023,1.24,14.829-0.182,15.469-10.053
		c0.769-11.873,0.182-23.832,0.182-35.886c-11.042,0-21.183,0-31.763,0C409.658,468.183,409.658,472.283,409.658,477.058z
		 M547.642,317.794c-1.685-7.85-2.962-14.747-4.986-21.424c-0.161-0.532-7.592-0.341-8.059,0.861
		c-2.487,6.402-3.831,13.233-5.739,20.563C536.341,317.794,540.76,317.794,547.642,317.794z"/>
	<path fill="#B2A1D6" d="M671.324,165.712c0,11.16,0,21.358,0,32.453c-92.458,0-184.568,0-277.412,0c0-10.607,0-21.077,0-32.453
		C485.991,165.712,578.101,165.712,671.324,165.712z"/>
	<path fill="#B2A1D6" d="M693.756,788.124c0,11.146,0,21.345,0,32.444c-92.453,0-184.563,0-277.412,0c0-10.594,0-21.063,0-32.444
		C508.41,788.124,600.52,788.124,693.756,788.124z"/>
	<path fill="#C0A07A" d="M669.52,527.669c0.166,42.594-14.701,77.468-49.398,102.908c-3.209,2.353-8.741,2.216-13.201,2.248
		c-23.288,0.167-46.604-0.571-69.847,0.425c-5.166,0.221-11.904,5.089-14.706,9.704c-4.99,8.221-10.334,6.984-17.353,4.329
		c-38.259-14.474-63.115-41.354-74.596-79.688c-3.804-12.703-4.44-26.323-6.665-40.416c5.775-0.471,8.763-0.603,11.719-0.974
		c12.807-1.61,21.824-10.823,22.463-23.608c0.474-9.473,0.452-18.987,0.211-28.472c-0.206-8.096,3.109-11.835,11.593-11.813
		c51.808,0.132,103.617,0.135,155.425-0.004c8.387-0.022,12.092,3.468,11.723,11.662c-0.239,5.315-0.042,10.648-0.041,15.973
		C636.851,518.523,640.577,522.978,669.52,527.669z M547.636,574.434c-7.667,0-15.344-0.239-22.998,0.072
		c-6.806,0.276-10.737,3.718-9.975,10.916c1.48,13.986,16.527,29.003,29.262,29.269c19.251,0.401,32.402-9.391,35.622-26.563
		c1.652-8.81-1.392-13.884-11.214-13.717C561.435,574.528,554.534,574.434,547.636,574.434z M515.207,542.259
		c0.007-8.203-7.667-15.554-16.564-15.866c-8.29-0.291-16.489,7.37-16.672,15.579c-0.194,8.716,7.75,16.273,17.14,16.303
		C507.272,558.302,515.2,550.412,515.207,542.259z M596.678,558.273c8.462,0.034,16.198-7.371,16.409-15.707
		c0.2-7.895-7.775-15.784-16.284-16.107c-8.4-0.319-16.658,7.158-16.943,15.343C579.562,550.396,587.566,558.236,596.678,558.273z
		 M619.898,509.763c0-5.666,0-10.06,0-14.565c-16.312,0-31.881,0-47.255,0c0,5.296,0,9.689,0,14.565
		C588.647,509.763,603.92,509.763,619.898,509.763z M522.805,495.269c-16.787,0-32.331,0-47.58,0c0,5.354,0,9.731,0,14.048
		c16.35,0,31.893,0,47.58,0C522.805,504.222,522.805,500.097,522.805,495.269z"/>
	<path fill="#B2A1D6" d="M576.337,446.354c-5.495-14.974-8.649-28.257-15.032-39.815c-8.668-15.695-24.045-23.486-42.068-23.992
		c-24.552-0.69-49.139-0.172-77.277-0.172c6.171-6.426,9.946-11.326,14.651-15.109c56.504-45.44,131.426-44.366,185.637,3.765
		c25.775,22.884,39.172,52.81,43.347,86.726c1.352,10.984-2.593,16.263-15.68,13.078c0,13.408,0,25.689,0,37.723
		c-11.776,4.508-15.667-1.427-16.39-10.019c-0.793-9.418-0.098-18.947-0.405-28.416c-0.479-14.781-8.812-23.348-23.788-23.673
		C610.821,446.049,592.296,446.354,576.337,446.354z"/>
	<path fill="#786958" d="M554.158,446.321c-10.493,0-21.21,0-31.928,0c-34.732,0-69.464,0.156-104.194-0.052
		c-26.31-0.157-43.997-20.748-40.378-47.121c1.657-0.302,3.488-0.929,5.318-0.928c44.594,0.025,89.192-0.187,133.781,0.318
		C541.169,398.815,558.441,420.855,554.158,446.321z"/>
	<path fill="#9483AE" d="M695.478,568.853c-1.077,18.775-1.048,37.667-3.595,56.216c-1.863,13.569-11.472,23.849-25.083,26.843
		c-11.763,2.588-24.341,1.746-36.566,1.943c-1.449,0.024-2.948-2.958-5.118-5.295c20.704-15.184,37.225-33.272,47.811-56.063
		c2.539-5.467,5.139-11.025,6.647-16.81C681.53,568.184,685.476,565.468,695.478,568.853z"/>
	<path fill="#B2A1D6" d="M572.22,647.134c7.683,0,15.373-0.196,23.048,0.05c9.618,0.308,16.112,4.141,16.651,14.76
		c0.534,10.531-5.899,16.234-14.906,16.818c-16.871,1.093-33.927,1.048-50.796-0.091c-9.304-0.628-15.047-6.975-14.288-17.26
		c0.732-9.923,7.062-13.806,16.09-14.258c8.047-0.402,16.132-0.085,24.2-0.085C572.22,647.091,572.22,647.113,572.22,647.134z"/>
	<path fill="#B2A1D6" d="M686.059,488.273c32.379-2.871,32.404-2.872,32.499,26.345c0.026,7.948-0.45,15.908-0.147,23.842
		c0.337,8.818-4.101,12.466-12.495,12.548c-3.841,0.038-8.094,0.979-11.41-0.329c-3.304-1.303-7.968-4.821-8.075-7.52
		C685.716,525.116,686.059,507.032,686.059,488.273z"/>
	<path fill="#B2A1D6" d="M409.077,541.18c-18,2.145-30.283-5.494-32.088-19.165c-1.795-13.593,6.581-25.028,20.119-27.367
		c7.602-1.313,12.665-0.187,12.128,9.503C408.571,516.191,409.077,528.294,409.077,541.18z"/>
	<path fill="#B2A1D6" d="M409.658,477.058c0-4.775,0-8.875,0-13.829c10.581,0,20.721,0,31.763,0c0,12.055,0.587,24.013-0.182,35.886
		c-0.64,9.872-3.446,11.293-15.469,10.053c0-9.524,0-19.198,0-29.487C419.756,478.702,414.705,477.879,409.658,477.058z"/>
	<path fill="#B2A1D6" d="M547.642,317.794c-6.882,0-11.301,0-18.784,0c1.908-7.33,3.252-14.161,5.739-20.563
		c0.467-1.203,7.898-1.393,8.059-0.861C544.68,303.048,545.957,309.944,547.642,317.794z"/>
	<path fill="#9C5063" d="M547.636,574.434c6.899,0,13.799,0.094,20.696-0.023c9.822-0.167,12.866,4.908,11.214,13.717
		c-3.22,17.172-16.371,26.964-35.622,26.563c-12.735-0.265-27.782-15.282-29.262-29.269c-0.761-7.198,3.169-10.64,9.975-10.916
		C532.292,574.195,539.969,574.434,547.636,574.434z"/>
	<path fill="#3D3D3D" d="M515.207,542.259c-0.007,8.154-7.935,16.043-16.095,16.017c-9.39-0.031-17.334-7.587-17.14-16.303
		c0.183-8.209,8.381-15.869,16.672-15.579C507.54,526.705,515.215,534.056,515.207,542.259z"/>
	<path fill="#3D3D3D" d="M596.678,558.273c-9.112-0.037-17.116-7.877-16.817-16.472c0.285-8.185,8.542-15.662,16.943-15.343
		c8.509,0.324,16.484,8.212,16.284,16.107C612.876,550.902,605.139,558.307,596.678,558.273z"/>
	<path fill="#786958" d="M619.898,509.763c-15.977,0-31.25,0-47.255,0c0-4.876,0-9.269,0-14.565c15.374,0,30.943,0,47.255,0
		C619.898,499.703,619.898,504.097,619.898,509.763z"/>
	<path fill="#786958" d="M522.805,495.269c0,4.828,0,8.953,0,14.048c-15.687,0-31.229,0-47.58,0c0-4.317,0-8.694,0-14.048
		C490.474,495.269,506.018,495.269,522.805,495.269z"/>
</g>
<polygon fill="none" points="518.746,712.114 516.494,712.114 516.494,712.114 518.746,712.114 "/>
<rect x="425.647" y="216.763" fill="#9483AE" width="208.127" height="39.224"/>
</svg>
