<?xml version="1.0" encoding="utf-8"?>
<!-- Generator: Adobe Illustrator 22.1.0, SVG Export Plug-In . SVG Version: 6.00 Build 0)  -->
<svg version="1.1" id="Layer_1" xmlns="http://www.w3.org/2000/svg" xmlns:xlink="http://www.w3.org/1999/xlink" x="0px" y="0px"
	 viewBox="0 0 21.6 15.6" style="enable-background:new 0 0 21.6 15.6;" xml:space="preserve">
<style type="text/css">
	.st0{fill:#FFFFFF;}
	.st1{fill:#404040;}
	.st2{fill:#FFD0CC;}
	.st3{fill:#F1C14F;}
	.st4{fill:#4B89C6;}
	.st5{fill:#946290;}
	.st6{fill:#54A847;}
	.st7{fill:#E08C35;}
	.st8{fill:#B0775A;}
</style>
<g>
	<g>
		<g>
			<path class="st0" d="M-139.9,14c0,0-0.6-1.1-1.6-2c-1-0.8-1.9-0.8-1.9-0.8s-0.5,1-1.6,1c-1.3,0-1.7-1.1-1.7-1.1s-0.4-0.1-1,0.1
				c-0.1-0.4-0.3-0.9-0.5-0.9c-0.2,0-0.3,0.7-0.3,1.3c-0.1,0.1-0.2,0.1-0.3,0.2c-1.1,0.9-1.2,1.9-1.2,1.9h-0.8v1.8h1.1l0.6,0.8
				l0.7,0.9v1.3h1.5v-0.8h4v0.8h1.7l0-1.4c0,0,0.6-0.5,1.1-1.3c0.2-0.4,0.3-1,0.4-1.3c0.2-0.4,0.5-0.5,0.5-0.5L-139.9,14z"/>
		</g>
	</g>
	<g>
		<path class="st1" d="M-148.8,13.5c-0.2,0-0.4-0.2-0.4-0.4c0-0.2,0.2-0.4,0.4-0.4c0.2,0,0.4,0.2,0.4,0.4
			C-148.4,13.4-148.6,13.5-148.8,13.5z"/>
	</g>
	<g>
		<path class="st2" d="M-139.5,14.1l-0.4,0c0,0-0.6-1.1-1.6-2c-1-0.8-1.9-0.8-1.9-0.8s-0.5,1-1.6,1c-0.5,0-0.9-0.2-1.2-0.4
			c-1,0.7-1.6,1.8-1.6,2.9c0,1.2,0.6,2.3,1.6,3h3.2v0.8c0.6-0.1,1.2,0.1,1.7-0.2l0-1.2c0,0,0.6-0.5,1.1-1.3c0.2-0.4,0.3-1,0.4-1.3
			C-139.7,14.3-139.5,14.2-139.5,14.1C-139.5,14.1-139.5,14.1-139.5,14.1z"/>
	</g>
	<g>
		<g>
			<path class="st1" d="M-141.4,18.9h-1.7c-0.1,0-0.2-0.1-0.2-0.2v-0.6h-3.5v0.6c0,0.1-0.1,0.2-0.2,0.2h-1.5c-0.1,0-0.2-0.1-0.2-0.2
				v-1.2l-1.1-1.5h-1c-0.1,0-0.2-0.1-0.2-0.2v-1.8c0-0.1,0.1-0.2,0.2-0.2h0.6c0.1-0.4,0.4-1.1,1.3-1.9c0.1-0.1,0.2-0.1,0.2-0.2
				c0.1-1.1,0.2-1.3,0.5-1.4c0.3-0.1,0.6,0.3,0.7,0.8c0.5-0.1,0.9,0,0.9,0c0.1,0,0.2,0.1,0.2,0.2c0,0,0.4,1,1.5,1
				c0.9,0,1.4-0.9,1.4-0.9c0-0.1,0.1-0.1,0.2-0.1c0,0,1,0,2.1,0.8c0.9,0.7,1.5,1.6,1.6,1.9l0.4,0c0.1,0,0.2,0.1,0.2,0.2
				c0,0.1-0.1,0.2-0.2,0.3l0,0c0,0-0.2,0.1-0.3,0.4c-0.1,0.1-0.1,0.3-0.2,0.5c-0.1,0.3-0.1,0.6-0.3,0.8c-0.4,0.7-0.9,1.1-1.1,1.3
				l0,1.3C-141.1,18.8-141.2,18.9-141.4,18.9z M-142.8,18.4h1.2l0-1.2c0-0.1,0-0.1,0.1-0.2c0,0,0.6-0.5,1-1.2
				c0.1-0.2,0.2-0.4,0.2-0.7c0.1-0.2,0.1-0.5,0.2-0.6c0-0.1,0.1-0.1,0.1-0.2c-0.1,0-0.1-0.1-0.2-0.1c0,0-0.6-1.1-1.6-1.9
				c-0.7-0.6-1.4-0.7-1.6-0.7c-0.2,0.3-0.8,1-1.7,1c-1.2,0-1.7-0.8-1.9-1.1c-0.2,0-0.4,0-0.8,0.1c-0.1,0-0.3,0-0.3-0.2
				c-0.1-0.3-0.2-0.5-0.3-0.6c0,0.1-0.1,0.4-0.1,0.9c0,0.1,0,0.2-0.1,0.2c-0.1,0.1-0.2,0.1-0.3,0.2c-1,0.8-1.1,1.7-1.1,1.8
				c0,0.1-0.1,0.2-0.2,0.2h-0.5v1.3h0.8c0.1,0,0.1,0,0.2,0.1l1.3,1.6c0,0,0.1,0.1,0.1,0.1v1.1h1v-0.6c0-0.1,0.1-0.2,0.2-0.2h4
				c0.1,0,0.2,0.1,0.2,0.2V18.4z"/>
		</g>
	</g>
	<g>
		<path class="st0" d="M-145.1,11.4c0.7,0,1.3-0.6,1.3-1.3c0-0.7-0.6-1.3-1.3-1.3c-0.7,0-1.3,0.6-1.3,1.3
			C-146.4,10.8-145.8,11.4-145.1,11.4z"/>
	</g>
	<g>
		<path class="st3" d="M-145.8,10.7c0,0.2,0.1,0.5,0.2,0.7c0.2,0.1,0.4,0.2,0.7,0.2c0.7,0,1.3-0.6,1.3-1.3c0-0.2-0.1-0.5-0.2-0.7
			c-0.2-0.1-0.4-0.2-0.7-0.2C-145.2,9.4-145.8,9.9-145.8,10.7z"/>
	</g>
	<g>
		<path class="st1" d="M-145.1,11.6c-0.9,0-1.6-0.7-1.6-1.6c0-0.9,0.7-1.6,1.6-1.6c0.9,0,1.6,0.7,1.6,1.6
			C-143.5,10.9-144.2,11.6-145.1,11.6z M-145.1,9c-0.6,0-1.1,0.5-1.1,1.1c0,0.6,0.5,1.1,1.1,1.1c0.6,0,1.1-0.5,1.1-1.1
			C-144,9.5-144.5,9-145.1,9z"/>
	</g>
</g>
<g>
	<g>
		<g>
			<g>
				<g>
					<g>
						<path class="st0" d="M-201.9,4c-1.9,0-3.5,1.5-3.5,3.3c0,1.3,0.7,2.2,1.3,2.8c0.3,0.3,0.5,0.6,0.5,0.8
							c0.1,0.2,0.1,0.4,0.1,0.5c0,0.3,0,0.3,0.2,0.4c0.4,0.1,2.5,0.1,2.9,0c0.2,0,0.2-0.1,0.2-0.4c0-0.1,0-0.3,0.1-0.5
							c0.1-0.2,0.3-0.5,0.5-0.8c0.5-0.7,1.3-1.6,1.3-2.8C-198.3,5.5-199.9,4-201.9,4L-201.9,4z"/>
					</g>
				</g>
			</g>
		</g>
	</g>
	<g>
		<path class="st3" d="M-199.9,4.7c-2,0-3.7,1.6-3.7,3.6s1.7,3.1,1.8,3.7c0,0.1,0,0.1,0,0.2c0.6,0,1.3,0,1.5-0.1
			c0.5-0.1,0.3-0.4,0.5-1.1c0.2-0.6,1.8-1.7,1.8-3.7c0-1-0.5-1.9-1.2-2.5C-199.4,4.7-199.6,4.7-199.9,4.7L-199.9,4.7z"/>
	</g>
	<g>
		<g>
			<g>
				<g>
					<g>
						<g>
							<path class="st1" d="M-201.8,12.5c-0.7,0-1.3,0-1.6-0.1c-0.5-0.1-0.5-0.5-0.5-0.8c0-0.1,0-0.3-0.1-0.5c0-0.1-0.2-0.4-0.5-0.6
								c-0.6-0.7-1.4-1.7-1.4-3.1c0-2.1,1.8-3.8,4-3.8h0.1c2.2,0,4,1.7,4,3.8c0,1.4-0.8,2.5-1.4,3.1c-0.2,0.3-0.4,0.5-0.5,0.6
								c-0.1,0.2-0.1,0.3-0.1,0.5c0,0.3-0.1,0.6-0.5,0.8C-200.5,12.4-201.1,12.5-201.8,12.5z M-201.9,4c-1.9,0-3.5,1.5-3.5,3.3
								c0,1.3,0.7,2.2,1.3,2.8c0.3,0.3,0.5,0.6,0.5,0.8c0.1,0.2,0.1,0.4,0.1,0.5c0,0.3,0,0.3,0.2,0.4c0.4,0.1,2.5,0.1,2.9,0
								c0.2,0,0.2-0.1,0.2-0.4c0-0.1,0-0.3,0.1-0.5c0.1-0.2,0.3-0.5,0.5-0.8c0.5-0.7,1.3-1.6,1.3-2.8C-198.3,5.5-199.9,4-201.9,4
								L-201.9,4z"/>
						</g>
					</g>
				</g>
			</g>
		</g>
		<g>
			<g>
				<rect x="-203.5" y="12.8" class="st4" width="3.4" height="0.5"/>
			</g>
		</g>
		<g>
			<g>
				<rect x="-203.5" y="13.7" class="st4" width="3.4" height="0.5"/>
			</g>
		</g>
		<g>
			<g>
				<rect x="-203.5" y="14.5" class="st4" width="3.4" height="0.5"/>
			</g>
		</g>
	</g>
</g>
<g>
	<g>
		<polygon class="st0" points="9.3,5.7 13.4,3.9 13.4,10.7 9.2,8.9 9,8.3 8.9,5.9 		"/>
	</g>
	<g>
		<polygon class="st0" points="6.9,11.3 9,11.3 7.8,9 8.8,9 9,8.7 9,5.5 8.6,5.4 4.8,5.4 4.7,5.8 4.6,8.7 4.9,9 5.7,9.1 		"/>
	</g>
	<g>
		<path class="st5" d="M16.2,10.2L16,10c0.7-0.7,1.2-1.7,1.2-2.8c0-1.1-0.4-2.1-1.2-2.8l0.3-0.3c0.8,0.8,1.3,1.9,1.3,3.1
			C17.5,8.3,17.1,9.4,16.2,10.2z"/>
	</g>
	<g>
		<path class="st5" d="M15.1,9.1l-0.3-0.3c0.9-0.9,0.9-2.5,0-3.4l0.3-0.3C16.2,6.3,16.2,8.1,15.1,9.1z"/>
	</g>
	<g>
		<path class="st5" d="M17.3,11.3l-0.3-0.3c1-1,1.6-2.4,1.6-3.9c0-1.5-0.6-2.9-1.6-3.9L17.3,3C18.4,4.1,19,5.6,19,7.2
			C19,8.7,18.4,10.2,17.3,11.3z"/>
	</g>
	<g>
		<path class="st6" d="M6.3,7.5c0.3,0,0.6-0.2,0.6-0.6c0-0.3-0.3-0.6-0.6-0.6C6,6.4,5.7,6.7,5.7,7C5.7,7.3,6,7.5,6.3,7.5z"/>
		<path class="st6" d="M6.3,7.6C5.9,7.6,5.6,7.3,5.6,7c0-0.4,0.3-0.7,0.7-0.7c0.4,0,0.7,0.3,0.7,0.7C6.9,7.3,6.6,7.6,6.3,7.6z
			 M6.3,6.5C6,6.5,5.8,6.7,5.8,7c0,0.2,0.2,0.4,0.4,0.4c0.2,0,0.4-0.2,0.4-0.4C6.7,6.7,6.5,6.5,6.3,6.5z"/>
	</g>
	<g>
		<rect x="8.7" y="5.7" class="st1" width="0.5" height="2.8"/>
	</g>
	<g>
		<polygon class="st3" points="9.7,9 9.7,6.3 13.5,4.6 13.5,10.7 		"/>
	</g>
	<g>
		<polygon class="st7" points="5.9,8.8 7.6,8.8 8.9,11.3 6.8,11.3 5.7,8.9 		"/>
	</g>
	<g>
		<g>
			<path class="st1" d="M9.4,11.5H6.8L5.6,9.3H5c-0.2,0-0.3-0.1-0.4-0.2C4.5,9,4.4,8.9,4.4,8.7v-3c0-0.2,0.1-0.3,0.2-0.4
				C4.7,5.2,4.9,5.1,5,5.1h3.6c0.2,0,0.3,0.1,0.4,0.2c0,0,0.1,0.1,0.1,0.1l4.5-2V11L9.1,9c0,0-0.1,0.1-0.1,0.1
				C8.9,9.2,8.8,9.3,8.6,9.3H8.2L9.4,11.5z M7.1,11h1.5L7.4,8.8h1.2c0,0,0.1,0,0.1,0c0,0,0,0,0-0.1V8.3l4.4,2V4.1l-4.4,2V5.7
				c0,0,0-0.1,0-0.1c0,0,0,0-0.1,0H5c0,0-0.1,0-0.1,0c0,0,0,0,0,0.1v3c0,0,0,0.1,0,0.1c0,0,0,0,0.1,0h0.9L7.1,11z"/>
		</g>
	</g>
</g>
<g>
	<g>
		<polygon class="st8" points="-234.6,296.2 -233.7,295.5 -232.8,296.2 -233.2,295.1 -232.3,294.5 -233.4,294.5 -233.7,293.5 
			-234,294.5 -235.1,294.5 -234.2,295.1 		"/>
		<polygon class="st8" points="-236,299.7 -235.5,299.3 -235,299.7 -235.2,299.1 -234.6,298.7 -235.3,298.7 -235.5,298.1 
			-235.7,298.7 -236.3,298.7 -235.8,299.1 		"/>
		<path class="st1" d="M-232.2,300.9c-0.1-0.1-0.2-0.1-0.3,0c-0.7,0.3-1.4,0.5-2.1,0.5c-2.6,0-4.7-2.1-4.7-4.7
			c0-0.8,0.2-1.6,0.6-2.3c0.1-0.1,0-0.2,0-0.3c-0.1-0.1-0.2-0.1-0.3-0.1c-1.8,0.9-2.8,2.6-2.8,4.6c0,2.8,2.3,5.1,5.1,5.1
			c1.9,0,3.6-1,4.5-2.6C-232.1,301.1-232.1,301-232.2,300.9z M-236.7,303.4c-2.6,0-4.7-2.1-4.7-4.7c0-1.5,0.7-2.9,1.9-3.7
			c-0.2,0.6-0.3,1.2-0.3,1.7c0,2.8,2.3,5.1,5.1,5.1c0.5,0,1-0.1,1.5-0.2C-233.9,302.7-235.2,303.4-236.7,303.4z"/>
	</g>
	<path class="st8" d="M-236.7,303.4c-2.6,0-4.7-2.1-4.7-4.7c0-1.5,0.7-2.9,1.9-3.7c-0.2,0.6-0.3,1.2-0.3,1.7c0,2.8,2.3,5.1,5.1,5.1
		c0.5,0,1-0.1,1.5-0.2C-233.9,302.7-235.2,303.4-236.7,303.4z"/>
	<g>
		<path class="st0" d="M-240.8,298.7c0-1.2,0.5-2.3,1.2-3.2c0-0.2,0.1-0.4,0.2-0.6c-1.2,0.9-1.9,2.2-1.9,3.7c0,2.6,2.1,4.7,4.7,4.7
			c0.1,0,0.2,0,0.3,0C-238.8,303.2-240.8,301.2-240.8,298.7z"/>
	</g>
</g>
</svg>
