<?xml version="1.0" encoding="utf-8"?>
<!-- Generator: Adobe Illustrator 22.1.0, SVG Export Plug-In . SVG Version: 6.00 Build 0)  -->
<svg version="1.1" xmlns="http://www.w3.org/2000/svg" xmlns:xlink="http://www.w3.org/1999/xlink" x="0px" y="0px"
	 viewBox="0 0 18.6 18.2" style="enable-background:new 0 0 18.6 18.2;" xml:space="preserve">
<style type="text/css">
	.st0{fill-rule:evenodd;clip-rule:evenodd;fill:#F39C12;}
	.st1{fill-rule:evenodd;clip-rule:evenodd;fill:#FACC4D;}
</style>
<g id="Õ_x2021_Ô_xF8FF__x2021__x201A_Î_x2C7__x2DB__x2D8_ËÂ__x2030_Î_x2C7__ÏÓÌÚ_x2021_ÊÌÓÈ_Ó·Î_x2021_ÒÚË">
</g>
<g id="_x2014_ÎÓÈ_1">
	<g>
		<path class="st0" d="M9.4,2.4c-3.9,0-7.1,3.2-7.1,7.1c0,3.9,3.2,7.1,7.1,7.1c3.9,0,7.1-3.2,7.1-7.1C16.5,5.6,13.4,2.4,9.4,2.4z"/>
		<path class="st1" d="M9.4,15.6c1.7,0,3.2-0.7,4.3-1.8c1.1-1.1,1.8-2.6,1.8-4.3c0-1.7-0.7-3.2-1.8-4.3c-1.1-1.1-2.6-1.8-4.3-1.8
			c-1.7,0-3.2,0.7-4.3,1.8C4.1,6.3,3.4,7.8,3.4,9.5c0,1.7,0.7,3.2,1.8,4.3C6.3,14.9,7.8,15.6,9.4,15.6z"/>
		<path class="st0" d="M9.9,6.4v2.3c0.7,0,1.3,0.1,1.7,0.2c0.4,0.1,0.8,0.3,1.1,0.7c0.3,0.3,0.4,0.8,0.4,1.5c0,0.7-0.1,1.2-0.3,1.6
			c-0.2,0.4-0.5,0.7-0.9,0.8c-0.4,0.2-1,0.3-1.7,0.3H9.9v0.9H9v-0.9c-0.5,0-0.9,0-1.3-0.1c-0.4-0.1-0.7-0.2-1-0.4
			c-0.3-0.2-0.5-0.4-0.7-0.8c-0.2-0.3-0.2-0.7-0.2-1.2l0-0.3h1.5c0,0.4,0,0.7,0.1,0.9c0.1,0.2,0.2,0.3,0.3,0.4
			c0.1,0.1,0.3,0.2,0.5,0.2c0.2,0,0.5,0,0.9,0.1V10c-0.6,0-1-0.1-1.4-0.1C7.3,9.8,7,9.6,6.7,9.5C6.4,9.3,6.2,9.1,6.1,8.8
			C5.9,8.5,5.9,8,5.9,7.5C5.9,6.8,6,6.3,6.2,6c0.3-0.4,0.6-0.6,1.1-0.7c0.4-0.1,1-0.2,1.7-0.2V4.3h0.9v0.8c0.7,0,1.3,0.1,1.7,0.2
			c0.4,0.1,0.7,0.4,0.9,0.7c0.2,0.4,0.3,0.9,0.3,1.6h-1.4c0,0,0-0.1,0-0.2c0-0.4-0.1-0.7-0.3-0.8s-0.5-0.2-0.9-0.2H9.9L9.9,6.4z
			 M9.9,10v2.5h0.3c0.5,0,0.9-0.1,1.1-0.3c0.2-0.2,0.4-0.5,0.4-1c0-0.4-0.1-0.6-0.2-0.8c-0.1-0.2-0.3-0.3-0.5-0.3
			C10.7,10,10.4,10,9.9,10L9.9,10z M9,6.4H8.7c-0.3,0-0.6,0-0.8,0.1c-0.2,0-0.3,0.1-0.5,0.3C7.4,6.9,7.3,7.1,7.3,7.5
			c0,0.5,0.1,0.8,0.4,1C8,8.6,8.4,8.7,9,8.7V6.4z"/>
	</g>
	<g>
		<path class="st0" d="M9.4,2.4c-3.9,0-7.1,3.2-7.1,7.1c0,3.9,3.2,7.1,7.1,7.1V2.4z"/>
		<path class="st1" d="M9.4,3.4c-1.7,0-3.2,0.7-4.3,1.8C4.1,6.3,3.4,7.8,3.4,9.5c0,1.7,0.7,3.2,1.8,4.3c1.1,1.1,2.6,1.8,4.3,1.8V3.4
			z"/>
		<path class="st0" d="M9.4,14.7H9v-0.9c-0.5,0-0.9,0-1.3-0.1c-0.4-0.1-0.7-0.2-1-0.4c-0.3-0.2-0.5-0.4-0.7-0.8
			c-0.2-0.3-0.2-0.7-0.2-1.2l0-0.3h1.5c0,0.4,0,0.7,0.1,0.9c0.1,0.2,0.2,0.3,0.3,0.4c0.1,0.1,0.3,0.2,0.5,0.2c0.2,0,0.5,0,0.9,0.1
			V10c-0.6,0-1-0.1-1.4-0.1C7.3,9.8,7,9.6,6.7,9.5C6.4,9.3,6.2,9.1,6.1,8.8C5.9,8.5,5.9,8,5.9,7.5C5.9,6.8,6,6.3,6.2,6
			c0.3-0.4,0.6-0.6,1.1-0.7c0.4-0.1,1-0.2,1.7-0.2V4.3h0.5V14.7L9.4,14.7z M9,6.4H8.7c-0.3,0-0.6,0-0.8,0.1c-0.2,0-0.3,0.1-0.5,0.3
			C7.4,6.9,7.3,7.1,7.3,7.5c0,0.5,0.1,0.8,0.4,1C8,8.6,8.4,8.7,9,8.7V6.4z"/>
	</g>
</g>
</svg>
