<?xml version="1.0" encoding="utf-8"?>
<!-- Generator: Adobe Illustrator 22.1.0, SVG Export Plug-In . SVG Version: 6.00 Build 0)  -->
<svg version="1.1" id="Layer_1" xmlns="http://www.w3.org/2000/svg" xmlns:xlink="http://www.w3.org/1999/xlink" x="0px" y="0px"
	 viewBox="0 0 19.3 19.3" style="enable-background:new 0 0 19.3 19.3;" xml:space="preserve">
<style type="text/css">
	.st0{fill:#FFFFFF;}
	.st1{fill:#404040;}
	.st2{fill:#FFD0CC;}
	.st3{fill:#F1C14F;}
	.st4{fill:#4B89C6;}
	.st5{fill:#946290;}
	.st6{fill:#54A847;}
	.st7{fill:#E08C35;}
	.st8{fill:#B0775A;}
</style>
<g>
	<g>
		<g>
			<path class="st0" d="M107.4-274.3c0,0-0.6-1.1-1.6-2c-1-0.8-1.9-0.8-1.9-0.8s-0.5,1-1.6,1c-1.3,0-1.7-1.1-1.7-1.1s-0.4-0.1-1,0.1
				c-0.1-0.4-0.3-0.9-0.5-0.9c-0.2,0-0.3,0.7-0.3,1.3c-0.1,0.1-0.2,0.1-0.3,0.2c-1.1,0.9-1.2,1.9-1.2,1.9h-0.8v1.8h1.1l0.6,0.8
				l0.7,0.9v1.3h1.5v-0.8h4v0.8h1.7l0-1.4c0,0,0.6-0.5,1.1-1.3c0.2-0.4,0.3-1,0.4-1.3c0.2-0.4,0.5-0.5,0.5-0.5L107.4-274.3z"/>
		</g>
	</g>
	<g>
		<path class="st1" d="M98.5-274.8c-0.2,0-0.4-0.2-0.4-0.4c0-0.2,0.2-0.4,0.4-0.4c0.2,0,0.4,0.2,0.4,0.4
			C98.9-275,98.7-274.8,98.5-274.8z"/>
	</g>
	<g>
		<path class="st2" d="M107.8-274.2l-0.4,0c0,0-0.6-1.1-1.6-2c-1-0.8-1.9-0.8-1.9-0.8s-0.5,1-1.6,1c-0.5,0-0.9-0.2-1.2-0.4
			c-1,0.7-1.6,1.8-1.6,2.9c0,1.2,0.6,2.3,1.6,3h3.2v0.8c0.6-0.1,1.2,0.1,1.7-0.2l0-1.2c0,0,0.6-0.5,1.1-1.3c0.2-0.4,0.3-1,0.4-1.3
			C107.6-274,107.7-274.1,107.8-274.2C107.8-274.2,107.8-274.2,107.8-274.2z"/>
	</g>
	<g>
		<g>
			<path class="st1" d="M105.9-269.5h-1.7c-0.1,0-0.2-0.1-0.2-0.2v-0.6h-3.5v0.6c0,0.1-0.1,0.2-0.2,0.2h-1.5c-0.1,0-0.2-0.1-0.2-0.2
				v-1.2l-1.1-1.5h-1c-0.1,0-0.2-0.1-0.2-0.2v-1.8c0-0.1,0.1-0.2,0.2-0.2h0.6c0.1-0.4,0.4-1.1,1.3-1.9c0.1-0.1,0.2-0.1,0.2-0.2
				c0.1-1.1,0.2-1.3,0.5-1.4c0.3-0.1,0.6,0.3,0.7,0.8c0.5-0.1,0.9,0,0.9,0c0.1,0,0.2,0.1,0.2,0.2c0,0,0.4,1,1.5,1
				c0.9,0,1.4-0.9,1.4-0.9c0-0.1,0.1-0.1,0.2-0.1c0,0,1,0,2.1,0.8c0.9,0.7,1.5,1.6,1.6,1.9l0.4,0c0.1,0,0.2,0.1,0.2,0.2
				c0,0.1-0.1,0.2-0.2,0.3l0,0c0,0-0.2,0.1-0.3,0.4c-0.1,0.1-0.1,0.3-0.2,0.5c-0.1,0.3-0.1,0.6-0.3,0.8c-0.4,0.7-0.9,1.1-1.1,1.3
				l0,1.3C106.1-269.6,106-269.5,105.9-269.5z M104.5-270h1.2l0-1.2c0-0.1,0-0.1,0.1-0.2c0,0,0.6-0.5,1-1.2c0.1-0.2,0.2-0.4,0.2-0.7
				c0.1-0.2,0.1-0.5,0.2-0.6c0-0.1,0.1-0.1,0.1-0.2c-0.1,0-0.1-0.1-0.2-0.1c0,0-0.6-1.1-1.6-1.9c-0.7-0.6-1.4-0.7-1.6-0.7
				c-0.2,0.3-0.8,1-1.7,1c-1.2,0-1.7-0.8-1.9-1.1c-0.2,0-0.4,0-0.8,0.1c-0.1,0-0.3,0-0.3-0.2c-0.1-0.3-0.2-0.5-0.3-0.6
				c0,0.1-0.1,0.4-0.1,0.9c0,0.1,0,0.2-0.1,0.2c-0.1,0.1-0.2,0.1-0.3,0.2c-1,0.8-1.1,1.7-1.1,1.8c0,0.1-0.1,0.2-0.2,0.2h-0.5v1.3
				h0.8c0.1,0,0.1,0,0.2,0.1l1.3,1.6c0,0,0.1,0.1,0.1,0.1v1.1h1v-0.6c0-0.1,0.1-0.2,0.2-0.2h4c0.1,0,0.2,0.1,0.2,0.2V-270z"/>
		</g>
	</g>
	<g>
		<path class="st0" d="M102.2-276.9c0.7,0,1.3-0.6,1.3-1.3c0-0.7-0.6-1.3-1.3-1.3c-0.7,0-1.3,0.6-1.3,1.3
			C100.9-277.5,101.5-276.9,102.2-276.9z"/>
	</g>
	<g>
		<path class="st3" d="M101.5-277.7c0,0.2,0.1,0.5,0.2,0.7c0.2,0.1,0.4,0.2,0.7,0.2c0.7,0,1.3-0.6,1.3-1.3c0-0.2-0.1-0.5-0.2-0.7
			c-0.2-0.1-0.4-0.2-0.7-0.2C102.1-279,101.5-278.4,101.5-277.7z"/>
	</g>
	<g>
		<path class="st1" d="M102.2-276.7c-0.9,0-1.6-0.7-1.6-1.6c0-0.9,0.7-1.6,1.6-1.6c0.9,0,1.6,0.7,1.6,1.6
			C103.8-277.4,103.1-276.7,102.2-276.7z M102.2-279.3c-0.6,0-1.1,0.5-1.1,1.1c0,0.6,0.5,1.1,1.1,1.1c0.6,0,1.1-0.5,1.1-1.1
			C103.3-278.9,102.8-279.3,102.2-279.3z"/>
	</g>
</g>
<g>
	<g>
		<g>
			<g>
				<g>
					<g>
						<path class="st0" d="M45.4-284.3c-1.9,0-3.5,1.5-3.5,3.3c0,1.3,0.7,2.2,1.3,2.8c0.3,0.3,0.5,0.6,0.5,0.8
							c0.1,0.2,0.1,0.4,0.1,0.5c0,0.3,0,0.3,0.2,0.4c0.4,0.1,2.5,0.1,2.9,0c0.2,0,0.2-0.1,0.2-0.4c0-0.1,0-0.3,0.1-0.5
							c0.1-0.2,0.3-0.5,0.5-0.8c0.5-0.7,1.3-1.6,1.3-2.8C49-282.8,47.4-284.3,45.4-284.3L45.4-284.3z"/>
					</g>
				</g>
			</g>
		</g>
	</g>
	<g>
		<path class="st3" d="M47.4-283.7c-2,0-3.7,1.6-3.7,3.6s1.7,3.1,1.8,3.7c0,0.1,0,0.1,0,0.2c0.6,0,1.3,0,1.5-0.1
			c0.5-0.1,0.3-0.4,0.5-1.1c0.2-0.6,1.8-1.7,1.8-3.7c0-1-0.5-1.9-1.2-2.5C47.9-283.6,47.7-283.7,47.4-283.7L47.4-283.7z"/>
	</g>
	<g>
		<g>
			<g>
				<g>
					<g>
						<g>
							<path class="st1" d="M45.5-275.9c-0.7,0-1.3,0-1.6-0.1c-0.5-0.1-0.5-0.5-0.5-0.8c0-0.1,0-0.3-0.1-0.5c0-0.1-0.2-0.4-0.5-0.6
								c-0.6-0.7-1.4-1.7-1.4-3.1c0-2.1,1.8-3.8,4-3.8h0.1c2.2,0,4,1.7,4,3.8c0,1.4-0.8,2.5-1.4,3.1c-0.2,0.3-0.4,0.5-0.5,0.6
								c0,0.2-0.1,0.3-0.1,0.5c0,0.3-0.1,0.6-0.5,0.8C46.8-275.9,46.1-275.9,45.5-275.9z M45.4-284.3c-1.9,0-3.5,1.5-3.5,3.3
								c0,1.3,0.7,2.2,1.3,2.8c0.3,0.3,0.5,0.6,0.5,0.8c0.1,0.2,0.1,0.4,0.1,0.5c0,0.3,0,0.3,0.2,0.4c0.4,0.1,2.5,0.1,2.9,0
								c0.2,0,0.2-0.1,0.2-0.4c0-0.1,0-0.3,0.1-0.5c0.1-0.2,0.3-0.5,0.5-0.8c0.5-0.7,1.3-1.6,1.3-2.8
								C49-282.8,47.4-284.3,45.4-284.3L45.4-284.3z"/>
						</g>
					</g>
				</g>
			</g>
		</g>
		<g>
			<g>
				<rect x="43.8" y="-275.5" class="st4" width="3.4" height="0.5"/>
			</g>
		</g>
		<g>
			<g>
				<rect x="43.8" y="-274.6" class="st4" width="3.4" height="0.5"/>
			</g>
		</g>
		<g>
			<g>
				<rect x="43.8" y="-273.8" class="st4" width="3.4" height="0.5"/>
			</g>
		</g>
	</g>
</g>
<g>
	<g>
		<polygon class="st0" points="256.6,-282.6 260.7,-284.4 260.7,-277.7 256.5,-279.5 256.3,-280.1 256.2,-282.4 		"/>
	</g>
	<g>
		<polygon class="st0" points="254.2,-277.1 256.3,-277.1 255.1,-279.4 256,-279.3 256.3,-279.7 256.2,-282.8 255.9,-283 
			252.1,-282.9 252,-282.6 251.9,-279.6 252.2,-279.3 253,-279.3 		"/>
	</g>
	<g>
		<path class="st5" d="M263.5-278.1l-0.3-0.3c0.7-0.7,1.2-1.7,1.2-2.8c0-1.1-0.4-2.1-1.2-2.8l0.3-0.3c0.8,0.8,1.3,1.9,1.3,3.1
			C264.8-280,264.3-278.9,263.5-278.1z"/>
	</g>
	<g>
		<path class="st5" d="M262.4-279.2l-0.3-0.3c0.9-0.9,0.9-2.5,0-3.4l0.3-0.3C263.5-282,263.5-280.3,262.4-279.2z"/>
	</g>
	<g>
		<path class="st5" d="M264.6-277l-0.3-0.3c1-1,1.6-2.4,1.6-3.9c0-1.5-0.6-2.9-1.6-3.9l0.3-0.3c1.1,1.1,1.7,2.6,1.7,4.2
			C266.3-279.6,265.7-278.1,264.6-277z"/>
	</g>
	<g>
		<path class="st6" d="M253.6-280.8c0.3,0,0.6-0.2,0.6-0.6c0-0.3-0.3-0.6-0.6-0.6c-0.3,0-0.6,0.3-0.6,0.6
			C253-281.1,253.2-280.8,253.6-280.8z"/>
		<path class="st6" d="M253.6-280.7c-0.4,0-0.7-0.3-0.7-0.7c0-0.4,0.3-0.7,0.7-0.7c0.4,0,0.7,0.3,0.7,0.7
			C254.2-281,253.9-280.7,253.6-280.7z M253.6-281.8c-0.2,0-0.4,0.2-0.4,0.4c0,0.2,0.2,0.4,0.4,0.4c0.2,0,0.4-0.2,0.4-0.4
			C254-281.6,253.8-281.8,253.6-281.8z"/>
	</g>
	<g>
		<rect x="256" y="-282.6" class="st1" width="0.5" height="2.8"/>
	</g>
	<g>
		<polygon class="st3" points="257,-279.4 257,-282.1 260.8,-283.7 260.8,-277.6 		"/>
	</g>
	<g>
		<polygon class="st7" points="253.2,-279.5 254.8,-279.5 256.2,-277.1 254.1,-277 253,-279.4 		"/>
	</g>
	<g>
		<g>
			<path class="st1" d="M256.7-276.8h-2.6l-1.2-2.2h-0.6c-0.2,0-0.3-0.1-0.4-0.2c-0.1-0.1-0.2-0.3-0.2-0.4v-3c0-0.2,0.1-0.3,0.2-0.4
				c0.1-0.1,0.3-0.2,0.4-0.2h3.6c0.2,0,0.3,0.1,0.4,0.2c0,0,0.1,0.1,0.1,0.1l4.5-2v7.7l-4.5-2c0,0-0.1,0.1-0.1,0.1
				c-0.1,0.1-0.3,0.2-0.4,0.2h-0.4L256.7-276.8z M254.4-277.3h1.5l-1.2-2.2h1.2c0,0,0.1,0,0.1,0c0,0,0,0,0-0.1v-0.4l4.4,2v-6.2
				l-4.4,2v-0.4c0,0,0-0.1,0-0.1c0,0,0,0-0.1,0h-3.6c0,0-0.1,0-0.1,0c0,0,0,0,0,0.1v3c0,0,0,0.1,0,0.1c0,0,0,0,0.1,0h0.9
				L254.4-277.3z"/>
		</g>
	</g>
</g>
<g>
	<g>
		<polygon class="st8" points="12.7,7.8 13.6,7.2 14.4,7.8 14.1,6.8 15,6.2 13.9,6.2 13.6,5.2 13.2,6.2 12.2,6.2 13,6.8 		"/>
		<polygon class="st8" points="11.3,11.4 11.8,11 12.3,11.4 12.1,10.8 12.7,10.4 12,10.4 11.8,9.8 11.6,10.4 11,10.4 11.5,10.8 		
			"/>
		<path class="st1" d="M15.1,12.6c-0.1-0.1-0.2-0.1-0.3-0.1c-0.7,0.3-1.4,0.5-2.1,0.5c-2.6,0-4.7-2.1-4.7-4.7c0-0.8,0.2-1.6,0.6-2.3
			c0.1-0.1,0-0.2,0-0.3C8.5,5.7,8.4,5.7,8.3,5.8c-1.8,0.9-2.8,2.6-2.8,4.6c0,2.8,2.3,5.1,5.1,5.1c1.9,0,3.6-1,4.5-2.6
			C15.2,12.8,15.2,12.7,15.1,12.6z M10.6,15C8.1,15,6,12.9,6,10.4c0-1.5,0.7-2.9,1.9-3.7C7.7,7.2,7.6,7.8,7.6,8.4
			c0,2.8,2.3,5.1,5.1,5.1c0.5,0,1-0.1,1.5-0.2C13.4,14.4,12,15,10.6,15z"/>
	</g>
	<path class="st8" d="M10.6,15C8.1,15,6,12.9,6,10.4c0-1.5,0.7-2.9,1.9-3.7C7.7,7.2,7.6,7.8,7.6,8.4c0,2.8,2.3,5.1,5.1,5.1
		c0.5,0,1-0.1,1.5-0.2C13.4,14.4,12,15,10.6,15z"/>
	<g>
		<path class="st0" d="M6.5,10.4c0-1.2,0.5-2.3,1.2-3.2c0-0.2,0.1-0.4,0.2-0.6C6.7,7.5,6,8.9,6,10.4c0,2.6,2.1,4.7,4.7,4.7
			c0.1,0,0.2,0,0.3,0C8.4,14.9,6.5,12.9,6.5,10.4z"/>
	</g>
</g>
</svg>
