<?xml version="1.0" encoding="utf-8"?>
<!-- Generator: Adobe Illustrator 22.1.0, SVG Export Plug-In . SVG Version: 6.00 Build 0)  -->
<svg version="1.1" xmlns="http://www.w3.org/2000/svg" xmlns:xlink="http://www.w3.org/1999/xlink" x="0px" y="0px"
	 viewBox="0 0 9.3 10.3" style="enable-background:new 0 0 9.3 10.3;" xml:space="preserve">
<style type="text/css">
	.st0{fill-rule:evenodd;clip-rule:evenodd;fill:#2C3E50;}
	.st1{fill-rule:evenodd;clip-rule:evenodd;fill:#3D566E;}
</style>
<g id="Õ_x2021_Ô_xF8FF__x2021__x201A_Î_x2C7__x2DB__x2D8_ËÂ__x2030_Î_x2C7__ÏÓÌÚ_x2021_ÊÌÓÈ_Ó·Î_x2021_ÒÚË">
</g>
<g id="_x2014_ÎÓÈ_1">
	<path class="st0" d="M3.3,2.6l0.5-0.2l3.9-1.1c0.1,0,0.2,0.1,0.2,0.2v1v3.7v0.2c0,0.5-0.5,1-1.1,1c-0.6,0-1.1-0.4-1.1-1
		c0-0.5,0.5-1,1.1-1c0.2,0,0.4,0,0.6,0.1V2.9l-3.6,1v1.7v1.9v0.2c0,0.5-0.5,1-1.1,1s-1.1-0.4-1.1-1c0-0.5,0.5-1,1.1-1
		c0.2,0,0.4,0,0.6,0.1V3.5V3.2V2.7C3.2,2.7,3.2,2.6,3.3,2.6z"/>
	<path class="st1" d="M3.3,2.6l0.5-0.2L5.4,2v1.4L3.7,3.9v1.7v1.9v0.2c0,0.5-0.5,1-1.1,1s-1.1-0.4-1.1-1c0-0.5,0.5-1,1.1-1
		c0.2,0,0.4,0,0.6,0.1V3.5V3.2V2.7C3.2,2.7,3.2,2.6,3.3,2.6z"/>
</g>
</svg>
