<?xml version="1.0" encoding="utf-8"?>
<!-- Generator: Adobe Illustrator 22.1.0, SVG Export Plug-In . SVG Version: 6.00 Build 0)  -->
<svg version="1.1" xmlns="http://www.w3.org/2000/svg" xmlns:xlink="http://www.w3.org/1999/xlink" x="0px" y="0px"
	 viewBox="0 0 24.9 28.8" style="enable-background:new 0 0 24.9 28.8;" xml:space="preserve">
<style type="text/css">
	.st0{fill-rule:evenodd;clip-rule:evenodd;fill:#DAE1E6;}
	.st1{fill-rule:evenodd;clip-rule:evenodd;fill:#2980B9;}
	.st2{fill-rule:evenodd;clip-rule:evenodd;fill:#9B59B6;}
	.st3{fill-rule:evenodd;clip-rule:evenodd;fill:#FFCB05;}
	.st4{fill-rule:evenodd;clip-rule:evenodd;fill:#6699FF;}
	.st5{fill-rule:evenodd;clip-rule:evenodd;fill:#95A5A6;}

	@keyframes width {
		0% {
			width: 1px;
		}
		50% {
			width: 10px;
		}
		100% {
			width: 1px;
		}
	}
</style>
<g id="Õ_x2021_Ô_xF8FF__x2021__x201A_Î_x2C7__x2DB__x2D8_ËÂ__x2030_Î_x2C7__ÏÓÌÚ_x2021_ÊÌÓÈ_Ó·Î_x2021_ÒÚË">
</g>
<g id="_x2014_ÎÓÈ_1">
	<rect  x="3.1" y="6.5" class="st0" width="18.3" height="19.2"/>
	<rect  x="3.1" y="3.7" class="st1" width="18.3" height="2.8"/>
	<path  class="st2" d="M6.1,9.4L6.1,9.4c0.3,0,0.6,0.3,0.6,0.6l0,0c0,0.3-0.3,0.6-0.6,0.6l0,0c-0.3,0-0.6-0.3-0.6-0.6l0,0
		C5.5,9.7,5.7,9.4,6.1,9.4z"/>
	<path class="st3" d="M6.1,12.7L6.1,12.7c0.3,0,0.6,0.3,0.6,0.6l0,0c0,0.3-0.3,0.6-0.6,0.6l0,0c-0.3,0-0.6-0.3-0.6-0.6l0,0
		C5.5,12.9,5.7,12.7,6.1,12.7z"/>
	<path  class="st4" d="M6.1,16.1L6.1,16.1c0.3,0,0.6,0.3,0.6,0.6l0,0c0,0.3-0.3,0.6-0.6,0.6l0,0c-0.3,0-0.6-0.3-0.6-0.6l0,0
		C5.5,16.4,5.7,16.1,6.1,16.1z"/>
	<rect style="animation: width 3.3s ease-in-out forwards infinite;" x="7.9" y="9.7" class="st5" width="9.6" height="0.6"/>
	<rect style="animation: width 3.2s 500ms ease-in-out forwards infinite;" x="7.9" y="13" class="st5" width="10.3" height="0.6"/>
	<rect style="animation: width 3.1s 1s ease-in-out forwards infinite;" x="7.9" y="16.4" class="st5" width="8.1" height="0.6"/>
</g>
</svg>
