<?xml version="1.0" encoding="utf-8"?>
<!-- Generator: Adobe Illustrator 22.1.0, SVG Export Plug-In . SVG Version: 6.00 Build 0)  -->
<svg version="1.1" id="Layer_1" xmlns="http://www.w3.org/2000/svg" xmlns:xlink="http://www.w3.org/1999/xlink" x="0px" y="0px"
	 viewBox="0 0 15.2 14.3" style="enable-background:new 0 0 15.2 14.3;" xml:space="preserve">
<style type="text/css">
	.st0{fill:#FFFFFF;}
	.st1{fill:#404040;}
	.st2{fill:#FFD0CC;}
	.st3{fill:#F1C14F;}
	.st4{fill:#4B89C6;}
	.st5{fill:#946290;}
	.st6{fill:#54A847;}
	.st7{fill:#E08C35;}
	.st8{fill:#B0775A;}
</style>
<g>
	<g>
		<g>
			<path class="st0" d="M12.8,7.2c0,0-0.6-1.1-1.6-2c-1-0.8-1.9-0.8-1.9-0.8s-0.5,1-1.6,1C6.4,5.6,6,4.4,6,4.4S5.6,4.3,5,4.5
				C4.8,4.1,4.6,3.6,4.4,3.6c-0.2,0-0.3,0.7-0.3,1.3C4,5,3.9,5.1,3.8,5.1C2.7,6.1,2.6,7.1,2.6,7.1H1.8v1.8h1.1l0.6,0.8l0.7,0.9v1.3
				h1.5V11h4v0.8h1.7l0-1.4c0,0,0.6-0.5,1.1-1.3c0.2-0.4,0.3-1,0.4-1.3c0.2-0.4,0.5-0.5,0.5-0.5L12.8,7.2z"/>
		</g>
	</g>
	<g>
		<path class="st1" d="M3.9,6.7c-0.2,0-0.4-0.2-0.4-0.4C3.5,6.1,3.7,6,3.9,6c0.2,0,0.4,0.2,0.4,0.4C4.3,6.6,4.1,6.7,3.9,6.7z"/>
	</g>
	<g>
		<path class="st2" d="M13.3,7.3l-0.4,0c0,0-0.6-1.1-1.6-2c-1-0.8-1.9-0.8-1.9-0.8s-0.5,1-1.6,1c-0.5,0-0.9-0.2-1.2-0.4
			c-1,0.7-1.6,1.8-1.6,2.9c0,1.2,0.6,2.3,1.6,3h3.2v0.8c0.6-0.1,1.2,0.1,1.7-0.2l0-1.2c0,0,0.6-0.5,1.1-1.3c0.2-0.4,0.3-1,0.4-1.3
			C13,7.5,13.2,7.4,13.3,7.3C13.3,7.3,13.3,7.3,13.3,7.3z"/>
	</g>
	<g>
		<g>
			<path class="st1" d="M11.3,12.1H9.7c-0.1,0-0.2-0.1-0.2-0.2v-0.6H5.9v0.6c0,0.1-0.1,0.2-0.2,0.2H4.2c-0.1,0-0.2-0.1-0.2-0.2v-1.2
				L2.8,9.1h-1C1.7,9.1,1.6,9,1.6,8.9V7.1c0-0.1,0.1-0.2,0.2-0.2h0.6C2.5,6.4,2.8,5.7,3.6,5c0.1-0.1,0.2-0.1,0.2-0.2
				c0.1-1.1,0.2-1.3,0.5-1.4C4.7,3.3,5,3.8,5.1,4.2c0.5-0.1,0.9,0,0.9,0c0.1,0,0.2,0.1,0.2,0.2c0,0,0.4,1,1.5,1
				c0.9,0,1.4-0.9,1.4-0.9c0-0.1,0.1-0.1,0.2-0.1c0,0,1,0,2.1,0.8C12.2,5.8,12.8,6.7,13,7l0.4,0c0.1,0,0.2,0.1,0.2,0.2
				c0,0.1-0.1,0.2-0.2,0.3l0,0c0,0-0.2,0.1-0.3,0.4C13,8,13,8.2,12.9,8.4c-0.1,0.3-0.1,0.6-0.3,0.8c-0.4,0.7-0.9,1.1-1.1,1.3l0,1.3
				C11.6,12,11.5,12.1,11.3,12.1z M9.9,11.6h1.2l0-1.2c0-0.1,0-0.1,0.1-0.2c0,0,0.6-0.5,1-1.2c0.1-0.2,0.2-0.4,0.2-0.7
				c0.1-0.2,0.1-0.5,0.2-0.6c0-0.1,0.1-0.1,0.1-0.2c-0.1,0-0.1-0.1-0.2-0.1c0,0-0.6-1.1-1.6-1.9c-0.7-0.6-1.4-0.7-1.6-0.7
				c-0.2,0.3-0.8,1-1.7,1C6.5,5.8,6,5,5.8,4.6c-0.2,0-0.4,0-0.8,0.1c-0.1,0-0.3,0-0.3-0.2C4.6,4.3,4.5,4.1,4.5,4
				c0,0.1-0.1,0.4-0.1,0.9c0,0.1,0,0.2-0.1,0.2C4.1,5.2,4,5.3,3.9,5.3c-1,0.8-1.1,1.7-1.1,1.8c0,0.1-0.1,0.2-0.2,0.2H2v1.3h0.8
				c0.1,0,0.1,0,0.2,0.1l1.3,1.6c0,0,0.1,0.1,0.1,0.1v1.1h1V11c0-0.1,0.1-0.2,0.2-0.2h4c0.1,0,0.2,0.1,0.2,0.2V11.6z"/>
		</g>
	</g>
	<g>
		<path class="st0" d="M7.7,4.6C8.4,4.6,9,4,9,3.3c0-0.7-0.6-1.3-1.3-1.3c-0.7,0-1.3,0.6-1.3,1.3C6.3,4,6.9,4.6,7.7,4.6z"/>
	</g>
	<g>
		<path class="st3" d="M6.9,3.9c0,0.2,0.1,0.5,0.2,0.7c0.2,0.1,0.4,0.2,0.7,0.2c0.7,0,1.3-0.6,1.3-1.3c0-0.2-0.1-0.5-0.2-0.7
			C8.7,2.6,8.5,2.5,8.3,2.5C7.5,2.5,6.9,3.1,6.9,3.9z"/>
	</g>
	<g>
		<path class="st1" d="M7.7,4.8c-0.9,0-1.6-0.7-1.6-1.6c0-0.9,0.7-1.6,1.6-1.6c0.9,0,1.6,0.7,1.6,1.6C9.2,4.1,8.5,4.8,7.7,4.8z
			 M7.7,2.2c-0.6,0-1.1,0.5-1.1,1.1c0,0.6,0.5,1.1,1.1,1.1c0.6,0,1.1-0.5,1.1-1.1C8.7,2.7,8.2,2.2,7.7,2.2z"/>
	</g>
</g>
<g>
	<g>
		<g>
			<g>
				<g>
					<g>
						<path class="st0" d="M-49.1-2.8c-1.9,0-3.5,1.5-3.5,3.3c0,1.3,0.7,2.2,1.3,2.8c0.3,0.3,0.5,0.6,0.5,0.8
							c0.1,0.2,0.1,0.4,0.1,0.5c0,0.3,0,0.3,0.2,0.4c0.4,0.1,2.5,0.1,2.9,0c0.2,0,0.2-0.1,0.2-0.4c0-0.1,0-0.3,0.1-0.5
							c0.1-0.2,0.3-0.5,0.5-0.8c0.5-0.7,1.3-1.6,1.3-2.8C-45.6-1.3-47.2-2.8-49.1-2.8L-49.1-2.8z"/>
					</g>
				</g>
			</g>
		</g>
	</g>
	<g>
		<path class="st3" d="M-47.2-2.1c-2,0-3.7,1.6-3.7,3.6s1.7,3.1,1.8,3.7c0,0.1,0,0.1,0,0.2c0.6,0,1.3,0,1.5-0.1
			c0.5-0.1,0.3-0.4,0.5-1.1c0.2-0.6,1.8-1.7,1.8-3.7c0-1-0.5-1.9-1.2-2.5C-46.7-2.1-46.9-2.1-47.2-2.1L-47.2-2.1z"/>
	</g>
	<g>
		<g>
			<g>
				<g>
					<g>
						<g>
							<path class="st1" d="M-49.1,5.6c-0.7,0-1.3,0-1.6-0.1c-0.5-0.1-0.5-0.5-0.5-0.8c0-0.1,0-0.3-0.1-0.5c0-0.1-0.2-0.4-0.5-0.6
								C-52.3,3-53.1,2-53.1,0.5c0-2.1,1.8-3.8,4-3.8h0.1c2.2,0,4,1.7,4,3.8c0,1.4-0.8,2.5-1.4,3.1c-0.2,0.3-0.4,0.5-0.5,0.6
								c0,0.2-0.1,0.3-0.1,0.5c0,0.3-0.1,0.6-0.5,0.8C-47.8,5.6-48.4,5.6-49.1,5.6z M-49.1-2.8c-1.9,0-3.5,1.5-3.5,3.3
								c0,1.3,0.7,2.2,1.3,2.8c0.3,0.3,0.5,0.6,0.5,0.8c0.1,0.2,0.1,0.4,0.1,0.5c0,0.3,0,0.3,0.2,0.4c0.4,0.1,2.5,0.1,2.9,0
								c0.2,0,0.2-0.1,0.2-0.4c0-0.1,0-0.3,0.1-0.5c0.1-0.2,0.3-0.5,0.5-0.8c0.5-0.7,1.3-1.6,1.3-2.8C-45.6-1.3-47.2-2.8-49.1-2.8
								L-49.1-2.8z"/>
						</g>
					</g>
				</g>
			</g>
		</g>
		<g>
			<g>
				<rect x="-50.8" y="6" class="st4" width="3.4" height="0.5"/>
			</g>
		</g>
		<g>
			<g>
				<rect x="-50.8" y="6.9" class="st4" width="3.4" height="0.5"/>
			</g>
		</g>
		<g>
			<g>
				<rect x="-50.8" y="7.7" class="st4" width="3.4" height="0.5"/>
			</g>
		</g>
	</g>
</g>
<g>
	<g>
		<polygon class="st0" points="162,-1.1 166.1,-2.9 166.1,3.9 161.9,2.1 161.7,1.5 161.6,-0.9 		"/>
	</g>
	<g>
		<polygon class="st0" points="159.6,4.5 161.7,4.5 160.5,2.2 161.5,2.2 161.7,1.9 161.7,-1.3 161.3,-1.4 157.6,-1.4 157.4,-1 
			157.3,1.9 157.6,2.2 158.4,2.3 		"/>
	</g>
	<g>
		<path class="st5" d="M168.9,3.4l-0.3-0.3c0.7-0.7,1.2-1.7,1.2-2.8c0-1.1-0.4-2.1-1.2-2.8l0.3-0.3c0.8,0.8,1.3,1.9,1.3,3.1
			C170.2,1.5,169.8,2.6,168.9,3.4z"/>
	</g>
	<g>
		<path class="st5" d="M167.8,2.3l-0.3-0.3c0.9-0.9,0.9-2.5,0-3.4l0.3-0.3C168.9-0.5,168.9,1.2,167.8,2.3z"/>
	</g>
	<g>
		<path class="st5" d="M170,4.5l-0.3-0.3c1-1,1.6-2.4,1.6-3.9c0-1.5-0.6-2.9-1.6-3.9l0.3-0.3c1.1,1.1,1.7,2.6,1.7,4.2
			C171.8,1.9,171.1,3.4,170,4.5z"/>
	</g>
	<g>
		<path class="st6" d="M159,0.7c0.3,0,0.6-0.2,0.6-0.6c0-0.3-0.3-0.6-0.6-0.6c-0.3,0-0.6,0.3-0.6,0.6C158.4,0.5,158.7,0.7,159,0.7z"
			/>
		<path class="st6" d="M159,0.8c-0.4,0-0.7-0.3-0.7-0.7c0-0.4,0.3-0.7,0.7-0.7c0.4,0,0.7,0.3,0.7,0.7C159.7,0.5,159.4,0.8,159,0.8z
			 M159-0.3c-0.2,0-0.4,0.2-0.4,0.4c0,0.2,0.2,0.4,0.4,0.4c0.2,0,0.4-0.2,0.4-0.4C159.4-0.1,159.2-0.3,159-0.3z"/>
	</g>
	<g>
		<rect x="161.5" y="-1.1" class="st1" width="0.5" height="2.8"/>
	</g>
	<g>
		<polygon class="st3" points="162.4,2.2 162.4,-0.5 166.2,-2.2 166.2,3.9 		"/>
	</g>
	<g>
		<polygon class="st7" points="158.6,2 160.3,2 161.6,4.5 159.5,4.5 158.4,2.1 		"/>
	</g>
	<g>
		<g>
			<path class="st1" d="M162.1,4.7h-2.6l-1.2-2.2h-0.6c-0.2,0-0.3-0.1-0.4-0.2c-0.1-0.1-0.2-0.3-0.2-0.4v-3c0-0.2,0.1-0.3,0.2-0.4
				c0.1-0.1,0.3-0.2,0.4-0.2h3.6c0.2,0,0.3,0.1,0.4,0.2c0,0,0.1,0.1,0.1,0.1l4.5-2v7.7l-4.5-2c0,0-0.1,0.1-0.1,0.1
				c-0.1,0.1-0.3,0.2-0.4,0.2h-0.4L162.1,4.7z M159.8,4.2h1.5L160.1,2h1.2c0,0,0.1,0,0.1,0c0,0,0,0,0-0.1V1.5l4.4,2v-6.2l-4.4,2
				v-0.4c0,0,0-0.1,0-0.1c0,0,0,0-0.1,0h-3.6c0,0-0.1,0-0.1,0c0,0,0,0,0,0.1v3c0,0,0,0.1,0,0.1c0,0,0,0,0.1,0h0.9L159.8,4.2z"/>
		</g>
	</g>
</g>
<g>
	<g>
		<polygon class="st8" points="-81.9,289.4 -81,288.7 -80.1,289.4 -80.5,288.3 -79.6,287.7 -80.7,287.7 -81,286.7 -81.3,287.7 
			-82.4,287.7 -81.5,288.3 		"/>
		<polygon class="st8" points="-83.3,292.9 -82.8,292.5 -82.2,292.9 -82.4,292.3 -81.9,291.9 -82.6,291.9 -82.8,291.3 -83,291.9 
			-83.6,291.9 -83.1,292.3 		"/>
		<path class="st1" d="M-79.5,294.1c-0.1-0.1-0.2-0.1-0.3,0c-0.7,0.3-1.4,0.5-2.1,0.5c-2.6,0-4.7-2.1-4.7-4.7c0-0.8,0.2-1.6,0.6-2.3
			c0.1-0.1,0-0.2,0-0.3c-0.1-0.1-0.2-0.1-0.3-0.1c-1.8,0.9-2.8,2.6-2.8,4.6c0,2.8,2.3,5.1,5.1,5.1c1.9,0,3.6-1,4.5-2.6
			C-79.4,294.3-79.4,294.2-79.5,294.1z M-83.9,296.5c-2.6,0-4.7-2.1-4.7-4.7c0-1.5,0.7-2.9,1.9-3.7c-0.2,0.6-0.3,1.2-0.3,1.7
			c0,2.8,2.3,5.1,5.1,5.1c0.5,0,1-0.1,1.5-0.2C-81.2,295.9-82.5,296.5-83.9,296.5z"/>
	</g>
	<path class="st8" d="M-83.9,296.5c-2.6,0-4.7-2.1-4.7-4.7c0-1.5,0.7-2.9,1.9-3.7c-0.2,0.6-0.3,1.2-0.3,1.7c0,2.8,2.3,5.1,5.1,5.1
		c0.5,0,1-0.1,1.5-0.2C-81.2,295.9-82.5,296.5-83.9,296.5z"/>
	<g>
		<path class="st0" d="M-88.1,291.9c0-1.2,0.5-2.3,1.2-3.2c0-0.2,0.1-0.4,0.2-0.6c-1.2,0.9-1.9,2.2-1.9,3.7c0,2.6,2.1,4.7,4.7,4.7
			c0.1,0,0.2,0,0.3,0C-86.1,296.4-88.1,294.4-88.1,291.9z"/>
	</g>
</g>
</svg>
