<?xml version="1.0" encoding="utf-8"?>
<!-- Generator: Adobe Illustrator 22.1.0, SVG Export Plug-In . SVG Version: 6.00 Build 0)  -->
<svg version="1.1" xmlns="http://www.w3.org/2000/svg" xmlns:xlink="http://www.w3.org/1999/xlink" x="0px" y="0px"
	 viewBox="0 0 8.9 9.2" style="enable-background:new 0 0 8.9 9.2;" xml:space="preserve">
<style type="text/css">
	.st0{fill-rule:evenodd;clip-rule:evenodd;fill:#2C3E50;}
	.st1{fill-rule:evenodd;clip-rule:evenodd;fill:#DAE1E6;}
	.st2{fill-rule:evenodd;clip-rule:evenodd;fill:#C43E3F;}
</style>
<g id="Õ_x2021_Ô_xF8FF__x2021__x201A_Î_x2C7__x2DB__x2D8_ËÂ__x2030_Î_x2C7__ÏÓÌÚ_x2021_ÊÌÓÈ_Ó·Î_x2021_ÒÚË">
</g>
<g id="_x2014_ÎÓÈ_1">
	<g>
		<path class="st0" d="M1.7,7.9c-0.1,0-0.1,0-0.2-0.1c0,0-0.1-0.1-0.1-0.2V1.5c0,0,0-0.1,0.1-0.1c0.1,0,0.2,0,0.3,0
			c0,0,0.1,0,0.1,0.1v5.9h5.9c0,0,0.1,0,0.1,0.1c0,0.1,0,0.2,0,0.3c0,0,0,0.1-0.1,0.1H1.7z"/>
		<rect x="2" y="2.9" class="st1" width="4.5" height="4.5"/>
		<path class="st2" d="M2.4,6.1l1.2-1.6c0,0,0.1-0.1,0.1-0.1c0,0,0.1,0,0.1,0l1.3,0l0.6-1L5.3,3.6C5.2,3.7,5.1,3.6,5,3.5L4.9,3.3
			C4.9,3.2,4.9,3.1,5,3c0.6-0.3,1.2-0.6,1.8-0.9c0,0.7,0,1.3,0.1,2c0,0.1-0.1,0.2-0.2,0.2l-0.2,0c-0.1,0-0.2-0.1-0.2-0.2l0-0.4
			L5.6,4.9c0,0-0.1,0.1-0.1,0.1c0,0-0.1,0-0.2,0L4,5.1L2.9,6.5c-0.1,0.1-0.2,0.1-0.3,0L2.4,6.4C2.3,6.4,2.3,6.2,2.4,6.1z"/>
	</g>
</g>
</svg>
