<?xml version="1.0" encoding="utf-8"?>
<!-- Generator: Adobe Illustrator 22.1.0, SVG Export Plug-In . SVG Version: 6.00 Build 0)  -->
<svg version="1.1" id="_x2014_ÎÓÈ_x5F_1" xmlns="http://www.w3.org/2000/svg" xmlns:xlink="http://www.w3.org/1999/xlink"
	 x="0px" y="0px" viewBox="0 0 526.2 850.4" style="enable-background:new 0 0 526.2 850.4;" xml:space="preserve">
<style type="text/css">
	.st0{fill:#FFFFFF;}
</style>
<g>
	<g>
		<path class="st0" d="M481.1,163.9c-11.9-25.7-28.5-47.9-49.9-66.5C409.7,78.7,384,64.2,354,53.8c-30-10.4-63.1-15.6-99.4-15.6
			c-34.3,0-65.8,5.7-94.7,17.1c-28.8,11.4-54.1,27.6-75.9,48.7c-21.8,21.1-39.4,46.6-52.9,76.6c-2.1,4.7-4.1,9.4-5.9,14.2
			c-16,41.8,14.9,86.6,59.6,86.6h6.5c27.8,0,52.7-17.7,61.1-44.2c18.2-57.2,52.6-85.8,103.2-85.8c15.8,0,30.2,2.6,43.3,7.7
			c13,5.1,24.2,12.3,33.6,21.5c9.4,9.2,16.7,20,22,32.4c5.3,12.4,7.9,26,7.9,40.8c0,7.9-0.6,15.2-1.7,22c-1.2,6.8-4.2,14-9.1,21.8
			c-4.9,7.7-12.3,16.6-22,26.7c-9.7,10.1-23,22.2-39.8,36.3c-38.9,32.3-65.8,63.6-80.6,93.9c-7.6,15.5-13.1,36.4-16.6,62.8
			c-1.1,8.6-2.1,17.8-2.9,27.6c-3,37.1,26.4,68.8,63.6,68.8h0c33.3,0,60.9-25.6,63.6-58.8c1.8-22.9,5-39.1,9.4-48.5
			c3.6-8.2,10.9-18,21.8-29.4c10.9-11.4,25.2-24.5,43-39.3c41.2-33.9,69.2-65.4,84.1-94.4c15.8-28.7,23.7-60.5,23.7-95.4
			C498.9,217.6,492.9,189.6,481.1,163.9z"/>
		<path class="st0" d="M254.9,664.1h-2.1c-40.3,0-73,33.1-73,74v0c0,40.9,32.7,74,73,74h2.1c40.3,0,73-33.1,73-74v0
			C327.9,697.2,295.2,664.1,254.9,664.1z"/>
	</g>
</g>
</svg>
