<?xml version="1.0" encoding="utf-8"?>
<!-- Generator: Adobe Illustrator 22.1.0, SVG Export Plug-In . SVG Version: 6.00 Build 0)  -->
<svg version="1.1" id="Layer_1" xmlns="http://www.w3.org/2000/svg" xmlns:xlink="http://www.w3.org/1999/xlink" x="0px" y="0px"
	 viewBox="0 0 253.1 369.9" style="enable-background:new 0 0 253.1 369.9;" xml:space="preserve">
<style type="text/css">
	.st0{fill:#FFFFFF;}
</style>
<g>
	<g>
		<path class="st0" d="M74.6,53.6c-7.9,0-15.2,3.2-20.4,8.5c-5.2,5.2-8.5,12.4-8.5,20.4v109.7v109.7c0,8,3.2,15.2,8.5,20.4
			c5.2,5.2,12.4,8.5,20.4,8.5c8,0,15.2-3.2,20.4-8.5c5.2-5.2,8.4-12.4,8.4-20.4V192.1V82.4c0-8-3.2-15.2-8.4-20.4
			S82.6,53.6,74.6,53.6z"/>
		<path class="st0" d="M74.6,333.2c-8.4,0-16.2-3.3-22.2-9.2c-5.9-5.9-9.2-13.8-9.2-22.2V82.4c0-8.4,3.3-16.3,9.2-22.2
			c5.9-5.9,13.8-9.2,22.2-9.2c8.4,0,16.3,3.3,22.2,9.2c5.9,5.9,9.2,13.8,9.2,22.2v219.4c0,8.4-3.3,16.3-9.2,22.2
			C90.9,329.9,83,333.2,74.6,333.2z M74.6,56.1c-7,0-13.6,2.7-18.6,7.7c-5,5-7.7,11.6-7.7,18.6v219.4c0,7,2.7,13.7,7.7,18.6
			c5,5,11.6,7.7,18.6,7.7c7.1,0,13.7-2.7,18.7-7.7c5-5,7.7-11.6,7.7-18.6V82.4c0-7-2.7-13.7-7.7-18.6C88.3,58.8,81.7,56.1,74.6,56.1
			z"/>
	</g>
	<g>
		<path class="st0" d="M190.1,53.6c-7.9,0-15.2,3.2-20.4,8.5c-5.2,5.2-8.5,12.4-8.5,20.4v109.7v109.7c0,8,3.2,15.2,8.5,20.4
			c5.2,5.2,12.4,8.5,20.4,8.5c8,0,15.2-3.2,20.4-8.5c5.2-5.2,8.4-12.4,8.4-20.4V192.1V82.4c0-8-3.2-15.2-8.4-20.4
			C205.3,56.8,198.1,53.6,190.1,53.6z"/>
		<path class="st0" d="M190.1,333.2c-8.4,0-16.2-3.3-22.2-9.2c-5.9-5.9-9.2-13.8-9.2-22.2V82.4c0-8.4,3.3-16.3,9.2-22.2
			c5.9-5.9,13.8-9.2,22.2-9.2c8.4,0,16.3,3.3,22.2,9.2c5.9,5.9,9.2,13.8,9.2,22.2v219.4c0,8.4-3.3,16.3-9.2,22.2
			C206.4,329.9,198.5,333.2,190.1,333.2z M190.1,56.1c-7,0-13.6,2.7-18.6,7.7c-5,5-7.7,11.6-7.7,18.6v219.4c0,7,2.7,13.7,7.7,18.6
			c5,5,11.6,7.7,18.6,7.7c7.1,0,13.7-2.7,18.7-7.7c5-5,7.7-11.6,7.7-18.6V82.4c0-7-2.7-13.7-7.7-18.6
			C203.8,58.8,197.1,56.1,190.1,56.1z"/>
	</g>
</g>
</svg>
