<?xml version="1.0" encoding="utf-8"?>
<!-- Generator: Adobe Illustrator 22.1.0, SVG Export Plug-In . SVG Version: 6.00 Build 0)  -->
<svg version="1.1" id="Layer_1" xmlns="http://www.w3.org/2000/svg" xmlns:xlink="http://www.w3.org/1999/xlink" x="0px" y="0px"
	 viewBox="0 0 45.5 24.7" style="enable-background:new 0 0 45.5 24.7;" xml:space="preserve">
<style type="text/css">
	.st0{fill:#FFFFFF;}
</style>
<g>
	<path class="st0" d="M15,8.2c1.4,0,2.6,0.6,3.4,1.5c0.3-0.6,0.6-1.3,1-1.8c-1.2-1-2.6-1.6-4.3-1.7v0H4.3v2L15,8.2L15,8.2z"/>
	<path class="st0" d="M26.6,8.2c0,0,0.1,0,0.1,0v0h7.4v2.5l6-3.5l-6-3.5v2.4h-7.4v0c0,0-0.1,0-0.1,0c-2.5,0-4.6,1.3-5.8,3.3
		c0,0,0,0,0,0c-0.6,1-1,2.2-1,3.5c0,0,0,0,0,0c0,2.6-2.1,4.8-4.7,4.8H15c0,0,0,0,0,0h-4.7c0,0,0,0,0,0H4.3v2h10.6c0,0,0.1,0,0.1,0
		c0,0,0.1,0,0.1,0h0v0c2.1,0,3.9-1,5.1-2.5c0,0,0.1-0.1,0.1-0.1c0.2-0.2,0.3-0.4,0.4-0.6c0,0,0,0,0,0c0.6-1,1-2.2,1-3.5c0,0,0,0,0,0
		c0,0,0,0,0,0C21.8,10.4,24,8.2,26.6,8.2z"/>
	<path class="st0" d="M34.1,17.8h-2.7c0,0,0,0,0,0h-4.7v0c0,0-0.1,0-0.1,0c-1.4,0-2.6-0.6-3.5-1.5c-0.3,0.6-0.6,1.3-1,1.8
		c1.2,1.1,2.8,1.7,4.5,1.7c0,0,0.1,0,0.1,0h7.4v2.5l6-3.5l-6-3.5V17.8z"/>
</g>
</svg>
