<?xml version="1.0" encoding="utf-8"?>
<!-- Generator: Adobe Illustrator 22.1.0, SVG Export Plug-In . SVG Version: 6.00 Build 0)  -->
<svg version="1.1" id="Layer_1" xmlns="http://www.w3.org/2000/svg" xmlns:xlink="http://www.w3.org/1999/xlink" x="0px" y="0px"
	 viewBox="0 0 39.7 33.5" style="enable-background:new 0 0 39.7 33.5;" xml:space="preserve">
<style type="text/css">
	.st0{display:none;}
	.st1{display:inline;}
	.st2{display:inline;clip-path:url(#SVGID_2_);}
	.st3{opacity:0.65;}
	.st4{fill:#FFFFFF;}
</style>
<g class="st0">
	<defs>
		<rect id="SVGID_1_" x="-292.6" y="-463.1" width="684" height="684"/>
	</defs>
	<clipPath id="SVGID_2_" class="st1">
		<use xlink:href="#SVGID_1_"  style="overflow:visible;"/>
	</clipPath>
	<g class="st2">
		
			<image style="overflow:visible;" width="3007" height="3001" xlink:href="541D01358CF0ADAA.png"  transform="matrix(0.24 0 0 0.24 -307.7151 -478.435)">
		</image>
		<rect x="-307.6" y="-478.3" class="st3" width="721.4" height="720.1"/>
	</g>
</g>
<g>
	<path class="st4" d="M6.7,13.4c3.2-3.2,7.3-4.9,11.8-4.9c4.3,0,8.3,1.6,11.4,4.5l-1.7,1.7l6.7,1.8L33,9.8l-1.8,1.8
		c-3.5-3.3-8-5.1-12.8-5.1c-5,0-9.7,1.9-13.2,5.5c-0.4,0.4-0.4,1,0,1.4C5.7,13.8,6.3,13.8,6.7,13.4z"/>
	<polygon class="st4" points="5.5,20.6 5.8,22.2 7.6,21.4 7.6,21.4 7.6,28.7 9.7,28.7 9.7,19.5 7.9,19.5 	"/>
	<path class="st4" d="M17.2,26.2l1.3-1.2c2.7-2.5,4.6-4.6,4.6-7.3c0-2.5-1.6-4.6-5-4.6c-1.9,0-3.6,0.7-4.7,1.6l0.8,2
		c0.8-0.6,1.9-1.3,3.3-1.3c2,0,2.7,1.2,2.7,2.6c0,2-1.7,3.9-5.3,7.2l-1.8,1.7v1.8h10.4v-2.4L17.2,26.2L17.2,26.2z"/>
	<path class="st4" d="M29.7,23.8L29.7,23.8c1.1-0.4,1.7-1.2,1.7-2.2c0-1.3-1.1-2.3-3.1-2.3c-1.2,0-2.3,0.3-2.8,0.7l0.4,1.6
		c0.4-0.2,1.2-0.6,1.9-0.6c0.9,0,1.4,0.4,1.4,1c0,0.8-0.9,1-1.6,1.1h-0.8v1.5h0.9c0.9,0,1.9,0.4,1.9,1.3c0,0.7-0.6,1.2-1.7,1.2
		c-0.9,0-1.8-0.4-2.1-0.6l-0.4,1.6c0.5,0.3,1.5,0.6,2.7,0.6c2.3,0,3.8-1.2,3.8-2.8C31.7,24.8,30.8,24,29.7,23.8z"/>
</g>
</svg>
