<?xml version="1.0" encoding="utf-8"?>
<!-- Generator: Adobe Illustrator 22.1.0, SVG Export Plug-In . SVG Version: 6.00 Build 0)  -->
<svg version="1.1" id="_x2014_ÎÓÈ_x5F_1" xmlns="http://www.w3.org/2000/svg" xmlns:xlink="http://www.w3.org/1999/xlink"
	 x="0px" y="0px" viewBox="0 0 599.5 598.7" style="enable-background:new 0 0 599.5 598.7;" xml:space="preserve">
<style type="text/css">
	.st0{fill:#FFFFFF;}
</style>
<g>
	<g>
		<path class="st0" d="M299.5,21.3c-153.4,0-278.2,124.8-278.2,278.2c0,153.4,124.8,278.2,278.2,278.2
			c153.4,0,278.2-124.8,278.2-278.2C577.8,146.1,453,21.3,299.5,21.3z M299.5,528.2c-126.1,0-228.7-102.6-228.7-228.7
			c0-126.1,102.6-228.7,228.7-228.7c126.1,0,228.7,102.6,228.7,228.7C528.2,425.6,425.6,528.2,299.5,528.2z"/>
		<path class="st0" d="M402.7,287.6l-160.3-91.2c-9.2-5.2-20.5,1.4-20.5,11.9v182.5c0,10.5,11.4,17.2,20.5,11.9l160.3-91.2
			C412,306.2,412,292.9,402.7,287.6z"/>
	</g>
</g>
</svg>
