<?xml version="1.0" encoding="utf-8"?>
<!-- Generator: Adobe Illustrator 22.1.0, SVG Export Plug-In . SVG Version: 6.00 Build 0)  -->
<svg version="1.1" id="Layer_1" xmlns="http://www.w3.org/2000/svg" xmlns:xlink="http://www.w3.org/1999/xlink" x="0px" y="0px"
	 viewBox="0 0 32.9 34.6" style="enable-background:new 0 0 32.9 34.6;" xml:space="preserve">
<style type="text/css">
	.st0{display:none;}
	.st1{display:inline;}
	.st2{display:inline;clip-path:url(#SVGID_2_);}
	.st3{opacity:0.65;}
	.st4{fill:#FFFFFF;}
</style>
<g class="st0">
	<defs>
		<rect id="SVGID_1_" x="-272.3" y="-378.5" width="684" height="684"/>
	</defs>
	<clipPath id="SVGID_2_" class="st1">
		<use xlink:href="#SVGID_1_"  style="overflow:visible;"/>
	</clipPath>
	<g class="st2">
		
			<image style="overflow:visible;" width="3007" height="3001" xlink:href="580B4876C9E504E9.png"  transform="matrix(0.24 0 0 0.24 -287.3719 -393.9049)">
		</image>
		<rect x="-287.3" y="-393.8" class="st3" width="721.4" height="720.1"/>
	</g>
</g>
<g>
	<path class="st4" d="M2.5,30.8h11.8V19H2.5V30.8z M4.5,21h7.8v7.8H4.5V21z"/>
	<polygon class="st4" points="7.4,4.3 7.4,18 9.4,18 9.4,6.3 27,6.3 27,23.9 15.3,23.9 15.3,25.9 29,25.9 29,4.3 	"/>
	<polygon class="st4" points="24.2,10.4 24.9,11.1 25.9,7.3 22.1,8.3 22.8,9 13.8,18 15.3,18 15.3,19.3 	"/>
</g>
</svg>
