<?xml version="1.0" encoding="utf-8"?>
<!-- Generator: Adobe Illustrator 22.1.0, SVG Export Plug-In . SVG Version: 6.00 Build 0)  -->
<svg version="1.1" id="Layer_1" xmlns="http://www.w3.org/2000/svg" xmlns:xlink="http://www.w3.org/1999/xlink" x="0px" y="0px"
	 viewBox="0 0 49.9 36.9" style="enable-background:new 0 0 49.9 36.9;" xml:space="preserve">
<style type="text/css">
	.st0{fill:#FFFFFF;}
</style>
<g>
	<path class="st0" d="M5.2,13.7v10.7h9.2L24,30V8.1l-9.6,5.6H5.2z M22,11.6v14.9l-7.1-4.1H7.2v-6.7h7.7L22,11.6z"/>
	<path class="st0" d="M28,14.9c1.1,1.1,1.7,2.5,1.7,4.1c0,1.5-0.6,3-1.7,4.1l1.4,1.4c1.5-1.5,2.3-3.4,2.3-5.5c0-2.1-0.8-4-2.3-5.5
		L28,14.9z"/>
	<path class="st0" d="M33.6,9.2l-1.4,1.4c4.6,4.6,4.6,12.1,0,16.7l1.4,1.4C39,23.4,39,14.6,33.6,9.2z"/>
	<path class="st0" d="M37.9,4.9l-1.4,1.4c3.4,3.4,5.2,7.9,5.2,12.6c0,4.8-1.9,9.2-5.2,12.6l1.4,1.4c3.8-3.8,5.8-8.7,5.8-14
		C43.7,13.7,41.6,8.7,37.9,4.9z"/>
</g>
</svg>
