<?xml version="1.0" encoding="utf-8"?>
<!-- Generator: Adobe Illustrator 22.1.0, SVG Export Plug-In . SVG Version: 6.00 Build 0)  -->
<svg version="1.1" xmlns="http://www.w3.org/2000/svg" xmlns:xlink="http://www.w3.org/1999/xlink" x="0px" y="0px"
	 viewBox="0 0 11 11.7" style="enable-background:new 0 0 11 11.7;" xml:space="preserve">
<style type="text/css">
	.st0{fill-rule:evenodd;clip-rule:evenodd;fill:#16A085;}
	.st1{fill-rule:evenodd;clip-rule:evenodd;fill:#3D566E;}
	.st2{fill-rule:evenodd;clip-rule:evenodd;fill:#DAE1E6;}
	.st3{fill-rule:evenodd;clip-rule:evenodd;fill:#2C3E50;}
	.st4{fill-rule:evenodd;clip-rule:evenodd;fill:#C43E3F;}
</style>
<g id="Õ_x2021_Ô_xF8FF__x2021__x201A_Î_x2C7__x2DB__x2D8_ËÂ__x2030_Î_x2C7__ÏÓÌÚ_x2021_ÊÌÓÈ_Ó·Î_x2021_ÒÚË">
</g>
<g id="_x2014_ÎÓÈ_1">
	<path class="st0" d="M2.7,10.2"/>
	<path class="st0" d="M2.7,10.2"/>
	<path class="st0" d="M2.7,10.2"/>
	<path class="st0" d="M2.7,10.2"/>
	<path class="st0" d="M3.2,10.2"/>
	<path class="st0" d="M3.2,10.2"/>
	<path class="st0" d="M3.2,10.2"/>
	<path class="st0" d="M3.2,10.2"/>
	<path class="st0" d="M2.7,10.2"/>
	<path class="st0" d="M2.7,10.2"/>
	<path class="st0" d="M2.7,10.2"/>
	<path class="st0" d="M2.7,10.2"/>
	<g>
		<path class="st1" d="M1.9,3.6L1.9,3.6L1.9,3.6L1.9,3.6L1.9,3.6L1.9,3.6c-0.1,0-0.1,0-0.1-0.1V3c0,0,0-0.1,0.1-0.1
			c2.4,0,4.8,0,7.2,0c0,0,0.1,0,0.1,0.1v0.5c0,0.1-0.1,0.1-0.1,0.1h0h0h0h0h0H1.9z"/>
		<path class="st2" d="M9,3.6C9,5.6,9,6,9,8c0,0.3-0.2,0.5-0.5,0.5c-2,0-4,0-6,0C2.2,8.5,1.9,8.3,1.9,8V3.6H9z"/>
		<path class="st3" d="M5.2,3V2.5c0-0.3,0.5-0.3,0.5,0V3H5.2z"/>
		<path class="st3" d="M5.2,8.5v1.2c0,0.3,0.5,0.3,0.5,0V8.5H5.2z"/>
		<path class="st3" d="M6.5,8.5l1,1c0.2,0.2-0.1,0.6-0.3,0.3L5.8,8.5H6.5z"/>
		<path class="st3" d="M4.5,8.5l-1,1c-0.2,0.2,0.1,0.6,0.3,0.3l1.3-1.3H4.5z"/>
		<path class="st4" d="M6,5.9l1.5-1.5C7.7,4.2,8,4.5,7.8,4.8C7.1,5.5,6.7,5.8,6,6.6L5.1,5.6c-0.6,0.6-1,1-1.6,1.6
			C3.3,7.4,2.9,7.1,3.2,6.9C3.9,6.1,4.3,5.7,5.1,5C5.1,5,5.9,5.8,6,5.9z"/>
	</g>
</g>
</svg>
