<?xml version="1.0" encoding="utf-8"?>
<!-- Generator: Adobe Illustrator 22.1.0, SVG Export Plug-In . SVG Version: 6.00 Build 0)  -->
<svg version="1.1" id="Layer_1" xmlns="http://www.w3.org/2000/svg" xmlns:xlink="http://www.w3.org/1999/xlink" x="0px" y="0px"
	 viewBox="0 0 1200 1200" style="enable-background:new 0 0 1200 1200;" xml:space="preserve">
<style type="text/css">
	.st0{fill-rule:evenodd;clip-rule:evenodd;fill:#F14FA2;}
	.st1{fill-rule:evenodd;clip-rule:evenodd;fill:#39B0B8;}
	.st2{fill-rule:evenodd;clip-rule:evenodd;fill:#FBE38B;}
	.st3{fill-rule:evenodd;clip-rule:evenodd;fill:#FB515A;}
</style>
<path class="st0" d="M1064.1,658.4c-15.2,0-27.4,12-27.4,26.9c0,14.9,12.3,26.9,27.4,26.9s27.4-12,27.4-26.9
	C1091.5,670.4,1079.2,658.4,1064.1,658.4 M1064.1,656.4c-16.3,0-29.5,12.9-29.5,28.9c0,16,13.2,28.9,29.5,28.9s29.5-12.9,29.5-28.9
	C1093.5,669.3,1080.3,656.4,1064.1,656.4z"/>
<path class="st1" d="M997.7,479h-10.6v10.6h10.6V479z M997.7,500.6h-10.6v10.6h10.6V500.6z M997.7,522.2h-10.6v10.6h10.6V522.2z
	 M975.3,457.4h-10.6v10.6h10.6V457.4z M975.3,479h-10.6v10.6h10.6V479z M975.3,500.6h-10.6v10.6h10.6V500.6z M975.3,522.2h-10.6
	v10.6h10.6V522.2z M952.9,457.4h-10.6v10.6h10.6V457.4z M952.9,479h-10.6v10.6h10.6V479z M952.9,500.6h-10.6v10.6h10.6V500.6z
	 M952.9,522.2h-10.6v10.6h10.6V522.2z M930.4,457.4h-10.6v10.6h10.6V457.4z M930.4,479h-10.6v10.6h10.6V479z M930.4,500.6h-10.6
	v10.6h10.6V500.6z M930.4,522.2h-10.6v10.6h10.6V522.2z M997.7,457.4h-10.6v10.6h10.6V457.4z"/>
<rect x="868.7" y="125.3" class="st0" width="220.1" height="46.9"/>
<path class="st2" d="M1064.1,150.6c0,4.4,3.5,7.9,7.9,7.9c4.4,0,7.9-3.5,7.9-7.9c0-4.4-3.5-7.9-7.9-7.9
	C1067.6,142.7,1064.1,146.2,1064.1,150.6 M1098,150.6c0,4.4,3.5,7.9,7.9,7.9c4.4,0,7.9-3.5,7.9-7.9c0-4.4-3.5-7.9-7.9-7.9
	C1101.6,142.7,1098,146.2,1098,150.6z M1132,150.6c0,4.4,3.5,7.9,7.9,7.9c4.4,0,7.9-3.5,7.9-7.9c0-4.4-3.5-7.9-7.9-7.9
	C1135.6,142.7,1132,146.2,1132,150.6z M1030.1,150.6c0,4.4,3.5,7.9,7.9,7.9c4.4,0,7.9-3.5,7.9-7.9c0-4.4-3.5-7.9-7.9-7.9
	C1033.6,142.7,1030.1,146.2,1030.1,150.6z"/>
<path class="st3" d="M432.9,1081.2h-11v10.9h11V1081.2z M432.9,1103.5h-11v10.9h11V1103.5z M432.9,1125.7h-11v10.9h11V1125.7z
	 M409.6,1059h-11v10.9h11V1059z M409.6,1081.2h-11v10.9h11V1081.2z M409.6,1103.5h-11v10.9h11V1103.5z M409.6,1125.7h-11v10.9h11
	V1125.7z M386.2,1059h-11v10.9h11V1059z M386.2,1081.2h-11v10.9h11V1081.2z M386.2,1103.5h-11v10.9h11V1103.5z M386.2,1125.7h-11
	v10.9h11V1125.7z M362.9,1059h-11v10.9h11V1059z M362.9,1081.2h-11v10.9h11V1081.2z M362.9,1103.5h-11v10.9h11V1103.5z
	 M362.9,1125.7h-11v10.9h11V1125.7z M432.9,1059h-11v10.9h11V1059z"/>
<path class="st3" d="M203,192c-3.1,0-5.7,2.3-5.7,5.2c0,2.9,2.5,5.2,5.7,5.2c3.1,0,5.7-2.3,5.7-5.2C208.7,194.4,206.1,192,203,192"
	/>
<path class="st3" d="M177.7,192c-3.1,0-5.7,2.3-5.7,5.2c0,2.9,2.5,5.2,5.7,5.2c3.1,0,5.7-2.3,5.7-5.2
	C183.4,194.4,180.8,192,177.7,192"/>
<path class="st3" d="M152.4,192c-3.1,0-5.7,2.3-5.7,5.2c0,2.9,2.5,5.2,5.7,5.2c3.1,0,5.7-2.3,5.7-5.2C158,194.4,155.5,192,152.4,192
	"/>
<path class="st3" d="M127,192c-3.1,0-5.7,2.3-5.7,5.2c0,2.9,2.5,5.2,5.7,5.2c3.1,0,5.7-2.3,5.7-5.2C132.7,194.4,130.2,192,127,192"
	/>
<path class="st3" d="M101.7,192c-3.1,0-5.7,2.3-5.7,5.2c0,2.9,2.5,5.2,5.7,5.2c3.1,0,5.7-2.3,5.7-5.2
	C107.4,194.4,104.9,192,101.7,192"/>
<path class="st1" d="M840.2,274.2c-2.2,0-4,1.8-4,4c0,2.2,1.8,4,4,4c2.2,0,4-1.8,4-4C844.2,275.9,842.4,274.2,840.2,274.2"/>
<path class="st1" d="M853.9,290.5c-2.2,0-4,1.8-4,4c0,2.2,1.8,4,4,4c2.2,0,4-1.8,4-4C857.9,292.3,856.1,290.5,853.9,290.5"/>
<path class="st1" d="M867.6,306.9c-2.2,0-4,1.8-4,4c0,2.2,1.8,4,4,4s4-1.8,4-4C871.6,308.7,869.8,306.9,867.6,306.9"/>
<path class="st1" d="M881.3,323.3c-2.2,0-4,1.8-4,4s1.8,4,4,4c2.2,0,4-1.8,4-4S883.5,323.3,881.3,323.3"/>
<path class="st1" d="M894.9,339.6c-2.2,0-4,1.8-4,4c0,2.2,1.8,4,4,4c2.2,0,4-1.8,4-4C898.9,341.4,897.1,339.6,894.9,339.6"/>
<path class="st1" d="M908.6,356c-2.2,0-4,1.8-4,4s1.8,4,4,4c2.2,0,4-1.8,4-4S910.8,356,908.6,356"/>
<path class="st1" d="M922.3,372.4c-2.2,0-4,1.8-4,4c0,2.2,1.8,4,4,4c2.2,0,4-1.8,4-4C926.3,374.1,924.5,372.4,922.3,372.4"/>
<path class="st1" d="M76.7,799.1c-2.3,0-4.2,2.2-4.2,4.9c0,2.7,1.9,4.9,4.2,4.9c2.3,0,4.2-2.2,4.2-4.9
	C80.9,801.3,79,799.1,76.7,799.1"/>
<path class="st1" d="M91.2,819.2c-2.3,0-4.2,2.2-4.2,4.9c0,2.7,1.9,4.9,4.2,4.9c2.3,0,4.2-2.2,4.2-4.9
	C95.4,821.4,93.5,819.2,91.2,819.2"/>
<path class="st1" d="M105.7,839.3c-2.3,0-4.2,2.2-4.2,4.9c0,2.7,1.9,4.9,4.2,4.9c2.3,0,4.2-2.2,4.2-4.9
	C109.9,841.5,108,839.3,105.7,839.3"/>
<path class="st1" d="M120.2,859.3c-2.3,0-4.2,2.2-4.2,4.9s1.9,4.9,4.2,4.9c2.3,0,4.2-2.2,4.2-4.9S122.5,859.3,120.2,859.3"/>
<path class="st1" d="M134.6,879.4c-2.3,0-4.2,2.2-4.2,4.9c0,2.7,1.9,4.9,4.2,4.9c2.3,0,4.2-2.2,4.2-4.9
	C138.9,881.6,137,879.4,134.6,879.4"/>
<path class="st1" d="M149.1,899.5c-2.3,0-4.2,2.2-4.2,4.9c0,2.7,1.9,4.9,4.2,4.9c2.3,0,4.2-2.2,4.2-4.9
	C153.3,901.6,151.5,899.5,149.1,899.5"/>
<path class="st1" d="M163.6,919.5c-2.3,0-4.2,2.2-4.2,4.9c0,2.7,1.9,4.9,4.2,4.9c2.3,0,4.2-2.2,4.2-4.9
	C167.8,921.7,165.9,919.5,163.6,919.5"/>
<path class="st1" d="M987.8,884c-2.3,0.2-4.1,2.1-3.9,4.3c0.2,2.2,2.2,3.9,4.5,3.7c2.3-0.2,4.1-2.1,3.9-4.3
	C992.1,885.5,990.1,883.8,987.8,884"/>
<path class="st1" d="M1003.4,899.5c-2.3,0.2-4.1,2.1-3.9,4.3c0.2,2.2,2.2,3.9,4.5,3.7c2.3-0.2,4.1-2.1,3.9-4.3
	C1007.7,901,1005.7,899.3,1003.4,899.5"/>
<path class="st1" d="M1019,914.9c-2.3,0.2-4.1,2.1-3.9,4.3c0.2,2.2,2.2,3.9,4.5,3.7c2.3-0.2,4.1-2.1,3.9-4.3
	C1023.3,916.4,1021.3,914.8,1019,914.9"/>
<path class="st1" d="M1034.6,930.4c-2.3,0.2-4.1,2.1-3.9,4.3s2.2,3.9,4.5,3.7c2.3-0.2,4.1-2.1,3.9-4.3S1036.9,930.2,1034.6,930.4"/>
<path class="st1" d="M1050.2,945.9c-2.3,0.2-4.1,2.1-3.9,4.3c0.2,2.2,2.2,3.9,4.5,3.7c2.3-0.2,4.1-2.1,3.9-4.3
	C1054.6,947.4,1052.6,945.7,1050.2,945.9"/>
<path class="st1" d="M1065.9,961.3c-2.3,0.2-4.1,2.1-3.9,4.3c0.2,2.2,2.2,3.9,4.5,3.7c2.3-0.2,4.1-2.1,3.9-4.3
	C1070.2,962.8,1068.2,961.2,1065.9,961.3"/>
<path class="st2" d="M575.1,111h-8.1v8.1h8.1V111z M575.1,127.5h-8.1v8.1h8.1V127.5z M575.1,144.1h-8.1v8.1h8.1V144.1z M558,94.4
	h-8.1v8.1h8.1V94.4z M558,111h-8.1v8.1h8.1V111z M558,127.5h-8.1v8.1h8.1V127.5z M558,144.1h-8.1v8.1h8.1V144.1z M540.8,94.4h-8.1
	v8.1h8.1V94.4z M540.8,111h-8.1v8.1h8.1V111z M540.8,127.5h-8.1v8.1h8.1V127.5z M540.8,144.1h-8.1v8.1h8.1V144.1z M523.6,94.4h-8.1
	v8.1h8.1V94.4z M523.6,111h-8.1v8.1h8.1V111z M523.6,127.5h-8.1v8.1h8.1V127.5z M523.6,144.1h-8.1v8.1h8.1V144.1z M575.1,94.4h-8.1
	v8.1h8.1V94.4z"/>
<path class="st2" d="M324.5,624.3c-3.2,0-5.9,2.3-5.9,5.1c0,2.8,2.6,5.1,5.9,5.1c3.2,0,5.9-2.3,5.9-5.1
	C330.3,626.6,327.7,624.3,324.5,624.3 M324.5,646.2c-3.2,0-5.9,2.3-5.9,5.1c0,2.8,2.6,5.1,5.9,5.1c3.2,0,5.9-2.3,5.9-5.1
	C330.3,648.5,327.7,646.2,324.5,646.2z M324.5,668.1c-3.2,0-5.9,2.3-5.9,5.1c0,2.8,2.6,5.1,5.9,5.1c3.2,0,5.9-2.3,5.9-5.1
	C330.3,670.4,327.7,668.1,324.5,668.1z M324.5,602.4c-3.2,0-5.9,2.3-5.9,5.1c0,2.8,2.6,5.1,5.9,5.1c3.2,0,5.9-2.3,5.9-5.1
	C330.3,604.7,327.7,602.4,324.5,602.4z"/>
<path class="st1" d="M192.9,348.5c-1.9,0-3.4,1.5-3.4,3.4c0,1.9,1.5,3.4,3.4,3.4c1.9,0,3.4-1.5,3.4-3.4
	C196.2,350,194.7,348.5,192.9,348.5"/>
<path class="st1" d="M204.5,362.3c-1.9,0-3.4,1.5-3.4,3.4c0,1.9,1.5,3.4,3.4,3.4c1.9,0,3.4-1.5,3.4-3.4
	C207.8,363.8,206.3,362.3,204.5,362.3"/>
<path class="st1" d="M216.1,376.2c-1.9,0-3.4,1.5-3.4,3.4c0,1.9,1.5,3.4,3.4,3.4c1.9,0,3.4-1.5,3.4-3.4
	C219.4,377.7,217.9,376.2,216.1,376.2"/>
<path class="st1" d="M227.6,390c-1.9,0-3.4,1.5-3.4,3.4c0,1.9,1.5,3.4,3.4,3.4c1.9,0,3.4-1.5,3.4-3.4C231,391.5,229.5,390,227.6,390
	"/>
<path class="st1" d="M239.2,403.9c-1.9,0-3.4,1.5-3.4,3.4c0,1.9,1.5,3.4,3.4,3.4c1.9,0,3.4-1.5,3.4-3.4
	C242.6,405.4,241.1,403.9,239.2,403.9"/>
<path class="st1" d="M250.8,417.7c-1.9,0-3.4,1.5-3.4,3.4c0,1.9,1.5,3.4,3.4,3.4c1.9,0,3.4-1.5,3.4-3.4
	C254.2,419.3,252.7,417.7,250.8,417.7"/>
<path class="st1" d="M262.4,431.6c-1.9,0-3.4,1.5-3.4,3.4c0,1.9,1.5,3.4,3.4,3.4c1.9,0,3.4-1.5,3.4-3.4
	C265.8,433.1,264.3,431.6,262.4,431.6"/>
</svg>
