<?xml version="1.0" encoding="utf-8"?>
<!-- Generator: Adobe Illustrator 22.1.0, SVG Export Plug-In . SVG Version: 6.00 Build 0)  -->
<svg version="1.1" xmlns="http://www.w3.org/2000/svg" xmlns:xlink="http://www.w3.org/1999/xlink" x="0px" y="0px"
	 viewBox="0 0 640.3 349.2" style="enable-background:new 0 0 640.3 349.2;" xml:space="preserve">
<style type="text/css">
	.st0{fill:#2580EF;}
</style>
<g id="_x2014_ÎÓÈ_x5F_2">
</g>
<g id="_x2014_ÎÓÈ_x5F_1">
	<g id="XMLID_761_">
		<path style="fill:rgb(152,129,177);" id="XMLID_762_" class="st0" d="M84.3,304.3c0-5.7,4.7-10.4,10.4-10.4c5.7,0,10.4,4.7,10.4,10.4c0,5.7-4.7,10.4-10.4,10.4
			C89,314.6,84.3,310,84.3,304.3z M88,304.3c0,3.7,3,6.7,6.7,6.7c3.7,0,6.7-3,6.7-6.7c0-3.7-3-6.7-6.7-6.7
			C91,297.6,88,300.6,88,304.3z"/>
	</g>
	<g id="XMLID_773_">
		<g id="XMLID_833_">
			<g id="XMLID_834_">
				<path style="fill:rgb(152,129,177);" id="XMLID_835_" class="st0" d="M102.8,70c0.8,0,1.5-0.3,2.1-0.9l4.8-4.8c1.1-1.1,1.1-3,0-4.2c-1.1-1.1-3-1.1-4.2,0
					l-4.8,4.8c-1.1,1.1-1.1,3,0,4.2C101.3,69.8,102.1,70,102.8,70z"/>
			</g>
		</g>
		<g id="XMLID_830_">
			<g id="XMLID_831_">
				<path style="fill:rgb(152,129,177);" id="XMLID_832_" class="st0" d="M97.6,57.6h6.8c1.6,0,2.9-1.3,2.9-2.9s-1.3-2.9-2.9-2.9h-6.8c-1.6,0-2.9,1.3-2.9,2.9
					S96,57.6,97.6,57.6z"/>
			</g>
		</g>
		<g id="XMLID_827_">
			<g id="XMLID_828_">
				<path style="fill:rgb(152,129,177);" id="XMLID_829_" class="st0" d="M107.6,49.9c0.8,0,1.5-0.3,2.1-0.9c1.1-1.1,1.1-3,0-4.2l-4.8-4.8c-1.1-1.1-3-1.1-4.2,0
					c-1.1,1.1-1.1,3,0,4.2l4.8,4.8C106.1,49.6,106.8,49.9,107.6,49.9z"/>
			</g>
		</g>
		<g id="XMLID_824_">
			<g id="XMLID_825_">
				<path style="fill:rgb(152,129,177);" id="XMLID_826_" class="st0" d="M115.3,46.7c1.6,0,2.9-1.3,2.9-2.9v-6.8c0-1.6-1.3-2.9-2.9-2.9c-1.6,0-2.9,1.3-2.9,2.9v6.8
					C112.3,45.4,113.6,46.7,115.3,46.7z"/>
			</g>
		</g>
		<g id="XMLID_821_">
			<g id="XMLID_822_">
				<path style="fill:rgb(152,129,177);"  id="XMLID_823_" class="st0" d="M122.9,49.8c0.8,0,1.5-0.3,2.1-0.9l4.8-4.8c1.1-1.1,1.1-3,0-4.2c-1.1-1.1-3-1.1-4.2,0
					l-4.8,4.8c-1.1,1.1-1.1,3,0,4.2C121.4,49.5,122.2,49.8,122.9,49.8z"/>
			</g>
		</g>
		<g id="XMLID_818_">
			<g id="XMLID_819_">
				<path style="fill:rgb(152,129,177);" id="XMLID_820_" class="st0" d="M126.1,57.5h6.8c1.6,0,2.9-1.3,2.9-2.9c0-1.6-1.3-2.9-2.9-2.9h-6.8c-1.6,0-2.9,1.3-2.9,2.9
					C123.2,56.2,124.5,57.5,126.1,57.5z"/>
			</g>
		</g>
		<g id="XMLID_815_">
			<g id="XMLID_816_">
				<path style="fill:rgb(152,129,177);" id="XMLID_817_" class="st0" d="M127.8,70c0.8,0,1.5-0.3,2.1-0.9c1.1-1.1,1.1-3,0-4.2l-4.8-4.8c-1.1-1.1-3-1.1-4.2,0
					c-1.1,1.1-1.1,3,0,4.2l4.8,4.8C126.3,69.7,127.1,70,127.8,70z"/>
			</g>
		</g>
		<g id="XMLID_812_">
			<g id="XMLID_813_">
				<path style="fill:rgb(152,129,177);" id="XMLID_814_" class="st0" d="M115.3,75.2c1.6,0,2.9-1.3,2.9-2.9v-6.8c0-1.6-1.3-2.9-2.9-2.9c-1.6,0-2.9,1.3-2.9,2.9v6.8
					C112.4,73.9,113.7,75.2,115.3,75.2z"/>
			</g>
		</g>
		<g id="XMLID_809_">
			<g id="XMLID_810_">
				<path style="fill:rgb(152,129,177);" id="XMLID_811_" class="st0" d="M102.8,70c0.8,0,1.5-0.3,2.1-0.9l4.8-4.8c1.1-1.1,1.1-3,0-4.2c-1.1-1.1-3-1.1-4.2,0
					l-4.8,4.8c-1.1,1.1-1.1,3,0,4.2C101.3,69.8,102.1,70,102.8,70z"/>
			</g>
		</g>
		<g id="XMLID_780_">
			<g id="XMLID_781_">
				<path style="fill:rgb(152,129,177);" id="XMLID_808_" class="st0" d="M97.6,57.6h6.8c1.6,0,2.9-1.3,2.9-2.9s-1.3-2.9-2.9-2.9h-6.8c-1.6,0-2.9,1.3-2.9,2.9
					S96,57.6,97.6,57.6z"/>
			</g>
		</g>
		<g id="XMLID_777_">
			<g id="XMLID_778_">
				<path style="fill:rgb(152,129,177);" id="XMLID_779_" class="st0" d="M107.6,49.9c0.8,0,1.5-0.3,2.1-0.9c1.1-1.1,1.1-3,0-4.2l-4.8-4.8c-1.1-1.1-3-1.1-4.2,0
					c-1.1,1.1-1.1,3,0,4.2l4.8,4.8C106.1,49.6,106.8,49.9,107.6,49.9z"/>
			</g>
		</g>
		<g id="XMLID_774_">
			<g id="XMLID_775_">
				<path style="fill:rgb(152,129,177);" id="XMLID_776_" class="st0" d="M115.3,46.7c1.6,0,2.9-1.3,2.9-2.9v-6.8c0-1.6-1.3-2.9-2.9-2.9c-1.6,0-2.9,1.3-2.9,2.9v6.8
					C112.3,45.4,113.6,46.7,115.3,46.7z"/>
			</g>
		</g>
	</g>
	<g id="XMLID_878_">
		<path style="fill:rgb(152,129,177);" id="XMLID_879_" class="st0" d="M593.2,188c6.5,3.8,14.9,1.5,18.7-5c3.8-6.5,1.5-14.9-5-18.7c-2.1-1.2-4.6-1.9-7.1-1.8
			c-1.3,0-2.4,1.1-2.4,2.5c0,1.3,1.1,2.4,2.5,2.4c1.6,0,3.2,0.4,4.5,1.2c4.2,2.4,5.6,7.8,3.2,12c-2.4,4.2-7.8,5.6-12,3.2
			c-4.2-2.4-5.6-7.8-3.2-12c0.7-1.2,0.3-2.7-0.9-3.3c-1.2-0.7-2.7-0.3-3.3,0.9C584.5,175.8,586.7,184.2,593.2,188z"/>
	</g>
	<g id="XMLID_873_">
		<g id="XMLID_876_">
			<path style="fill:rgb(152,129,177);" id="XMLID_877_" class="st0" d="M562.9,57.6c0-2.3-1.9-4.2-4.2-4.2l-39,0c-2.3,0-4.2,1.9-4.2,4.2c0,2.3,1.9,4.2,4.2,4.2h39
				C560.9,61.8,562.9,59.9,562.9,57.6z"/>
		</g>
		<g id="XMLID_874_">
			<path style="fill:rgb(152,129,177);" id="XMLID_875_" class="st0" d="M543.3,77.1l0-39c0-2.3-1.9-4.2-4.2-4.2c-2.3,0-4.2,1.9-4.2,4.2v39c0,2.3,1.9,4.2,4.2,4.2
				C541.4,81.3,543.3,79.4,543.3,77.1z"/>
		</g>
	</g>
	<g id="XMLID_23_">
		<g id="XMLID_31_">
			<g id="XMLID_35_">
				<g id="XMLID_36_">
					<path style="fill:rgb(152,129,177);" id="XMLID_37_" class="st0" d="M573.5,311.5c0.8,0,1.7-0.3,2.3-1c1.3-1.3,1.3-3.4,0-4.6l-5.4-5.4c-1.3-1.3-3.4-1.3-4.6,0
						c-1.3,1.3-1.3,3.4,0,4.6l5.4,5.4C571.8,311.2,572.7,311.5,573.5,311.5z"/>
				</g>
			</g>
			<g id="XMLID_32_">
				<g id="XMLID_33_">
					<path style="fill:rgb(152,129,177);" id="XMLID_34_" class="st0" d="M557.6,295.6c0.8,0,1.7-0.3,2.3-1c1.3-1.3,1.3-3.4,0-4.6l-5.4-5.4c-1.3-1.3-3.4-1.3-4.6,0
						c-1.3,1.3-1.3,3.4,0,4.6l5.4,5.4C555.9,295.3,556.7,295.6,557.6,295.6z"/>
				</g>
			</g>
		</g>
		<g id="XMLID_24_">
			<g id="XMLID_28_">
				<g id="XMLID_29_">
					<path style="fill:rgb(152,129,177);" id="XMLID_30_" class="st0" d="M568.1,295.6c0.8,0,1.7-0.3,2.3-1l5.4-5.4c1.3-1.3,1.3-3.4,0-4.6c-1.3-1.3-3.4-1.3-4.6,0
						l-5.4,5.4c-1.3,1.3-1.3,3.4,0,4.6C566.4,295.3,567.3,295.6,568.1,295.6z"/>
				</g>
			</g>
			<g id="XMLID_25_">
				<g id="XMLID_26_">
					<path style="fill:rgb(152,129,177);" id="XMLID_27_" class="st0" d="M552.2,311.5c0.8,0,1.7-0.3,2.3-1l5.4-5.4c1.3-1.3,1.3-3.4,0-4.6c-1.3-1.3-3.4-1.3-4.6,0
						l-5.4,5.4c-1.3,1.3-1.3,3.4,0,4.6C550.5,311.2,551.3,311.5,552.2,311.5z"/>
				</g>
			</g>
		</g>
	</g>
	<path style="fill:rgb(152,129,177);" id="XMLID_722_" class="st0" d="M40.7,171.8c0,2.4,2,4.4,4.4,4.4c2.4,0,4.4-2,4.4-4.4c0-2.4-2-4.4-4.4-4.4
		C42.6,167.4,40.7,169.3,40.7,171.8z"/>
</g>
</svg>
