<?xml version="1.0" encoding="utf-8"?>
<!-- Generator: Adobe Illustrator 22.1.0, SVG Export Plug-In . SVG Version: 6.00 Build 0)  -->
<svg version="1.1" xmlns="http://www.w3.org/2000/svg" xmlns:xlink="http://www.w3.org/1999/xlink" x="0px" y="0px"
	 viewBox="0 0 631.9 525" style="enable-background:new 0 0 631.9 525;" xml:space="preserve">
<style type="text/css">
	.st0{fill:#D9F4FF;}
	.st1{fill:#FFFFFF;}
	.st2{clip-path:url(#SVGID_2_);}
	.st3{fill:#EFF9FE;}
	.st4{fill:#C9EFFF;}
	.st5{fill:#EBF9FF;}
	.st6{fill:url(#SVGID_3_);}
	.st7{fill:url(#SVGID_4_);}
	.st8{filter:url(#Adobe_OpacityMaskFilter);}
	.st9{filter:url(#Adobe_OpacityMaskFilter_1_);}
	.st10{mask:url(#SVGID_5_);fill:url(#SVGID_6_);}
	.st11{fill:url(#SVGID_7_);}
	.st12{fill:url(#SVGID_8_);}
	.st13{fill:url(#SVGID_9_);}
	.st14{fill:#FFDA1E;}
	.st15{fill:url(#SVGID_10_);}
	.st16{fill:url(#SVGID_11_);}
	.st17{fill:url(#SVGID_12_);}
	.st18{fill:url(#SVGID_13_);}
	.st19{fill:#B3E2FC;}
	.st20{fill:url(#SVGID_14_);}
	.st21{fill:url(#SVGID_15_);}
	.st22{fill:url(#SVGID_16_);}
	.st23{fill:url(#SVGID_17_);}
	.st24{fill:url(#SVGID_18_);}
	.st25{fill:url(#SVGID_19_);}
	.st26{fill:url(#SVGID_20_);}
	.st27{fill:url(#SVGID_21_);}
	.st28{fill:url(#SVGID_22_);}
	.st29{fill:url(#SVGID_23_);}
	.st30{fill:url(#SVGID_24_);}
	.st31{fill:url(#SVGID_25_);}
	.st32{fill:url(#SVGID_26_);}
	.st33{fill:#2D9BEE;}
	.st34{fill:url(#SVGID_27_);}
	.st35{fill:url(#SVGID_28_);}
	.st36{fill:url(#SVGID_29_);}
	.st37{fill:url(#SVGID_30_);}
	.st38{fill:url(#SVGID_31_);}
	.st39{fill:url(#SVGID_32_);}
	.st40{fill:url(#SVGID_33_);}
</style>
<g id="Background">
</g>
<g id="Object">
	<path class="st0" d="M178.6,463.7C45.7,417.2,17,252.6,70.1,131.6c31.1-70.9,87.4-98.5,162.1-92.3c72.4,6,159.5-7,228.2,17.7
		c58.2,20.9,107.7,67.3,128.5,126c22.5,63.2-10.7,131.4-31.6,191.6C509.3,513,290.4,502.8,178.6,463.7z"/>
	<g>
		<path class="st1" d="M-327.8,363h2.3v10.2h5.2v2.2h-7.6V363z"/>
		<path class="st1" d="M-310.8,373.3c-0.4,0.7-0.9,1.3-1.6,1.7c-0.7,0.4-1.5,0.6-2.4,0.6c-0.6,0-1.2-0.1-1.8-0.3
			c-0.5-0.2-1-0.5-1.4-0.9c-0.4-0.4-0.7-0.9-0.9-1.4c-0.2-0.5-0.3-1.2-0.3-1.8c0-0.6,0.1-1.2,0.3-1.7c0.2-0.5,0.5-1,0.9-1.4
			c0.4-0.4,0.9-0.7,1.4-1c0.5-0.2,1.1-0.4,1.8-0.4c0.7,0,1.3,0.1,1.8,0.3c0.5,0.2,1,0.5,1.3,0.9c0.4,0.4,0.6,0.9,0.8,1.4
			c0.2,0.5,0.3,1.1,0.3,1.8c0,0.1,0,0.2,0,0.2c0,0.1,0,0.1,0,0.2c0,0.1,0,0.1,0,0.2h-6.4c0,0.3,0.1,0.6,0.3,0.9
			c0.1,0.2,0.3,0.5,0.5,0.6c0.2,0.2,0.4,0.3,0.7,0.4c0.3,0.1,0.5,0.1,0.8,0.1c0.5,0,0.9-0.1,1.3-0.4s0.6-0.5,0.8-0.9L-310.8,373.3z
			 M-312.8,370c0-0.2-0.1-0.3-0.1-0.5c-0.1-0.2-0.2-0.4-0.4-0.5c-0.2-0.2-0.4-0.3-0.6-0.4c-0.2-0.1-0.5-0.2-0.9-0.2
			c-0.5,0-0.9,0.1-1.3,0.4c-0.4,0.3-0.6,0.7-0.8,1.2H-312.8z"/>
		<path class="st1" d="M-303.9,374.4h-0.1c-0.3,0.3-0.6,0.6-1,0.8c-0.4,0.2-0.9,0.3-1.4,0.3c-0.4,0-0.8-0.1-1.2-0.2
			c-0.4-0.1-0.7-0.3-1-0.6c-0.3-0.3-0.5-0.6-0.7-0.9c-0.2-0.4-0.2-0.7-0.2-1.2c0-0.4,0.1-0.8,0.3-1.2c0.2-0.4,0.4-0.7,0.7-0.9
			c0.3-0.3,0.7-0.4,1.1-0.6c0.4-0.1,0.9-0.2,1.4-0.2c0.6,0,1,0,1.4,0.1c0.4,0.1,0.7,0.2,0.9,0.3V370c0-0.4-0.2-0.8-0.5-1.1
			c-0.4-0.3-0.8-0.4-1.3-0.4c-0.8,0-1.4,0.3-2,1l-1.6-1.1c0.9-1.1,2.1-1.7,3.7-1.7c1.3,0,2.3,0.3,3,0.9c0.7,0.6,1,1.5,1,2.7v5.1
			h-2.2V374.4z M-303.9,371.9c-0.3-0.1-0.5-0.2-0.8-0.3c-0.3-0.1-0.6-0.1-0.9-0.1c-0.5,0-1,0.1-1.3,0.4c-0.3,0.2-0.4,0.5-0.4,0.9
			c0,0.3,0.1,0.6,0.4,0.8c0.3,0.2,0.6,0.3,1,0.3c0.3,0,0.6-0.1,0.8-0.2c0.3-0.1,0.5-0.3,0.6-0.4c0.2-0.2,0.3-0.4,0.4-0.6
			C-303.9,372.4-303.9,372.2-303.9,371.9z"/>
		<path class="st1" d="M-299.9,366.9h2.1v1.2h0.1c0.1-0.2,0.2-0.4,0.4-0.6c0.2-0.2,0.4-0.3,0.6-0.5c0.2-0.1,0.4-0.2,0.7-0.3
			c0.2-0.1,0.5-0.1,0.7-0.1c0.3,0,0.6,0,0.8,0.1c0.2,0.1,0.4,0.1,0.5,0.2l-0.6,2c-0.1-0.1-0.3-0.1-0.5-0.2c-0.2,0-0.4-0.1-0.6-0.1
			c-0.3,0-0.6,0.1-0.8,0.2c-0.3,0.1-0.5,0.3-0.6,0.5c-0.2,0.2-0.3,0.5-0.4,0.8c-0.1,0.3-0.1,0.6-0.1,1v4.2h-2.3V366.9z"/>
		<path class="st1" d="M-290.7,368h0.1c0.3-0.4,0.6-0.8,1.1-1c0.4-0.2,1-0.4,1.5-0.4c0.5,0,1,0.1,1.4,0.3c0.4,0.2,0.7,0.4,1,0.7
			c0.3,0.3,0.5,0.7,0.6,1.1c0.1,0.4,0.2,0.9,0.2,1.5v5.1h-2.3v-4.9c0-0.6-0.1-1.1-0.4-1.4c-0.3-0.3-0.7-0.4-1.2-0.4
			c-0.3,0-0.6,0.1-0.8,0.2c-0.2,0.1-0.4,0.3-0.6,0.5c-0.2,0.2-0.3,0.5-0.4,0.8c-0.1,0.3-0.1,0.6-0.1,1v4.1h-2.3v-8.5h2.1V368z"/>
		<path class="st1" d="M-278.8,363h2.3l3.8,6.6h0.1l3.8-6.6h2.3v12.4h-2.3v-6.1l0.1-2.1h-0.1l-3.1,5.5h-1.4l-3.2-5.5h-0.1l0.1,2.1
			v6.1h-2.3V363z"/>
		<path class="st1" d="M-260.3,366.6c0.7,0,1.3,0.1,1.8,0.3c0.5,0.2,1,0.5,1.4,0.9c0.4,0.4,0.7,0.9,0.9,1.4c0.2,0.6,0.3,1.2,0.3,1.8
			c0,0.7-0.1,1.3-0.3,1.8c-0.2,0.6-0.5,1-0.9,1.4c-0.4,0.4-0.9,0.7-1.4,0.9c-0.5,0.2-1.2,0.3-1.8,0.3c-0.7,0-1.3-0.1-1.8-0.3
			c-0.5-0.2-1-0.5-1.4-0.9c-0.4-0.4-0.7-0.9-0.9-1.4c-0.2-0.6-0.3-1.2-0.3-1.8c0-0.7,0.1-1.3,0.3-1.8c0.2-0.6,0.5-1,0.9-1.4
			c0.4-0.4,0.9-0.7,1.4-0.9C-261.5,366.7-260.9,366.6-260.3,366.6z M-260.3,373.5c0.3,0,0.6-0.1,0.8-0.2c0.3-0.1,0.5-0.3,0.7-0.5
			c0.2-0.2,0.4-0.5,0.5-0.8c0.1-0.3,0.2-0.6,0.2-1c0-0.4-0.1-0.7-0.2-1c-0.1-0.3-0.3-0.6-0.5-0.8c-0.2-0.2-0.4-0.4-0.7-0.5
			c-0.3-0.1-0.5-0.2-0.8-0.2c-0.3,0-0.6,0.1-0.8,0.2c-0.3,0.1-0.5,0.3-0.7,0.5c-0.2,0.2-0.4,0.5-0.5,0.8c-0.1,0.3-0.2,0.6-0.2,1
			c0,0.4,0.1,0.7,0.2,1c0.1,0.3,0.3,0.6,0.5,0.8c0.2,0.2,0.4,0.4,0.7,0.5C-260.9,373.5-260.6,373.5-260.3,373.5z"/>
		<path class="st1" d="M-254.5,366.9h2.1v1.2h0.1c0.1-0.2,0.2-0.4,0.4-0.6c0.2-0.2,0.4-0.3,0.6-0.5c0.2-0.1,0.4-0.2,0.7-0.3
			c0.2-0.1,0.5-0.1,0.7-0.1c0.3,0,0.6,0,0.8,0.1c0.2,0.1,0.4,0.1,0.5,0.2l-0.6,2c-0.1-0.1-0.3-0.1-0.5-0.2c-0.2,0-0.4-0.1-0.6-0.1
			c-0.3,0-0.6,0.1-0.8,0.2c-0.3,0.1-0.5,0.3-0.6,0.5c-0.2,0.2-0.3,0.5-0.4,0.8c-0.1,0.3-0.1,0.6-0.1,1v4.2h-2.3V366.9z"/>
		<path class="st1" d="M-240,373.3c-0.4,0.7-0.9,1.3-1.6,1.7c-0.7,0.4-1.5,0.6-2.4,0.6c-0.6,0-1.2-0.1-1.8-0.3
			c-0.5-0.2-1-0.5-1.4-0.9c-0.4-0.4-0.7-0.9-0.9-1.4c-0.2-0.5-0.3-1.2-0.3-1.8c0-0.6,0.1-1.2,0.3-1.7c0.2-0.5,0.5-1,0.9-1.4
			c0.4-0.4,0.9-0.7,1.4-1c0.5-0.2,1.1-0.4,1.8-0.4c0.7,0,1.3,0.1,1.8,0.3c0.5,0.2,1,0.5,1.3,0.9c0.4,0.4,0.6,0.9,0.8,1.4
			c0.2,0.5,0.3,1.1,0.3,1.8c0,0.1,0,0.2,0,0.2c0,0.1,0,0.1,0,0.2c0,0.1,0,0.1,0,0.2h-6.4c0,0.3,0.1,0.6,0.3,0.9
			c0.1,0.2,0.3,0.5,0.5,0.6c0.2,0.2,0.4,0.3,0.7,0.4c0.3,0.1,0.5,0.1,0.8,0.1c0.5,0,0.9-0.1,1.3-0.4c0.3-0.2,0.6-0.5,0.8-0.9
			L-240,373.3z M-242,370c0-0.2-0.1-0.3-0.1-0.5c-0.1-0.2-0.2-0.4-0.4-0.5c-0.2-0.2-0.4-0.3-0.6-0.4c-0.2-0.1-0.5-0.2-0.9-0.2
			c-0.5,0-0.9,0.1-1.3,0.4c-0.4,0.3-0.6,0.7-0.8,1.2H-242z"/>
	</g>
	<g>
		<defs>
			<path id="SVGID_1_" d="M178.6,464.3C45.7,417.7,17,253.1,70.1,132.2c31.1-70.9,87.4-98.5,162.1-92.3c72.4,6,159.5-7,228.2,17.7
				c58.2,20.9,107.7,67.3,128.5,126c22.5,63.2-10.7,131.4-31.6,191.6C509.3,513.6,290.4,503.4,178.6,464.3z"/>
		</defs>
		<clipPath id="SVGID_2_">
			<use xlink:href="#SVGID_1_"  style="overflow:visible;"/>
		</clipPath>
		<g class="st2">
			
				<rect id="XMLID_44_" x="380.4" y="415" transform="matrix(-1 -1.224647e-16 1.224647e-16 -1 812.2074 974.2205)" class="st1" width="51.3" height="144.1"/>
			
				<rect id="XMLID_43_" x="406.1" y="359.4" transform="matrix(-1 -1.224647e-16 1.224647e-16 -1 837.8707 918.6053)" class="st1" width="25.7" height="199.8"/>
			<g id="XMLID_404_">
				
					<rect id="XMLID_433_" x="83.5" y="230.4" transform="matrix(-1 -1.224647e-16 1.224647e-16 -1 178.9886 488.1173)" class="st3" width="12" height="27.3"/>
				
					<rect id="XMLID_432_" x="83.5" y="243.3" transform="matrix(-1 -1.224647e-16 1.224647e-16 -1 178.9886 501.058)" class="st4" width="12" height="14.4"/>
				
					<rect id="XMLID_431_" x="39.4" y="212.6" transform="matrix(-1 -1.224647e-16 1.224647e-16 -1 106.2498 470.3518)" class="st3" width="27.5" height="45.1"/>
				
					<rect id="XMLID_430_" x="39.4" y="243.3" transform="matrix(-1 -1.224647e-16 1.224647e-16 -1 106.2498 501.058)" class="st4" width="27.5" height="14.4"/>
				
					<rect id="XMLID_429_" x="33.2" y="249.2" transform="matrix(-1 -1.224647e-16 1.224647e-16 -1 145.5982 742.7169)" class="st3" width="79.1" height="244.4"/>
				<g id="XMLID_421_">
					
						<rect id="XMLID_428_" x="86.4" y="274" transform="matrix(-1 -1.224647e-16 1.224647e-16 -1 180.8674 558.4869)" class="st4" width="8" height="10.5"/>
					<rect id="XMLID_427_" x="86.4" y="295.6" class="st4" width="8" height="10.5"/>
					<rect id="XMLID_426_" x="86.4" y="317.1" class="st4" width="8" height="10.5"/>
					<rect id="XMLID_425_" x="86.4" y="338.7" class="st4" width="8" height="10.5"/>
					<rect id="XMLID_424_" x="86.4" y="360.3" class="st4" width="8" height="10.5"/>
					<rect id="XMLID_423_" x="86.4" y="381.9" class="st4" width="8" height="10.5"/>
					<rect id="XMLID_422_" x="86.4" y="403.4" class="st4" width="8" height="10.5"/>
				</g>
				<g id="XMLID_413_">
					
						<rect id="XMLID_420_" x="62.9" y="274" transform="matrix(-1 -1.224647e-16 1.224647e-16 -1 133.7917 558.4869)" class="st4" width="8" height="10.5"/>
					<rect id="XMLID_419_" x="62.9" y="295.6" class="st4" width="8" height="10.5"/>
					<rect id="XMLID_418_" x="62.9" y="317.1" class="st4" width="8" height="10.5"/>
					<rect id="XMLID_417_" x="62.9" y="338.7" class="st4" width="8" height="10.5"/>
					<rect id="XMLID_416_" x="62.9" y="360.3" class="st4" width="8" height="10.5"/>
					<rect id="XMLID_415_" x="62.9" y="381.9" class="st4" width="8" height="10.5"/>
					<rect id="XMLID_414_" x="62.9" y="403.4" class="st4" width="8" height="10.5"/>
				</g>
				<g id="XMLID_405_">
					
						<rect id="XMLID_412_" x="39.4" y="274" transform="matrix(-1 -1.224647e-16 1.224647e-16 -1 86.716 558.4869)" class="st4" width="8" height="10.5"/>
					<rect id="XMLID_411_" x="39.4" y="295.6" class="st4" width="8" height="10.5"/>
					<rect id="XMLID_410_" x="39.4" y="317.1" class="st4" width="8" height="10.5"/>
					<rect id="XMLID_409_" x="39.4" y="338.7" class="st4" width="8" height="10.5"/>
					<rect id="XMLID_408_" x="39.4" y="360.3" class="st4" width="8" height="10.5"/>
					<rect id="XMLID_407_" x="39.4" y="381.9" class="st4" width="8" height="10.5"/>
					<rect id="XMLID_406_" x="39.4" y="403.4" class="st4" width="8" height="10.5"/>
				</g>
			</g>
			<g id="XMLID_3_">
				
					<rect id="XMLID_41_" x="481.6" y="238.8" transform="matrix(-1 -1.224647e-16 1.224647e-16 -1 975.2416 505.0003)" class="st3" width="12" height="27.3"/>
				
					<rect id="XMLID_40_" x="481.6" y="251.8" transform="matrix(-1 -1.224647e-16 1.224647e-16 -1 975.2416 517.941)" class="st4" width="12" height="14.4"/>
				
					<rect id="XMLID_39_" x="437.5" y="221.1" transform="matrix(-1 -1.224647e-16 1.224647e-16 -1 902.5029 487.235)" class="st3" width="27.5" height="45.1"/>
				
					<rect id="XMLID_38_" x="437.5" y="251.8" transform="matrix(-1 -1.224647e-16 1.224647e-16 -1 902.5029 517.941)" class="st4" width="27.5" height="14.4"/>
				
					<rect id="XMLID_37_" x="426.6" y="257.6" transform="matrix(-1 -1.224647e-16 1.224647e-16 -1 937.1078 759.6)" class="st3" width="83.9" height="244.4"/>
				<g id="XMLID_29_">
					
						<rect id="XMLID_36_" x="484.6" y="282.5" transform="matrix(-1 -1.224647e-16 1.224647e-16 -1 977.1205 575.3701)" class="st4" width="8" height="10.5"/>
					<rect id="XMLID_35_" x="484.6" y="304" class="st4" width="8" height="10.5"/>
					<rect id="XMLID_34_" x="484.6" y="325.6" class="st4" width="8" height="10.5"/>
					<rect id="XMLID_33_" x="484.6" y="347.2" class="st4" width="8" height="10.5"/>
					<rect id="XMLID_32_" x="484.6" y="368.7" class="st4" width="8" height="10.5"/>
					<rect id="XMLID_31_" x="484.6" y="390.3" class="st4" width="8" height="10.5"/>
					<rect id="XMLID_30_" x="484.6" y="411.9" class="st4" width="8" height="10.5"/>
				</g>
				<g id="XMLID_20_">
					
						<rect id="XMLID_28_" x="461" y="282.5" transform="matrix(-1 -1.224647e-16 1.224647e-16 -1 930.0448 575.3701)" class="st4" width="8" height="10.5"/>
					<rect id="XMLID_27_" x="461" y="304" class="st4" width="8" height="10.5"/>
					<rect id="XMLID_26_" x="461" y="325.6" class="st4" width="8" height="10.5"/>
					<rect id="XMLID_25_" x="461" y="347.2" class="st4" width="8" height="10.5"/>
					<rect id="XMLID_24_" x="461" y="368.7" class="st4" width="8" height="10.5"/>
					<rect id="XMLID_23_" x="461" y="390.3" class="st4" width="8" height="10.5"/>
					<rect id="XMLID_21_" x="461" y="411.9" class="st4" width="8" height="10.5"/>
				</g>
				<g id="XMLID_11_">
					
						<rect id="XMLID_19_" x="437.5" y="282.5" transform="matrix(-1 -1.224647e-16 1.224647e-16 -1 882.9691 575.3701)" class="st4" width="8" height="10.5"/>
					<rect id="XMLID_18_" x="437.5" y="304" class="st4" width="8" height="10.5"/>
					<rect id="XMLID_17_" x="437.5" y="325.6" class="st4" width="8" height="10.5"/>
					<rect id="XMLID_16_" x="437.5" y="347.2" class="st4" width="8" height="10.5"/>
					<rect id="XMLID_15_" x="437.5" y="368.7" class="st4" width="8" height="10.5"/>
					<rect id="XMLID_14_" x="437.5" y="390.3" class="st4" width="8" height="10.5"/>
					<rect id="XMLID_12_" x="437.5" y="411.9" class="st4" width="8" height="10.5"/>
				</g>
			</g>
			
				<rect id="XMLID_434_" x="168.5" y="350.7" transform="matrix(-1 -1.224647e-16 1.224647e-16 -1 388.2406 845.618)" class="st3" width="51.3" height="144.1"/>
			
				<rect id="XMLID_435_" x="194.1" y="295.1" transform="matrix(-1 -1.224647e-16 1.224647e-16 -1 413.9039 790.0029)" class="st3" width="25.7" height="199.8"/>
			
				<rect id="XMLID_436_" x="207" y="360.5" transform="matrix(-1 -1.224647e-16 1.224647e-16 -1 439.5673 855.3474)" class="st3" width="25.7" height="134.4"/>
			<g id="XMLID_297_">
				<polygon id="XMLID_359_" class="st1" points="554.1,184.5 492.5,184.5 492.5,127.9 554.1,156.9 				"/>
				<rect id="XMLID_358_" x="478.9" y="171.4" class="st1" width="88.9" height="301.2"/>
				<rect id="XMLID_357_" x="492.5" y="165.2" class="st5" width="61.6" height="6.2"/>
				<g id="XMLID_344_">
					<rect id="XMLID_349_" x="501.1" y="294.6" class="st5" width="9.1" height="14"/>
					<rect id="XMLID_348_" x="501.1" y="271" class="st5" width="9.1" height="14"/>
					<rect id="XMLID_347_" x="501.1" y="247.4" class="st5" width="9.1" height="14"/>
					<rect id="XMLID_346_" x="501.1" y="223.8" class="st5" width="9.1" height="14"/>
					<rect id="XMLID_345_" x="501.1" y="200.2" class="st5" width="9.1" height="14"/>
				</g>
				<g id="XMLID_331_">
					<rect id="XMLID_336_" x="518.7" y="294.6" class="st5" width="9.1" height="14"/>
					<rect id="XMLID_335_" x="518.7" y="271" class="st5" width="9.1" height="14"/>
					<rect id="XMLID_334_" x="518.7" y="247.4" class="st5" width="9.1" height="14"/>
					<rect id="XMLID_333_" x="518.7" y="223.8" class="st5" width="9.1" height="14"/>
					<rect id="XMLID_332_" x="518.7" y="200.2" class="st5" width="9.1" height="14"/>
				</g>
				<g id="XMLID_298_">
					<rect id="XMLID_311_" x="536.4" y="294.6" class="st5" width="9.1" height="14"/>
					<rect id="XMLID_310_" x="536.4" y="271" class="st5" width="9.1" height="14"/>
					<rect id="XMLID_301_" x="536.4" y="247.4" class="st5" width="9.1" height="14"/>
					<rect id="XMLID_300_" x="536.4" y="223.8" class="st5" width="9.1" height="14"/>
					<rect id="XMLID_299_" x="536.4" y="200.2" class="st5" width="9.1" height="14"/>
				</g>
			</g>
			<g id="XMLID_360_">
				<rect id="XMLID_403_" x="127.5" y="82.1" class="st1" width="9.9" height="78.6"/>
				<rect id="XMLID_402_" x="127.5" y="153.4" class="st5" width="9.9" height="7.3"/>
				<rect id="XMLID_401_" x="146.8" y="123.6" class="st1" width="18.1" height="46"/>
				
					<rect id="XMLID_400_" x="103.9" y="158.9" transform="matrix(-1 -1.224647e-16 1.224647e-16 -1 279.7867 652.4794)" class="st1" width="72.1" height="334.6"/>
				<rect id="XMLID_399_" x="146.8" y="153.9" class="st5" width="18.1" height="5"/>
				<rect id="XMLID_398_" x="150.5" y="373.7" class="st5" width="7.4" height="11.3"/>
				<rect id="XMLID_397_" x="150.5" y="354.5" class="st5" width="7.4" height="11.3"/>
				<rect id="XMLID_394_" x="150.5" y="297.1" class="st5" width="7.4" height="11.3"/>
				<rect id="XMLID_391_" x="150.5" y="278" class="st5" width="7.4" height="11.3"/>
				<rect id="XMLID_389_" x="150.5" y="239.7" class="st5" width="7.4" height="11.3"/>
				
					<rect id="XMLID_386_" x="150.5" y="182.3" transform="matrix(-1 -1.224647e-16 1.224647e-16 -1 308.3964 375.9033)" class="st5" width="7.4" height="11.3"/>
				<rect id="XMLID_382_" x="136.2" y="335.4" class="st5" width="7.4" height="11.3"/>
				<rect id="XMLID_379_" x="136.2" y="278" class="st5" width="7.4" height="11.3"/>
				<rect id="XMLID_378_" x="136.2" y="258.8" class="st5" width="7.4" height="11.3"/>
				<rect id="XMLID_376_" x="136.2" y="220.6" class="st5" width="7.4" height="11.3"/>
				<rect id="XMLID_375_" x="136.2" y="201.4" class="st5" width="7.4" height="11.3"/>
				<rect id="XMLID_372_" x="121.9" y="373.7" class="st5" width="7.4" height="11.3"/>
				<rect id="XMLID_370_" x="121.9" y="335.4" class="st5" width="7.4" height="11.3"/>
				<rect id="XMLID_368_" x="121.9" y="297.1" class="st5" width="7.4" height="11.3"/>
				<rect id="XMLID_366_" x="121.9" y="258.8" class="st5" width="7.4" height="11.3"/>
				<rect id="XMLID_363_" x="121.9" y="201.4" class="st5" width="7.4" height="11.3"/>
			</g>
		</g>
	</g>
	<linearGradient id="SVGID_3_" gradientUnits="userSpaceOnUse" x1="563.0466" y1="164.0568" x2="420.9712" y2="257.6973">
		<stop  offset="0" style="stop-color:#B3E2FC"/>
		<stop  offset="1" style="stop-color:#2D9BEE"/>
	</linearGradient>
	<path class="st6" d="M589.8,159L589.8,159c0-3.2-2.6-5.8-5.8-5.8h-15.5c-3.2,0-5.8-2.6-5.8-5.8v0c0-3.2-2.6-5.8-5.8-5.8h-10.2
		c-3.2,0-5.8,2.6-5.8,5.8v0c0,3.2-2.6,5.8-5.8,5.8h-10.9c-3.2,0-5.8,2.6-5.8,5.8l0,0c0,3.2-2.6,5.8-5.8,5.8h-15.3
		c-3.2,0-5.8,2.6-5.8,5.8l0,0c0,3.2,2.6,5.8,5.8,5.8H548h10.1h50.7c3.2,0,5.8-2.6,5.8-5.8l0,0c0-3.2-2.6-5.8-5.8-5.8h-13.1
		C592.4,164.8,589.8,162.2,589.8,159z"/>
	<linearGradient id="SVGID_4_" gradientUnits="userSpaceOnUse" x1="90.8974" y1="208.847" x2="-53.7956" y2="308.262">
		<stop  offset="0" style="stop-color:#B3E2FC"/>
		<stop  offset="1" style="stop-color:#2D9BEE"/>
	</linearGradient>
	<path class="st7" d="M121.4,201.9L121.4,201.9c0-3.5-2.8-6.3-6.3-6.3H98.3c-3.5,0-6.3-2.8-6.3-6.3v0c0-3.5-2.8-6.3-6.3-6.3H74.7
		c-3.5,0-6.3,2.8-6.3,6.3v0c0,3.5-2.8,6.3-6.3,6.3H50.3c-3.5,0-6.3,2.8-6.3,6.3l0,0c0,3.5-2.8,6.3-6.3,6.3H21.2
		c-3.5,0-6.3,2.8-6.3,6.3l0,0c0,3.5,2.8,6.3,6.3,6.3h1.2c3.5,0,6.3,2.8,6.3,6.3l0,0c0,3.5,2.8,6.3,6.3,6.3h53.1
		c3.5,0,6.3-2.8,6.3-6.3l0,0c0-3.5,2.8-6.3,6.3-6.3h5.8c3.5,0,6.3,2.8,6.3,6.3l0,0c0,3.5,2.8,6.3,6.3,6.3h6.9c3.5,0,6.3-2.8,6.3-6.3
		l0,0c0-3.5,2.8-6.3,6.3-6.3h3.5c3.5,0,6.3-2.8,6.3-6.3l0,0c0-3.5-2.8-6.3-6.3-6.3h-14.2C124.2,208.2,121.4,205.4,121.4,201.9z
		 M58.4,214.5L58.4,214.5c0-3.5,2.8-6.3,6.3-6.3h5.2c3.5,0,6.3,2.8,6.3,6.3l0,0c0,3.5-2.8,6.3-6.3,6.3h-5.2
		C61.2,220.8,58.4,217.9,58.4,214.5z"/>
	<defs>
		<filter id="Adobe_OpacityMaskFilter" filterUnits="userSpaceOnUse" x="81.6" y="411.7" width="493.9" height="91.3">
			<feFlood  style="flood-color:white;flood-opacity:1" result="back"/>
			<feBlend  in="SourceGraphic" in2="back" mode="normal"/>
		</filter>
	</defs>
	<mask maskUnits="userSpaceOnUse" x="81.6" y="411.7" width="493.9" height="91.3" id="SVGID_5_">
		<g class="st8">
			<defs>
				<filter id="Adobe_OpacityMaskFilter_1_" filterUnits="userSpaceOnUse" x="81.6" y="411.7" width="493.9" height="91.3">
					<feFlood  style="flood-color:white;flood-opacity:1" result="back"/>
					<feBlend  in="SourceGraphic" in2="back" mode="normal"/>
				</filter>
			</defs>
			<mask maskUnits="userSpaceOnUse" x="81.6" y="411.7" width="493.9" height="91.3" id="SVGID_5_">
				<g class="st9">
				</g>
			</mask>
			<linearGradient id="SVGID_6_" gradientUnits="userSpaceOnUse" x1="81.5856" y1="457.3717" x2="575.519" y2="457.3717">
				<stop  offset="0" style="stop-color:#333333"/>
				<stop  offset="1" style="stop-color:#CCCCCC"/>
			</linearGradient>
			<path class="st10" d="M309.8,413.1c-71.7-1.4-143.5,7.8-212.5,27.1c-7.6,2.1-16.8,6.9-15.6,14.7c0.9,5.4,6.6,8.4,11.8,10.2
				c39.7,13.5,83.6,3.1,125,9.6c22.8,3.6,44.4,12.2,66.7,18c42.6,11.2,87.1,12.2,130.7,8.1c20.9-2,41.3-5.9,62-8.9
				c19.8-2.9,39.6-6.4,58.4-13.2c10.1-3.6,19.8-8.2,28.8-13.9c3.5-2.2,7.1-4.8,9-8.6c11.1-22.7-46.4-33.2-59.2-33.6
				c-81.8-2.2-103.2-8.7-185-10.8L309.8,413.1z"/>
		</g>
	</mask>
	<linearGradient id="SVGID_7_" gradientUnits="userSpaceOnUse" x1="81.5856" y1="457.3717" x2="575.519" y2="457.3717">
		<stop  offset="0" style="stop-color:#2D9BEE"/>
		<stop  offset="1" style="stop-color:#B3E2FC"/>
	</linearGradient>
	<path class="st11" d="M309.8,413.1c-71.7-1.4-143.5,7.8-212.5,27.1c-7.6,2.1-16.8,6.9-15.6,14.7c0.9,5.4,6.6,8.4,11.8,10.2
		c39.7,13.5,83.6,3.1,125,9.6c22.8,3.6,44.4,12.2,66.7,18c42.6,11.2,87.1,12.2,130.7,8.1c20.9-2,41.3-5.9,62-8.9
		c19.8-2.9,39.6-6.4,58.4-13.2c10.1-3.6,19.8-8.2,28.8-13.9c3.5-2.2,7.1-4.8,9-8.6c11.1-22.7-46.4-33.2-59.2-33.6
		c-81.8-2.2-103.2-8.7-185-10.8L309.8,413.1z"/>
	<g>
		<g>
			<linearGradient id="SVGID_8_" gradientUnits="userSpaceOnUse" x1="340.6595" y1="79.6828" x2="269.1105" y2="152.4446">
				<stop  offset="0" style="stop-color:#304DD9"/>
				<stop  offset="1" style="stop-color:#182C8C"/>
			</linearGradient>
			<path class="st12" d="M365,115.4H264.4c-5.1,0-9.3-4.1-9.3-9.3v0c0-5.1,4.1-9.3,9.3-9.3H365c5.1,0,9.3,4.1,9.3,9.3v0
				C374.3,111.2,370.1,115.4,365,115.4z"/>
			<linearGradient id="SVGID_9_" gradientUnits="userSpaceOnUse" x1="294.7942" y1="140.8452" x2="335.8519" y2="107.3743">
				<stop  offset="0" style="stop-color:#304DD9"/>
				<stop  offset="1" style="stop-color:#182C8C"/>
			</linearGradient>
			<path class="st13" d="M365,133.9H264.4c-5.1,0-9.3-4.1-9.3-9.3l0,0c0-5.1,4.1-9.3,9.3-9.3H365c5.1,0,9.3,4.1,9.3,9.3l0,0
				C374.3,129.8,370.1,133.9,365,133.9z"/>
			<path class="st14" d="M389.6,35.7c-17.6-19.1-48.9,19.8-48.9,10.7c0-9.2-9.2-21.4-26.1-21.4s-26.1,12.2-26.1,21.4
				c0,9.2-31.3-29.8-48.9-10.7c-17.6,19.1,24.6,61.2,24.6,61.2h50.3H365C365,96.9,407.1,54.8,389.6,35.7z"/>
			<path class="st14" d="M365,133.9h-50.3h-50.3c-8.9,18.7-140.6,101.8-140.6,173.6s12,146.3,190.9,146.3s190.9-74.5,190.9-146.3
				S373.9,152.6,365,133.9z"/>
		</g>
		<g>
			<linearGradient id="SVGID_10_" gradientUnits="userSpaceOnUse" x1="366.8443" y1="212.4186" x2="244.6223" y2="419.3625">
				<stop  offset="0" style="stop-color:#304DD9"/>
				<stop  offset="1" style="stop-color:#182C8C"/>
			</linearGradient>
			<path class="st15" d="M305.6,382.2c-11.7-1.7-22-6.2-31.1-13.5c-5.7-4.6-10.4-10.4-14-17.5c-3.7-7.2-0.3-16.1,7.2-19.1l1.5-0.6
				c6.5-2.6,13.7,0,17.4,6c1.2,1.9,2.5,3.7,4,5.5c4.2,4.9,9.2,8.3,15.1,10.1v-44.3l-2.1-0.9c-5.7-2.2-11.1-4.7-16.2-7.7
				c-5-3-9.5-6.4-13.3-10.3c-3.8-3.9-6.8-8.3-9.1-13.2c-2.3-4.9-3.4-10.4-3.4-16.4c0-5.6,1-10.9,3-15.8c2-5,4.9-9.4,8.7-13.3
				c3.8-3.9,8.4-7.1,13.9-9.7c5.4-2.6,11.6-4.2,18.4-5v-9.7c0-5.7,4.6-10.4,10.4-10.4l0,0c5.7,0,10.4,4.6,10.4,10.4V217
				c6.2,0.9,11.6,2.6,16.2,4.9c4.6,2.3,8.5,5,11.9,8c1.1,1,2.5,2.6,4,4.6c5.5,7.3,2.6,17.9-5.8,21.6l0,0c-5.6,2.5-12.4,1.3-16.5-3.4
				c-3.4-3.9-7.3-5.9-9.8-7v41.7c6.7,2.8,12.7,5.7,18.2,8.6c5.4,3,10.1,6.3,14,10c3.9,3.7,6.8,8,8.9,12.7c2,4.7,3,10.2,3,16.4
				c0,7-1.2,13.2-3.6,18.6c-2.4,5.4-5.6,10.1-9.7,14c-4,3.9-8.7,7-14.1,9.3c-5.4,2.3-10.9,4-16.7,4.9v10.1c0,5.7-4.6,10.4-10.4,10.4
				l0,0c-5.7,0-10.4-4.6-10.4-10.4V382.2z M290.2,260.4c0,3.7,1.2,7,3.6,9.7c2.4,2.7,6.3,5.5,11.8,8.3v-34
				c-4.7,1.2-8.4,3.3-11.2,6.1C291.6,253.1,290.2,256.5,290.2,260.4z M340.6,335.4c0-4-1.1-7.4-3.3-10c-2.2-2.6-5.8-5.3-11-7.9v35.7
				c4.2-1.4,7.6-3.6,10.3-6.6C339.2,343.4,340.6,339.8,340.6,335.4z"/>
		</g>
		<g>
			<linearGradient id="SVGID_11_" gradientUnits="userSpaceOnUse" x1="183.7531" y1="455.0609" x2="230.7625" y2="455.0609">
				<stop  offset="0" style="stop-color:#182C8C"/>
				<stop  offset="1" style="stop-color:#001333"/>
			</linearGradient>
			<path class="st16" d="M200.2,444.7c0,0-1.1,3.2,1.3,5.5c2.5,2.3,27.4,8.2,28.9,11.8c1.5,3.6-2.5,3.4-8.3,3.4
				c-5.9,0-33.6,0-36.9,0c-3.3,0,0-20.7,0-20.7H200.2z"/>
			<linearGradient id="SVGID_12_" gradientUnits="userSpaceOnUse" x1="94.472" y1="448.8827" x2="124.5949" y2="448.8827">
				<stop  offset="0" style="stop-color:#182C8C"/>
				<stop  offset="1" style="stop-color:#001333"/>
			</linearGradient>
			<path class="st17" d="M113.2,439.6c0,0-0.8,3.1-0.6,5.2c0.2,2.1,8,12.9,10.7,15.3s0.8,5.4-2.2,5.3c-3.1-0.1-24-18-26.3-20.7
				c-2.4-2.7,10.4-12.4,10.4-12.4L113.2,439.6z"/>
			<linearGradient id="SVGID_13_" gradientUnits="userSpaceOnUse" x1="101.2769" y1="390.4281" x2="159.6819" y2="390.4281">
				<stop  offset="0" style="stop-color:#304DD9"/>
				<stop  offset="1" style="stop-color:#182C8C"/>
			</linearGradient>
			<path class="st18" d="M127.4,336.1c0,0-7.6,12.9,0,28c0,0,9.1,23.4-5.8,43.3c-14.9,19.9-20.4,27.2-20.4,27.2l11.3,10.1
				c0,0,21.4-18.6,30.8-36c9.4-17.4,16.2-34,16.2-42.8c0-8.8-7.2-25-7.2-25L127.4,336.1z"/>
			<polygon class="st19" points="120.6,336.9 126.2,338.9 131.7,332.3 125.8,330.1 			"/>
			<linearGradient id="SVGID_14_" gradientUnits="userSpaceOnUse" x1="163.598" y1="220.6629" x2="161.0462" y2="294.666">
				<stop  offset="0" style="stop-color:#FBB773"/>
				<stop  offset="1" style="stop-color:#FA6C69"/>
			</linearGradient>
			<path class="st20" d="M158.3,222c8.5-2.1,17.4,3.4,19.1,19.9c1.7,16.5-6.8,17.4-9.5,17.4c-2.8,0-4.9,12.7-4.9,12.7l-14.4-2.1
				c0,0,3.4-7.2,3.4-14c0-6.8-4.7-16.6-3.4-23.8C149.8,225,158.3,222,158.3,222z"/>
			<linearGradient id="SVGID_15_" gradientUnits="userSpaceOnUse" x1="163.5173" y1="205.3969" x2="152.1813" y2="282.5543">
				<stop  offset="0" style="stop-color:#304DD9"/>
				<stop  offset="1" style="stop-color:#182C8C"/>
			</linearGradient>
			<path class="st21" d="M173.6,229.2c0,0-8.9,7.3-14.1,8.7c-5.2,1.4-2.5,14.9-7.7,16.3c-5.2,1.4-9-8.3-9-14.5
				c0,0-13.9-19.3,4.4-25.1c9.1-2.9,14-2.2,17.1-3.8c3.1-1.6,6.5-8.2,11.1-5.3c4.7,2.9,2.7,11.3,0.9,12.5c0,0,7.8-2.2,7.8,3.7
				S173.6,229.2,173.6,229.2z"/>
			<linearGradient id="SVGID_16_" gradientUnits="userSpaceOnUse" x1="157.0022" y1="220.4356" x2="154.4504" y2="294.4384">
				<stop  offset="0" style="stop-color:#FBB773"/>
				<stop  offset="1" style="stop-color:#FA6C69"/>
			</linearGradient>
			<path class="st22" d="M160.7,246.8c0,0-2.1,2.9-6.6,0c-4.5-2.9-2.1-11.7,0.9-11.2c3,0.5,4.5,2.3,4.5,2.3L160.7,246.8z"/>
			<linearGradient id="SVGID_17_" gradientUnits="userSpaceOnUse" x1="112.231" y1="377.36" x2="125.9002" y2="262.2224">
				<stop  offset="0" style="stop-color:#B3E2FC"/>
				<stop  offset="1" style="stop-color:#2D9BEE"/>
			</linearGradient>
			<path class="st23" d="M137,269.9c-11.3,5.3-25.7,21.1-27.9,34.1c-2.3,13,2.3,27.9,11.6,32.9l5.2-6.8L137,269.9z"/>
			<linearGradient id="SVGID_18_" gradientUnits="userSpaceOnUse" x1="163.4039" y1="254.0107" x2="150.786" y2="325.5117">
				<stop  offset="0" style="stop-color:#B3E2FC"/>
				<stop  offset="1" style="stop-color:#2D9BEE"/>
			</linearGradient>
			<path class="st24" d="M173.5,340.4c-4.1,3.7-40.8,0.5-46.1-4.3c-5.3-4.8,3-58.2,7.6-64.1c4.5-5.9,11.7-7.4,25.9-4.9
				c14.2,2.5,16.7,9.6,18,27C180.1,311.4,177.8,336.6,173.5,340.4z"/>
			<linearGradient id="SVGID_19_" gradientUnits="userSpaceOnUse" x1="216.8328" y1="256.7112" x2="145.6693" y2="324.6642">
				<stop  offset="0" style="stop-color:#B3E2FC"/>
				<stop  offset="1" style="stop-color:#2D9BEE"/>
			</linearGradient>
			<path class="st25" d="M173.9,273.8c-9.9-5.1-13,18.2,0,23.3s31.4,4,38.5-8.3c7.1-12.3,10.3-23.9,10.3-23.9l-10.8-5.8
				c0,0-5,8.3-10.3,13C196.2,276.7,186.9,280.5,173.9,273.8z"/>
			<linearGradient id="SVGID_20_" gradientUnits="userSpaceOnUse" x1="143.451" y1="395.8465" x2="204.5755" y2="395.8465">
				<stop  offset="0" style="stop-color:#304DD9"/>
				<stop  offset="1" style="stop-color:#182C8C"/>
			</linearGradient>
			<path class="st26" d="M145.8,340.9c0,0-8.4,19.2,6.7,30.3c0,0,31.6,31,31.3,79.7h20.4c0,0,3.1-38.6-7.9-61
				c-11.1-22.4-24.4-43.9-25.7-48.9H145.8z"/>
			<linearGradient id="SVGID_21_" gradientUnits="userSpaceOnUse" x1="221.9138" y1="220.6845" x2="220.9569" y2="286.7129">
				<stop  offset="0" style="stop-color:#FBB773"/>
				<stop  offset="1" style="stop-color:#FA6C69"/>
			</linearGradient>
			<path class="st27" d="M213.6,260c0,0-1.4-2.9-1.6-8.5c-0.2-5.6-2.6-11.5,0-11.7c2.6-0.2,4.5,2.8,4.7,5.6c0,0,7.5-16.9,9.8-16.9
				s2.2,4.7,0,10.1c-1.6,3.8-1.6,3.8-1.6,3.8s9.3,5.1,7,9.4c-2.3,4.4-11,12-11,12L213.6,260z"/>
			<linearGradient id="SVGID_22_" gradientUnits="userSpaceOnUse" x1="163.7472" y1="205.4307" x2="152.4112" y2="282.588">
				<stop  offset="0" style="stop-color:#304DD9"/>
				<stop  offset="1" style="stop-color:#182C8C"/>
			</linearGradient>
			<path class="st28" d="M156.2,233c0,0,2.9,10.5,4.5,10.5c1.6,0,2.2-10.5,2.2-10.5H156.2z"/>
			<path class="st19" d="M145.4,265.9l2.9-4.9c0,0,4.6-1.7,10.1,0c5.5,1.7,9.7,3.5,11.3,4.9v4.1L145.4,265.9z"/>
			<polygon class="st19" points="211.8,259 209.3,262.8 221.5,268.3 222.7,264.8 			"/>
		</g>
		<g>
			<linearGradient id="SVGID_23_" gradientUnits="userSpaceOnUse" x1="448.7095" y1="392.3984" x2="448.7095" y2="552.8846">
				<stop  offset="0" style="stop-color:#FBB773"/>
				<stop  offset="1" style="stop-color:#FA6C69"/>
			</linearGradient>
			<path class="st29" d="M458.5,400.7c0,0,1.9,8.8-2.3,24.9c-4.2,16.1-8.4,31.7-8.4,31.7l-9.3-3.4c0,0,6.2-47.4,7-60L458.5,400.7z"
				/>
			<linearGradient id="SVGID_24_" gradientUnits="userSpaceOnUse" x1="503.8554" y1="392.3985" x2="503.8554" y2="552.8842">
				<stop  offset="0" style="stop-color:#FBB773"/>
				<stop  offset="1" style="stop-color:#FA6C69"/>
			</linearGradient>
			<path class="st30" d="M483.7,397.2c0,0,4.5,29,37.4,41l2.9-7c0,0-18.7-19-24.8-24.1l-2.1-19.8L483.7,397.2z"/>
			<linearGradient id="SVGID_25_" gradientUnits="userSpaceOnUse" x1="429.5614" y1="392.3987" x2="429.5614" y2="552.8835">
				<stop  offset="0" style="stop-color:#FBB773"/>
				<stop  offset="1" style="stop-color:#FA6C69"/>
			</linearGradient>
			<path class="st31" d="M438.5,453.8c-4.9,2.1-27.8,3.1-27.8,5.9c0,2.7,2.7,5.7,9.5,5.7c6.7,0,17.2,0,23.9,0c6.7,0,3.8-8.2,3.8-8.2
				L438.5,453.8z"/>
			<linearGradient id="SVGID_26_" gradientUnits="userSpaceOnUse" x1="527.9913" y1="392.3984" x2="527.9913" y2="552.8842">
				<stop  offset="0" style="stop-color:#FBB773"/>
				<stop  offset="1" style="stop-color:#FA6C69"/>
			</linearGradient>
			<path class="st32" d="M521.1,438.1c0,0,1.8,7.6,1.5,15.7c-0.2,8.1,1.5,8.1,4.2,7.4c2.7-0.7,7.7-21.2,8-27.1
				c0.2-6-10.9-2.9-10.9-2.9L521.1,438.1z"/>
			<path class="st33" d="M432.8,459.6c-5.4-0.3-7.8-1.8-9-3.2c-6.8,0.9-13.2,1.9-13.2,3.3c0,2.7,2.7,5.7,9.5,5.7
				c6.7,0,17.2,0,23.9,0c4.3,0,4.6-3.3,4.3-5.7C445.3,459.9,439.6,460,432.8,459.6z"/>
			<path class="st33" d="M528.2,430.4c0.2,1.8,0.3,5-0.2,9.6c-0.9,7.5-5.3,13.8-5.3,13.8c-0.2,8.1,1.5,8.1,4.2,7.4
				c2.7-0.7,7.7-21.2,8-27.1C535,430.6,531.3,430.2,528.2,430.4z"/>
			<linearGradient id="SVGID_27_" gradientUnits="userSpaceOnUse" x1="522.575" y1="334.5062" x2="523.1699" y2="367.2304">
				<stop  offset="0" style="stop-color:#FBB773"/>
				<stop  offset="1" style="stop-color:#FA6C69"/>
			</linearGradient>
			<path class="st34" d="M513.4,339.3c0,0-0.1,4.2,1.8,5.7c1.9,1.5,2.9,3.5,5.1,4s2.2,0.5,2.2,0.5s3.2,5.1,7.1,2.7
				c3.9-2.4,2.6-6.5-1.2-9.9c-3.9-3.4-5.9-5.4-5.9-5.4L513.4,339.3z"/>
			<linearGradient id="SVGID_28_" gradientUnits="userSpaceOnUse" x1="472.6362" y1="229.5814" x2="465.7857" y2="354.033">
				<stop  offset="0" style="stop-color:#304DD9"/>
				<stop  offset="1" style="stop-color:#182C8C"/>
			</linearGradient>
			<path class="st35" d="M452.6,267.6c-3.7,1.4-8.9,18-6.6,29.9c2.3,11.9-0.1,20-0.6,26.1c-0.4,6.1,3.1,7.6,13.2,8.6
				c7.2,0.7,16.9-1.5,21.8-2.9c1.8-0.5,3-2.2,2.8-4c-0.4-5-0.5-11.2,4-20.7c6.3-13.2,9.1-25.5,1.2-31.7
				C480.7,266.7,461.3,264.3,452.6,267.6z"/>
			<linearGradient id="SVGID_29_" gradientUnits="userSpaceOnUse" x1="438.7153" y1="227.7142" x2="431.8648" y2="352.1658">
				<stop  offset="0" style="stop-color:#304DD9"/>
				<stop  offset="1" style="stop-color:#182C8C"/>
			</linearGradient>
			<path class="st36" d="M455.7,266.2c-8.1-6.7-29.9-31.6-32.5-37.8c0,0-7.7,1-9.8,4.6c0,0,3.6,14.1,18.1,33.1
				c14.4,19,21.4,26,26.6,19.2C463.2,278.7,461.1,270.6,455.7,266.2z"/>
			<linearGradient id="SVGID_30_" gradientUnits="userSpaceOnUse" x1="507.5631" y1="231.5039" x2="500.7126" y2="355.9553">
				<stop  offset="0" style="stop-color:#304DD9"/>
				<stop  offset="1" style="stop-color:#182C8C"/>
			</linearGradient>
			<path class="st37" d="M488.6,273c9.7,10.4,25.2,33.1,33.9,64.1l-9.1,2.3c0,0-10.4-24.2-17.2-31.7c-6.8-7.5-12.1-13.6-12.5-19.7
				C483.3,281.8,488.6,273,488.6,273z"/>
			<linearGradient id="SVGID_31_" gradientUnits="userSpaceOnUse" x1="412.7685" y1="207.9182" x2="413.9585" y2="342.9796">
				<stop  offset="0" style="stop-color:#FBB773"/>
				<stop  offset="1" style="stop-color:#FA6C69"/>
			</linearGradient>
			<path class="st38" d="M423.2,228.4c0,0,0.6-3.5,0-8c-0.6-4.5,0.8-5.2,0.1-6.6c-0.6-1.5-3.4-2.9-4.5,2.1c-1.1,5-1.1,5-1.1,5
				s-3.3-12.6-6.5-13c-3.2-0.4-11.7,2.9-8.5,10.2c3.2,7.4,10.6,14.9,10.6,14.9L423.2,228.4z"/>
			<path class="st33" d="M472.4,268.6c1.5,2.9,3.1,5.9,5.9,7.5c2.8,1.7,6.4,1.6,9.5,0.5c3.1-1,5.8-2.9,8.5-4.8
				c2.4-1.7,4.9-3.4,6.7-5.8c1.8-2.4,2.7-5.6,1.8-8.4c-1-3-4.1-5.4-3.7-8.5c0.4-2.8,3.5-4.9,3.2-7.7c-0.3-2.2-2.5-3.5-4.5-4.2
				c-2.1-0.7-4.4-1.1-5.8-2.8c-1.6-1.9-1.6-4.7-0.9-7.1c0.6-2.4,1.8-4.7,2-7.2c0.4-3.8-1.6-7.6-4.4-10.2c-2.8-2.6-6.5-4-10.2-5
				c-7.5-1.8-15.7-1.5-22.5,2.2c-6.8,3.6-11.8,10.8-11.8,18.5c0,3.1,0.9,6.3,3.1,8.4s6,2.7,8.4,0.8L472.4,268.6z"/>
			<linearGradient id="SVGID_32_" gradientUnits="userSpaceOnUse" x1="467.7475" y1="228.9788" x2="467.7475" y2="282.8348">
				<stop  offset="0" style="stop-color:#FBB773"/>
				<stop  offset="1" style="stop-color:#FA6C69"/>
			</linearGradient>
			<path class="st39" d="M456.8,253.7c5.3,1.1,6.1,0.8,6.1,5.5c0,2.9,0.1,5.4,0.2,7c4.1,0,8.6,0.5,12.8,1.5h2.9c0,0-0.8-9,0-15.5
				c0.8-6.6,16.1-32.9-10.8-35c-11-0.9-14.2,5.5-15.5,17.4C451.1,246.3,451.6,252.6,456.8,253.7z"/>
			<path class="st33" d="M472.4,268.6c-1.9-3.7-3.8-7.5-4.4-11.6c-1.1-8.3,5.8-20.1-1.2-24.7c-4.1-2.7-13.2-1.6-15.1-6.3l5.5-12.1
				l17.3-1.6l9.1,7.2l3.7,15.5l-5.6,25l-1.6,9.9L472.4,268.6z"/>
			<linearGradient id="SVGID_33_" gradientUnits="userSpaceOnUse" x1="469.1582" y1="228.9788" x2="469.1582" y2="282.8348">
				<stop  offset="0" style="stop-color:#FBB773"/>
				<stop  offset="1" style="stop-color:#FA6C69"/>
			</linearGradient>
			<path class="st40" d="M466.1,243.7c0,0,3.9,0.5,5.8-3.4c1.8-3.9,2.9-10.1-2.9-9.7c-3.9,0.3-3.9,6.6-3.9,6.6L466.1,243.7z"/>
			<path class="st19" d="M448.5,330c0,0-5,14.1-7.1,27.4c-2,13.3-5.5,34.8,0,40.9c5.5,6.1,16.2,10.6,34.2,7.8
				c18-2.7,37.5-10.9,37.8-17.4c0.3-6.5-8.2-13-15-26.3c-6.8-13.3-7.7-27.5-17.9-33.2L448.5,330z"/>
		</g>
	</g>
	<circle class="st19" cx="445.5" cy="84.8" r="4.5"/>
	<circle class="st19" cx="211.3" cy="128.3" r="4.5"/>
	<path class="st19" d="M184.4,74.2h-2.9v-2.9c0-1.2-1-2.2-2.2-2.2c-1.2,0-2.2,1-2.2,2.2v2.9H174c-1.2,0-2.2,1-2.2,2.2
		c0,1.2,1,2.2,2.2,2.2h2.9v2.9c0,1.2,1,2.2,2.2,2.2c1.2,0,2.2-1,2.2-2.2v-2.9h2.9c1.2,0,2.2-1,2.2-2.2
		C186.7,75.2,185.7,74.2,184.4,74.2z"/>
	<path class="st19" d="M442.4,130.6h-2.9v-2.9c0-1.2-1-2.2-2.2-2.2c-1.2,0-2.2,1-2.2,2.2v2.9H432c-1.2,0-2.2,1-2.2,2.2
		s1,2.2,2.2,2.2h2.9v2.9c0,1.2,1,2.2,2.2,2.2c1.2,0,2.2-1,2.2-2.2v-2.9h2.9c1.2,0,2.2-1,2.2-2.2S443.6,130.6,442.4,130.6z"/>
</g>
</svg>
