<?xml version="1.0" encoding="utf-8"?>
<!-- Generator: Adobe Illustrator 22.1.0, SVG Export Plug-In . SVG Version: 6.00 Build 0)  -->
<svg version="1.1" id="Layer_1" xmlns="http://www.w3.org/2000/svg" xmlns:xlink="http://www.w3.org/1999/xlink" x="0px" y="0px"
	 viewBox="0 0 1200 696.1" style="enable-background:new 0 0 1200 696.1;" xml:space="preserve">
<style type="text/css">
	.st0{fill:#6B50C7;}
	.st1{fill:#8967FF;}
	.st2{fill:#543F9C;}
	.st3{fill:#5C3DC4;}
	.st4{fill:#5A3DBA;}
	.st5{fill:#F2F2F2;}
	.st6{fill:#B3B3B3;}
	.st7{opacity:0.15;fill:#FFFFFF;}
	.st8{fill:none;stroke:#FFFFFF;stroke-width:1.6817;stroke-miterlimit:10;}
	.st9{fill:#FFFFFF;}
	.st10{fill:#D1D3D4;}
	.st11{fill:#007539;}
	.st12{fill:#218B52;}
	.st13{fill:#42A16A;}
	.st14{fill:#63B883;}
	.st15{fill:#83CE9C;}
	.st16{fill:#A4E4B4;}
	.st17{fill:#C5FACD;}
	.st18{fill:#BCBEC0;}
	.st19{fill:#E6E7E8;}
	.st20{fill:#F7941E;}
	.st21{fill:#F8A536;}
	.st22{fill:#FAB64D;}
	.st23{fill:#FBC765;}
	.st24{fill:#FCD87C;}
	.st25{fill:#FEE993;}
	.st26{fill:#FFFAAB;}
	.st27{fill:#F1F2F2;}
	.st28{fill:#EF4136;}
	.st29{fill:#F2564C;}
	.st30{fill:#F46A61;}
	.st31{fill:#F77F77;}
	.st32{fill:#FA938D;}
	.st33{fill:#FCA7A2;}
	.st34{fill:#FFBCB8;}
	.st35{fill:#285B63;}
	.st36{fill:#36727B;}
	.st37{fill:#458993;}
	.st38{fill:#53A0AB;}
	.st39{fill:#61B6C2;}
	.st40{fill:#70CDDA;}
	.st41{fill:#7EE4F2;}
	.st42{fill:#61331E;}
	.st43{fill:#421F11;}
	.st44{fill:#F7A336;}
	.st45{opacity:0.1;}
	.st46{fill:#A7A9AC;}
	.st47{opacity:0.2;}
	.st48{fill:#272044;}
	.st49{opacity:0.25;}
	.st50{fill:#00A9AB;}
	.st51{fill:#FF8C00;}
	.st52{fill:#FFCC00;}
	.st53{fill:#FFE600;}
	.st54{fill:#CCCCCC;}
	.st55{fill:#F7CCA9;}
</style>
<path class="st0" d="M1174.3,696.1H25.7C11.5,696.1,0,684.6,0,670.4V25.7C0,11.5,11.5,0,25.7,0h1148.7c14.2,0,25.7,11.5,25.7,25.7
	v644.7C1200,684.6,1188.5,696.1,1174.3,696.1z"/>
<g>
	<path class="st1" d="M699.3,133.6c-2.7,0-5.4,0.2-8,0.4l-64.5,87.4c1.6,8.3,4.6,16.2,8.8,23.3l80.6-109.2
		C710.7,134.3,705.1,133.6,699.3,133.6z M625.5,207.5c0,2.1,0.1,4.2,0.3,6.3l57.9-78.5C650.4,142.5,625.5,172.1,625.5,207.5z
		 M721.8,137.1l-83.1,112.5c4.1,5.8,8.9,11.1,14.5,15.5l87.7-118.8C735,142.4,728.6,139.3,721.8,137.1z M772.9,200.6l-58.5,79.2
		c33.6-7,58.8-36.7,58.8-72.3C773.2,205.2,773.1,202.9,772.9,200.6z M762.9,169.9l-80.8,109.4c5.5,1.3,11.3,2,17.2,2
		c2.5,0,5-0.1,7.5-0.4l65-88C770.1,184.7,767.1,176.9,762.9,169.9z M745.2,149.6l-87.7,118.8c5.8,4,12.2,7.2,19,9.4L759.7,165
		C755.7,159.2,750.8,154,745.2,149.6z"/>
	<path class="st1" d="M345.1,420.9L237.5,528.5c0.7,1.4,1.4,2.7,2.2,4l109.4-109.4C347.8,422.3,346.4,421.6,345.1,420.9z
		 M320.1,413.2l-90.4,90.4c0.2,1.8,0.5,3.6,0.9,5.3l94.8-94.8C323.7,413.7,321.9,413.4,320.1,413.2z M284.2,416.4L233,467.6
		c-0.9,2.8-1.7,5.6-2.3,8.5l62-62C289.8,414.7,286.9,415.5,284.2,416.4z M364.3,434.4L251,547.7c1,1.1,2,2.1,3.1,3.1l113.3-113.3
		C366.4,436.4,365.3,435.4,364.3,434.4z M334.2,568.8l51.2-51.2c0.9-2.8,1.7-5.6,2.3-8.5l-62,62
		C328.6,570.4,331.4,569.7,334.2,568.8z M387.7,476.3l-94.8,94.8c1.7,0.4,3.5,0.6,5.3,0.9l90.4-90.4
		C388.3,479.9,388.1,478.1,387.7,476.3z M378.7,452.6L269.2,562.1c1.3,0.8,2.7,1.5,4,2.2l107.6-107.6
		C380.2,455.3,379.4,454,378.7,452.6z"/>
	<path class="st2" d="M938.7,413.2l-71.9,71.9v5.5l77.4-77.4H938.7z M967.9,413.2l-101,101v5.5l106.6-106.6H967.9z M880.4,413.2
		l-13.6,13.6v5.5l19.2-19.2H880.4z M997,413.2L866.8,543.3v5.5l135.7-135.7H997z M909.6,413.2l-42.8,42.8v5.5l48.3-48.3H909.6z
		 M1026.1,413.2L866.8,572.5v2.8h2.8l159.3-159.3v-2.8H1026.1z M898.7,575.3l130.2-130.2v-5.5L893.2,575.3H898.7z M927.8,575.3
		l101.1-101.1v-5.5L922.3,575.3H927.8z M1015.3,575.3l13.6-13.6v-5.5l-19.2,19.2H1015.3z M986.1,575.3l42.8-42.8V527l-48.3,48.3
		H986.1z M957,575.3l71.9-71.9v-5.5l-77.4,77.4H957z"/>
	<path class="st2" d="M332.3,257.9l37.6,37.6v-2.7L335,257.9H332.3z M318.2,257.9l51.7,51.7v-2.7l-49-49H318.2z M360.6,257.9
		l9.3,9.3v-2.7l-6.6-6.6H360.6z M304.1,257.9l65.9,65.9v-2.7l-63.2-63.2H304.1z M346.5,257.9l23.4,23.4v-2.7l-20.8-20.8H346.5z
		 M291.3,257.9v1.3l77.3,77.3h1.3v-1.3l-77.3-77.3H291.3z M357.1,336.6l-65.9-65.9v2.7l63.2,63.2H357.1z M343,336.6l-51.7-51.7v2.7
		l49,49H343z M300.6,336.6l-9.3-9.3v2.7l6.6,6.6H300.6z M314.7,336.6l-23.4-23.4v2.7l20.8,20.8H314.7z M328.8,336.6L291.3,299v2.7
		l34.9,34.9H328.8z"/>
	<circle class="st1" cx="1056.3" cy="501.8" r="15.5"/>
	<circle class="st2" cx="396.4" cy="229.3" r="15.5"/>
	<path class="st3" d="M942.1,362.5v21.8h-21.8v-21.8H942.1 M945,359.7h-27.5v27.5H945V359.7L945,359.7z"/>
	<path class="st1" d="M552.3,209.2c1.2,0,2.3,0.5,3.1,1.3l9.1,9.1c0.8,0.8,1.3,1.9,1.3,3.1c0,1.2-0.5,2.3-1.3,3.1l-9.1,9.1
		c-0.8,0.8-1.9,1.3-3.1,1.3c-1.2,0-2.3-0.5-3.1-1.3l-9.1-9.1c-0.8-0.8-1.3-1.9-1.3-3.1c0-1.2,0.5-2.3,1.3-3.1l9.1-9.1
		C550,209.7,551.1,209.2,552.3,209.2 M552.3,206.4c-1.9,0-3.7,0.7-5.1,2.1l-9.1,9.1c-2.8,2.8-2.8,7.4,0,10.3l9.1,9.1
		c1.4,1.4,3.3,2.1,5.1,2.1c1.9,0,3.7-0.7,5.1-2.1l9.1-9.1c2.8-2.8,2.8-7.4,0-10.3l-9.1-9.1C556,207.1,554.2,206.4,552.3,206.4
		L552.3,206.4z"/>
	<path class="st1" d="M201.6,630l-6.7,6.7c-2.1,2.1-5.5,2.1-7.6,0l-6.7-6.7c-2.1-2.1-2.1-5.5,0-7.6l6.7-6.7c2.1-2.1,5.5-2.1,7.6,0
		l6.7,6.7C203.7,624.5,203.7,627.9,201.6,630z"/>
	<g>
		<polygon class="st2" points="853.8,230.4 832.8,230.4 842.7,215.1 		"/>
		<polygon class="st2" points="853.8,212.4 832.8,212.4 842.7,197.1 		"/>
	</g>
	<g>
		<polygon class="st1" points="254.1,309.5 254.1,288.5 238.8,298.4 		"/>
		<polygon class="st1" points="236.1,309.5 236.1,288.5 220.8,298.4 		"/>
	</g>
</g>
<g>
	<g>
		<path d="M864.5,589.8H373.4V286.7c0-7.6,6.2-13.8,13.8-13.8h463.5c7.6,0,13.8,6.2,13.8,13.8V589.8z"/>
		<path class="st4" d="M839.3,580.6H398.7c-6,0-10.9-4.9-10.9-10.9V294.3c0-6,4.9-10.9,10.9-10.9h440.6c6,0,10.9,4.9,10.9,10.9
			v275.4C850.2,575.7,845.3,580.6,839.3,580.6z"/>
		<g>
			<defs>
				<path id="SVGID_1_" d="M836.1,580.6H401.9c-7.8,0-14.1-6.4-14.1-14.1v-269c0-7.8,6.4-14.1,14.1-14.1h434.2
					c7.8,0,14.1,6.4,14.1,14.1v269C850.2,574.2,843.8,580.6,836.1,580.6z"/>
			</defs>
			<clipPath id="SVGID_2_">
				<use xlink:href="#SVGID_1_"  style="overflow:visible;"/>
			</clipPath>
		</g>
		<path class="st5" d="M888.1,605.6H337.7c-4.4,0-7.9-3.5-7.9-7.9v-7.9H896v7.9C896,602.1,892.5,605.6,888.1,605.6z"/>
		<path class="st6" d="M636.7,599.6h-52.5c-0.9,0-1.7-0.8-1.7-1.7l0,0c0-0.9,0.8-1.7,1.7-1.7h52.5c0.9,0,1.7,0.8,1.7,1.7l0,0
			C638.4,598.9,637.7,599.6,636.7,599.6z"/>
		<path class="st7" d="M569.9,589.8h294.6V286.7c0-7.6-6.2-13.8-13.8-13.8H681.4L569.9,589.8z"/>
	</g>
	<g>
		<line class="st8" x1="403.1" y1="313.3" x2="829.1" y2="313.3"/>
		<line class="st8" x1="403.1" y1="357" x2="443.9" y2="357"/>
		<line class="st8" x1="403.1" y1="392.2" x2="443.9" y2="392.2"/>
		<line class="st8" x1="403.1" y1="427.4" x2="443.9" y2="427.4"/>
		<line class="st8" x1="403.1" y1="462.6" x2="443.9" y2="462.6"/>
		<line class="st8" x1="403.1" y1="497.8" x2="443.9" y2="497.8"/>
		<line class="st8" x1="403.1" y1="532.9" x2="443.9" y2="532.9"/>
		<g>
			<g>
				<path class="st9" d="M800.2,295.8c1.7,0,3.1,1.4,3.1,3.1c0,1.7-1.4,3.1-3.1,3.1c-1.7,0-3.1-1.4-3.1-3.1
					C797.1,297.2,798.5,295.8,800.2,295.8 M800.2,294.9c-2.2,0-3.9,1.8-3.9,3.9s1.8,3.9,3.9,3.9c2.2,0,3.9-1.8,3.9-3.9
					S802.4,294.9,800.2,294.9L800.2,294.9z"/>
			</g>
		</g>
		<g>
			<g>
				<path class="st9" d="M811.7,295.8c1.7,0,3.1,1.4,3.1,3.1c0,1.7-1.4,3.1-3.1,3.1s-3.1-1.4-3.1-3.1
					C808.6,297.2,810,295.8,811.7,295.8 M811.7,294.9c-2.2,0-3.9,1.8-3.9,3.9s1.8,3.9,3.9,3.9c2.2,0,3.9-1.8,3.9-3.9
					S813.9,294.9,811.7,294.9L811.7,294.9z"/>
			</g>
		</g>
		<path class="st9" d="M823.2,302.8L823.2,302.8c-2.2,0-3.9-1.8-3.9-3.9l0,0c0-2.2,1.8-3.9,3.9-3.9l0,0c2.2,0,3.9,1.8,3.9,3.9l0,0
			C827.1,301.1,825.4,302.8,823.2,302.8z"/>
		<g>
			<path class="st9" d="M708.1,401.4l-2.9-2.9l13.1-13.1c1.8-1.8,2.8-4.1,2.8-6.6s-1-4.9-2.8-6.6l-21.6-21.6
				c-1.8-1.8-4.1-2.8-6.6-2.8c-2.5,0-4.9,1-6.6,2.8l-13.1,13.1l-2.9-2.9l13.1-13.1c2.6-2.6,6-4,9.6-4c3.6,0,7,1.4,9.6,4l21.6,21.6
				c2.6,2.6,4,6,4,9.6s-1.4,7-4,9.6L708.1,401.4z"/>
			
				<rect x="551" y="453.9" transform="matrix(0.7071 -0.7071 0.7071 0.7071 -154.0696 540.0782)" class="st9" width="47.8" height="4.2"/>
			
				<rect x="572.2" y="498.7" transform="matrix(0.7071 -0.7071 0.7071 0.7071 -176.6392 575.0452)" class="st9" width="67.3" height="4.2"/>
			
				<rect x="541.4" y="477.7" transform="matrix(0.7071 -0.7071 0.7071 0.7071 -177.8481 530.2289)" class="st9" width="19.5" height="4.2"/>
			
				<rect x="655.8" y="418.9" transform="matrix(0.7071 -0.7071 0.7071 0.7071 -96.8802 608.1065)" class="st9" width="59.6" height="4.2"/>
			
				<rect x="618" y="381.1" transform="matrix(0.7071 -0.7071 0.7071 0.7071 -81.211 570.2567)" class="st9" width="59.6" height="4.2"/>
			
				<rect x="584.5" y="419.6" transform="matrix(0.7071 -0.7071 0.7071 0.7071 -119.7282 554.3029)" class="st9" width="49.4" height="4.2"/>
			
				<rect x="622.4" y="457.4" transform="matrix(0.7071 -0.7071 0.7071 0.7071 -135.4029 592.1262)" class="st9" width="49.4" height="4.2"/>
			
				<rect x="561.1" y="478.9" transform="matrix(0.7071 -0.7071 0.7071 0.7071 -192.5802 546.2908)" class="st9" width="4.2" height="53.5"/>
			<polygon class="st9" points="531.8,537 542.8,485.2 546.3,487.1 537.1,531.6 581.6,522.5 583.5,526 			"/>
			<polygon class="st9" points="583.5,526 580.6,523.1 592.9,510.7 556.5,474.4 559.5,471.4 598.8,510.7 			"/>
			<polygon class="st9" points="545.7,488.2 542.7,485.2 558,469.9 559.5,471.4 558,472.9 559.5,474.4 			"/>
			
				<rect x="685.6" y="354.3" transform="matrix(0.7071 -0.7071 0.7071 0.7071 -67.9888 597.897)" class="st9" width="4.2" height="53.5"/>
			<polygon class="st9" points="590.3,440.6 531.4,381.7 569.2,343.8 628.2,402.7 625.2,405.7 569.2,349.7 537.3,381.7 593.3,437.7 
							"/>
			<polygon class="st9" points="688.3,538.6 628.1,478.4 631.1,475.5 688.3,532.7 720.3,500.7 663.1,443.5 666,440.6 726.1,500.7 
							"/>
			
				<rect x="672.5" y="510.8" transform="matrix(0.7071 -0.7071 0.7071 0.7071 -163.8076 630.3969)" class="st9" width="13.1" height="4.2"/>
			
				<rect x="656.9" y="495.3" transform="matrix(0.7071 -0.7071 0.7071 0.7071 -157.3598 614.8301)" class="st9" width="13.1" height="4.2"/>
			
				<rect x="641.4" y="479.7" transform="matrix(0.7071 -0.7071 0.7071 0.7071 -150.9164 599.2372)" class="st9" width="13.1" height="4.2"/>
			
				<rect x="579.1" y="417.5" transform="matrix(0.7071 -0.7071 0.7071 0.7071 -125.1227 536.9987)" class="st9" width="13.1" height="4.2"/>
			
				<rect x="563.5" y="401.9" transform="matrix(0.7071 -0.7071 0.7071 0.7071 -118.6787 521.413)" class="st9" width="13.1" height="4.2"/>
			
				<rect x="548" y="386.3" transform="matrix(0.7071 -0.7071 0.7071 0.7071 -112.2277 505.869)" class="st9" width="13.1" height="4.2"/>
			<path class="st9" d="M700.1,498.8c0.6,0,1.2,0.2,1.7,0.7c0.9,0.9,0.9,2.4,0,3.4c-0.4,0.4-1,0.7-1.7,0.7c-0.6,0-1.2-0.2-1.7-0.7
				c-0.9-0.9-0.9-2.4,0-3.4C698.8,499,699.4,498.8,700.1,498.8 M700.1,494.6c-1.7,0-3.3,0.6-4.6,1.9c-2.6,2.6-2.6,6.7,0,9.3
				c1.3,1.3,3,1.9,4.6,1.9c1.7,0,3.3-0.6,4.6-1.9c2.6-2.6,2.6-6.7,0-9.3C703.4,495.2,701.7,494.6,700.1,494.6L700.1,494.6z"/>
		</g>
	</g>
</g>
<g>
	<g>
		<g>
			<path class="st10" d="M878.3,592.6c-3.2,2.3-4,6.7-1.7,9.9l8.3,11.8c2.3,3.2,6.7,4,9.9,1.7l111.2-78.6L989.4,514L878.3,592.6z"/>
			
				<rect x="883.2" y="549" transform="matrix(0.8167 -0.5771 0.5771 0.8167 -152.03 648.2568)" class="st9" width="122.4" height="28.8"/>
			<g>
				
					<rect x="892.7" y="579.1" transform="matrix(0.8167 -0.5771 0.5771 0.8167 -177.237 629.1712)" class="st11" width="18" height="28.8"/>
				
					<rect x="906.9" y="569.1" transform="matrix(0.8167 -0.5771 0.5771 0.8167 -168.8345 635.5352)" class="st12" width="18" height="28.8"/>
				
					<rect x="921.2" y="559.1" transform="matrix(0.8167 -0.5771 0.5771 0.8167 -160.4322 641.8971)" class="st13" width="18" height="28.8"/>
				
					<rect x="935.4" y="549" transform="matrix(0.8167 -0.5771 0.5771 0.8167 -152.0298 648.259)" class="st14" width="18" height="28.8"/>
				
					<rect x="949.6" y="539" transform="matrix(0.8167 -0.5771 0.5771 0.8167 -143.6274 654.6208)" class="st15" width="18" height="28.8"/>
				
					<rect x="963.8" y="528.9" transform="matrix(0.8167 -0.5771 0.5771 0.8167 -135.2251 660.9827)" class="st16" width="18" height="28.8"/>
				
					<rect x="978" y="518.9" transform="matrix(0.8167 -0.5771 0.5771 0.8167 -126.8227 667.3445)" class="st17" width="18" height="28.8"/>
			</g>
			<path class="st18" d="M885,600.7c-1.7,1.2-2.1,3.6-0.9,5.3c1.2,1.7,3.6,2.1,5.3,0.9c1.7-1.2,2.1-3.6,0.9-5.3
				C889.1,599.9,886.7,599.5,885,600.7z"/>
		</g>
		<g>
			<path class="st19" d="M880.2,591.3c-3.5,1.7-5,6-3.3,9.5l6.3,13c1.7,3.5,6,5,9.5,3.3l122.4-59.6l-12.6-25.8L880.2,591.3z"/>
			
				<rect x="888.9" y="558.8" transform="matrix(0.8993 -0.4374 0.4374 0.8993 -155.0114 473.3526)" class="st9" width="122.4" height="28.8"/>
			<g>
				
					<rect x="894.2" y="581.6" transform="matrix(0.8993 -0.4374 0.4374 0.8993 -169.7328 455.114)" class="st20" width="18" height="28.8"/>
				
					<rect x="909.8" y="574" transform="matrix(0.8993 -0.4374 0.4374 0.8993 -164.8253 461.1901)" class="st21" width="18" height="28.8"/>
				
					<rect x="925.5" y="566.4" transform="matrix(0.8993 -0.4374 0.4374 0.8993 -159.9185 467.273)" class="st22" width="18" height="28.8"/>
				
					<rect x="941.2" y="558.8" transform="matrix(0.8993 -0.4374 0.4374 0.8993 -155.0114 473.3526)" class="st23" width="18" height="28.8"/>
				
					<rect x="956.8" y="551.2" transform="matrix(0.8993 -0.4374 0.4374 0.8993 -150.1043 479.4321)" class="st24" width="18" height="28.8"/>
				
					<rect x="972.5" y="543.6" transform="matrix(0.8993 -0.4374 0.4374 0.8993 -145.1969 485.5081)" class="st25" width="18" height="28.8"/>
				
					<rect x="988.1" y="536" transform="matrix(0.8993 -0.4374 0.4374 0.8993 -140.2899 491.5877)" class="st26" width="18" height="28.8"/>
			</g>
			<path class="st18" d="M885.5,600.4c-1.9,0.9-2.7,3.2-1.8,5.1s3.2,2.7,5.1,1.8s2.7-3.2,1.8-5.1
				C889.7,600.2,887.4,599.5,885.5,600.4z"/>
		</g>
		<g>
			<path class="st27" d="M883.3,590c-3.8,0.9-6.3,4.7-5.4,8.5l3.1,14.1c0.9,3.8,4.7,6.3,8.5,5.4l132.9-29.6l-6.2-28L883.3,590z"/>
			
				<rect x="894.3" y="574.2" transform="matrix(0.9761 -0.2171 0.2171 0.9761 -105.018 221.533)" class="st9" width="122.4" height="28.8"/>
			<g>
				
					<rect x="895.6" y="585.5" transform="matrix(0.9761 -0.2171 0.2171 0.9761 -108.6964 210.7354)" class="st28" width="18" height="28.8"/>
				
					<rect x="912.6" y="581.8" transform="matrix(0.9761 -0.2171 0.2171 0.9761 -107.4706 214.3354)" class="st29" width="18" height="28.8"/>
				
					<rect x="929.5" y="578" transform="matrix(0.9761 -0.2171 0.2171 0.9761 -106.2442 217.9338)" class="st30" width="18" height="28.8"/>
				
					<rect x="946.5" y="574.2" transform="matrix(0.9761 -0.2171 0.2171 0.9761 -105.018 221.533)" class="st31" width="18" height="28.8"/>
				
					<rect x="963.5" y="570.4" transform="matrix(0.9761 -0.2171 0.2171 0.9761 -103.7922 225.133)" class="st32" width="18" height="28.8"/>
				
					<rect x="980.5" y="566.7" transform="matrix(0.9761 -0.2171 0.2171 0.9761 -102.566 228.7322)" class="st33" width="18" height="28.8"/>
				
					<rect x="997.5" y="562.9" transform="matrix(0.9761 -0.2172 0.2172 0.9761 -101.3413 232.3362)" class="st34" width="18" height="28.8"/>
			</g>
			<path class="st18" d="M886.4,600.1c-2.1,0.5-3.4,2.5-2.9,4.6c0.5,2.1,2.5,3.4,4.6,2.9c2.1-0.5,3.4-2.5,2.9-4.6
				C890.5,600.9,888.4,599.6,886.4,600.1z"/>
		</g>
		<g>
			<path class="st9" d="M886.5,589.5c-3.9,0-7.1,3.1-7.2,7.1l-0.1,14.5c0,3.9,3.1,7.1,7.1,7.2l136.1,1.1l0.2-28.7L886.5,589.5z"/>
			
				<rect x="942.8" y="543.2" transform="matrix(8.114864e-03 -1 1 8.114864e-03 345.045 1556.6342)" class="st9" width="28.8" height="122.4"/>
			<g>
				
					<rect x="890.6" y="595" transform="matrix(8.114864e-03 -1 1 8.114864e-03 293.6774 1504.0007)" class="st35" width="28.8" height="18"/>
				
					<rect x="908" y="595.1" transform="matrix(8.114864e-03 -1 1 8.114864e-03 310.8 1521.5452)" class="st36" width="28.8" height="18"/>
				
					<rect x="925.4" y="595.3" transform="matrix(8.114864e-03 -1 1 8.114864e-03 327.9225 1539.0897)" class="st37" width="28.8" height="18"/>
				
					<rect x="942.8" y="595.4" transform="matrix(8.114892e-03 -1 1 8.114892e-03 345.045 1556.6342)" class="st38" width="28.8" height="18"/>
				
					<rect x="960.2" y="595.5" transform="matrix(8.118361e-03 -1 1 8.118361e-03 362.1641 1574.1765)" class="st39" width="28.8" height="18"/>
				
					<rect x="977.6" y="595.7" transform="matrix(8.114892e-03 -1 1 8.114892e-03 379.29 1591.723)" class="st40" width="28.8" height="18"/>
				
					<rect x="995" y="595.8" transform="matrix(8.114892e-03 -1 1 8.114892e-03 396.4125 1609.2676)" class="st41" width="28.8" height="18"/>
			</g>
			<path class="st18" d="M887.2,600c-2.1,0-3.8,1.7-3.9,3.8c0,2.1,1.7,3.8,3.8,3.9c2.1,0,3.8-1.7,3.9-3.8
				C891,601.7,889.3,600,887.2,600z"/>
		</g>
	</g>
	<g>
		<path class="st42" d="M306.5,415.6c0,0,1.6-53.1-13.4-68.1c0,0-11.6,13.1-10.9,69.7L306.5,415.6z"/>
		<g>
			<g>
				<path class="st43" d="M286.2,417l-2.3,0.2c-0.1-9.6,0.1-17.9,0.6-25.1c0.5-7.2,1.2-13.3,2-18.5c0.8-5.2,1.8-9.4,2.7-12.8
					c0.9-3.4,1.9-6.1,2.7-8c-0.8,2-1.6,4.7-2.5,8.2c-0.8,3.5-1.6,7.7-2.2,12.9c-0.6,5.2-1.1,11.3-1.3,18.4
					C285.7,399.4,285.7,407.6,286.2,417z"/>
			</g>
			<path class="st43" d="M292.8,352.7c-0.4,2-0.9,4.6-1.4,8.1c-0.5,3.4-1,7.7-1.4,12.8c-0.4,5-0.8,10.9-1,17.8c0,0.3,0,0.6,0,0.9
				c-0.3,6.7-0.4,14.4-0.4,23.1c0,0.5,0.6,1.1,0.6,1.7c0-0.2,1.7-0.5,1.7-0.7c-0.3-8.8-0.5-16.6-0.5-23.4c0-0.4,0-0.8,0-1.2
				c0-6.9,0.2-12.7,0.4-17.8c0-0.2,0-0.3,0-0.5c0.2-5.1,0.6-9.3,1-12.7C292.1,357.3,292.5,354.7,292.8,352.7z"/>
			<path class="st43" d="M293.1,352.7c0,2,0,4.6-0.1,8.1c0,3.4-0.1,7.7-0.1,12.8c0,5.1,0,11-0.1,18c0,0.3,0,0.6,0,0.9
				c0,6.8-0.1,14.6-0.2,23.4c0,0.4,1.2,0.8,1.2,1.1c0-0.4,1.1-0.8,1.1-1.2c-0.3-8.8-0.5-16.4-0.7-23.2c0-0.4,0-0.8,0-1.2
				c-0.2-6.8-0.3-12.6-0.5-17.6c0-0.2,0-0.4,0-0.5c-0.2-5-0.2-9.2-0.3-12.6C293.3,357.3,293.2,354.6,293.1,352.7z"/>
			<path class="st43" d="M293.4,352.6c0.4,2,0.9,4.7,1.3,8.1c0.4,3.4,0.9,7.7,1.2,12.8c0.4,5.1,0.7,11.1,0.8,18.2c0,0.3,0,0.6,0,0.9
				c0.2,6.9,0.2,14.7,0.1,23.6c0,0.2,1.7,0.4,1.7,0.6c0-0.6,0.6-1.2,0.5-1.7c-0.2-8.7-0.5-16.3-0.9-23c0-0.4,0-0.8-0.1-1.2
				c-0.4-6.7-0.9-12.5-1.4-17.4c0-0.2,0-0.4-0.1-0.6c-0.6-5-1.1-9-1.6-12.4C294.5,357.2,293.9,354.6,293.4,352.6z"/>
			<g>
				<path class="st43" d="M301.6,416.8l2.3,0.1c-0.1-9.6-0.5-17.9-1.2-25.1c-0.6-7.2-1.5-13.3-2.4-18.5c-0.9-5.2-2-9.4-3-12.8
					c-1-3.4-2-6-2.9-8c0.8,2,1.7,4.7,2.6,8.1c0.9,3.4,1.8,7.7,2.5,12.8c0.8,5.2,1.4,11.3,1.8,18.4
					C301.7,399.2,301.8,407.4,301.6,416.8z"/>
			</g>
		</g>
		<path class="st44" d="M290.5,601.6c0.1,5.8,3.3,10.5,7.3,10.5l0,0c4,0,7.1-4.8,7-10.6l-2.7-136.8c-0.1-5.8-3.3-10.5-7.3-10.5l0,0
			c-4,0-7.1,4.8-7,10.6L290.5,601.6z"/>
		<path class="st45" d="M294.9,454.2c1.3,0,2.5,0.5,3.6,1.3l2.9,155.1c-1,0.9-2.2,1.4-3.5,1.4c-4,0-7.2-4.6-7.3-10.5l-2.7-136.8
			C287.8,459,290.9,454.2,294.9,454.2z"/>
		<path class="st45" d="M296,611.7c-1-0.4-1.9-1-2.7-2l-2.9-153.2c0.8-0.9,1.7-1.6,2.7-2L296,611.7z"/>
		<path class="st27" d="M304.2,502.8l-16.6,0.2l-1-55.1c0,0-0.8-18-5.7-25.5l27.4-0.3c0,0-5.4,12-5.2,26
			C303.2,462.1,304.2,502.8,304.2,502.8z"/>
		<path class="st10" d="M304,425.7l-19.6,0.2c0,0,5.7,7.4,5.9,21.3c0.2,13.8,1,52.6,1,52.6l8.1-0.1l-1-51.8l-3.9,0
			C294.5,447.9,296,427.4,304,425.7z"/>
		
			<rect x="280.8" y="415.7" transform="matrix(0.9999 -1.181466e-02 1.181466e-02 0.9999 -4.9296 3.5092)" class="st10" width="27.4" height="6.5"/>
		
			<rect x="284.1" y="415.7" transform="matrix(0.9999 -1.181810e-02 1.181810e-02 0.9999 -4.9311 3.5095)" class="st46" width="20.8" height="6.5"/>
	</g>
	<g>
		<g>
			<g>
				<path class="st47" d="M891.1,635c0,1.9-4.3,3.4-9.5,3.4c-5.3,0-9.5-1.5-9.5-3.4c0-1.9,4.3-3.4,9.5-3.4
					C886.9,631.6,891.1,633.1,891.1,635z"/>
				<ellipse class="st9" cx="881.5" cy="627.3" rx="7.7" ry="7.2"/>
				<path class="st48" d="M881.6,588.3l-17-0.6v32.2c0,0.8,0.4,1.6,1,2.1l8.4,7.1c5.2,0.7,10.3,0.8,15.2,0l8.4-7.1
					c0.6-0.5,1-1.3,1-2.1v-32.2L881.6,588.3z"/>
				<g>
					<path class="st49" d="M864.6,594.7v2.8c0.1,0,0.2,0,0.4,0c1.9,0,6.6,0,12.2-0.4c9.4-0.6,16.6-1.8,21.4-3.6v-2.9
						c-0.2,0-0.4,0-0.5,0.1C887.8,594.6,867.7,594.7,864.6,594.7z"/>
					<path class="st49" d="M877.1,604.3c9.4-0.6,16.6-1.8,21.4-3.6v-2.9c-0.2,0-0.4,0-0.5,0.1c-10.2,3.9-30.4,3.9-33.4,3.9v2.8
						c0.1,0,0.2,0,0.4,0C866.8,604.7,871.6,604.7,877.1,604.3z"/>
					<path class="st49" d="M877.1,611.5c9.4-0.6,16.6-1.8,21.4-3.6v-2.9c-0.2,0-0.4,0-0.5,0.1c-10.2,3.9-30.4,3.9-33.4,3.9v2.8
						c0.1,0,0.2,0,0.4,0C866.8,611.9,871.6,611.9,877.1,611.5z"/>
					<path class="st49" d="M877.1,618.7c9.4-0.6,16.6-1.8,21.4-3.6v-2.9c-0.2,0-0.4,0-0.5,0.1c-10.2,3.9-30.4,3.9-33.4,3.9v2.8
						c0.1,0,0.2,0,0.4,0C866.8,619.1,871.6,619,877.1,618.7z"/>
				</g>
				<ellipse class="st9" cx="881.6" cy="587.7" rx="17" ry="2.1"/>
				<path class="st50" d="M865,596.7c-0.5,0-0.8,0-0.8,0c-0.7,0-1.3-0.6-1.3-1.4c0-0.8,0.6-1.4,1.3-1.4c0,0,0,0,0,0
					c0.2,0,22.9,0.2,33.8-3.9c0.7-0.3,1.4,0.1,1.7,0.8c0.2,0.7-0.1,1.5-0.8,1.8c-4.8,1.8-12.1,3.1-21.8,3.7
					C871.6,596.6,866.8,596.7,865,596.7z"/>
				<path class="st50" d="M865,603.8c-0.5,0-0.8,0-0.8,0c-0.7,0-1.3-0.6-1.3-1.4c0-0.8,0.6-1.4,1.3-1.4c0,0,0,0,0,0
					c0.2,0,22.9,0.2,33.8-3.9c0.7-0.3,1.4,0.1,1.7,0.8c0.2,0.7-0.1,1.5-0.8,1.8c-4.8,1.8-12.1,3.1-21.8,3.7
					C871.6,603.8,866.8,603.8,865,603.8z"/>
				<path class="st50" d="M865,611c-0.5,0-0.8,0-0.8,0c-0.7,0-1.3-0.6-1.3-1.4c0-0.8,0.6-1.4,1.3-1.4c0,0,0,0,0,0
					c0.2,0,22.9,0.2,33.8-3.9c0.7-0.3,1.4,0.1,1.7,0.8c0.2,0.7-0.1,1.5-0.8,1.8c-4.8,1.8-12.1,3.1-21.8,3.7
					C871.6,611,866.8,611,865,611z"/>
				<path class="st50" d="M865,618.2c-0.5,0-0.8,0-0.8,0c-0.7,0-1.3-0.6-1.3-1.4c0-0.8,0.6-1.4,1.3-1.4c0,0,0,0,0,0
					c0.2,0,22.9,0.2,33.8-3.9c0.7-0.3,1.4,0.1,1.7,0.8c0.2,0.7-0.1,1.5-0.8,1.8c-4.8,1.8-12.1,3.1-21.8,3.7
					C871.6,618.2,866.8,618.2,865,618.2z"/>
				<path class="st51" d="M935.1,505.5L935.1,505.5c0-29.2-25.1-52.8-54.3-52.8s-53.9,23.7-53.9,52.8c0,0.3,0,0.5,0,0.8
					c0,0.7,0,2,0.2,3.7c0.8,9.2,4.1,17.8,9.1,25c3.4,5.9,8.2,12.4,14.6,19.4c0,0,10.4,13.7,11.4,24.4c0,0-1.9,7.9,18,8.5v0
					c0.4,0,0.9,0,1.3,0c0.4,0,0.9,0,1.3,0v0c19.9-0.6,18-8.5,18-8.5c1-10.6,11.4-24.4,11.4-24.4
					C938.3,526.1,935.1,505.5,935.1,505.5z"/>
				
					<ellipse transform="matrix(0.2258 -0.9742 0.9742 0.2258 189.9499 1249.8611)" class="st52" cx="881.3" cy="505.4" rx="40.9" ry="40.9"/>
				
					<ellipse transform="matrix(0.2272 -0.9738 0.9738 0.2272 188.8791 1248.8652)" class="st53" cx="881.3" cy="505.4" rx="26.3" ry="26.3"/>
			</g>
			<g>
				<path class="st9" d="M892,583.9c-0.2,0-0.4-0.2-0.4-0.4v-81.3l-4.7,5l0.7,0.9c0.4,0.5,0.4,1.1,0.2,1.6c-0.3,0.5-0.8,0.9-1.4,0.9
					h-0.2c-0.6,0-1.2-0.4-1.4-0.9c-0.2-0.6-0.1-1.2,0.3-1.7l0.8-0.8l-4-5l-4.5,5.2l0.6,0.7c0.4,0.5,0.5,1.1,0.3,1.7
					c-0.2,0.6-0.8,0.9-1.4,0.9c-0.6,0-1.1-0.3-1.4-0.9c-0.3-0.6-0.2-1.2,0.2-1.6l0.6-0.7l-4.8-5.2v81.3c0,0.2-0.2,0.4-0.4,0.4
					s-0.4-0.2-0.4-0.4v-82.3c0-0.2,0.1-0.3,0.3-0.4c0.2-0.1,0.3,0,0.4,0.1l5.4,5.8l4.8-5.5c0.1-0.1,0.2-0.1,0.3-0.1
					c0.1,0,0.2,0.1,0.3,0.2l4.2,5.3l5.2-5.7c0.1-0.1,0.3-0.2,0.4-0.1c0.2,0.1,0.3,0.2,0.3,0.4v82.3
					C892.4,583.8,892.2,583.9,892,583.9z M886.4,507.8l-0.7,0.7c-0.2,0.2-0.3,0.5-0.1,0.8c0.1,0.3,0.4,0.5,0.7,0.5h0.2
					c0.3,0,0.5-0.2,0.7-0.4c0.1-0.3,0.1-0.6-0.1-0.8L886.4,507.8z M876.9,507.9l-0.5,0.6c-0.2,0.2-0.2,0.5-0.1,0.8
					c0.1,0.3,0.4,0.4,0.7,0.4c0.3,0,0.6-0.2,0.7-0.5c0.1-0.3,0.1-0.6-0.1-0.8L876.9,507.9z"/>
				<path class="st9" d="M873.7,499.9c0,1.3-1.1,2.4-2.4,2.4s-2.4-1.1-2.4-2.4c0-1.3,1.1-2.4,2.4-2.4S873.7,498.6,873.7,499.9z"/>
				<path class="st9" d="M884.2,499.9c0,1.3-1.1,2.4-2.4,2.4s-2.4-1.1-2.4-2.4c0-1.3,1.1-2.4,2.4-2.4S884.2,498.6,884.2,499.9z"/>
				<path class="st9" d="M894.4,499.9c0,1.3-1.1,2.4-2.4,2.4c-1.3,0-2.4-1.1-2.4-2.4c0-1.3,1.1-2.4,2.4-2.4
					C893.3,497.5,894.4,498.6,894.4,499.9z"/>
			</g>
		</g>
	</g>
	<g>
		<g>
			<g>
				<path class="st54" d="M255.6,613.1c0,1.8,1.1,3.2,2.5,3.2l15.8-0.2c1.4,0,2.4-1.5,2.4-3.2l0,0c0-1.8-1.3-16.7-2.7-16.7
					l-15.8,0.2C256.5,596.3,255.6,611.3,255.6,613.1L255.6,613.1z"/>
			</g>
		</g>
		
			<rect x="254.5" y="473.3" transform="matrix(0.9999 -1.233683e-02 1.233683e-02 0.9999 -6.6665 3.3107)" class="st50" width="21.1" height="137.5"/>
		<path class="st55" d="M274.7,473.1l-9.8-14.9c-0.4-0.7-1.4-0.6-1.8,0l-9.4,15.2l3.4,6.7l3.4-6.7l3.6,7.2l4.2-7.3l3.5,7
			L274.7,473.1z"/>
		<path class="st48" d="M269.4,465l-4.5-6.8c-0.4-0.7-1.4-0.7-1.9,0l-4.3,6.9C264.2,468.5,268.2,465.9,269.4,465z"/>
		<path class="st48" d="M254.3,603.6c0-1.2,0.7-2.2,1.6-2.2l19.6-0.2c0.9,0,1.7,0.9,1.7,2.1l0,0c0,1.2-0.7,2.2-1.6,2.2l-19.6,0.2
			C255,605.7,254.3,604.7,254.3,603.6L254.3,603.6z"/>
		<path class="st48" d="M254.4,609.9c0-1.2,0.7-2.2,1.6-2.2l19.6-0.2c0.9,0,1.7,0.9,1.7,2.1l0,0c0,1.2-0.7,2.2-1.6,2.2L256,612
			C255.1,612,254.4,611,254.4,609.9L254.4,609.9z"/>
		<path class="st48" d="M254.2,597.8c0-1.2,0.7-2.2,1.6-2.2l19.6-0.2c0.9,0,1.7,0.9,1.7,2.1l0,0c0,1.2-0.7,2.2-1.6,2.2l-19.6,0.2
			C255,599.9,254.2,599,254.2,597.8L254.2,597.8z"/>
	</g>
	<g>
		<g>
			<path class="st48" d="M412.6,550.2l-25.7,0.1l0-7.6c0-7.4-6-13.3-13.4-13.3l-45.9,0.2c-7.4,0-13.3,6-13.3,13.4l0,7.6l-25.7,0.1
				c-6.2,0-11.2,5.1-11.2,11.3l0.3,66.7c0,6.2,5.1,11.2,11.3,11.2l124-0.5c6.2,0,11.2-5.1,11.2-11.3l-0.3-66.7
				C423.9,555.1,418.9,550.1,412.6,550.2z"/>
			
				<rect x="325.9" y="538.1" transform="matrix(1 -4.355016e-03 4.355016e-03 1 -2.3584 1.5354)" class="st50" width="50.9" height="8.4"/>
			
				<ellipse transform="matrix(0.4426 -0.8967 0.8967 0.4426 -338.0418 646.2487)" class="st9" cx="350.8" cy="595" rx="37.9" ry="37.9"/>
			
				<ellipse transform="matrix(0.7071 -0.7071 0.7071 0.7071 -318.0062 422.3416)" class="st51" cx="350.8" cy="595" rx="22.3" ry="22.3"/>
			<path class="st9" d="M350.8,584.8c-5.6,0-10.2,4.6-10.2,10.3c0,5.6,4.6,10.2,10.3,10.2s10.2-4.6,10.2-10.3
				S356.4,584.8,350.8,584.8z"/>
			
				<ellipse transform="matrix(0.9997 -2.544030e-02 2.544030e-02 0.9997 -14.3297 7.6768)" class="st9" cx="294.5" cy="567" rx="7.8" ry="7.8"/>
		</g>
	</g>
</g>
</svg>
