<?xml version="1.0" encoding="utf-8"?>
<!-- Generator: Adobe Illustrator 22.1.0, SVG Export Plug-In . SVG Version: 6.00 Build 0)  -->
<svg version="1.1" id="ëÎÓÈ_1" xmlns="http://www.w3.org/2000/svg" xmlns:xlink="http://www.w3.org/1999/xlink" x="0px" y="0px"
	 viewBox="0 0 950 600" enable-background="new 0 0 950 600" xml:space="preserve">
<g>
	<rect fill="#9881B1" width="950" height="600"/>
	<g>
		<path fill="#F7BAB5" d="M457.842,393.301c2.722-4.064,5.712-9.414,5.782-14.089c0.008-0.488-0.337-0.754-0.727-0.801
			c-0.001-0.438-0.531-0.794-0.974-0.406c-9.962,8.791-22.079,13.589-34.391,18.732c-11.026,4.607-25.196,10.6-30.641,21.509
			c-0.081,0.162-0.092,0.315-0.079,0.462c-0.037,0.079-0.075,0.154-0.113,0.233c-0.166,0.279-0.136,0.66,0.122,0.885
			c0.091,0.079,0.183,0.161,0.275,0.243c0.331,0.29,0.767,0.264,1.1,0c0.23-0.181,0.465-0.354,0.697-0.528
			c-0.034,0.066-0.063,0.133-0.097,0.196c-0.347,0.649,0.423,1.619,1.164,1.101c0.43-0.302,0.85-0.598,1.264-0.893
			c-0.112,0.286-0.223,0.572-0.336,0.868c-0.301,0.789,0.874,1.376,1.458,0.8c0.173-0.17,0.357-0.326,0.54-0.486
			c-0.012,0.026-0.022,0.051-0.035,0.077c-0.315,0.681,0.397,1.669,1.209,1.139c3.911-2.545,7.528-5.477,11.423-8.053
			c4.926-3.255,10.429-5.326,16.027-7.311c9.081-3.221,17.516-6.584,25.073-12.351c0.197,0.009,0.401-0.066,0.534-0.259
			c0.072-0.103,0.146-0.215,0.22-0.322c0.045-0.035,0.091-0.066,0.136-0.103C457.722,393.745,457.828,393.522,457.842,393.301z"/>
		<path fill="#FFFFFF" d="M404.592,414.086c-10.893-8.155-26.905-9.243-40.26-9.333c-0.443-0.001-3.354,0-3.352,0.007H0v2.661
			h362.085c2.091-0.039,8.877,0.134,9.941,0.199c13.241,0.808,27.067,3.275,36.302,13.067c5.202,5.516,8.453,12.013,11.69,18.551
			c0.694-0.509,1.474-0.901,2.31-1.157C418.025,429.061,413.076,420.436,404.592,414.086z"/>
		<path fill="#FFFFFF" d="M950,404.76H589.015c0-0.007-2.909-0.008-3.353-0.007c-13.356,0.09-29.367,1.178-40.262,9.333
			c-9.839,7.364-14.929,17.785-19.759,28.337c0.755,0.205,1.529,0.543,2.307,0.871c4.002-7.863,7.439-15.948,13.717-22.607
			c9.237-9.793,23.062-12.26,36.305-13.067c1.064-0.065,7.85-0.238,9.941-0.199H950V404.76z"/>
		
			<image overflow="visible" width="113" height="13" xlink:href="4B6B4F656ABDE34C.png"  transform="matrix(1 0 0 1 416.334 517.376)">
		</image>
		<path fill="#F7BAB5" d="M450.3,470.128c-0.518,11.715,1.71,46.642,1.525,52.261c3.302,0.084,8.111-1.425,10.687-1.734
			c0.784-0.095,2.715-12.844,2.11-48.897C463.415,471.347,451.375,468.944,450.3,470.128z"/>
		<path fill="#F7BAB5" d="M493.957,469.966c-0.24-0.03-13.801,1.3-14.668,0.977c0.301,19.941,0.554,43.622,1.089,47.522
			c0.2,1.456,0.678,2.548,1.327,3.383c3.351,0.145,8.158,1.499,10.183,0.218c0.13-0.643,0.141-3.879-0.022-3.885
			C492.262,514.253,493.669,488.847,493.957,469.966z"/>
		<path fill="#F7BAB5" d="M488.496,377.503c-0.006-0.027-0.003-0.047-0.011-0.074c-0.533-1.581-2.305-2.593-3.754-3.399
			c-1.058-0.587-2.274-1.143-3.514-1.42c-0.107-2.922,0.018-6.797-0.232-8.675c-0.234-1.778,9.841-25.834-15.22-21.417
			c-0.621,0.11-0.973,0.298-1.73,0.549c-13.691,4.547-12.445,22.864,2.75,25.446c0.162,0.877-0.413,3.21-0.558,5.108
			c-0.721,0.415-1.404,0.9-2.022,1.365c-1.065,0.796-2.164,1.747-2.688,2.955c-0.432,0.175-0.763,0.551-0.758,1.141
			c0.007,1.038,0.293,1.904,0.778,2.637c0.12,0.365,0.373,0.681,0.713,0.844c5.378,5.051,23.695,0.755,26.46-4.131
			C488.913,378.075,488.773,377.706,488.496,377.503z"/>
		<path fill="#1E1E1E" d="M481.151,341.506c-2.158-3.287-4.815-4.643-13.946-3.432c-3.976,0.527-8.207-1.66-10.132,0.646
			c-0.734,0.879-0.516,1.796,0.134,2.635c-3.669,0.053-6.778,0.929-2.839,4.371c-0.586,0.167-1.036,0.636-1.031,1.26
			c0.029,3.808,12.063,3.641,14.751-0.002c1.164,2.305,4.598,4.403,7.294,5.326c1.761-1.496,4.956-1.117,5.231,0.939
			c0.255,1.901-0.29,2.817-2.949,3.757c0.624,5.051,2.825,7.985,3.873,7.502C482.87,363.896,491.116,344.95,481.151,341.506z"/>
		<path fill="#0D5591" d="M494.424,426.587c-0.132-1.249-1.119-1.827-2.146-1.72c-12.848-6.436-24.11,0.676-37.737-0.213
			c-1.115-0.072-1.786,0.796-1.885,1.703c-0.341,0.184-0.597,0.494-0.672,0.949c-3.238,19.721-2.817,44.318-2.827,45.181
			c-0.011,0.812,1.173,1.359,1.776,0.695c0.221-0.245,0.415-0.495,0.599-0.758c0.037,0.162,0.07,0.321,0.115,0.483
			c0.261,0.95,1.639,1.072,2.159,0.265c0.151-0.235,0.288-0.475,0.423-0.714c0.07,0.233,0.143,0.468,0.229,0.701
			c0.181,0.488,0.606,0.843,1.177,0.844c0.042,0.001,0.085,0.001,0.13,0.001c0.561,0,1.007-0.356,1.177-0.845
			c0.098-0.286,0.209-0.565,0.324-0.842c0.096,0.362,0.203,0.721,0.285,1.088c0.271,1.223,1.993,0.995,2.381,0
			c0.092-0.239,0.192-0.473,0.289-0.707c0.057,0.237,0.105,0.476,0.167,0.71c0.25,0.936,1.802,1.213,2.274,0.28
			c0.184-0.363,0.322-0.781,0.452-1.209c0.063,0.355,0.12,0.71,0.178,1.071c0.178,1.111,1.886,1.15,2.414,0.296
			c0.963-1.557,2.12-17.936,4.163-33.697c3.25-0.926,4.136-0.131,6.738-0.136c1.173,5.432,1.453,32.462,1.657,33.48
			c0.179,0.9,1.56,0.983,2,0.246c0.124-0.204,0.242-0.411,0.36-0.615c0.095,0.292,0.192,0.58,0.284,0.876
			c0.319,1.008,1.992,1.099,2.257,0c0.104-0.43,0.25-0.822,0.418-1.202c0.039,0.217,0.076,0.433,0.106,0.665
			c0.165,1.258,1.86,1.54,2.349,0.299c0.17-0.434,0.333-0.866,0.509-1.291c0.084,0.436,0.149,0.867,0.275,1.295
			c0.336,1.149,1.951,1.031,2.34,0c0.134-0.355,0.259-0.715,0.389-1.073c0.115,0.327,0.241,0.652,0.389,0.971
			c0.455,0.969,1.871,0.542,2.173-0.269c0.059-0.176,0.129-0.35,0.199-0.523c0.232,1.39,2.625,1.341,2.511-0.142
			C494.723,471.463,496.202,443.286,494.424,426.587z"/>
		<g>
			<path fill="#FFFFFF" d="M456.029,462.555c-1.868-0.252-3.719-0.242-5.598-0.092c-0.824,0.066-0.842,1.269,0,1.224
				c0.997-0.052,1.989-0.066,2.981-0.026c-1.062,0.463-2.165,0.858-3.254,1.168c-0.8,0.228-1.067,1.368-0.243,1.762
				c1.45,0.688,3.135,0.953,4.722,0.597c0.809-0.181,0.789-1.325,0-1.518c-0.492-0.12-0.985-0.211-1.477-0.296
				c1.03-0.501,2.077-0.979,3.04-1.577C456.661,463.508,456.701,462.646,456.029,462.555z"/>
			<path fill="#FFFFFF" d="M490.41,454.643c1.12-0.154,2.255-0.069,3.376-0.222c0.809-0.111,0.81-1.426,0-1.537
				c-1.288-0.176-2.565-0.064-3.832,0.202C488.854,453.319,489.349,454.789,490.41,454.643z"/>
			<path fill="#FFFFFF" d="M494.221,454.908c-0.859-0.072-1.79,0.243-2.624,0.421c-0.845,0.181-1.737,0.476-2.364,1.056
				c-0.408,0.381-0.075,0.942,0.433,0.987c0.81,0.069,1.662-0.115,2.453-0.259c0.84-0.148,1.825-0.212,2.537-0.689
				C495.372,455.943,495.098,454.979,494.221,454.908z"/>
		</g>
		<g>
			<g>
				<path fill="#083354" d="M475.093,433.121c-0.356,2.043-0.905,4.072-1.074,6.14c-0.057,0.692,1.149,0.846,1.285,0.163
					c0.411-2.035,0.85-4.078,1.043-6.143C476.411,432.607,475.21,432.452,475.093,433.121z"/>
				<path fill="#083354" d="M479.911,470.113c-0.038,0.434-0.062,0.835,0.018,1.265c0.13,0.69,1.345,0.69,1.474,0
					c0.082-0.43,0.057-0.831,0.018-1.265C481.342,469.196,479.99,469.196,479.911,470.113z"/>
				<path fill="#083354" d="M481.257,455.94c0.122-0.479-0.052-0.86-0.146-1.328c-0.15-0.745-1.215-0.475-1.291,0.164
					c-0.05,0.397-0.073,0.782,0.065,1.164C480.101,456.536,481.084,456.621,481.257,455.94z"/>
				<path fill="#083354" d="M479.955,459.357c-0.082,0.335-0.119,0.621-0.104,0.964c0.04,0.876,1.4,0.876,1.441,0
					c0.015-0.343-0.022-0.629-0.104-0.964C481.048,458.778,480.095,458.778,479.955,459.357z"/>
				<path fill="#083354" d="M480.621,445.754c0.073-0.461-0.041-0.793-0.262-1.202c-0.287-0.528-1.2-0.281-1.178,0.3
					c0.012,0.311-0.041,0.59,0.015,0.902C479.316,446.414,480.512,446.424,480.621,445.754z"/>
				<path fill="#083354" d="M480.177,441.543c-0.01-0.301-0.048-0.586-0.136-0.874c-0.222-0.739-1.402-0.429-1.217,0.317
					c0.048,0.193,0.057,0.361,0.054,0.557C478.868,442.334,480.205,442.332,480.177,441.543z"/>
				<path fill="#083354" d="M480.382,451.082c0.366,0,0.77-0.314,0.728-0.687c-0.037-0.336-0.142-0.632-0.232-0.957
					c-0.15-0.549-1.04-0.56-1.184,0c-0.103,0.395-0.188,0.754-0.017,1.14C479.806,450.868,480.025,451.082,480.382,451.082z"/>
				<path fill="#083354" d="M494.959,435.363c-2.118-1.178-3.334-2.704-3.596-5.07c-0.106-0.941-1.663-0.969-1.583,0
					c0.214,2.622,1.595,5.703,4.562,6.45C495.223,436.964,495.744,435.801,494.959,435.363z"/>
				<path fill="#083354" d="M481.028,465.893c0.38-0.376,0.406-0.857,0.225-1.335c-0.369-0.968-1.83-0.397-1.38,0.549
					c0.011-0.009,0.025-0.017,0.038-0.026C479.592,465.736,480.434,466.482,481.028,465.893z"/>
				<path fill="#083354" d="M467.686,441.096c-0.005,0.18-0.011,0.357-0.018,0.538c-0.027,0.81,1.36,0.81,1.334,0
					c-0.006-0.181-0.011-0.358-0.019-0.538C468.959,440.307,467.713,440.307,467.686,441.096z"/>
				<path fill="#083354" d="M454.261,430.831c-0.362,0.8-0.754,1.58-1.232,2.326c-0.569,0.887-1.379,1.413-2.085,2.163
					c-0.464,0.491-0.026,1.515,0.752,1.219c2.098-0.799,3.174-3.319,3.93-5.167C455.93,430.63,454.59,430.099,454.261,430.831z"/>
				<path fill="#083354" d="M464.732,466.357c-0.21,0.416-0.223,0.767-0.153,1.218c0.109,0.675,1.334,0.675,1.441,0
					c0.073-0.45,0.059-0.802-0.151-1.218C465.664,465.952,464.937,465.952,464.732,466.357z"/>
				<path fill="#083354" d="M465.45,472.395c0.007-0.363-0.024-0.699-0.094-1.059c-0.116-0.585-1.136-0.585-1.252,0
					c-0.071,0.359-0.101,0.695-0.094,1.059C464.026,473.271,465.434,473.271,465.45,472.395z"/>
				<path fill="#083354" d="M465.028,461.135c-0.165,0.427-0.183,0.798-0.123,1.243c0.128,0.938,1.422,0.938,1.548,0
					c0.062-0.445,0.043-0.816-0.121-1.243C466.099,460.53,465.26,460.53,465.028,461.135z"/>
				<path fill="#083354" d="M465.816,451.647c-0.031,0.3-0.063,0.594-0.054,0.896c0.027,0.821,1.325,0.821,1.352,0
					c0.009-0.302-0.024-0.596-0.054-0.896C466.986,450.893,465.891,450.893,465.816,451.647z"/>
				<path fill="#083354" d="M466.56,446.461c0.011,0.119,0.024,0.237,0.035,0.359c0.095,0.959,1.487,0.959,1.583,0
					c0.012-0.122,0.024-0.24,0.036-0.359C468.314,445.456,466.459,445.456,466.56,446.461z"/>
				<path fill="#083354" d="M465.339,456.475c-0.024,0.185-0.033,0.355-0.026,0.538c0.029,0.91,1.462,0.91,1.493,0
					c0.007-0.183-0.003-0.353-0.026-0.538C466.667,455.604,465.449,455.604,465.339,456.475z"/>
			</g>
		</g>
		<path fill="#FFFFFF" d="M531.056,465.192c-0.636-1.169-1.628-1.639-1.8-1.71c0.028,0.013,0.079,0.03,0.164,0.058
			c1.808-5.617,2.271-13.33-1.509-16.305c0.4-0.505,0.671-1.189,0.921-1.661c0.692-1.311,1.375-2.634,1.955-3.996
			c0.234-0.549-0.161-1.146-0.622-1.442c-0.867-0.556-1.805-0.954-2.829-1.174c-0.518-0.109-1.234,0.051-1.469,0.562
			c-0.978,2.129-2.018,4.229-2.965,6.373c-6.145,0.222-10.546,5.981-12.331,12.45c0.292,0.403-1.351,0.035-2.02,0.647
			c-0.721,0.728-1.722,2.58-1.74,3.93c0,0.045,0.003,0.094,0.008,0.144c-0.075,0.144-0.104,0.323-0.075,0.527
			c0.897,6.374,17.962,9.191,22.294,6.756c0.513-0.288,0.742-0.649,0.812-0.954c0.04-0.069,0.081-0.126,0.121-0.205
			C530.352,468.473,531.321,466.79,531.056,465.192z"/>
		<g>
			<path fill="#90A1A5" d="M530.475,438.896c-0.61-0.776-1.948-0.848-2.872-0.633c-0.544,0.127-0.523,0.877,0,1.013
				c0.355,0.094,0.716,0.184,1.07,0.285c0.398,0.113,0.774,0.348,1.196,0.332C530.349,439.876,530.811,439.325,530.475,438.896z"/>
			<path fill="#90A1A5" d="M506.918,462.84c-0.766,0.369-0.319,1.361,0.452,1.007c6.125-2.804,19.078,0.367,21.419,5.677
				c0.276,0.623,1.353,0.362,1.073-0.285C527.071,462.805,513.368,459.753,506.918,462.84z"/>
			<path fill="#90A1A5" d="M523.501,446.193c1.448-0.046,2.779,0.391,3.979,1.134c0.731,0.45,1.372-0.627,0.675-1.09
				c-1.398-0.929-3.119-1.254-4.797-1.039C522.751,445.274,522.903,446.211,523.501,446.193z"/>
			<path fill="#90A1A5" d="M520.744,466.151c-0.182,0.832-0.298,1.663-0.446,2.498c-0.242,1.398,2.277,1.587,2.451,0.191
				c0.105-0.841,0.146-1.676,0.152-2.52C522.91,465.364,520.952,465.203,520.744,466.151z"/>
			<path fill="#90A1A5" d="M510.652,457.496c-0.757,0.132-0.749,1.24,0.015,1.13c5.47-0.783,13.709,0.45,18.63,4.927
				c0.53,0.483,1.056-0.438,0.561-0.932C525.36,458.125,516.866,456.424,510.652,457.496z"/>
			<path fill="#90A1A5" d="M513.786,464.828c-0.17,0.479-0.281,0.973-0.353,1.469c-0.07,0.5-0.333,1.16-0.069,1.631
				c0.231,0.414,0.894,0.729,1.443,0.412c1.147-0.657,0.818-2.147,1.045-3.131C516.092,464.163,514.152,463.797,513.786,464.828z"/>
		</g>
		<path fill="#FFFFFF" d="M413.292,460.716c0.826-1.117,1.88-1.505,2.063-1.559c-0.032,0.008-0.084,0.021-0.172,0.042
			c-0.838-5.776-0.001-13.534,4.22-16.19c-0.31-0.541-0.462-1.246-0.629-1.739c-0.461-1.374-0.911-2.754-1.253-4.168
			c-0.139-0.568,0.35-1.133,0.855-1.389c0.948-0.485,1.937-0.804,2.983-0.938c0.528-0.067,1.206,0.156,1.353,0.69
			c0.605,2.216,1.279,4.403,1.851,6.628c6.014,0.745,9.382,6.882,10.056,13.512c-0.356,0.377,1.323,0.147,1.879,0.818
			c0.588,0.79,1.264,2.728,1.054,4.081c-0.007,0.045-0.018,0.092-0.032,0.14c0.051,0.152,0.049,0.335-0.013,0.534
			c-1.954,6.305-19.232,7.677-23.09,4.872c-0.457-0.333-0.623-0.716-0.64-1.025c-0.029-0.071-0.058-0.136-0.087-0.217
			C413.435,464.058,412.764,462.29,413.292,460.716z"/>
		<g>
			<path fill="#90A1A5" d="M418.157,435.652c0.477-0.104,0.95-0.19,1.423-0.305c0.463-0.114,1.005-0.149,1.356-0.434
				c0.358-0.292,0.193-0.784-0.138-1.006c-0.395-0.268-1.06-0.056-1.471,0.095c-0.552,0.204-1.059,0.473-1.593,0.701
				C417.145,434.956,417.577,435.778,418.157,435.652z"/>
			<path fill="#90A1A5" d="M437.46,460.411c-5.836-3.64-19.842-1.746-23.67,4.455c-0.385,0.623,0.634,0.977,1.008,0.377
				c3.198-5.116,16.486-7.189,22.046-3.864C437.546,461.796,438.153,460.845,437.46,460.411z"/>
			<path fill="#90A1A5" d="M419.769,443.387c1.306-0.642,2.69-0.966,4.11-0.797c0.584,0.068,0.892-0.858,0.307-0.983
				c-1.615-0.358-3.365-0.18-4.899,0.631C418.524,442.643,418.975,443.776,419.769,443.387z"/>
			<path fill="#90A1A5" d="M428.753,463.207c-0.297,1.245,0.412,5.306,0.847,6.526c0.389,1.096,2.421,1.363,2.642,0
				c0.203-1.238-0.792-5.262-1.161-6.526C430.774,462.152,429.021,462.087,428.753,463.207z"/>
			<path fill="#90A1A5" d="M420.866,464.422c-0.297,1.243,0.412,5.307,0.847,6.525c0.388,1.094,2.42,1.364,2.644,0
				c0.201-1.238-0.794-5.261-1.163-6.525C422.887,463.365,421.134,463.301,420.866,464.422z"/>
			<path fill="#90A1A5" d="M415.301,459.221c5.598-4.061,13.918-4.598,19.173-3.348c0.733,0.175,0.928-0.935,0.205-1.13
				c-5.941-1.6-14.59-0.619-19.775,3.5C414.335,458.694,414.696,459.66,415.301,459.221z"/>
		</g>
		<path fill="#F7BAB5" d="M549.816,415.285c-9.717-8.548-19.774-16.765-30.722-23.897c-10.89-7.093-23.602-11.186-35.396-16.651
			c-0.529-0.244-1.082,0.14-1.106,0.59c-0.32,0.1-0.566,0.375-0.417,0.733c2.032,4.898,4.402,10.004,7.03,14.652
			c0.132,0.232,0.311,0.374,0.506,0.449c0.108,0.081,0.228,0.152,0.376,0.2c10.865,3.649,20.036,8.297,29.024,15.108
			c7.811,5.921,15.23,12.025,24.397,16.044c0.925,0.407,1.709-0.399,1.325-1.247c-0.218-0.481-0.352-0.979-0.466-1.483
			c0.042,0.018,0.083,0.036,0.123,0.055c0.341,0.232,0.691,0.453,1.04,0.689c0.657,0.443,1.743-0.3,1.422-1.029
			c-0.108-0.241-0.203-0.488-0.295-0.734c0.112,0.061,0.226,0.115,0.334,0.188c0.844,0.568,1.747-0.364,1.586-1.149
			c-0.068-0.327-0.177-0.655-0.313-0.982c0.167,0.056,0.335,0.111,0.499,0.171C549.792,417.377,550.57,415.95,549.816,415.285z"/>
		<path fill="#1E1E1E" d="M512.31,385.529c-0.106-0.165-0.266-0.308-0.514-0.385c-9.144-2.897-18.451-9.13-27.82-11.386
			c-1.782,4.632-7.625,6.786-12.29,6.262c-3.902-0.438-6.18-2.63-6.643-5.635c-0.05,0.053-3.736,0.938-9.217,4.696
			c-3.848,2.637-11.946,7.906-16.29,9.781c-0.805,0.347-0.732,1.118-0.263,1.593c-0.033,0.167-0.031,0.348,0.066,0.535
			c1.815,3.525,3.439,7.119,4.784,10.818c0.18,0.491,0.647,0.68,1.09,0.646c0.233,0.227,0.595,0.328,1.011,0.107
			c3.738-1.995,4.865-2.423,8.356-4.928c-1.197,8.36-4.795,22.41-4.482,30.796c0.014,0.403,0.842,1.233,1.161,1.223
			c12.456-0.47,16.608,2.818,26.406,2.818c6.841,0,11.786-1.905,17.439-3.758c0.489-0.162,0.829-0.549,0.801-1.393
			c-0.18-5.26-1.631-30.038-2.026-33.948c1.421,0.665,0.633,0.195,1.93,0.778c2.632,1.188,9.258,5.307,9.591,4.501
			c1.527-3.69,5.643-8.325,7.317-11.911C512.965,386.206,512.714,385.735,512.31,385.529z"/>
		<path fill="#F7BAB5" d="M402.961,410.673c-0.227-0.071-0.491-0.036-0.719,0.168c-1.595,1.443-2.127,3.478-2.211,5.504
			c-0.029,0.719,0.957,1.327,1.616,0.874c1.872-1.287,2.402-3.415,3.323-5.31C405.598,410.617,403.873,409.6,402.961,410.673z"/>
		<path fill="#FFFFFF" d="M497.347,523.506c-5.222,1.642-11.527-0.134-16.526-1.851c-1.139-0.393-0.979,1.364,0.13,1.764
			c5.159,1.851,11.829,3.021,16.221,1.476C497.987,524.608,498.165,523.249,497.347,523.506z"/>
		<path fill="#FFFFFF" d="M463.48,520.654c-5.773,1.469-11.659,3.436-17.731,2.94c-1.183-0.095-0.613,1.47,0.578,1.767
			c4.35,1.089,14.818-1.209,17.06-2.885C463.682,522.253,464.215,520.466,463.48,520.654z"/>
		<path fill="#1E1E1E" d="M461.897,519.006c-3.216,0.762-6.41,1.671-9.658,2.31c0-0.003,0.003-0.005,0.003-0.008
			c0.026-0.712-0.291-1.416-0.641-2.024c-0.246-0.425-0.744-0.468-1.151-0.299c0.011-0.009,0.022-0.019,0.034-0.027
			c-0.705,0.154-0.836,0.932-0.908,1.5c-0.005,0.049-0.009,0.096-0.015,0.143c-1.372,0.328-2.679,0.87-3.922,1.518
			c-0.404,0.212-0.747,0.632-0.741,1.087c0,0.042,0,0.085,0,0.13c0.007,0.594,0.313,1.341,0.975,1.343
			c5.541,0.021,12.524-1.269,17.071-2.955C464.54,521.13,463.629,518.596,461.897,519.006z"/>
		<path fill="#1E1E1E" d="M497.338,522.137c-1.28-0.812-2.029-1.338-3.357-1.656c-0.013-0.468-0.095-0.939-0.152-1.31
			c-0.053-0.361-0.458-0.672-0.809-0.762c-0.547-0.143-0.986,0.104-1.307,0.5c-0.56,0.695-1.019,1.79-0.85,2.693
			c-2.988-0.323-6.729-1.002-9.532-2.141c-2.131-0.871-2.525,2.56-0.305,3.174c4.468,1.23,12,2.431,16.295,1.489
			C498.118,523.952,498.04,522.582,497.338,522.137z"/>
		<g>
			<g>
				<path fill="#FFC41D" d="M482.111,388.756c-0.257-0.301-0.807-0.397-1.124-0.115c-0.275,0.247-0.499,0.522-0.716,0.812
					c-0.245,0.33-0.185,0.791,0.164,1.034c0.348,0.242,0.833,0.162,1.095-0.154c0.085-0.105,0.173-0.21,0.261-0.313
					c0.046-0.052,0.094-0.103,0.144-0.155c0.019-0.018,0.035-0.035,0.054-0.049C482.31,389.538,482.398,389.091,482.111,388.756z"/>
				<path fill="#FFC41D" d="M486.193,398.366c-0.122-0.42-0.554-0.599-0.981-0.524c-0.439,0.074-0.87,0.163-1.292,0.301
					c-0.404,0.132-0.666,0.501-0.547,0.907c0.111,0.382,0.553,0.632,0.962,0.517c0.427-0.12,0.866-0.188,1.3-0.276
					C486.061,399.208,486.303,398.743,486.193,398.366z"/>
				<path fill="#FFC41D" d="M464.216,397.358c-0.305-0.102-0.612-0.18-0.921-0.268c-0.407-0.116-0.85,0.135-0.959,0.515
					c-0.12,0.41,0.146,0.766,0.544,0.904c0.303,0.104,0.601,0.217,0.909,0.306c0.417,0.121,0.873-0.139,0.987-0.528
					C464.897,397.869,464.625,397.497,464.216,397.358z"/>
				<path fill="#FFC41D" d="M464.896,407.959c-0.216-0.348-0.722-0.483-1.094-0.269c-0.339,0.194-0.95,0.407-1.215,0.752
					c-0.115,0.131-0.181,0.304-0.181,0.47c0,0.436,0.358,0.694,0.782,0.732c0.166,0.016,0.326-0.045,0.458-0.141
					c0.116-0.048,0.23-0.106,0.346-0.169c0.212-0.107,0.42-0.212,0.616-0.343C464.966,408.758,465.128,408.337,464.896,407.959z"/>
				<path fill="#FFC41D" d="M472.616,414.66c-0.004-0.13-0.018-0.254-0.027-0.38c-0.004-0.051-0.004-0.098-0.004-0.148
					c0.004-0.022,0.007-0.043,0.013-0.064c0.094-0.4-0.152-0.809-0.582-0.909c-0.414-0.094-0.867,0.152-0.962,0.551
					c-0.082,0.338-0.061,0.654-0.011,0.991c0.058,0.398,0.345,0.732,0.81,0.72C472.277,415.409,472.631,415.062,472.616,414.66z"/>
				<path fill="#FFC41D" d="M469.74,389.232c-0.054-0.109-0.11-0.217-0.164-0.328c0.009,0.016-0.059-0.143-0.07-0.167
					c-0.034-0.082-0.059-0.169-0.084-0.254c-0.109-0.389-0.554-0.622-0.964-0.517c-0.443,0.115-0.615,0.512-0.546,0.91
					c0.067,0.395,0.242,0.768,0.444,1.119c0.206,0.361,0.73,0.474,1.097,0.271C469.855,390.044,469.923,389.607,469.74,389.232z"/>
				<path fill="#FFC41D" d="M482.397,408.412c-0.209-0.297-0.472-0.534-0.754-0.764c-0.325-0.267-0.794-0.302-1.115,0
					c-0.32,0.301-0.281,0.744,0,1.05c0.196,0.214,0.383,0.436,0.594,0.638c0.255,0.246,0.67,0.293,0.983,0.122
					C482.471,409.254,482.641,408.759,482.397,408.412z"/>
				<path fill="#FFC41D" d="M479.373,398.498c-1.114-0.237-2.632-0.113-3.753-0.247c0.695-1.457,1.881-2.933,2.298-4.499
					c0.117-0.44-0.256-0.801-0.626-0.838c-0.074-0.029-0.153-0.053-0.247-0.057c-1.865-0.067-3.749-0.253-5.614-0.156
					c-0.154,0.009-0.28,0.059-0.379,0.13c-0.123,0.047-0.265,0.126-0.303,0.283c-0.732,3.046-1.635,5.738-2.233,8.679
					c-0.087,0.424,0.354,0.679,0.709,0.727c1.098,0.149,3.033,0.127,4.14,0.198c-0.542,2.082-1.862,4.246-2.432,6.321
					c-0.107,0.387,0.705,1.495,1.367,0.891c2.419-2.214,7.157-8.489,7.901-10.531C480.364,398.949,479.723,398.526,479.373,398.498z
					"/>
			</g>
		</g>
		<path fill="#1E1E1E" d="M469.523,354.662c-0.184,0.523-0.662,0.953-1.298,0.812c-0.413-0.091-0.724-0.267-0.93-0.621
			c-0.024-0.045-0.208-0.483-0.204-0.477c-0.342-0.553-0.239-1.259,0.351-1.631c0.521-0.324,1.41-0.234,1.726,0.332
			C469.419,353.531,469.706,354.148,469.523,354.662z M455.227,354.42c-0.374-0.343-0.96-0.343-1.335,0
			c-0.42,0.386-0.581,1.033-0.371,1.544c0.399,0.961,1.679,0.961,2.078,0C455.81,355.453,455.648,354.806,455.227,354.42z
			 M461.028,358.222c-0.437,0.166-0.898,0.219-1.362,0.278c0.338-1.24,0.778-2.455,1.153-3.686c0.221-0.724-0.941-1.016-1.186-0.31
			c-0.539,1.555-1.193,3.075-1.582,4.673c-0.117,0.477,0.333,0.978,0.868,0.822c0.818-0.241,1.694-0.16,2.497-0.449
			C462.295,359.237,461.898,357.891,461.028,358.222z M465.69,361.794c-0.345-0.617-1.166-0.587-1.818-0.625
			c-0.695-0.04-1.327-0.031-1.883,0.397c-0.319,0.247-0.231,0.826,0.136,0.992c0.564,0.254,1.14,0.195,1.748,0.255
			c0.617,0.06,1.219,0.267,1.707-0.211C465.808,362.38,465.841,362.065,465.69,361.794z"/>
		<path fill="#C48080" d="M403.35,416.995c-0.285,0.988-1.099,1.898-1.978,2.47c-0.241,0.157-0.632,0.102-0.826-0.1
			c-1.127-1.16-1.356-3.123-1.085-4.639c0.113-0.638,1.291-0.49,1.201,0.153c-0.132,0.934-0.06,2.37,0.461,3.116
			c0.45-0.417,0.786-0.911,1.068-1.46C402.511,415.913,403.536,416.357,403.35,416.995z M405.594,411.235
			c-0.518,0.525-0.882,1.149-1.285,1.752c-0.41,0.608,0.591,1.142,1.015,0.559c0.369-0.506,0.694-1.039,1.158-1.475
			C407.054,411.531,406.144,410.68,405.594,411.235z"/>
		<path fill="#FFFFFF" d="M424.067,470.392c-0.099-0.098-0.082-0.08,0.055,0.052c-0.179-0.366-0.671-0.583-1.078-0.583
			c-0.604,0-0.994,0.37-1.205,0.864c-0.226,0.53-0.024,1.024,0.349,1.438c0.47,0.521,1.397,0.454,1.879,0
			C424.585,471.675,424.571,470.881,424.067,470.392z"/>
		<path fill="#FFFFFF" d="M429.751,469.926v0.158c0,1.587,2.61,1.587,2.61,0v-0.158
			C432.362,468.338,429.751,468.338,429.751,469.926z"/>
	</g>
</g>
</svg>
