<?xml version="1.0" encoding="utf-8"?>
<!-- Generator: Adobe Illustrator 22.1.0, SVG Export Plug-In . SVG Version: 6.00 Build 0)  -->
<svg version="1.1" id="Layer_1" xmlns="http://www.w3.org/2000/svg" xmlns:xlink="http://www.w3.org/1999/xlink" x="0px" y="0px"
	 viewBox="0 0 5312 2812" style="enable-background:new 0 0 5312 2812;" xml:space="preserve">
<style type="text/css">
	.st0{fill:#F389B0;}
	.st1{fill:#FFE3BC;}
	.st2{fill:#846DB1;}
	.st3{fill:#46CCB1;}
</style>
<g>
	
		<ellipse transform="matrix(0.6552 -0.7555 0.7555 0.6552 -1381.8186 1549.1899)" class="st0" cx="1006.2" cy="2288.4" rx="53.1" ry="53.1"/>
	
		<ellipse transform="matrix(0.6204 -0.7843 0.7843 0.6204 -502.5413 2939.4473)" class="st0" cx="2785.2" cy="1988.9" rx="53.1" ry="53.1"/>
	
		<ellipse transform="matrix(0.6552 -0.7555 0.7555 0.6552 -738.9047 3361.5859)" class="st1" cx="3313.2" cy="2490.3" rx="53.1" ry="53.1"/>
	<path class="st0" d="M1728.7,1290.1c0,29.3-23.8,53.1-53.1,53.1c-29.3,0-53.1-23.8-53.1-53.1s23.8-53.1,53.1-53.1
		C1704.9,1237.1,1728.7,1260.8,1728.7,1290.1z"/>
	<path class="st2" d="M2931.5,285.2c0,29.3-23.8,53.1-53.1,53.1c-29.3,0-53.1-23.8-53.1-53.1c0-29.3,23.8-53.1,53.1-53.1
		C2907.8,232.1,2931.5,255.9,2931.5,285.2z"/>
	<path d="M1476.4,1242.1c0-1.3,0.4-2.4,1.1-3.1c0.8-0.8,1.8-1.1,3.1-1.1c1.3,0,2.4,0.4,3.2,1.1c0.8,0.8,1.2,1.8,1.2,3.1
		c0,1.3-0.4,2.3-1.2,3.1c-0.8,0.8-1.9,1.2-3.2,1.2c-1.3,0-2.3-0.4-3.1-1.2C1476.8,1244.4,1476.4,1243.4,1476.4,1242.1z"/>
	<path d="M584.2,527.3c-8.3,0-12.4-5.9-15.7-10.7c-3.2-4.6-5.2-7.3-9.1-7.3c-3.9,0-5.9,2.6-9.1,7.3c-3.3,4.8-7.4,10.7-15.7,10.7
		c-8.3,0-12.4-5.9-15.7-10.7c-3.2-4.6-5.2-7.3-9.1-7.3c-3.9,0-5.9,2.6-9.1,7.3c-3.3,4.8-7.4,10.7-15.7,10.7
		c-8.3,0-12.4-5.9-15.7-10.7c-3.2-4.6-5.2-7.3-9.1-7.3c-3.9,0-5.9,2.6-9.1,7.3c-3.3,4.8-7.4,10.7-15.7,10.7
		c-8.3,0-12.4-5.9-15.7-10.7c-3.2-4.6-5.2-7.3-9.1-7.3c-3.9,0-5.9,2.6-9.1,7.3c-3.3,4.8-7.4,10.7-15.7,10.7
		c-8.3,0-12.4-5.9-15.7-10.7c-3.2-4.6-5.2-7.3-9.1-7.3c-2.2,0-4-1.8-4-4c0-2.2,1.8-4,4-4c8.3,0,12.4,5.9,15.7,10.7
		c3.2,4.6,5.2,7.3,9.1,7.3c3.9,0,5.9-2.6,9.1-7.3c3.3-4.8,7.4-10.7,15.7-10.7s12.4,5.9,15.7,10.7c3.2,4.6,5.2,7.3,9.1,7.3
		c3.9,0,5.9-2.6,9.1-7.3c3.3-4.8,7.4-10.7,15.7-10.7c8.3,0,12.4,5.9,15.7,10.7c3.2,4.6,5.2,7.3,9.1,7.3c3.9,0,5.9-2.6,9.1-7.3
		c3.3-4.8,7.4-10.7,15.7-10.7c8.3,0,12.4,5.9,15.7,10.7c3.2,4.6,5.2,7.3,9.1,7.3c3.9,0,5.9-2.6,9.1-7.3c3.3-4.8,7.4-10.7,15.7-10.7
		c8.3,0,12.4,5.9,15.7,10.7c3.2,4.6,5.2,7.3,9.1,7.3c2.2,0,4,1.8,4,4C588.2,525.6,586.4,527.3,584.2,527.3z"/>
	<path d="M322,2246.6c-2.1,0-3.9-1.7-4-3.8c-0.1-2.2,1.6-4.1,3.8-4.2c2.1-0.1,4.3-0.4,6.3-0.8c2.2-0.4,4.3,1,4.7,3.1
		c0.4,2.2-1,4.3-3.1,4.7c-2.5,0.5-5,0.8-7.5,0.9L322,2246.6z M297.9,2241.2c-0.6,0-1.3-0.2-1.9-0.5c-2.2-1.2-4.4-2.5-6.4-4
		c-1.8-1.3-2.1-3.8-0.8-5.6c1.3-1.8,3.8-2.1,5.6-0.8c1.7,1.3,3.5,2.4,5.4,3.4c2,1,2.7,3.5,1.7,5.4
		C300.7,2240.4,299.3,2241.2,297.9,2241.2z M351,2234.6c-1.1,0-2.2-0.4-3-1.3c-1.5-1.6-1.4-4.2,0.3-5.6c1.6-1.4,3.1-3,4.4-4.6
		c1.4-1.7,3.9-2,5.6-0.6c1.7,1.4,2,3.9,0.6,5.6c-1.6,2-3.4,3.8-5.2,5.5C352.9,2234.2,351.9,2234.6,351,2234.6z M276.7,2218.1
		c-1.6,0-3-0.9-3.7-2.4c-1-2.3-1.8-4.8-2.4-7.2c-0.5-2.1,0.8-4.3,2.9-4.9c2.1-0.5,4.3,0.8,4.9,2.9c0.5,2.1,1.2,4.1,2,6.1
		c0.9,2-0.1,4.4-2.1,5.2C277.7,2218,277.2,2218.1,276.7,2218.1z M365.8,2206.9c-0.2,0-0.4,0-0.6,0c-2.2-0.3-3.7-2.4-3.4-4.5
		c0.3-2.1,0.5-4.2,0.5-6.4c0-1.6-0.1-3.2-0.3-4.8c-0.2-2.2,1.3-4.2,3.5-4.4c2.2-0.2,4.2,1.3,4.4,3.5c0.2,1.9,0.3,3.8,0.3,5.7
		c0,2.5-0.2,5.1-0.6,7.6C369.5,2205.5,367.8,2206.9,365.8,2206.9z M274.9,2186.8c-0.4,0-0.8-0.1-1.1-0.2c-2.1-0.6-3.3-2.8-2.7-5
		c0.7-2.4,1.6-4.8,2.7-7.1c0.9-2,3.3-2.9,5.3-1.9c2,0.9,2.9,3.3,1.9,5.3c-0.9,1.9-1.7,3.9-2.3,6
		C278.2,2185.6,276.6,2186.8,274.9,2186.8z M356.9,2171.8c-1.2,0-2.4-0.5-3.2-1.6c-1.3-1.7-2.7-3.3-4.2-4.8
		c-1.6-1.5-1.6-4.1-0.1-5.7c1.5-1.6,4.1-1.6,5.7-0.1c1.8,1.8,3.5,3.7,5,5.7c1.3,1.8,1,4.3-0.8,5.6
		C358.6,2171.5,357.7,2171.8,356.9,2171.8z M293.4,2161.4c-1.3,0-2.5-0.6-3.3-1.7c-1.2-1.8-0.8-4.3,1-5.6c2.1-1.4,4.3-2.7,6.6-3.8
		c2-1,4.4-0.1,5.3,1.9c1,2,0.1,4.4-1.9,5.3c-1.9,0.9-3.8,2-5.5,3.2C295,2161.2,294.2,2161.4,293.4,2161.4z M330.6,2154.6
		c-0.3,0-0.6,0-0.9-0.1c-2.1-0.5-4.2-0.8-6.3-1c-2.2-0.2-3.8-2.1-3.6-4.3c0.2-2.2,2.1-3.8,4.3-3.6c2.5,0.2,5,0.6,7.5,1.2
		c2.1,0.5,3.5,2.7,3,4.8C334.1,2153.4,332.4,2154.6,330.6,2154.6z"/>
	<path d="M194.7,335.8c-2.1,0-3.9-1.7-4-3.8c-0.1-2.2,1.6-4.1,3.8-4.2c2.1-0.1,4.3-0.4,6.3-0.8c2.2-0.4,4.3,1,4.7,3.1
		c0.4,2.2-1,4.3-3.1,4.7c-2.5,0.5-5,0.8-7.5,0.9L194.7,335.8z M170.6,330.4c-0.6,0-1.3-0.1-1.9-0.5c-2.2-1.2-4.4-2.5-6.4-4
		c-1.8-1.3-2.1-3.8-0.8-5.6c1.3-1.8,3.8-2.1,5.6-0.8c1.7,1.3,3.5,2.4,5.4,3.4c2,1,2.7,3.5,1.7,5.4
		C173.4,329.7,172,330.4,170.6,330.4z M223.7,323.8c-1.1,0-2.2-0.4-3-1.3c-1.5-1.6-1.4-4.2,0.3-5.6c1.6-1.4,3.1-3,4.4-4.6
		c1.4-1.7,3.9-2,5.6-0.6c1.7,1.4,2,3.9,0.6,5.6c-1.6,2-3.4,3.8-5.2,5.5C225.6,323.4,224.6,323.8,223.7,323.8z M149.4,307.3
		c-1.6,0-3-0.9-3.7-2.4c-1-2.3-1.8-4.8-2.4-7.2c-0.5-2.1,0.8-4.3,2.9-4.9c2.1-0.5,4.3,0.8,4.9,2.9c0.5,2.1,1.2,4.1,2,6.1
		c0.9,2-0.1,4.4-2.1,5.2C150.4,307.2,149.9,307.3,149.4,307.3z M238.5,296.1c-0.2,0-0.4,0-0.6,0c-2.2-0.3-3.7-2.4-3.4-4.5
		c0.3-2.1,0.5-4.2,0.5-6.4c0-1.6-0.1-3.2-0.3-4.8c-0.2-2.2,1.3-4.2,3.5-4.4c2.2-0.2,4.2,1.3,4.4,3.5c0.2,1.9,0.3,3.8,0.3,5.7
		c0,2.5-0.2,5.1-0.6,7.6C242.2,294.7,240.5,296.1,238.5,296.1z M147.6,276c-0.4,0-0.8-0.1-1.1-0.2c-2.1-0.6-3.3-2.8-2.7-5
		c0.7-2.4,1.6-4.8,2.7-7.1c0.9-2,3.3-2.9,5.3-1.9c2,0.9,2.9,3.3,1.9,5.3c-0.9,1.9-1.7,3.9-2.3,6C151,274.8,149.4,276,147.6,276z
		 M229.6,261c-1.2,0-2.4-0.5-3.2-1.6c-1.3-1.7-2.7-3.3-4.2-4.8c-1.6-1.5-1.6-4.1-0.1-5.7c1.5-1.6,4.1-1.6,5.7-0.1
		c1.8,1.8,3.5,3.7,5,5.7c1.3,1.8,1,4.3-0.8,5.6C231.3,260.7,230.4,261,229.6,261z M166.1,250.6c-1.3,0-2.5-0.6-3.3-1.7
		c-1.2-1.8-0.8-4.3,1-5.6c2.1-1.4,4.3-2.7,6.6-3.8c2-1,4.4-0.1,5.3,1.9c1,2,0.1,4.4-1.9,5.3c-1.9,0.9-3.8,2-5.5,3.2
		C167.7,250.4,166.9,250.6,166.1,250.6z M203.4,243.8c-0.3,0-0.6,0-0.9-0.1c-2.1-0.5-4.2-0.8-6.3-1c-2.2-0.2-3.8-2.1-3.6-4.3
		c0.2-2.2,2.1-3.8,4.3-3.6c2.5,0.2,5,0.6,7.5,1.2c2.1,0.5,3.5,2.7,3,4.8C206.8,242.6,205.2,243.8,203.4,243.8z"/>
	<path d="M1006.2,2321.1c-17.9,0-32.5-14.6-32.5-32.5c0-17.9,14.6-32.5,32.5-32.5c17.9,0,32.5,14.6,32.5,32.5
		C1038.8,2306.5,1024.2,2321.1,1006.2,2321.1z M1006.2,2264c-13.5,0-24.5,11-24.5,24.5c0,13.5,11,24.5,24.5,24.5s24.5-11,24.5-24.5
		C1030.8,2275,1019.7,2264,1006.2,2264z"/>
	<path class="st3" d="M5127,2640H3449.9c-7.2,0-13.1-5.9-13.1-13.1V260.4c0-7.2,5.9-13.1,13.1-13.1H5127c7.2,0,13.1,5.9,13.1,13.1
		v2366.5C5140,2634.1,5134.2,2640,5127,2640z"/>
	<path class="st2" d="M5046.3,2352.5h-1516c-6.3,0-11.4-5.1-11.4-11.4V349.2c0-6.3,5.1-11.4,11.4-11.4h1516
		c6.3,0,11.4,5.1,11.4,11.4v1991.9C5057.7,2347.3,5052.6,2352.5,5046.3,2352.5z"/>
	<path class="st0" d="M3911,2291.3h-308c-6.6,0-12-5.4-12-12v-173c0-6.6,5.4-12,12-12h308c6.6,0,12,5.4,12,12v173
		C3923,2285.9,3917.6,2291.3,3911,2291.3z"/>
	<path class="st0" d="M4755.8,2291.3h138.7c6.6,0,12-5.4,12-12v-173c0-6.6-5.4-12-12-12h-138.7c-6.6,0-12,5.4-12,12v173
		C4743.8,2285.9,4749.2,2291.3,4755.8,2291.3z"/>
	<circle class="st3" cx="3752.3" cy="2192.7" r="56.5"/>
	<polygon class="st1" points="3740.8,2223.1 3781,2194.4 3740.8,2165.7 	"/>
	<polygon class="st1" points="4868.1,2219 4825.2,2158.9 4782.3,2219 	"/>
	<polygon class="st3" points="4701.6,574.5 4627.9,443.7 4554,574.5 	"/>
	<ellipse transform="matrix(0.7071 -0.7071 0.7071 0.7071 726.3675 2765.9634)" class="st0" cx="3702" cy="506.2" rx="64" ry="64"/>
	<rect x="4107" y="442.2" class="st1" width="128" height="128"/>
	<path class="st3" d="M4268.9,2136.2h-260.8c-4.8,0-8.7-3.9-8.7-8.7v-24.7c0-4.8,3.9-8.7,8.7-8.7h260.8c4.8,0,8.7,3.9,8.7,8.7v24.7
		C4277.6,2132.3,4273.7,2136.2,4268.9,2136.2z"/>
	
		<ellipse transform="matrix(6.213687e-02 -0.9981 0.9981 6.213687e-02 2018.9604 6534.0625)" class="st0" cx="4486.2" cy="2192.7" rx="27.1" ry="27.1"/>
	
		<ellipse transform="matrix(0.9966 -8.247979e-02 8.247979e-02 0.9966 -159.2475 387.7409)" class="st3" cx="4613.4" cy="2121.3" rx="27.1" ry="27.1"/>
	
		<ellipse transform="matrix(0.9966 -8.247978e-02 8.247978e-02 0.9966 -171.0293 388.2276)" class="st1" cx="4613.4" cy="2264.2" rx="27.1" ry="27.1"/>
	
		<ellipse transform="matrix(0.7071 -0.7071 0.7071 0.7071 -512.5262 3765.1223)" class="st0" cx="4288.6" cy="2501.2" rx="87.6" ry="87.6"/>
	
		<ellipse transform="matrix(0.3827 -0.9239 0.9239 0.3827 125.314 5190.0156)" class="st1" cx="3946.4" cy="2501.2" rx="27" ry="27"/>
	
		<ellipse transform="matrix(0.7071 -0.7071 0.7071 0.7071 -641.278 3454.2878)" class="st2" cx="3849.1" cy="2501.2" rx="27" ry="27"/>
	
		<ellipse transform="matrix(0.7071 -0.7071 0.7071 0.7071 -669.7777 3385.4834)" class="st0" cx="3751.8" cy="2501.2" rx="27" ry="27"/>
	
		<ellipse transform="matrix(0.7071 -0.7071 0.7071 0.7071 -355.2747 4144.7607)" class="st0" cx="4825.5" cy="2501.2" rx="27" ry="27"/>
	
		<ellipse transform="matrix(0.7071 -0.7071 0.7071 0.7071 -383.7744 4075.9565)" class="st2" cx="4728.2" cy="2501.2" rx="27" ry="27"/>
	
		<ellipse transform="matrix(0.7071 -0.7071 0.7071 0.7071 -412.2742 4007.1521)" class="st1" cx="4630.9" cy="2501.2" rx="27" ry="27"/>
	<path class="st1" d="M4268.6,2288.5h-260.1c-5,0-9-4.1-9-9v-94.2c0-4.9,4-9,9-9h260.1c4.9,0,9,4.1,9,9v94.2
		C4277.6,2284.5,4273.5,2288.5,4268.6,2288.5z"/>
	<path class="st0" d="M4272.6,2232.4h-268.1c-2.8,0-5-2.3-5-5v-38.1c0-7.1,5.8-13,13-13h252.1c7.1,0,13,5.9,13,13v38.1
		C4277.6,2230.2,4275.3,2232.4,4272.6,2232.4z"/>
	<path class="st1" d="M3004.9,1274.4v747c0,6.5,5.3,11.8,11.8,11.8h1878.1c6.5,0,11.8-5.3,11.8-11.8V696.6c0-6.5-5.3-11.8-11.8-11.8
		H3016.7c-6.5,0-11.8,5.3-11.8,11.8v506.4"/>
	<path class="st2" d="M3955.7,1957.7c0-56.6-46.3-102.8-102.8-102.8h-756.5c-10.9,0-19.9-8.9-19.9-19.9V775
		c0-10.9,8.9-19.9,19.9-19.9h756.5c56.6,0,102.8,46.3,102.8,102.8"/>
	<path class="st0" d="M3268.1,957.7H3153c-6,0-11-4.9-11-11V831.7c0-6,5-11,11-11h115.1c6.1,0,11,5,11,11v115.1
		C3279.1,952.8,3274.1,957.7,3268.1,957.7z"/>
	<path class="st3" d="M3268.1,1200.4H3153c-6,0-11-5-11-11v-115.1c0-6.1,5-11,11-11h115.1c6.1,0,11,4.9,11,11v115.1
		C3279.1,1195.5,3274.1,1200.4,3268.1,1200.4z"/>
	<path class="st3" d="M3871.7,1055.2h-324.6c-4.1,0-7.5-3.4-7.5-7.5V828.2c0-4.1,3.4-7.5,7.5-7.5h324.6c4.1,0,7.5,3.4,7.5,7.5v219.5
		C3879.2,1051.8,3875.8,1055.2,3871.7,1055.2z"/>
	<polyline class="st1" points="3702,1003.4 3786.8,1003.4 3744.4,944 3724.5,971.8 	"/>
	<polygon class="st1" points="3744.4,1003.4 3683.4,917.9 3622.4,1003.4 	"/>
	<circle class="st1" cx="3777" cy="889.5" r="19"/>
	<path class="st1" d="M3872.7,1200.4h-326.5c-3.6,0-6.5-2.9-6.5-6.5v-68.7c0-3.6,2.9-6.5,6.5-6.5h326.5c3.6,0,6.5,2.9,6.5,6.5v68.7
		C3879.2,1197.5,3876.3,1200.4,3872.7,1200.4z"/>
	<path class="st3" d="M3314.4,1317.3c-113.6,13.4-133.5,71.4-133.5,141.9c0,56.1,0,144.4,0,144.4c5,88.6,67,64.4,67,99
		c0,35.8,0,54,0,54h203.6l-0.6-59.2c14.5,0,61.3,1,61.1-36.1c-0.3-46.8,0.9-88.7,0.9-88.7h44l-39.9-84v-56c0,0,13.4-114.2-140-118.1
		"/>
	
		<ellipse transform="matrix(0.1222 -0.9925 0.9925 0.1222 1430.9556 4652.5776)" class="st1" cx="3345.7" cy="1517.3" rx="85" ry="85"/>
	<circle class="st0" cx="3345.7" cy="1517.3" r="42.5"/>
	<path class="st0" d="M3315.4,1434.3v-132.2c0-6.6,5.4-12,12-12h36.7c6.6,0,12,5.4,12,12v132.2"/>
	<path class="st0" d="M3865.4,1581.5h-174.7c-7.1,0-12.8-5.8-12.8-12.8v-231.4c0-7.1,5.8-12.8,12.8-12.8h174.7
		c7.1,0,12.8,5.8,12.8,12.8v231.4C3878.2,1575.7,3872.4,1581.5,3865.4,1581.5z"/>
	<path class="st3" d="M3846.9,1452.9c0,0-30.8,35.9-68.9,35.9s-68.9-35.9-68.9-35.9s30.8-35.9,68.9-35.9
		S3846.9,1452.9,3846.9,1452.9z"/>
	<circle class="st1" cx="3778" cy="1452.9" r="22.1"/>
	<path class="st0" d="M3594.1,1732.7h-28.7c-6.3,0-11.5-5.2-11.5-11.5v-54.2c0-6.3,5.2-11.5,11.5-11.5h28.7V1732.7z"/>
	<polyline class="st3" points="3592.3,1655.2 3671.9,1623.6 3671.9,1764.3 3594.5,1732.5 	"/>
	<path class="st1" d="M3675.3,1666.8c15,0,27.1,12.1,27.1,27.1c0,15-12.1,27.1-27.1,27.1"/>
	<path class="st1" d="M3867.6,1764.3h-25.5c-6.1,0-11.1-5-11.1-11.1v-110.4c0-6.1,5-11.1,11.1-11.1h25.5c6.1,0,11.1,5,11.1,11.1
		v110.4C3878.7,1759.3,3873.8,1764.3,3867.6,1764.3z"/>
	<rect x="3596.2" y="1118.6" class="st3" width="56.6" height="81.8"/>
	<rect x="3709.4" y="1118.6" class="st0" width="56.6" height="81.8"/>
	<rect x="3651.5" y="1118.6" class="st2" width="56.6" height="81.8"/>
	<path class="st3" d="M3870.8,1200.4h-48.2v-81.8h49.8c3.7,0,6.8,3,6.8,6.8v66.7C3879.2,1196.7,3875.5,1200.4,3870.8,1200.4z"/>
	<rect x="3831.1" y="1666.8" class="st3" width="47.6" height="31.2"/>
	<path class="st3" d="M2326.2,1573h-492.2c-6.6,0-12-5.4-12-12V856.9c0-6.6,5.4-12,12-12h968.3c6.6,0,12,5.4,12,12V1561
		c0,6.6-5.4,12-12,12h-93.4"/>
	<rect x="3831.1" y="1698" class="st0" width="47.6" height="31.2"/>
	
		<ellipse transform="matrix(0.7071 -0.7071 0.7071 0.7071 4.2578 2487.6116)" class="st0" cx="3004.9" cy="1238.7" rx="34.2" ry="34.2"/>
	<path class="st3" d="M3955.3,1957.7c0-56.6,46.3-102.8,102.8-102.8h756.5c10.9,0,19.9-8.9,19.9-19.9V775c0-10.9-8.9-19.9-19.9-19.9
		h-756.5c-56.6,0-102.8,46.3-102.8,102.8"/>
	<path class="st1" d="M4394.8,1602.4h-356.7c-7.5,0-13.6-6.1-13.6-13.6v-290.5c0-7.5,6.1-13.6,13.6-13.6h356.7
		c7.5,0,13.6,6.1,13.6,13.6v290.5C4408.4,1596.2,4402.3,1602.4,4394.8,1602.4z"/>
	<polyline class="st2" points="4204.9,1498.7 4289.7,1498.7 4247.3,1439.3 4227.4,1467.2 	"/>
	<polygon class="st2" points="4247.3,1498.7 4186.3,1413.3 4125.3,1498.7 	"/>
	<circle class="st0" cx="4279.9" cy="1384.8" r="19"/>
	<path class="st0" d="M4558.5,1377.9h-69.3c-6.6,0-12-5.4-12-12v-69.3c0-6.6,5.4-12,12-12h69.3c6.6,0,12,5.4,12,12v69.3
		C4570.5,1372.5,4565.1,1377.9,4558.5,1377.9z"/>
	<path class="st1" d="M4560.1,1602.4h-72.5c-5.7,0-10.4-4.7-10.4-10.4v-142.2c0-5.7,4.7-10.4,10.4-10.4h72.5
		c5.7,0,10.4,4.7,10.4,10.4v142.2C4570.5,1597.7,4565.8,1602.4,4560.1,1602.4z"/>
	
		<ellipse transform="matrix(0.2669 -0.9637 0.9637 0.2669 1322.379 5180.5605)" class="st2" cx="4066.5" cy="1721.1" rx="41.2" ry="41.2"/>
	
		<ellipse transform="matrix(0.7071 -0.7071 0.7071 0.7071 17.8277 3485.1545)" class="st1" cx="4215.9" cy="1721.1" rx="41.2" ry="41.2"/>
	<path class="st0" d="M4231.8,1721.1c0,8.8-7.1,15.9-15.9,15.9c-8.8,0-15.9-7.1-15.9-15.9c0-8.8,7.1-15.9,15.9-15.9
		C4224.6,1705.2,4231.8,1712.3,4231.8,1721.1z"/>
	
		<ellipse transform="matrix(0.7071 -0.7071 0.7071 0.7071 62.173 3592.2136)" class="st0" cx="4367.3" cy="1721.1" rx="41.2" ry="41.2"/>
	<path class="st0" d="M2412.3,247.5H1099.4c-74.5,0-135.5,61-135.5,135.5v0c0,74.5,61,135.5,135.5,135.5h1312.9l0.2,0l248.3-135.1
		c0.3-0.2,0.3-0.5,0-0.7l-248.3-135.1L2412.3,247.5z"/>
	<path class="st0" d="M3016.9,594h250.1c6.6,0,12-5.4,12-12V259.5c0-6.6-5.4-12-12-12h-250.1c-6.6,0-12,5.4-12,12V582
		C3004.9,588.6,3010.3,594,3016.9,594z"/>
	
		<ellipse transform="matrix(0.1468 -0.9892 0.9892 0.1468 2321.4717 3417.7314)" class="st1" cx="3142" cy="363.1" rx="73.5" ry="73.5"/>
	<polyline class="st3" points="3167.8,432.8 3167.8,506.2 3117.2,506.2 3117.2,432.8 	"/>
	<polygon class="st0" points="2325.8,1363.5 2290.8,1314.4 2255.7,1363.5 	"/>
	<circle class="st2" cx="2598.9" cy="1568.3" r="109"/>
	
		<ellipse transform="matrix(0.2474 -0.9689 0.9689 0.2474 436.5522 3698.5146)" class="st1" cx="2598.9" cy="1568.3" rx="78.1" ry="78.1"/>
	<path class="st0" d="M2883.6,1856.1L2883.6,1856.1c-12.1,11.9-31.7,11.8-43.7-0.2l-99.9-101c-11.9-12.1-11.8-31.7,0.2-43.7l0,0
		c12.1-11.9,31.7-11.8,43.7,0.2l99.9,101C2895.7,1824.5,2895.6,1844.1,2883.6,1856.1z"/>
	<path class="st2" d="M2501.9,1238.6c0,0-24,0-25.9,0c-13.4,0-62.3-10.3-62.3-55.7c0-45.4,39.4-50.6,39.4-50.6s-3.4-30.2,18.3-47.9
		c22.9-18.8,51.3-3.8,51.3-3.8s18.6-60.2,80.5-55.1c68.1,5.7,66.4,78.8,66.4,78.8s68.9,7.5,68.9,70.1c0,63.8-76.2,64.1-76.2,64.1
		h-6.5"/>
	<path class="st2" d="M2813.4,953.6h-985.8c-2.2,0-4.1-1.8-4.1-4.1V868c0-12.7,10.4-23.2,23.2-23.2h944.5
		c12.7,0,23.2,10.4,23.2,23.2v84.7C2814.3,953.2,2813.9,953.6,2813.4,953.6z"/>
	
		<ellipse transform="matrix(0.7071 -0.7071 0.7071 0.7071 -82.4156 1600.8508)" class="st0" cx="1891.2" cy="899.9" rx="20.2" ry="20.2"/>
	
		<ellipse transform="matrix(0.2298 -0.9732 0.9732 0.2298 631.214 2597.3931)" class="st0" cx="1956.6" cy="899.9" rx="20.2" ry="20.2"/>
	
		<ellipse transform="matrix(0.7071 -0.7071 0.7071 0.7071 -44.1102 1693.3281)" class="st0" cx="2022" cy="899.9" rx="20.2" ry="20.2"/>
	<path class="st2" d="M2302,2553.3L2302,2553.3c0,47.4-38.8,86.2-86.2,86.2h-988c-47.4,0-86.2-38.8-86.2-86.2v0H2302z"/>
	<path class="st1" d="M1254,2553.3v-575.1c0-6.5,5.3-11.9,11.9-11.9h912.1c6.5,0,11.9,5.3,11.9,11.9v575.1"/>
	
		<ellipse transform="matrix(0.3738 -0.9275 0.9275 0.3738 20.1439 3175.7769)" class="st0" cx="2361.9" cy="1573" rx="34.8" ry="34.8"/>
	<path class="st0" d="M1602.7,2411.9v64.2c0,6.3-5.1,11.4-11.4,11.4H1348c-6.3,0-11.4-5.1-11.4-11.4v-243.4
		c0-6.3,5.1-11.4,11.4-11.4h243.4c6.3,0,11.4,5.1,11.4,11.4v24.2"/>
	<circle class="st3" cx="1468.3" cy="2329.7" r="39.4"/>
	<path class="st3" d="M1553,2486.3c0-46.1-37.3-83.4-83.4-83.4s-83.4,37.3-83.4,83.4"/>
	
		<ellipse transform="matrix(0.7071 -0.7071 0.7071 0.7071 -1050.5367 1558.6372)" class="st0" cx="1356.2" cy="2047.4" rx="21.9" ry="21.9"/>
	
		<ellipse transform="matrix(0.7071 -0.7071 0.7071 0.7071 -1108.5312 1582.6593)" class="st3" cx="1356.2" cy="2129.4" rx="21.9" ry="21.9"/>
	<path class="st3" d="M1768.8,2410.9h-105.3l-32,33.7l0-33.7h-49c-4.7,0-8.5-3.8-8.5-8.5v-135.7c0-4.7,3.8-8.5,8.5-8.5h186.3
		c4.7,0,8.5,3.8,8.5,8.5v135.7C1777.2,2407.1,1773.4,2410.9,1768.8,2410.9z"/>
	
		<ellipse transform="matrix(0.7071 -0.7071 0.7071 0.7071 -1177.1936 1830.9717)" class="st2" cx="1621.6" cy="2336.5" rx="16.2" ry="16.2"/>
	
		<ellipse transform="matrix(0.1602 -0.9871 0.9871 0.1602 -900.1481 3614.9714)" class="st2" cx="1674.4" cy="2336.5" rx="16.2" ry="16.2"/>
	
		<ellipse transform="matrix(0.2298 -0.9732 0.9732 0.2298 -943.6411 3480.6274)" class="st2" cx="1727.2" cy="2336.5" rx="16.2" ry="16.2"/>
	<polygon class="st0" points="2014.3,2421.5 1925.1,2395.7 1950.8,2485 	"/>
	<path class="st0" d="M2127.6,2126.9h-91c-6.6,0-12-5.4-12-12v-91c0-6.6,5.4-12,12-12h91c6.6,0,12,5.4,12,12v91
		C2139.6,2121.5,2134.2,2126.9,2127.6,2126.9z"/>
	
		<ellipse transform="matrix(0.1602 -0.9871 0.9871 0.1602 -294.1071 3793.1667)" class="st3" cx="2082.1" cy="2069.4" rx="27.1" ry="27.1"/>
	<path class="st2" d="M2296.8,1485.8h-29.1c-6.6,0-12-5.4-12-12v-29.1c0-6.6,5.4-12,12-12h29.1c6.6,0,12,5.4,12,12v29.1
		C2308.8,1480.4,2303.4,1485.8,2296.8,1485.8z"/>
	<path class="st1" d="M2377.4,1485.8h-29.1c-6.6,0-12-5.4-12-12v-29.1c0-6.6,5.4-12,12-12h29.1c6.6,0,12,5.4,12,12v29.1
		C2389.4,1480.4,2384,1485.8,2377.4,1485.8z"/>
	<path class="st0" d="M2458.7,1485.8h-29.1c-6.6,0-12-5.4-12-12v-29.1c0-6.6,5.4-12,12-12h29.1c6.6,0,12,5.4,12,12v29.1
		C2470.7,1480.4,2465.3,1485.8,2458.7,1485.8z"/>
	
		<ellipse transform="matrix(0.7071 -0.7071 0.7071 0.7071 -764.7164 2856.6116)" class="st0" cx="3065.9" cy="2351.4" rx="162.5" ry="162.5"/>
	
		<ellipse transform="matrix(0.7071 -0.7071 0.7071 0.7071 -764.7164 2856.6116)" class="st3" cx="3065.9" cy="2351.4" rx="123" ry="123"/>
	<circle class="st1" cx="3065.9" cy="2354.3" r="20"/>
	<path class="st2" d="M4557.5,1601.9h-30.1c-2.1,0-3.8-1.7-3.8-3.8v-155.3c0-1.7,1.4-3.1,3.1-3.1h30.9c7.1,0,13,5.8,13,13v136.3
		C4570.5,1596,4564.6,1601.9,4557.5,1601.9z"/>
	<path class="st2" d="M4748.2,1756.6h-259.1c-6.6,0-12-5.4-12-12v-47.2c0-6.6,5.4-12,12-12h259.1c6.6,0,12,5.4,12,12v47.2
		C4760.2,1751.2,4754.8,1756.6,4748.2,1756.6z"/>
	<rect x="3004.9" y="542.7" class="st1" width="274.1" height="24.2"/>
	<path class="st2" d="M3271,594h-257.5c-4.7,0-8.6-3.8-8.6-8.6v-18.5h274.1v19C3279.1,590.3,3275.4,594,3271,594z"/>
	<rect x="1154.5" y="247.5" class="st3" width="73.4" height="270.8"/>
	<path class="st1" d="M1095,518.6h55c2.7,0,4.9-2.2,4.9-4.9v-260c0-2.7-2.2-4.9-4.9-4.9h-55c-72.1,0-131.1,59-131.1,131.1v7.7
		C963.9,459.6,1022.9,518.6,1095,518.6z"/>
	<path class="st3" d="M2570.4,737.5h-559.2c-6.6,0-12-5.4-12-12V649c0-6.6,5.4-12,12-12h559.2c6.6,0,12,5.4,12,12v76.6
		C2582.4,732.1,2577,737.5,2570.4,737.5z"/>
	<path class="st1" d="M2168.8,1238.7H1912c-7.1,0-13-5.9-13-13v-187.5c0-7.1,5.9-13,13-13h256.8c7.1,0,13,5.9,13,13v187.5
		C2181.8,1232.8,2175.9,1238.7,2168.8,1238.7z"/>
	<polygon class="st1" points="2566.9,331.6 2566.9,434.6 2412.5,518.5 2373.3,472.1 2411.6,428 2373.3,381.3 2410.1,336 
		2373.3,289.6 2412.5,247.6 	"/>
	<path class="st2" d="M2093.4,1574.6l1.1-69.3l5.3-29.6c0,0,29.3-39.5,35.1-56.9s13.7-32.6,7-51.3s-36.2-36.6-36.2-36.6l0.1-93.5
		c0,0,3-26.2-18.2-26.3c-21.1-0.1-19,31.7-19,31.7l-0.1,47.2c0,0-8.4-12.4-19.2-13.1c-10.8-0.7-17.2,15.5-17.2,15.5
		s-9.9-17.2-19.7-16.2c-9.8,1-19.3,10.9-19.3,25c-6.3-6.3-12.4-9.9-20.4-9.7c-8,0.2-17,8.5-16.9,27.6c0.1,19.1,1.3,132.8,1.3,132.8
		s4.6,19.6,19.1,41.4c14.5,21.8,19.1,32.2,18.7,42.4s-0.7,38-0.7,38L2093.4,1574.6z"/>
	<rect x="1993" y="1531.6" class="st0" width="101.8" height="41.7"/>
	
		<ellipse transform="matrix(0.7071 -0.7071 0.7071 0.7071 -885.658 1793.6627)" class="st2" cx="1722.3" cy="1965.9" rx="190.2" ry="190.2"/>
	<polygon class="st2" points="2462.8,2067.9 2567.2,2097.6 2654.7,2031.8 2553.2,2011.9 	"/>
	<path class="st2" d="M2398.4,2277.2h-95.7c-3,0-5.5-2.5-5.5-5.5V2142c0-3,2.5-5.5,5.5-5.5h95.7c3,0,5.5,2.5,5.5,5.5v129.7
		C2403.8,2274.7,2401.4,2277.2,2398.4,2277.2z"/>
	<polyline class="st0" points="2379.5,2136.5 2379.5,2182.3 2364.1,2172.4 2348.6,2182.3 2348.6,2136.5 	"/>
	<path class="st2" d="M2496.2,2076.9l8.1,59.6c0,0,34.1,16.4,66.5,8.6c32.4-7.8,60.1-30.6,60.1-30.6l-10.4-57.2l-54.3,41.6
		L2496.2,2076.9z"/>
	<path class="st3" d="M2684.8,2266.6c0,0-57.2,36.8-120,33.4c-62.8-3.5-70.7-14.8-70.7-14.8s-24.5,77.6-24.5,94.9s-4.4,62,11.6,89.3
		s56.8,48.4,87.6,45.8c30.8-2.5,81.1-7.9,107.5-62.8c26.4-55,18.5-93.6,18.2-106.2C2694.2,2333.5,2684.8,2266.6,2684.8,2266.6z"/>
	<path class="st1" d="M2620.7,2451.6l-45.8,16.4c-7.4,2.6-15.6-1.2-18.2-8.6l-24.5-68.3c-2.6-7.4,1.2-15.6,8.6-18.2l45.8-16.4
		c7.4-2.6,15.6,1.2,18.2,8.6l24.5,68.3C2631.9,2440.8,2628.1,2449,2620.7,2451.6z"/>
	<path class="st3" d="M2645.2,2637.9h-62c0,0-1.3-27.4,51.2-22.7C2639.9,2628,2645.2,2637.9,2645.2,2637.9z"/>
	<path class="st3" d="M2553.2,2637.9h-62c0,0-1.3-27.4,51.2-22.7C2547.9,2628,2553.2,2637.9,2553.2,2637.9z"/>
	<path d="M2575.4,2267.3c-21.5,0-32.9-18.9-36-29.9c-0.3-1.1-0.1-2.3,0.5-3.2c0.6-1,1.6-1.6,2.7-1.8l66-11.1
		c1.2-0.2,2.3,0.1,3.2,0.9c0.9,0.8,1.4,1.9,1.4,3c0.1,12.5-6.2,37.2-30.9,41.6C2579.9,2267.1,2577.6,2267.3,2575.4,2267.3z
		 M2548.7,2239.4c3.4,7.7,12.7,22.8,32.3,19.4c18.4-3.2,22.9-20.3,24-28.8L2548.7,2239.4z"/>
	<path d="M2572.7,2519.5c-13.9,0-27.6-2.3-40.6-6.9c-36-12.7-60.5-41-65.7-75.7c-7.9-53.2,6-95.3,17.1-129.1
		c5.5-16.6,10.2-30.9,11.7-44c1.9-16.2,1-34.2,0.1-51.5c-1.3-26.6-2.7-54.2,5.9-77.2c0.8-2.1,3.1-3.1,5.1-2.3
		c2.1,0.8,3.1,3.1,2.3,5.1c-8.1,21.5-6.7,48.2-5.4,74c0.9,17.7,1.8,35.9-0.2,52.8c-1.7,13.9-6.5,28.6-12.1,45.6
		c-10.9,33-24.4,74.2-16.8,125.5c4.7,31.7,27.3,57.6,60.4,69.3c40.1,14.2,84.4,5.1,115.6-23.7c28.3-26.1,41.6-66.1,40.6-122.5
		c-0.8-48.3-11.9-98.6-20.8-139c-1.1-4.8-2.1-9.5-3.1-14c-8.3-38.3-21.1-67.9-38-87.9c-1.4-1.7-1.2-4.2,0.5-5.6
		c1.7-1.4,4.2-1.2,5.6,0.5c17.7,21,31.1,51.7,39.7,91.4c1,4.5,2,9.2,3.1,14c9,40.7,20.2,91.5,21,140.6c1,58.8-13.1,100.8-43.2,128.5
		c-16.9,15.6-37.8,26-60.5,30.2C2587.7,2518.9,2580.2,2519.5,2572.7,2519.5z"/>
	<path d="M2645.7,2641c-1.1,0-2.2-0.4-3-1.3c-0.7-0.8-17.9-20.5-21.9-70c-3.2-39.8,4.5-68.3,4.8-69.5c0.6-2.1,2.8-3.4,4.9-2.8
		c2.1,0.6,3.4,2.8,2.8,4.9c-0.1,0.3-7.7,28.5-4.6,66.7c3.8,46.9,19.8,65.1,19.9,65.3c1.5,1.6,1.3,4.2-0.3,5.6
		C2647.6,2640.6,2646.6,2641,2645.7,2641z"/>
	<path d="M2556.5,2641c-1,0-1.9-0.3-2.7-1c-0.9-0.8-21.4-20.1-26.2-69.7c-3.1-33,6-60,6.4-61.2c0.7-2.1,3-3.2,5.1-2.5
		c2.1,0.7,3.2,3,2.5,5.1c-0.1,0.4-9,26.6-6,57.8c4.4,46.3,23.4,64.4,23.6,64.6c1.6,1.5,1.7,4,0.2,5.6
		C2558.7,2640.5,2557.6,2641,2556.5,2641z"/>
	<path d="M2491.8,2641c-0.2,0-0.3,0-0.5,0c-2.2-0.3-3.7-2.3-3.5-4.5c0.9-7,4.1-12.6,9.7-16.8c15.7-11.9,44.8-7.6,46-7.5
		c2.2,0.3,3.7,2.4,3.4,4.6c-0.3,2.2-2.4,3.7-4.6,3.4c-0.4-0.1-27.1-3.9-40,5.9c-3.8,2.9-5.9,6.6-6.5,11.4
		C2495.5,2639.5,2493.8,2641,2491.8,2641z"/>
	<path d="M2583.2,2641c-0.2,0-0.3,0-0.5,0c-2.2-0.3-3.7-2.3-3.5-4.5c0.9-7,4.1-12.7,9.7-17c15.6-12.1,44.5-8.6,45.7-8.4
		c2.2,0.3,3.7,2.3,3.5,4.5c-0.3,2.2-2.3,3.7-4.5,3.5c-0.4,0-26.8-3.3-39.8,6.8c-3.9,3-6,6.8-6.6,11.6
		C2586.9,2639.5,2585.2,2641,2583.2,2641z"/>
	<path d="M2436.4,2333.3c-13.6,0-28.2-2.2-41.5-8.9c-17.7-8.9-29.9-24.4-36.3-46.1c-0.6-2.1,0.6-4.3,2.7-5c2.1-0.6,4.3,0.6,5,2.7
		c5.7,19.4,16.6,33.3,32.2,41.2c34.8,17.6,82.3,0.7,82.8,0.5c2.1-0.8,4.4,0.3,5.1,2.4c0.8,2.1-0.3,4.4-2.4,5.1
		C2482.6,2325.7,2461.4,2333.3,2436.4,2333.3z"/>
	<path d="M2585.1,2427.1c-4.4,0-8.7-0.4-12.7-0.9c-2.2-0.3-3.7-2.3-3.4-4.5c0.3-2.2,2.3-3.7,4.5-3.4c25.4,3.5,44.9-3.8,57.9-21.9
		c22.4-31.1,6.8-81.6,6.6-82.1c-0.7-2.1,0.5-4.4,2.6-5c2.1-0.7,4.4,0.5,5,2.6c0.7,2.2,17,54.8-7.8,89.2
		C2623.1,2421.6,2602.7,2427.1,2585.1,2427.1z"/>
	<path d="M2665.1,2186.3c-0.6,0-1.3-0.1-1.8-0.5c-2-1-2.7-3.4-1.7-5.4c0.1-0.2,11.7-22.8,8.6-38.4c-0.1-0.6-0.2-1-0.3-1.3
		c-2.5,1.5-7.7,7.8-11.6,14.5c-1.1,1.9-3.6,2.5-5.5,1.4c-1.9-1.1-2.5-3.6-1.4-5.5c4.4-7.5,12.9-19.8,20.2-18.6
		c2.3,0.4,5.3,2.1,6.5,7.9c3.7,18.4-8.8,42.6-9.3,43.7C2667.9,2185.5,2666.5,2186.3,2665.1,2186.3z"/>
	<path d="M2498.8,2209c-1.1,0-2.1-0.4-2.9-1.3c-0.8-0.9-19.8-21.5-20.2-40.3c-0.1-5.2,1.5-8.5,4.7-9.7c6.3-2.4,14.9,5.9,19.5,11.1
		c1.5,1.7,1.3,4.2-0.4,5.6c-1.7,1.5-4.2,1.3-5.6-0.4c-3.5-3.9-7.8-7.6-10.1-8.6c-0.1,0.4-0.1,1-0.1,1.8
		c0.3,15.8,17.9,34.9,18.1,35.1c1.5,1.6,1.4,4.1-0.2,5.7C2500.7,2208.6,2499.8,2209,2498.8,2209z"/>
	<path d="M2538.1,2213.6c-8.2,0-15.6-5.8-17.3-14.1c-1-4.6-0.1-9.3,2.5-13.3s6.6-6.7,11.2-7.6c4.6-1,9.3-0.1,13.3,2.5
		c3.9,2.6,6.7,6.6,7.6,11.2c2,9.5-4.2,18.9-13.7,20.9C2540.5,2213.5,2539.3,2213.6,2538.1,2213.6z M2538.2,2186.3
		c-0.7,0-1.3,0.1-2,0.2c-2.5,0.5-4.7,2-6.1,4.2c-1.4,2.2-1.9,4.7-1.4,7.3c1.1,5.2,6.2,8.6,11.5,7.5c2.5-0.5,4.7-2,6.1-4.2
		c1.4-2.2,1.9-4.7,1.4-7.3v0c-0.5-2.5-2-4.7-4.2-6.1C2541.9,2186.8,2540,2186.3,2538.2,2186.3z"/>
	<path d="M2600.7,2207.7c-3.4,0-6.7-1-9.7-2.9c-3.9-2.6-6.7-6.6-7.6-11.2c-2-9.5,4.2-18.9,13.7-20.9c9.5-2,18.9,4.2,20.9,13.7
		c1,4.6,0.1,9.3-2.5,13.3c-2.6,3.9-6.6,6.7-11.2,7.6C2603.1,2207.6,2601.9,2207.7,2600.7,2207.7z M2600.7,2180.4
		c-0.6,0-1.3,0.1-2,0.2c-5.2,1.1-8.6,6.2-7.5,11.5c0.5,2.5,2,4.7,4.2,6.1c2.2,1.4,4.7,1.9,7.3,1.4c2.5-0.5,4.7-2,6.1-4.2
		c1.4-2.2,1.9-4.7,1.4-7.3v0C2609.3,2183.5,2605.2,2180.4,2600.7,2180.4z"/>
	<path d="M2527.1,2171.4c-4.9,0-8.6-0.9-8.9-1c-2.1-0.5-3.4-2.7-2.9-4.9c0.5-2.1,2.7-3.4,4.9-2.9c0.2,0.1,12.2,2.9,18.9-2.8
		c1.7-1.4,4.2-1.2,5.6,0.4c1.4,1.7,1.2,4.2-0.4,5.6C2539.1,2170.3,2532.4,2171.4,2527.1,2171.4z"/>
	<path d="M2595.8,2165.7c-3.9,0-6.8-0.6-7-0.7c-2.2-0.5-3.5-2.6-3-4.8c0.5-2.2,2.6-3.5,4.8-3c0.1,0,12.3,2.6,17.5-4.1
		c1.4-1.7,3.9-2,5.6-0.6c1.7,1.4,2,3.9,0.6,5.6C2609.3,2164.4,2601.5,2165.7,2595.8,2165.7z"/>
	<path d="M2569.2,2305.7c-0.6,0-1.1,0-1.7,0c-43.8-0.4-73.5-16-74.7-16.7c-1.9-1-2.7-3.5-1.6-5.4c1-1.9,3.5-2.7,5.4-1.6
		c0.3,0.2,29.3,15.4,71,15.7c14.3,0.1,28.8-1.4,43.2-4.7c2.2-0.5,4.3,0.9,4.8,3c0.5,2.2-0.9,4.3-3,4.8
		C2598.1,2304,2583.5,2305.7,2569.2,2305.7z"/>
	<path d="M2639.7,2292.5c-1.6,0-3.1-1-3.7-2.6c-0.8-2.1,0.3-4.4,2.3-5.1c26.5-9.9,43-22.1,43.2-22.2c1.8-1.3,4.3-0.9,5.6,0.8
		c1.3,1.8,1,4.3-0.8,5.6c-0.7,0.5-17.5,12.9-45.1,23.2C2640.6,2292.4,2640.1,2292.5,2639.7,2292.5z"/>
	<path d="M2567.6,2474.5c-5.9,0-11.4-3.7-13.5-9.6l-26.1-75.3c-1.2-3.6-1-7.5,0.7-10.9c1.7-3.4,4.6-6,8.1-7.3l54-18.7
		c3.6-1.2,7.5-1,10.9,0.7c3.4,1.7,6,4.6,7.3,8.1l26.1,75.3c1.2,3.6,1,7.5-0.7,10.9c-1.7,3.4-4.6,6-8.1,7.3l-54,18.7
		C2570.7,2474.2,2569.1,2474.5,2567.6,2474.5z M2595.4,2360c-0.7,0-1.4,0.1-2,0.3l-54,18.7c-1.6,0.5-2.8,1.7-3.6,3.2
		c-0.7,1.5-0.8,3.2-0.3,4.8l26.1,75.3c1.1,3.3,4.7,5,8,3.9l54-18.7c1.6-0.5,2.8-1.7,3.6-3.2s0.8-3.2,0.3-4.8l-26.1-75.3
		c-0.5-1.6-1.7-2.8-3.2-3.6C2597.2,2360.2,2596.3,2360,2595.4,2360z"/>
	<path d="M1722.1,2159.6c-106.8,0-193.7-86.9-193.7-193.7c0-106.8,86.9-193.7,193.7-193.7c106.8,0,193.7,86.9,193.7,193.7
		C1915.8,2072.7,1828.9,2159.6,1722.1,2159.6z M1722.1,1780.2c-102.4,0-185.7,83.3-185.7,185.7c0,102.4,83.3,185.7,185.7,185.7
		s185.7-83.3,185.7-185.7C1907.8,1863.5,1824.5,1780.2,1722.1,1780.2z"/>
	<path d="M1722.1,2159.5c-2.2,0-4-1.8-4-4v-379.4c0-2.2,1.8-4,4-4s4,1.8,4,4v379.4C1726.1,2157.8,1724.3,2159.5,1722.1,2159.5z"/>
	<path d="M1911.7,1969.9h-379.4c-2.2,0-4-1.8-4-4s1.8-4,4-4h379.4c2.2,0,4,1.8,4,4S1913.9,1969.9,1911.7,1969.9z"/>
	<path d="M1716.2,2159.5c-0.7,0-1.4-0.2-2.1-0.6c-0.9-0.5-21.6-13.6-42.5-44c-19.2-27.9-42-76.4-42-149
		c0-72.6,23.3-121.1,42.8-149.1c21.3-30.4,42.4-43.5,43.3-44c1.9-1.1,4.3-0.5,5.5,1.3c1.1,1.9,0.5,4.3-1.3,5.5
		c-0.2,0.1-20.8,12.9-41.1,42.1c-18.8,27-41.1,73.8-41.1,144.1c0,70.3,22,117.2,40.4,144.1c20,29.2,40.2,42,40.4,42.1
		c1.9,1.2,2.5,3.6,1.3,5.5C1718.8,2158.9,1717.5,2159.5,1716.2,2159.5z"/>
	<path d="M1728.8,2159.5c-1.3,0-2.6-0.7-3.4-1.9c-1.2-1.9-0.6-4.3,1.3-5.5c0.2-0.1,20.4-12.9,40.4-42.1
		c18.4-27,40.4-73.8,40.4-144.1c0-70.3-22.4-117.2-41.1-144.1c-20.3-29.2-40.9-42-41.1-42.1c-1.9-1.2-2.5-3.6-1.3-5.5
		c1.1-1.9,3.6-2.5,5.5-1.3c0.9,0.5,22,13.6,43.3,44c19.5,27.9,42.8,76.5,42.8,149.1c0,72.6-22.9,121.1-42,149
		c-20.9,30.4-41.7,43.5-42.5,44C1730.3,2159.4,1729.5,2159.5,1728.8,2159.5z"/>
	<path d="M1718.4,1885.6c-55.6,0-103.9-12.9-143.7-38.5c-1.9-1.2-2.4-3.7-1.2-5.5c1.2-1.9,3.7-2.4,5.5-1.2
		c38.4,24.7,85.3,37.2,139.3,37.2c57.4,0,103.7-12.9,141.6-39.4c1.8-1.3,4.3-0.8,5.6,1c1.3,1.8,0.8,4.3-1,5.6
		C1825.3,1872.2,1777.5,1885.6,1718.4,1885.6z"/>
	<path d="M1580.1,2092.4c-1.3,0-2.5-0.6-3.3-1.7c-1.3-1.8-0.8-4.3,1-5.6c40.2-28.1,87.9-41.7,145.9-41.7
		c55.6,0,103.9,12.9,143.7,38.5c1.9,1.2,2.4,3.7,1.2,5.5c-1.2,1.9-3.7,2.4-5.5,1.2c-38.4-24.7-85.3-37.2-139.3-37.2
		c-56.3,0-102.6,13.2-141.3,40.3C1581.7,2092.2,1580.9,2092.4,1580.1,2092.4z"/>
	<path d="M2325.8,1367.5h-70.1c-1.5,0-2.9-0.8-3.6-2.2c-0.7-1.3-0.6-2.9,0.3-4.2l35-49.1c0.8-1.1,2-1.7,3.3-1.7
		c1.3,0,2.5,0.6,3.3,1.7l35,49.1c0.9,1.2,1,2.8,0.3,4.2C2328.7,1366.6,2327.3,1367.5,2325.8,1367.5z M2263.5,1359.5h54.5l-27.3-38.2
		L2263.5,1359.5z"/>
	<path d="M3073.6,2139.9c-8.3,0-12.4-5.9-15.7-10.7c-3.2-4.6-5.2-7.3-9.1-7.3c-3.9,0-5.9,2.6-9.1,7.3c-3.3,4.8-7.4,10.7-15.7,10.7
		c-8.3,0-12.4-5.9-15.7-10.7c-3.2-4.6-5.2-7.3-9.1-7.3c-3.9,0-5.9,2.6-9.1,7.3c-3.3,4.8-7.4,10.7-15.7,10.7
		c-8.3,0-12.4-5.9-15.7-10.7c-3.2-4.6-5.2-7.3-9.1-7.3s-5.9,2.6-9.1,7.3c-3.3,4.8-7.4,10.7-15.7,10.7c-8.3,0-12.4-5.9-15.7-10.7
		c-3.2-4.6-5.2-7.3-9.1-7.3c-3.9,0-5.9,2.6-9.1,7.3c-3.3,4.8-7.4,10.7-15.7,10.7c-8.3,0-12.4-5.9-15.7-10.7
		c-3.2-4.6-5.2-7.3-9.1-7.3c-2.2,0-4-1.8-4-4c0-2.2,1.8-4,4-4c8.3,0,12.4,5.9,15.7,10.7c3.2,4.6,5.2,7.3,9.1,7.3
		c3.9,0,5.9-2.6,9.1-7.3c3.3-4.8,7.4-10.7,15.7-10.7c8.3,0,12.4,5.9,15.7,10.7c3.2,4.6,5.2,7.3,9.1,7.3c3.9,0,5.9-2.6,9.1-7.3
		c3.3-4.8,7.4-10.7,15.7-10.7c8.3,0,12.4,5.9,15.7,10.7c3.2,4.6,5.2,7.3,9.1,7.3c3.9,0,5.9-2.6,9.1-7.3c3.3-4.8,7.4-10.7,15.7-10.7
		c8.3,0,12.4,5.9,15.7,10.7c3.2,4.6,5.2,7.3,9.1,7.3c3.9,0,5.9-2.6,9.1-7.3c3.3-4.8,7.4-10.7,15.7-10.7s12.4,5.9,15.7,10.7
		c3.2,4.6,5.2,7.3,9.1,7.3c2.2,0,4,1.8,4,4C3077.6,2138.1,3075.8,2139.9,3073.6,2139.9z"/>
	<path d="M2905.5,711.2c-8.3,0-12.4-5.9-15.7-10.7c-3.2-4.6-5.2-7.3-9.1-7.3c-3.9,0-5.9,2.6-9.1,7.3c-3.3,4.8-7.4,10.7-15.7,10.7
		c-8.3,0-12.4-5.9-15.7-10.7c-3.2-4.6-5.2-7.3-9.1-7.3s-5.9,2.6-9.1,7.3c-3.3,4.8-7.4,10.7-15.7,10.7s-12.4-5.9-15.7-10.7
		c-3.2-4.6-5.2-7.3-9.1-7.3c-3.9,0-5.9,2.6-9.1,7.3c-3.3,4.8-7.4,10.7-15.7,10.7c-8.3,0-12.4-5.9-15.7-10.7
		c-3.2-4.6-5.2-7.3-9.1-7.3c-3.9,0-5.9,2.6-9.1,7.3c-3.3,4.8-7.4,10.7-15.7,10.7c-8.3,0-12.4-5.9-15.7-10.7
		c-3.2-4.6-5.2-7.3-9.1-7.3c-2.2,0-4-1.8-4-4c0-2.2,1.8-4,4-4c8.3,0,12.4,5.9,15.7,10.7c3.2,4.6,5.2,7.3,9.1,7.3
		c3.9,0,5.9-2.6,9.1-7.3c3.3-4.8,7.4-10.7,15.7-10.7c8.3,0,12.4,5.9,15.7,10.7c3.2,4.6,5.2,7.3,9.1,7.3c3.9,0,5.9-2.6,9.1-7.3
		c3.3-4.8,7.4-10.7,15.7-10.7c8.3,0,12.4,5.9,15.7,10.7c3.2,4.6,5.2,7.3,9.1,7.3s5.9-2.6,9.1-7.3c3.3-4.8,7.4-10.7,15.7-10.7
		c8.3,0,12.4,5.9,15.7,10.7c3.2,4.6,5.2,7.3,9.1,7.3c3.9,0,5.9-2.6,9.1-7.3c3.3-4.8,7.4-10.7,15.7-10.7s12.4,5.9,15.7,10.7
		c3.2,4.6,5.2,7.3,9.1,7.3c2.2,0,4,1.8,4,4C2909.5,709.4,2907.7,711.2,2905.5,711.2z"/>
	<path d="M2311.4,1843.9c-8.3,0-12.4-5.9-15.7-10.7c-3.2-4.6-5.2-7.3-9.1-7.3c-3.9,0-5.9,2.6-9.1,7.3c-3.3,4.8-7.4,10.7-15.7,10.7
		c-8.3,0-12.4-5.9-15.7-10.7c-3.2-4.6-5.2-7.3-9.1-7.3s-5.9,2.6-9.1,7.3c-3.3,4.8-7.4,10.7-15.7,10.7c-8.3,0-12.4-5.9-15.7-10.7
		c-3.2-4.6-5.2-7.3-9.1-7.3c-3.9,0-5.9,2.6-9.1,7.3c-3.3,4.8-7.4,10.7-15.7,10.7c-8.3,0-12.4-5.9-15.7-10.7
		c-3.2-4.6-5.2-7.3-9.1-7.3c-3.9,0-5.9,2.6-9.1,7.3c-3.3,4.8-7.4,10.7-15.7,10.7c-8.3,0-12.4-5.9-15.7-10.7
		c-3.2-4.6-5.2-7.3-9.1-7.3c-2.2,0-4-1.8-4-4c0-2.2,1.8-4,4-4c8.3,0,12.4,5.9,15.7,10.7c3.2,4.6,5.2,7.3,9.1,7.3
		c3.9,0,5.9-2.6,9.1-7.3c3.3-4.8,7.4-10.7,15.7-10.7s12.4,5.9,15.7,10.7c3.2,4.6,5.2,7.3,9.1,7.3c3.9,0,5.9-2.6,9.1-7.3
		c3.3-4.8,7.4-10.7,15.7-10.7c8.3,0,12.4,5.9,15.7,10.7c3.2,4.6,5.2,7.3,9.1,7.3s5.9-2.6,9.1-7.3c3.3-4.8,7.4-10.7,15.7-10.7
		c8.3,0,12.4,5.9,15.7,10.7c3.2,4.6,5.2,7.3,9.1,7.3c3.9,0,5.9-2.6,9.1-7.3c3.3-4.8,7.4-10.7,15.7-10.7s12.4,5.9,15.7,10.7
		c3.2,4.6,5.2,7.3,9.1,7.3c2.2,0,4,1.8,4,4C2315.4,1842.2,2313.6,1843.9,2311.4,1843.9z"/>
	<path d="M1556,1487.8c-8.3,0-12.4-5.9-15.7-10.7c-3.2-4.6-5.2-7.3-9.1-7.3c-3.9,0-5.9,2.6-9.1,7.3c-3.3,4.8-7.4,10.7-15.7,10.7
		c-8.3,0-12.4-5.9-15.7-10.7c-3.2-4.6-5.2-7.3-9.1-7.3c-3.9,0-5.9,2.6-9.1,7.3c-3.3,4.8-7.4,10.7-15.7,10.7
		c-8.3,0-12.4-5.9-15.7-10.7c-3.2-4.6-5.2-7.3-9.1-7.3c-3.9,0-5.9,2.6-9.1,7.3c-3.3,4.8-7.4,10.7-15.7,10.7
		c-8.3,0-12.4-5.9-15.7-10.7c-3.2-4.6-5.2-7.3-9.1-7.3c-3.9,0-5.9,2.6-9.1,7.3c-3.3,4.8-7.4,10.7-15.7,10.7
		c-8.3,0-12.4-5.9-15.7-10.7c-3.2-4.6-5.2-7.3-9.1-7.3c-2.2,0-4-1.8-4-4s1.8-4,4-4c8.3,0,12.4,5.9,15.7,10.7
		c3.2,4.6,5.2,7.3,9.1,7.3c3.9,0,5.9-2.6,9.1-7.3c3.3-4.8,7.4-10.7,15.7-10.7c8.3,0,12.4,5.9,15.7,10.7c3.2,4.6,5.2,7.3,9.1,7.3
		c3.9,0,5.9-2.6,9.1-7.3c3.3-4.8,7.4-10.7,15.7-10.7c8.3,0,12.4,5.9,15.7,10.7c3.2,4.6,5.2,7.3,9.1,7.3c3.9,0,5.9-2.6,9.1-7.3
		c3.3-4.8,7.4-10.7,15.7-10.7c8.3,0,12.4,5.9,15.7,10.7c3.2,4.6,5.2,7.3,9.1,7.3c3.9,0,5.9-2.6,9.1-7.3c3.3-4.8,7.4-10.7,15.7-10.7
		c8.3,0,12.4,5.9,15.7,10.7c3.2,4.6,5.2,7.3,9.1,7.3c2.2,0,4,1.8,4,4S1558.2,1487.8,1556,1487.8z"/>
	<path d="M2796,556.8c-2.1,0-3.9-1.7-4-3.8c-0.1-2.2,1.6-4.1,3.8-4.2c2.1-0.1,4.3-0.4,6.3-0.8c2.2-0.4,4.3,1,4.7,3.1
		c0.4,2.2-1,4.3-3.1,4.7c-2.5,0.5-5,0.8-7.5,0.9L2796,556.8z M2771.9,551.4c-0.6,0-1.3-0.1-1.9-0.5c-2.2-1.2-4.4-2.5-6.4-4
		c-1.8-1.3-2.1-3.8-0.8-5.6s3.8-2.1,5.6-0.8c1.7,1.3,3.5,2.4,5.4,3.4c2,1,2.7,3.5,1.7,5.4C2774.7,550.7,2773.3,551.4,2771.9,551.4z
		 M2824.9,544.8c-1.1,0-2.2-0.4-3-1.3c-1.5-1.6-1.4-4.2,0.3-5.6c1.6-1.4,3.1-3,4.4-4.6c1.4-1.7,3.9-2,5.6-0.6c1.7,1.4,2,3.9,0.6,5.6
		c-1.6,2-3.4,3.8-5.2,5.5C2826.9,544.4,2825.9,544.8,2824.9,544.8z M2750.7,528.3c-1.6,0-3-0.9-3.7-2.4c-1-2.3-1.8-4.8-2.4-7.2
		c-0.5-2.1,0.8-4.3,2.9-4.9c2.1-0.5,4.3,0.8,4.9,2.9c0.5,2.1,1.2,4.1,2,6.1c0.9,2-0.1,4.4-2.1,5.2
		C2751.7,528.2,2751.2,528.3,2750.7,528.3z M2839.8,517.2c-0.2,0-0.4,0-0.6,0c-2.2-0.3-3.7-2.4-3.4-4.5c0.3-2.1,0.5-4.2,0.5-6.4
		c0-1.6-0.1-3.2-0.3-4.8c-0.2-2.2,1.3-4.2,3.5-4.4c2.2-0.2,4.2,1.3,4.4,3.5c0.2,1.9,0.3,3.8,0.3,5.7c0,2.5-0.2,5.1-0.6,7.6
		C2843.5,515.7,2841.7,517.2,2839.8,517.2z M2748.9,497c-0.4,0-0.8-0.1-1.1-0.2c-2.1-0.6-3.3-2.8-2.7-5c0.7-2.4,1.6-4.8,2.7-7.1
		c0.9-2,3.3-2.9,5.3-1.9c2,0.9,2.9,3.3,1.9,5.3c-0.9,1.9-1.7,3.9-2.3,6C2752.2,495.9,2750.6,497,2748.9,497z M2830.9,482
		c-1.2,0-2.4-0.5-3.2-1.6c-1.3-1.7-2.7-3.3-4.2-4.8c-1.6-1.5-1.6-4.1-0.1-5.7c1.5-1.6,4.1-1.6,5.7-0.1c1.8,1.8,3.5,3.7,5,5.7
		c1.3,1.8,1,4.3-0.8,5.6C2832.6,481.8,2831.7,482,2830.9,482z M2767.4,471.6c-1.3,0-2.5-0.6-3.3-1.7c-1.2-1.8-0.8-4.3,1-5.6
		c2.1-1.4,4.3-2.7,6.6-3.8c2-1,4.4-0.1,5.3,1.9c1,2,0.1,4.4-1.9,5.3c-1.9,0.9-3.8,2-5.5,3.2C2768.9,471.4,2768.2,471.6,2767.4,471.6
		z M2804.6,464.8c-0.3,0-0.6,0-0.9-0.1c-2.1-0.5-4.2-0.8-6.3-1c-2.2-0.2-3.8-2.1-3.6-4.3c0.2-2.2,2.1-3.8,4.3-3.6
		c2.5,0.2,5,0.6,7.5,1.2c2.1,0.5,3.5,2.7,3,4.8C2808.1,463.6,2806.4,464.8,2804.6,464.8z"/>
	<path d="M2569.5,1895.2c-2.1,0-3.9-1.7-4-3.8c-0.1-2.2,1.6-4.1,3.8-4.2c2.1-0.1,4.3-0.4,6.3-0.8c2.2-0.4,4.3,1,4.7,3.1
		c0.4,2.2-1,4.3-3.1,4.7c-2.5,0.5-5,0.8-7.5,0.9L2569.5,1895.2z M2545.4,1889.9c-0.6,0-1.3-0.2-1.9-0.5c-2.2-1.2-4.4-2.5-6.4-4
		c-1.8-1.3-2.1-3.8-0.8-5.6c1.3-1.8,3.8-2.1,5.6-0.8c1.7,1.3,3.5,2.4,5.4,3.4c2,1,2.7,3.5,1.7,5.4
		C2548.3,1889.1,2546.9,1889.9,2545.4,1889.9z M2598.5,1883.2c-1.1,0-2.2-0.4-3-1.3c-1.5-1.6-1.4-4.2,0.3-5.6c1.6-1.4,3.1-3,4.4-4.6
		c1.4-1.7,3.9-2,5.6-0.6c1.7,1.4,2,3.9,0.6,5.6c-1.6,2-3.4,3.8-5.2,5.5C2600.4,1882.9,2599.5,1883.2,2598.5,1883.2z M2524.2,1866.7
		c-1.6,0-3-0.9-3.7-2.4c-1-2.3-1.8-4.8-2.4-7.2c-0.5-2.1,0.8-4.3,2.9-4.9c2.1-0.5,4.3,0.8,4.9,2.9c0.5,2.1,1.2,4.1,2,6.1
		c0.9,2-0.1,4.4-2.1,5.2C2525.3,1866.6,2524.8,1866.7,2524.2,1866.7z M2613.4,1855.6c-0.2,0-0.4,0-0.6,0c-2.2-0.3-3.7-2.4-3.4-4.5
		c0.3-2.1,0.5-4.2,0.5-6.4c0-1.6-0.1-3.2-0.3-4.8c-0.2-2.2,1.3-4.2,3.5-4.4c2.2-0.2,4.2,1.3,4.4,3.5c0.2,1.9,0.3,3.8,0.3,5.7
		c0,2.5-0.2,5.1-0.6,7.6C2617,1854.2,2615.3,1855.6,2613.4,1855.6z M2522.5,1835.4c-0.4,0-0.8-0.1-1.1-0.2c-2.1-0.6-3.3-2.8-2.7-5
		c0.7-2.4,1.6-4.8,2.7-7.1c0.9-2,3.3-2.9,5.3-1.9c2,0.9,2.9,3.3,1.9,5.3c-0.9,1.9-1.7,3.9-2.3,6
		C2525.8,1834.3,2524.2,1835.4,2522.5,1835.4z M2604.4,1820.5c-1.2,0-2.4-0.5-3.2-1.6c-1.3-1.7-2.7-3.3-4.2-4.8
		c-1.6-1.5-1.6-4.1-0.1-5.7c1.5-1.6,4.1-1.6,5.7-0.1c1.8,1.8,3.5,3.7,5,5.7c1.3,1.8,1,4.3-0.8,5.6
		C2606.1,1820.2,2605.3,1820.5,2604.4,1820.5z M2541,1810.1c-1.3,0-2.5-0.6-3.3-1.7c-1.2-1.8-0.8-4.3,1-5.6c2.1-1.4,4.3-2.7,6.6-3.8
		c2-1,4.4-0.1,5.3,1.9c1,2,0.1,4.4-1.9,5.3c-1.9,0.9-3.8,2-5.5,3.2C2542.5,1809.8,2541.7,1810.1,2541,1810.1z M2578.2,1803.3
		c-0.3,0-0.6,0-0.9-0.1c-2.1-0.5-4.2-0.8-6.3-1c-2.2-0.2-3.8-2.1-3.6-4.3c0.2-2.2,2.1-3.8,4.3-3.6c2.5,0.2,5,0.6,7.5,1.2
		c2.1,0.5,3.5,2.7,3,4.8C2581.6,1802,2580,1803.3,2578.2,1803.3z"/>
	<path d="M3313.2,2521.3c-17.9,0-32.5-14.6-32.5-32.5c0-17.9,14.6-32.5,32.5-32.5c17.9,0,32.5,14.6,32.5,32.5
		C3345.7,2506.7,3331.1,2521.3,3313.2,2521.3z M3313.2,2464.2c-13.5,0-24.5,11-24.5,24.5c0,13.5,11,24.5,24.5,24.5
		s24.5-11,24.5-24.5C3337.7,2475.2,3326.7,2464.2,3313.2,2464.2z"/>
	<path d="M2785.2,2021.4c-17.9,0-32.5-14.6-32.5-32.5s14.6-32.5,32.5-32.5c17.9,0,32.5,14.6,32.5,32.5S2803.2,2021.4,2785.2,2021.4z
		 M2785.2,1964.3c-13.5,0-24.5,11-24.5,24.5s11,24.5,24.5,24.5s24.5-11,24.5-24.5S2798.8,1964.3,2785.2,1964.3z"/>
	<path d="M2878.5,317.7c-17.9,0-32.5-14.6-32.5-32.5s14.6-32.5,32.5-32.5c17.9,0,32.5,14.6,32.5,32.5S2896.4,317.7,2878.5,317.7z
		 M2878.5,260.6c-13.5,0-24.5,11-24.5,24.5s11,24.5,24.5,24.5s24.5-11,24.5-24.5S2892,260.6,2878.5,260.6z"/>
	<path d="M1675.6,1322.6c-17.9,0-32.5-14.6-32.5-32.5s14.6-32.5,32.5-32.5c17.9,0,32.5,14.6,32.5,32.5S1693.5,1322.6,1675.6,1322.6z
		 M1675.6,1265.6c-13.5,0-24.5,11-24.5,24.5c0,13.5,11,24.5,24.5,24.5s24.5-11,24.5-24.5C1700.1,1276.6,1689.1,1265.6,1675.6,1265.6
		z"/>
	<path d="M2599,1681.3c-0.2,0-0.4,0-0.6,0c-30.2-0.2-58.5-12.1-79.7-33.6c-21.2-21.5-32.8-49.9-32.7-80.1
		c0.2-30.2,12.1-58.5,33.6-79.7c21.3-21.1,49.5-32.7,79.5-32.7c0.2,0,0.4,0,0.6,0c30.2,0.2,58.5,12.1,79.7,33.6s32.8,49.9,32.7,80.1
		c-0.2,30.2-12.1,58.5-33.6,79.7C2657.1,1669.7,2628.9,1681.3,2599,1681.3z M2598.9,1463.2c-27.8,0-54,10.8-73.8,30.3
		c-19.9,19.7-31,46-31.2,74.1c-0.2,28.1,10.6,54.5,30.3,74.4c19.7,19.9,46,31,74.1,31.2c0.2,0,0.4,0,0.6,0c27.8,0,54-10.8,73.8-30.3
		c19.9-19.7,31-46,31.2-74.1c0.2-28.1-10.6-54.5-30.3-74.4c-19.7-19.9-46-31-74.1-31.2C2599.3,1463.2,2599.1,1463.2,2598.9,1463.2z"
		/>
	<path d="M2598.9,1650.3c-0.2,0-0.3,0-0.5,0c-21.9-0.1-42.5-8.8-57.9-24.4s-23.8-36.2-23.7-58.2c0.1-21.9,8.8-42.5,24.4-57.9
		c15.6-15.4,36.2-23.8,58.2-23.7c21.9,0.1,42.5,8.8,57.9,24.4s23.8,36.2,23.7,58.2c-0.1,21.9-8.8,42.5-24.4,57.9
		C2641.2,1641.9,2620.7,1650.3,2598.9,1650.3z M2598.9,1494.2c-19.6,0-38.1,7.6-52.1,21.4c-14.1,13.9-21.9,32.5-22,52.3
		c-0.1,19.8,7.5,38.4,21.4,52.5c13.9,14.1,32.5,21.9,52.3,22c19.8,0.1,38.4-7.5,52.5-21.4c14.1-13.9,21.9-32.5,22-52.3
		c0.1-19.8-7.5-38.4-21.4-52.5s-32.5-21.9-52.3-22C2599.2,1494.2,2599.1,1494.2,2598.9,1494.2z"/>
	<rect x="2704.9" y="1635" transform="matrix(0.711 -0.7031 0.7031 0.711 -398.1672 2390.0786)" width="8" height="89"/>
	<path d="M2861.8,1869c-9,0-18-3.5-24.8-10.3l-99.9-101c-13.5-13.7-13.4-35.8,0.3-49.3c13.7-13.5,35.8-13.4,49.3,0.3l99.9,101
		c13.5,13.7,13.4,35.8-0.3,49.3C2879.6,1865.6,2870.7,1869,2861.8,1869z M2762,1706.2c-6.8,0-13.7,2.6-18.9,7.8
		c-10.5,10.4-10.6,27.5-0.2,38l99.9,101c10.4,10.5,27.5,10.6,38,0.2c10.5-10.4,10.6-27.5,0.2-38l-99.9-101
		C2775.8,1708.9,2768.9,1706.2,2762,1706.2z"/>
	<path d="M2662.4,1242.6h-6.5c-2.2,0-4-1.8-4-4s1.8-4,4-4h6.5c0.2,0,18.6-0.2,36.7-7.9c23.5-10,35.4-27.6,35.4-52.2
		c0-24.3-10.8-42.8-32.2-54.9c-16.3-9.3-33-11.2-33.1-11.2c-2.1-0.2-3.6-2-3.6-4.1c0-0.2,0.3-17.9-7.4-35.9
		c-10.1-23.6-28.7-36.7-55.3-38.9c-24.2-2-44.3,6.1-59.9,24c-11.8,13.6-16.4,28.1-16.4,28.3c-0.4,1.1-1.2,2.1-2.3,2.5
		c-1.1,0.5-2.3,0.4-3.4-0.2c-1.1-0.6-26.4-13.5-46.9,3.4c-19.7,16.2-16.9,44.1-16.9,44.4c0.2,2.2-1.3,4.1-3.4,4.4
		c-1.5,0.2-35.9,5.5-35.9,46.7c0,42.5,46.7,51.7,58.3,51.7h25.9c2.2,0,4,1.8,4,4s-1.8,4-4,4h-25.9c-6.6,0-23-2.4-38.2-11.4
		c-18.4-10.9-28.1-27.6-28.1-48.3c0-39.8,28.8-51,39.2-53.8c-0.2-9,1.2-32.5,20-47.9c19.6-16,42.4-9.7,51.6-6.1
		c2.3-5.7,7.4-16.3,16.3-26.7c11.9-13.9,33.2-29.8,66.8-27c37.2,3.1,54.3,25.6,62.1,44c6.3,14.8,7.6,29,7.9,35.4
		c6.1,1.1,19.2,4.1,32.5,11.5c23.9,13.4,36.5,34.9,36.5,62c0,27.8-14,48.5-40.5,59.7C2682.5,1242.4,2663.2,1242.6,2662.4,1242.6z"/>
	<rect x="2807.9" y="1681.7" transform="matrix(0.711 -0.7031 0.7031 0.711 -441.6276 2492.5593)" width="8" height="203.8"/>
	<path d="M5128.1,2644.4H3449.2c-9,0-16.4-7.3-16.4-16.4v-594.2c0-2.2,1.8-4,4-4c2.2,0,4,1.8,4,4V2628c0,4.6,3.8,8.4,8.4,8.4h1678.8
		c4.6,0,8.4-3.8,8.4-8.4V259.9c0-4.6-3.8-8.4-8.4-8.4H3449.2c-4.6,0-8.4,3.8-8.4,8.4v423.7c0,2.2-1.8,4-4,4c-2.2,0-4-1.8-4-4V259.9
		c0-9,7.3-16.4,16.4-16.4h1678.8c9,0,16.4,7.3,16.4,16.4V2628C5144.4,2637.1,5137.1,2644.4,5128.1,2644.4z"/>
	<path d="M5045.8,2357.7H3531.4c-8.4,0-15.3-6.4-15.3-14.3v-310.3c0-2.2,1.8-4,4-4c2.2,0,4,1.8,4,4v310.3c0,3.5,3.3,6.3,7.3,6.3
		h1514.4c4,0,7.3-2.8,7.3-6.3V349.1c0-3.5-3.3-6.3-7.3-6.3H3531.4c-4,0-7.3,2.8-7.3,6.3v335.7c0,2.2-1.8,4-4,4c-2.2,0-4-1.8-4-4
		V349.1c0-7.9,6.9-14.3,15.3-14.3h1514.4c8.4,0,15.3,6.4,15.3,14.3v1994.3C5061.1,2351.3,5054.3,2357.7,5045.8,2357.7z"/>
	<path d="M2412.3,522.6H1099.4c-76.9,0-139.5-62.6-139.5-139.5c0-76.9,62.6-139.5,139.5-139.5h1312.9c0.7,0,1.5,0.2,2.1,0.5
		l248.3,135.1c1.4,0.8,2.3,2.3,2.3,3.9c0,1.6-0.9,3.1-2.3,3.9l-248.3,135.1C2413.7,522.4,2413,522.6,2412.3,522.6z M1099.4,251.5
		c-72.5,0-131.5,59-131.5,131.5s59,131.5,131.5,131.5h1311.9L2653,383.1l-241.6-131.5H1099.4z M2412.3,251.5L2412.3,251.5
		L2412.3,251.5z"/>
	<path d="M4894.8,2037.1H3016.7c-8.7,0-15.8-7.1-15.8-15.8v-747c0-2.2,1.8-4,4-4s4,1.8,4,4v747c0,4.3,3.5,7.8,7.8,7.8h1878.1
		c4.3,0,7.8-3.5,7.8-7.8V696.6c0-4.3-3.5-7.8-7.8-7.8H3016.7c-4.3,0-7.8,3.5-7.8,7.8v506.4c0,2.2-1.8,4-4,4s-4-1.8-4-4V696.6
		c0-8.7,7.1-15.8,15.8-15.8h1878.1c8.7,0,15.8,7.1,15.8,15.8v1324.8C4910.5,2030.1,4903.5,2037.1,4894.8,2037.1z"/>
	<path d="M2488.7,1577h-90.9c-2.2,0-4-1.8-4-4s1.8-4,4-4h90.9c2.2,0,4,1.8,4,4S2490.9,1577,2488.7,1577z"/>
	<path d="M2802.4,1577h-93.4c-2.2,0-4-1.8-4-4s1.8-4,4-4h93.4c4.4,0,8-3.6,8-8V856.9c0-4.4-3.6-8-8-8h-968.3c-4.4,0-8,3.6-8,8V1561
		c0,4.4,3.6,8,8,8h492.2c2.2,0,4,1.8,4,4s-1.8,4-4,4h-492.2c-8.8,0-16-7.2-16-16V856.9c0-8.8,7.2-16,16-16h968.3c8.8,0,16,7.2,16,16
		V1561C2818.4,1569.8,2811.2,1577,2802.4,1577z"/>
	<path d="M2814.4,957.6h-992.3c-2.2,0-4-1.8-4-4c0-2.2,1.8-4,4-4h992.3c2.2,0,4,1.8,4,4C2818.4,955.8,2816.6,957.6,2814.4,957.6z"/>
	<path d="M1891.2,924.1c-13.3,0-24.2-10.9-24.2-24.2c0-13.3,10.9-24.2,24.2-24.2c13.3,0,24.2,10.9,24.2,24.2
		C1915.4,913.3,1904.5,924.1,1891.2,924.1z M1891.2,883.7c-8.9,0-16.2,7.3-16.2,16.2c0,8.9,7.3,16.2,16.2,16.2s16.2-7.3,16.2-16.2
		C1907.4,891,1900.1,883.7,1891.2,883.7z"/>
	<path d="M1956.6,924.1c-13.3,0-24.2-10.9-24.2-24.2c0-13.3,10.9-24.2,24.2-24.2c13.3,0,24.2,10.9,24.2,24.2
		C1980.8,913.3,1969.9,924.1,1956.6,924.1z M1956.6,883.7c-8.9,0-16.2,7.3-16.2,16.2c0,8.9,7.3,16.2,16.2,16.2s16.2-7.3,16.2-16.2
		C1972.8,891,1965.5,883.7,1956.6,883.7z"/>
	<path d="M2022,924.1c-13.3,0-24.2-10.9-24.2-24.2c0-13.3,10.9-24.2,24.2-24.2c13.3,0,24.2,10.9,24.2,24.2
		C2046.2,913.3,2035.3,924.1,2022,924.1z M2022,883.7c-8.9,0-16.2,7.3-16.2,16.2c0,8.9,7.3,16.2,16.2,16.2c8.9,0,16.2-7.3,16.2-16.2
		C2038.2,891,2030.9,883.7,2022,883.7z"/>
	<path d="M3267.1,598h-250.1c-8.8,0-16-7.2-16-16V259.5c0-8.8,7.2-16,16-16h250.1c8.8,0,16,7.2,16,16V582
		C3283.1,590.8,3275.9,598,3267.1,598z M3016.9,251.5c-4.4,0-8,3.6-8,8V582c0,4.4,3.6,8,8,8h250.1c4.4,0,8-3.6,8-8V259.5
		c0-4.4-3.6-8-8-8H3016.9z"/>
	<path d="M2412.4,522.6c-1.1,0-2.2-0.5-3-1.4l-40.4-46.5c-1.3-1.5-1.3-3.8,0.1-5.3l38-41.4l-38-42.3c-1.4-1.5-1.4-3.8,0-5.3
		l38.1-43.8l-38.1-43.1c-1.4-1.5-1.3-3.9,0.1-5.4l40.4-43.3c1.5-1.6,4-1.7,5.7-0.2s1.7,4,0.2,5.7l-38,40.7l38,43
		c1.3,1.5,1.3,3.8,0,5.3l-38.1,43.8l38.1,42.3c1.4,1.5,1.4,3.9,0,5.4l-38,41.4l38.1,43.8c1.5,1.7,1.3,4.2-0.4,5.6
		C2414.3,522.3,2413.3,522.6,2412.4,522.6z"/>
	<path d="M2567.2,438.3c-2.2,0-4-1.8-4-4V331.8c0-2.2,1.8-4,4-4s4,1.8,4,4v102.5C2571.2,436.5,2569.4,438.3,2567.2,438.3z"/>
	<path d="M1154.5,518.3c-2.2,0-4-1.8-4-4V247.5c0-2.2,1.8-4,4-4s4,1.8,4,4v266.8C1158.5,516.6,1156.7,518.3,1154.5,518.3z"/>
	<path d="M1227.9,518.3c-2.2,0-4-1.8-4-4V247.5c0-2.2,1.8-4,4-4c2.2,0,4,1.8,4,4v266.8C1231.9,516.6,1230.1,518.3,1227.9,518.3z"/>
	<path d="M2409.7,340H1231.2c-2.2,0-4-1.8-4-4c0-2.2,1.8-4,4-4h1178.5c2.2,0,4,1.8,4,4C2413.7,338.2,2411.9,340,2409.7,340z"/>
	<path d="M2371.9,293.6H1231.2c-2.2,0-4-1.8-4-4c0-2.2,1.8-4,4-4h1140.8c2.2,0,4,1.8,4,4C2375.9,291.8,2374.1,293.6,2371.9,293.6z"
		/>
	<path d="M2371.9,476.1H1231.2c-2.2,0-4-1.8-4-4c0-2.2,1.8-4,4-4h1140.8c2.2,0,4,1.8,4,4C2375.9,474.3,2374.1,476.1,2371.9,476.1z"
		/>
	<path d="M2371.9,387.1H1231.2c-2.2,0-4-1.8-4-4c0-2.2,1.8-4,4-4h1140.8c2.2,0,4,1.8,4,4C2375.9,385.3,2374.1,387.1,2371.9,387.1z"
		/>
	<path d="M2412.4,432H1231.2c-2.2,0-4-1.8-4-4c0-2.2,1.8-4,4-4h1181.2c2.2,0,4,1.8,4,4C2416.4,430.2,2414.6,432,2412.4,432z"/>
	<path d="M2177.4,1242.7h-69.8c-2.2,0-4-1.8-4-4s1.8-4,4-4h69.8c0.7,0,1.3-0.6,1.3-1.3v-204.4c0-0.7-0.6-1.3-1.3-1.3h-271
		c-0.7,0-1.3,0.6-1.3,1.3v204.4c0,0.7,0.6,1.3,1.3,1.3h162.3c2.2,0,4,1.8,4,4s-1.8,4-4,4h-162.3c-5.1,0-9.3-4.2-9.3-9.3v-204.4
		c0-5.1,4.2-9.3,9.3-9.3h271c5.1,0,9.3,4.2,9.3,9.3v204.4C2186.7,1238.5,2182.6,1242.7,2177.4,1242.7z"/>
	<path d="M2041.9,1164.2c-1,0-2-0.4-2.8-1.1l-138.9-134.8c-1.6-1.5-1.6-4.1-0.1-5.7c1.5-1.6,4.1-1.6,5.7-0.1l136.2,132.1
		l136.5-132.3c1.6-1.5,4.1-1.5,5.7,0.1c1.5,1.6,1.5,4.1-0.1,5.7l-139.3,135C2043.9,1163.8,2042.9,1164.2,2041.9,1164.2z"/>
	<path d="M1903,1241.4c-1,0-2-0.4-2.8-1.1c-1.6-1.5-1.6-4.1-0.1-5.7l106.1-109.1c1.5-1.6,4.1-1.6,5.7-0.1c1.6,1.5,1.6,4.1,0.1,5.7
		l-106.1,109.1C1905.1,1241,1904,1241.4,1903,1241.4z"/>
	<path d="M2181.2,1241.4c-1,0-2.1-0.4-2.9-1.2l-106.1-109.1c-1.5-1.6-1.5-4.1,0.1-5.7c1.6-1.5,4.1-1.5,5.7,0.1l106.1,109.1
		c1.5,1.6,1.5,4.1-0.1,5.7C2183.2,1241,2182.2,1241.4,2181.2,1241.4z"/>
	<path d="M2817.8,2644.4H1057.9c-2.2,0-4-1.8-4-4s1.8-4,4-4h1759.9c2.2,0,4,1.8,4,4S2820.1,2644.4,2817.8,2644.4z"/>
	<path d="M3271.1,2644.4h-7c-2.2,0-4-1.8-4-4s1.8-4,4-4h7c2.2,0,4,1.8,4,4S3273.3,2644.4,3271.1,2644.4z M3243.1,2644.4h-7
		c-2.2,0-4-1.8-4-4s1.8-4,4-4h7c2.2,0,4,1.8,4,4S3245.3,2644.4,3243.1,2644.4z M3215.1,2644.4h-7c-2.2,0-4-1.8-4-4s1.8-4,4-4h7
		c2.2,0,4,1.8,4,4S3217.3,2644.4,3215.1,2644.4z M3187.1,2644.4h-7c-2.2,0-4-1.8-4-4s1.8-4,4-4h7c2.2,0,4,1.8,4,4
		S3189.3,2644.4,3187.1,2644.4z M3159.1,2644.4h-7c-2.2,0-4-1.8-4-4s1.8-4,4-4h7c2.2,0,4,1.8,4,4S3161.3,2644.4,3159.1,2644.4z
		 M3131.1,2644.4h-7c-2.2,0-4-1.8-4-4s1.8-4,4-4h7c2.2,0,4,1.8,4,4S3133.3,2644.4,3131.1,2644.4z M3103.1,2644.4h-7
		c-2.2,0-4-1.8-4-4s1.8-4,4-4h7c2.2,0,4,1.8,4,4S3105.3,2644.4,3103.1,2644.4z M3075.1,2644.4h-7c-2.2,0-4-1.8-4-4s1.8-4,4-4h7
		c2.2,0,4,1.8,4,4S3077.3,2644.4,3075.1,2644.4z M3047.1,2644.4h-7c-2.2,0-4-1.8-4-4s1.8-4,4-4h7c2.2,0,4,1.8,4,4
		S3049.3,2644.4,3047.1,2644.4z M3019.1,2644.4h-7c-2.2,0-4-1.8-4-4s1.8-4,4-4h7c2.2,0,4,1.8,4,4S3021.3,2644.4,3019.1,2644.4z
		 M2991.1,2644.4h-7c-2.2,0-4-1.8-4-4s1.8-4,4-4h7c2.2,0,4,1.8,4,4S2993.3,2644.4,2991.1,2644.4z M2963.1,2644.4h-7
		c-2.2,0-4-1.8-4-4s1.8-4,4-4h7c2.2,0,4,1.8,4,4S2965.3,2644.4,2963.1,2644.4z M2935.1,2644.4h-7c-2.2,0-4-1.8-4-4s1.8-4,4-4h7
		c2.2,0,4,1.8,4,4S2937.3,2644.4,2935.1,2644.4z M2907.1,2644.4h-7c-2.2,0-4-1.8-4-4s1.8-4,4-4h7c2.2,0,4,1.8,4,4
		S2909.3,2644.4,2907.1,2644.4z M2879.1,2644.4h-7c-2.2,0-4-1.8-4-4s1.8-4,4-4h7c2.2,0,4,1.8,4,4S2881.3,2644.4,2879.1,2644.4z
		 M2851.1,2644.4h-4.6c-2.2,0-4-1.8-4-4s1.8-4,4-4h4.6c2.2,0,4,1.8,4,4S2853.3,2644.4,2851.1,2644.4z"/>
	<path d="M2215.9,2643.5h-988c-49.7,0-90.2-40.4-90.2-90.2c0-2.2,1.8-4,4-4H2302c2.2,0,4,1.8,4,4
		C2306,2603.1,2265.6,2643.5,2215.9,2643.5z M1145.8,2557.3c2.1,43.5,38.1,78.2,82.1,78.2h988c44,0,80-34.7,82.1-78.2H1145.8z"/>
	<path d="M2189.7,2557.3c-2.2,0-4-1.8-4-4v-575.1c0-4.3-3.5-7.9-7.9-7.9h-912.1c-4.3,0-7.9,3.5-7.9,7.9v575.1c0,2.2-1.8,4-4,4
		c-2.2,0-4-1.8-4-4v-575.1c0-8.7,7.1-15.9,15.9-15.9h912.1c8.7,0,15.9,7.1,15.9,15.9v575.1C2193.7,2555.5,2192,2557.3,2189.7,2557.3
		z"/>
	<path d="M3004.9,1277.4c-21.4,0-38.8-17.4-38.8-38.8c0-21.4,17.4-38.8,38.8-38.8c21.4,0,38.8,17.4,38.8,38.8
		C3043.7,1260,3026.3,1277.4,3004.9,1277.4z M3004.9,1207.9c-17,0-30.8,13.8-30.8,30.8c0,17,13.8,30.8,30.8,30.8
		c17,0,30.8-13.8,30.8-30.8C3035.7,1221.7,3021.9,1207.9,3004.9,1207.9z"/>
	<path d="M2361.9,1611.7c-21.4,0-38.8-17.4-38.8-38.8c0-21.4,17.4-38.8,38.8-38.8c21.4,0,38.8,17.4,38.8,38.8
		C2400.7,1594.3,2383.3,1611.7,2361.9,1611.7z M2361.9,1542.2c-17,0-30.8,13.8-30.8,30.8s13.8,30.8,30.8,30.8s30.8-13.8,30.8-30.8
		S2378.9,1542.2,2361.9,1542.2z"/>
	<path d="M2970.2,1242.7h-155.8c-2.2,0-4-1.8-4-4s1.8-4,4-4h155.8c2.2,0,4,1.8,4,4S2972.4,1242.7,2970.2,1242.7z"/>
	<path d="M3279.1,546.7h-274.1c-2.2,0-4-1.8-4-4s1.8-4,4-4h274.1c2.2,0,4,1.8,4,4S3281.3,546.7,3279.1,546.7z"/>
	<path d="M3279.1,570.8h-274.1c-2.2,0-4-1.8-4-4s1.8-4,4-4h274.1c2.2,0,4,1.8,4,4S3281.3,570.8,3279.1,570.8z"/>
	<path d="M1721.9,1780.6c-2.2,0-4-1.8-4-4v-98c0-2.2,1.8-4,4-4h636v-67c0-2.2,1.8-4,4-4s4,1.8,4,4v71c0,2.2-1.8,4-4,4h-636v94
		C1725.9,1778.8,1724.1,1780.6,1721.9,1780.6z"/>
	<path d="M1591.3,2491.6H1348c-8.5,0-15.4-6.9-15.4-15.4v-243.4c0-8.5,6.9-15.4,15.4-15.4h243.4c8.5,0,15.4,6.9,15.4,15.4v24.2
		c0,2.2-1.8,4-4,4s-4-1.8-4-4v-24.2c0-4.1-3.3-7.4-7.4-7.4H1348c-4.1,0-7.4,3.3-7.4,7.4v243.4c0,4.1,3.3,7.4,7.4,7.4h243.4
		c4.1,0,7.4-3.3,7.4-7.4v-64.2c0-2.2,1.8-4,4-4s4,1.8,4,4v64.2C1606.7,2484.7,1599.8,2491.6,1591.3,2491.6z"/>
	<path d="M3955.7,1961.7c-2.2,0-4-1.8-4-4c0-54.5-44.3-98.8-98.8-98.8h-756.5c-13.2,0-23.9-10.7-23.9-23.9V775
		c0-13.2,10.7-23.9,23.9-23.9h756.5c58.9,0,106.8,47.9,106.8,106.8c0,2.2-1.8,4-4,4s-4-1.8-4-4c0-54.5-44.3-98.8-98.8-98.8h-756.5
		c-8.7,0-15.9,7.1-15.9,15.9v1060c0,8.7,7.1,15.9,15.9,15.9h756.5c58.9,0,106.8,47.9,106.8,106.8
		C3959.7,1959.9,3958,1961.7,3955.7,1961.7z"/>
	<path d="M3955.7,1961.7c-2.2,0-4-1.8-4-4V857.9c0-58.9,47.9-106.8,106.8-106.8H4815c13.2,0,23.9,10.7,23.9,23.9v1060
		c0,13.2-10.7,23.9-23.9,23.9h-756.5c-54.5,0-98.8,44.3-98.8,98.8C3959.7,1959.9,3957.9,1961.7,3955.7,1961.7z M4058.5,759.1
		c-54.5,0-98.8,44.3-98.8,98.8v1059.2c16-38.8,54.3-66.3,98.8-66.3H4815c8.7,0,15.9-7.1,15.9-15.9V775c0-8.7-7.1-15.9-15.9-15.9
		H4058.5z"/>
	<path d="M3955.7,1961.7h-879.1c-2.2,0-4-1.8-4-4c0-2.2,1.8-4,4-4h879.1c2.2,0,4,1.8,4,4C3959.7,1959.9,3957.9,1961.7,3955.7,1961.7
		z"/>
	<path d="M3955.7,1927.4h-879.1c-2.2,0-4-1.8-4-4c0-2.2,1.8-4,4-4h879.1c2.2,0,4,1.8,4,4C3959.7,1925.6,3957.9,1927.4,3955.7,1927.4
		z"/>
	<path d="M3929.4,1893.1h-852.8c-2.2,0-4-1.8-4-4c0-2.2,1.8-4,4-4h852.8c2.2,0,4,1.8,4,4C3933.4,1891.3,3931.6,1893.1,3929.4,1893.1
		z"/>
	<path d="M4834.8,1961.7h-879.1c-2.2,0-4-1.8-4-4c0-2.2,1.8-4,4-4h879.1c2.2,0,4,1.8,4,4C4838.8,1959.9,4837,1961.7,4834.8,1961.7z"
		/>
	<path d="M4834.8,1927.4h-879.1c-2.2,0-4-1.8-4-4c0-2.2,1.8-4,4-4h879.1c2.2,0,4,1.8,4,4C4838.8,1925.6,4837,1927.4,4834.8,1927.4z"
		/>
	<path d="M4834.8,1893.1H3982c-2.2,0-4-1.8-4-4c0-2.2,1.8-4,4-4h852.8c2.2,0,4,1.8,4,4C4838.8,1891.3,4837,1893.1,4834.8,1893.1z"/>
	<path d="M3142,440.6c-42.7,0-77.5-34.8-77.5-77.5c0-42.7,34.8-77.5,77.5-77.5s77.5,34.8,77.5,77.5
		C3219.5,405.8,3184.7,440.6,3142,440.6z M3142,293.6c-38.3,0-69.5,31.2-69.5,69.5s31.2,69.5,69.5,69.5c38.3,0,69.5-31.2,69.5-69.5
		S3180.3,293.6,3142,293.6z"/>
	<path d="M3167.8,510.2h-50.6c-2.2,0-4-1.8-4-4v-73.4c0-2.2,1.8-4,4-4c2.2,0,4,1.8,4,4v69.4h42.6v-69.4c0-2.2,1.8-4,4-4s4,1.8,4,4
		v73.4C3171.8,508.4,3170,510.2,3167.8,510.2z"/>
	<path d="M3183.1,461.6h-81.2c-2.2,0-4-1.8-4-4c0-2.2,1.8-4,4-4h81.2c2.2,0,4,1.8,4,4C3187.1,459.8,3185.3,461.6,3183.1,461.6z"/>
	<path d="M3183.1,486.4h-81.2c-2.2,0-4-1.8-4-4c0-2.2,1.8-4,4-4h81.2c2.2,0,4,1.8,4,4C3187.1,484.6,3185.3,486.4,3183.1,486.4z"/>
	<path d="M3131,438.1c-2.2,0-4-1.8-4-4v-61.7c0-2.2,1.8-4,4-4c2.2,0,4,1.8,4,4v61.7C3135,436.3,3133.2,438.1,3131,438.1z"/>
	<path d="M3154,438.1c-2.2,0-4-1.8-4-4v-61.7c0-2.2,1.8-4,4-4c2.2,0,4,1.8,4,4v61.7C3158,436.3,3156.2,438.1,3154,438.1z"/>
	<path d="M1468.3,2373.1c-23.9,0-43.4-19.5-43.4-43.4c0-23.9,19.5-43.4,43.4-43.4c23.9,0,43.4,19.5,43.4,43.4
		C1511.7,2353.7,1492.2,2373.1,1468.3,2373.1z M1468.3,2294.4c-19.5,0-35.4,15.9-35.4,35.4c0,19.5,15.9,35.4,35.4,35.4
		s35.4-15.9,35.4-35.4C1503.7,2310.2,1487.8,2294.4,1468.3,2294.4z"/>
	<path d="M1553,2490.3c-2.2,0-4-1.8-4-4c0-43.8-35.6-79.4-79.4-79.4c-43.8,0-79.4,35.6-79.4,79.4c0,2.2-1.8,4-4,4c-2.2,0-4-1.8-4-4
		c0-48.2,39.2-87.4,87.4-87.4c48.2,0,87.4,39.2,87.4,87.4C1557,2488.5,1555.2,2490.3,1553,2490.3z"/>
	<path d="M1356.2,2073.3c-14.3,0-25.9-11.6-25.9-25.9c0-14.3,11.6-25.9,25.9-25.9c14.3,0,25.9,11.6,25.9,25.9
		C1382.1,2061.7,1370.4,2073.3,1356.2,2073.3z M1356.2,2029.5c-9.9,0-17.9,8-17.9,17.9c0,9.9,8,17.9,17.9,17.9
		c9.9,0,17.9-8,17.9-17.9C1374.1,2037.6,1366,2029.5,1356.2,2029.5z"/>
	<path d="M1469.7,2051.4h-50.9c-2.2,0-4-1.8-4-4c0-2.2,1.8-4,4-4h50.9c2.2,0,4,1.8,4,4C1473.7,2049.6,1471.9,2051.4,1469.7,2051.4z"
		/>
	<path d="M1356.2,2155.3c-14.3,0-25.9-11.6-25.9-25.9s11.6-25.9,25.9-25.9c14.3,0,25.9,11.6,25.9,25.9S1370.4,2155.3,1356.2,2155.3z
		 M1356.2,2111.6c-9.9,0-17.9,8-17.9,17.9s8,17.9,17.9,17.9c9.9,0,17.9-8,17.9-17.9S1366,2111.6,1356.2,2111.6z"/>
	<path d="M1469.7,2133.4h-50.9c-2.2,0-4-1.8-4-4s1.8-4,4-4h50.9c2.2,0,4,1.8,4,4S1471.9,2133.4,1469.7,2133.4z"/>
	<path d="M1631.5,2448.6c-0.5,0-1-0.1-1.5-0.3c-1.5-0.6-2.5-2.1-2.5-3.7l0-29.7h-45c-6.9,0-12.5-5.6-12.5-12.5v-135.7
		c0-6.9,5.6-12.5,12.5-12.5h186.3c6.9,0,12.5,5.6,12.5,12.5v135.7c0,6.9-5.6,12.5-12.5,12.5h-103.6l-30.8,32.5
		C1633.6,2448.1,1632.6,2448.6,1631.5,2448.6z M1582.5,2262.2c-2.5,0-4.5,2-4.5,4.5v135.7c0,2.5,2,4.5,4.5,4.5h49
		c1.1,0,2.1,0.4,2.8,1.2c0.8,0.8,1.2,1.8,1.2,2.8l0,23.7l25.1-26.4c0.8-0.8,1.8-1.2,2.9-1.2h105.3c2.5,0,4.5-2,4.5-4.5v-135.7
		c0-2.5-2-4.5-4.5-4.5H1582.5z"/>
	<path d="M1621.6,2356.7c-11.1,0-20.2-9.1-20.2-20.2c0-11.1,9.1-20.2,20.2-20.2c11.1,0,20.2,9.1,20.2,20.2
		C1641.8,2347.6,1632.7,2356.7,1621.6,2356.7z M1621.6,2324.3c-6.7,0-12.2,5.5-12.2,12.2c0,6.7,5.5,12.2,12.2,12.2
		c6.7,0,12.2-5.5,12.2-12.2C1633.8,2329.7,1628.3,2324.3,1621.6,2324.3z"/>
	<path d="M1674.4,2356.7c-11.1,0-20.2-9.1-20.2-20.2c0-11.1,9.1-20.2,20.2-20.2c11.1,0,20.2,9.1,20.2,20.2
		C1694.6,2347.6,1685.5,2356.7,1674.4,2356.7z M1674.4,2324.3c-6.7,0-12.2,5.5-12.2,12.2c0,6.7,5.5,12.2,12.2,12.2
		c6.7,0,12.2-5.5,12.2-12.2C1686.6,2329.7,1681.1,2324.3,1674.4,2324.3z"/>
	<path d="M1727.2,2356.7c-11.1,0-20.2-9.1-20.2-20.2c0-11.1,9.1-20.2,20.2-20.2c11.1,0,20.2,9.1,20.2,20.2
		C1747.4,2347.6,1738.3,2356.7,1727.2,2356.7z M1727.2,2324.3c-6.7,0-12.2,5.5-12.2,12.2c0,6.7,5.5,12.2,12.2,12.2
		c6.7,0,12.2-5.5,12.2-12.2C1739.4,2329.7,1733.9,2324.3,1727.2,2324.3z"/>
	<path d="M1950.8,2489c-0.3,0-0.7,0-1-0.1c-1.4-0.4-2.5-1.4-2.8-2.8l-25.8-89.2c-0.4-1.4,0-2.9,1-3.9c1-1,2.5-1.4,3.9-1l89.2,25.8
		c1.4,0.4,2.4,1.5,2.8,2.8c0.4,1.4,0,2.8-1,3.8l-63.5,63.5C1952.9,2488.5,1951.9,2489,1950.8,2489z M1930.9,2401.6l21.9,75.7
		l53.9-53.9L1930.9,2401.6z"/>
	<path d="M2037.3,2512c-1,0-2-0.4-2.8-1.2l-54.8-54.8c-1.6-1.6-1.6-4.1,0-5.7c1.6-1.6,4.1-1.6,5.7,0l54.8,54.8
		c1.6,1.6,1.6,4.1,0,5.7C2039.3,2511.6,2038.3,2512,2037.3,2512z"/>
	<path d="M1909.5,2382.5c-1,0-2-0.4-2.8-1.2l-21.6-21.6c-1.6-1.6-1.6-4.1,0-5.7c1.6-1.6,4.1-1.6,5.7,0l21.6,21.6
		c1.6,1.6,1.6,4.1,0,5.7C1911.6,2382.1,1910.5,2382.5,1909.5,2382.5z"/>
	<path d="M1898.7,2399.7h-27.9c-2.2,0-4-1.8-4-4c0-2.2,1.8-4,4-4h27.9c2.2,0,4,1.8,4,4C1902.7,2397.9,1900.9,2399.7,1898.7,2399.7z"
		/>
	<path d="M1925.1,2372.4c-2.2,0-4-1.8-4-4v-27.9c0-2.2,1.8-4,4-4s4,1.8,4,4v27.9C1929.1,2370.7,1927.3,2372.4,1925.1,2372.4z"/>
	<path d="M2127.6,2130.9h-91c-8.8,0-16-7.2-16-16v-91c0-8.8,7.2-16,16-16h91c8.8,0,16,7.2,16,16v91
		C2143.6,2123.7,2136.4,2130.9,2127.6,2130.9z M2036.6,2015.9c-4.4,0-8,3.6-8,8v91c0,4.4,3.6,8,8,8h91c4.4,0,8-3.6,8-8v-91
		c0-4.4-3.6-8-8-8H2036.6z"/>
	<path d="M2082.1,2100.5c-17.1,0-31.1-14-31.1-31.1c0-17.1,14-31.1,31.1-31.1c17.1,0,31.1,14,31.1,31.1
		C2113.2,2086.6,2099.3,2100.5,2082.1,2100.5z M2082.1,2046.3c-12.7,0-23.1,10.4-23.1,23.1c0,12.7,10.4,23.1,23.1,23.1
		c12.7,0,23.1-10.4,23.1-23.1C2105.2,2056.7,2094.8,2046.3,2082.1,2046.3z"/>
	<path d="M2139.6,2225.4h-274.4c-2.2,0-4-1.8-4-4s1.8-4,4-4h274.4c2.2,0,4,1.8,4,4S2141.8,2225.4,2139.6,2225.4z"/>
	<path d="M2124.2,2263.9h-7c-2.2,0-4-1.8-4-4s1.8-4,4-4h7c2.2,0,4,1.8,4,4S2126.4,2263.9,2124.2,2263.9z M2096.2,2263.9h-7
		c-2.2,0-4-1.8-4-4s1.8-4,4-4h7c2.2,0,4,1.8,4,4S2098.4,2263.9,2096.2,2263.9z M2068.2,2263.9h-7c-2.2,0-4-1.8-4-4s1.8-4,4-4h7
		c2.2,0,4,1.8,4,4S2070.4,2263.9,2068.2,2263.9z M2040.2,2263.9h-7c-2.2,0-4-1.8-4-4s1.8-4,4-4h7c2.2,0,4,1.8,4,4
		S2042.4,2263.9,2040.2,2263.9z M2012.2,2263.9h-7c-2.2,0-4-1.8-4-4s1.8-4,4-4h7c2.2,0,4,1.8,4,4S2014.4,2263.9,2012.2,2263.9z
		 M1984.2,2263.9h-7c-2.2,0-4-1.8-4-4s1.8-4,4-4h7c2.2,0,4,1.8,4,4S1986.4,2263.9,1984.2,2263.9z M1956.2,2263.9h-7
		c-2.2,0-4-1.8-4-4s1.8-4,4-4h7c2.2,0,4,1.8,4,4S1958.4,2263.9,1956.2,2263.9z M1928.2,2263.9h-7c-2.2,0-4-1.8-4-4s1.8-4,4-4h7
		c2.2,0,4,1.8,4,4S1930.4,2263.9,1928.2,2263.9z M1900.2,2263.9h-7c-2.2,0-4-1.8-4-4s1.8-4,4-4h7c2.2,0,4,1.8,4,4
		S1902.4,2263.9,1900.2,2263.9z M1872.2,2263.9h-7c-2.2,0-4-1.8-4-4s1.8-4,4-4h7c2.2,0,4,1.8,4,4S1874.4,2263.9,1872.2,2263.9z"/>
	<path d="M2139.6,2309.6h-274.4c-2.2,0-4-1.8-4-4s1.8-4,4-4h274.4c2.2,0,4,1.8,4,4S2141.8,2309.6,2139.6,2309.6z"/>
	<path d="M2139.6,2354.7h-120.5c-2.2,0-4-1.8-4-4c0-2.2,1.8-4,4-4h120.5c2.2,0,4,1.8,4,4C2143.6,2352.9,2141.8,2354.7,2139.6,2354.7
		z"/>
	<path d="M2371.9,1027.6h-116.2c-2.2,0-4-1.8-4-4c0-2.2,1.8-4,4-4h116.2c2.2,0,4,1.8,4,4C2375.9,1025.8,2374.1,1027.6,2371.9,1027.6
		z"/>
	<path d="M2371.9,1070.6h-4.2c-2.2,0-4-1.8-4-4s1.8-4,4-4h4.2c2.2,0,4,1.8,4,4S2374.1,1070.6,2371.9,1070.6z M2346.7,1070.6h-7
		c-2.2,0-4-1.8-4-4s1.8-4,4-4h7c2.2,0,4,1.8,4,4S2348.9,1070.6,2346.7,1070.6z M2318.7,1070.6h-7c-2.2,0-4-1.8-4-4s1.8-4,4-4h7
		c2.2,0,4,1.8,4,4S2320.9,1070.6,2318.7,1070.6z M2290.7,1070.6h-7c-2.2,0-4-1.8-4-4s1.8-4,4-4h7c2.2,0,4,1.8,4,4
		S2292.9,1070.6,2290.7,1070.6z M2262.7,1070.6h-7c-2.2,0-4-1.8-4-4s1.8-4,4-4h7c2.2,0,4,1.8,4,4S2264.9,1070.6,2262.7,1070.6z"/>
	<path d="M2371.9,1113.6h-116.2c-2.2,0-4-1.8-4-4s1.8-4,4-4h116.2c2.2,0,4,1.8,4,4S2374.1,1113.6,2371.9,1113.6z"/>
	<path d="M2371.9,1156.6h-4.2c-2.2,0-4-1.8-4-4c0-2.2,1.8-4,4-4h4.2c2.2,0,4,1.8,4,4C2375.9,1154.8,2374.1,1156.6,2371.9,1156.6z
		 M2346.7,1156.6h-7c-2.2,0-4-1.8-4-4c0-2.2,1.8-4,4-4h7c2.2,0,4,1.8,4,4C2350.7,1154.8,2348.9,1156.6,2346.7,1156.6z
		 M2318.7,1156.6h-7c-2.2,0-4-1.8-4-4c0-2.2,1.8-4,4-4h7c2.2,0,4,1.8,4,4C2322.7,1154.8,2320.9,1156.6,2318.7,1156.6z
		 M2290.7,1156.6h-7c-2.2,0-4-1.8-4-4c0-2.2,1.8-4,4-4h7c2.2,0,4,1.8,4,4C2294.7,1154.8,2292.9,1156.6,2290.7,1156.6z
		 M2262.7,1156.6h-7c-2.2,0-4-1.8-4-4c0-2.2,1.8-4,4-4h7c2.2,0,4,1.8,4,4C2266.7,1154.8,2264.9,1156.6,2262.7,1156.6z"/>
	<path d="M2371.9,1199.6h-4.2c-2.2,0-4-1.8-4-4c0-2.2,1.8-4,4-4h4.2c2.2,0,4,1.8,4,4C2375.9,1197.9,2374.1,1199.6,2371.9,1199.6z
		 M2346.7,1199.6h-7c-2.2,0-4-1.8-4-4c0-2.2,1.8-4,4-4h7c2.2,0,4,1.8,4,4C2350.7,1197.9,2348.9,1199.6,2346.7,1199.6z
		 M2318.7,1199.6h-7c-2.2,0-4-1.8-4-4c0-2.2,1.8-4,4-4h7c2.2,0,4,1.8,4,4C2322.7,1197.9,2320.9,1199.6,2318.7,1199.6z
		 M2290.7,1199.6h-7c-2.2,0-4-1.8-4-4c0-2.2,1.8-4,4-4h7c2.2,0,4,1.8,4,4C2294.7,1197.9,2292.9,1199.6,2290.7,1199.6z
		 M2262.7,1199.6h-7c-2.2,0-4-1.8-4-4c0-2.2,1.8-4,4-4h7c2.2,0,4,1.8,4,4C2266.7,1197.9,2264.9,1199.6,2262.7,1199.6z"/>
	<path d="M2371.9,1242.7h-116.2c-2.2,0-4-1.8-4-4s1.8-4,4-4h116.2c2.2,0,4,1.8,4,4S2374.1,1242.7,2371.9,1242.7z"/>
	<path d="M2468,1328h-106.2c-2.2,0-4-1.8-4-4c0-2.2,1.8-4,4-4H2468c2.2,0,4,1.8,4,4C2472,1326.2,2470.3,1328,2468,1328z"/>
	<path d="M2468,1366.4h-106.2c-2.2,0-4-1.8-4-4s1.8-4,4-4H2468c2.2,0,4,1.8,4,4S2470.3,1366.4,2468,1366.4z"/>
	<path d="M2106.3,1402c-2.2,0-4-1.8-4-4v-168.4c0-8-6.5-14.5-14.5-14.5c-8,0-14.5,6.5-14.5,14.5v128.7c0,2.2-1.8,4-4,4s-4-1.8-4-4
		v-128.7c0-12.4,10.1-22.5,22.5-22.5c12.4,0,22.5,10.1,22.5,22.5V1398C2110.3,1400.2,2108.5,1402,2106.3,1402z"/>
	<path d="M2032.1,1362.2c-2.2,0-4-1.8-4-4v-63c0-12.4,10.1-22.5,22.5-22.5c12.4,0,22.5,10.1,22.5,22.5c0,2.2-1.8,4-4,4s-4-1.8-4-4
		c0-8-6.5-14.5-14.5-14.5c-8,0-14.5,6.5-14.5,14.5v63C2036.1,1360.4,2034.3,1362.2,2032.1,1362.2z"/>
	<path d="M2031,1362.2c-2.2,0-4-1.8-4-4v-63c0-8-6.5-14.5-14.5-14.5c-8,0-14.5,6.5-14.5,14.5v63c0,2.2-1.8,4-4,4c-2.2,0-4-1.8-4-4
		v-63c0-12.4,10.1-22.5,22.5-22.5c12.4,0,22.5,10.1,22.5,22.5v63C2035,1360.4,2033.2,1362.2,2031,1362.2z"/>
	<path d="M1993.9,1577c-2.2,0-4-1.8-4-4v-34.8c0-20.3-8.8-32.2-18.1-44.7c-9.3-12.5-18.9-25.5-18.9-46.8v-137.5
		c0-12.4,10.1-22.5,22.5-22.5c13.2,0,22.4,13.1,22.4,24.8c0,2.2-1.8,4-4,4c-2.2,0-4-1.8-4-4c0-7.8-6.3-16.8-14.4-16.8
		c-8,0-14.5,6.5-14.5,14.5v137.5c0,18.6,8.4,30,17.3,42c9.6,13,19.6,26.5,19.6,49.5v34.8C1997.9,1575.2,1996.1,1577,1993.9,1577z"/>
	<path d="M2093.4,1574.6L2093.4,1574.6c-2.2,0-4-1.6-4-3.8l0-32.6c-0.1-5.4-0.5-53.3,8.7-66.8c2.2-3.3,5.1-7,8.1-11
		c5.5-7.2,11.7-15.4,16.6-23.9c12.7-22.2,19.2-46.2,17-62.7c-1.4-10.6-7.5-20.5-32.9-37.4c-1.8-1.2-2.3-3.7-1.1-5.5
		c1.2-1.8,3.7-2.3,5.5-1.1c24.5,16.2,34.4,27.9,36.4,42.9c2.5,18.4-4.2,43.8-18,67.8c-5.1,8.9-11.5,17.4-17.2,24.8
		c-2.9,3.9-5.7,7.5-7.8,10.6c-4.7,6.9-7.8,33.1-7.3,62.3l0,32.6C2097.4,1573,2095.6,1574.6,2093.4,1574.6z"/>
	<path d="M2092.9,1535.6h-99c-2.2,0-4-1.8-4-4s1.8-4,4-4h99c2.2,0,4,1.8,4,4S2095.1,1535.6,2092.9,1535.6z"/>
	<path d="M2546.5,1382.6c-2.2,0-4-1.8-4-4v-185.4l-18.4,20.4c-1.5,1.6-4,1.8-5.6,0.3c-1.6-1.5-1.8-4-0.3-5.6l25.4-28.2
		c1.1-1.2,2.9-1.7,4.4-1.1c1.5,0.6,2.6,2.1,2.6,3.7v195.8C2550.5,1380.8,2548.7,1382.6,2546.5,1382.6z"/>
	<path d="M2571.2,1215c-1.1,0-2.2-0.5-3-1.4l-24.7-28.2c-1.5-1.7-1.3-4.2,0.4-5.6c1.7-1.5,4.2-1.3,5.6,0.4l24.7,28.2
		c1.5,1.7,1.3,4.2-0.4,5.6C2573,1214.7,2572.1,1215,2571.2,1215z"/>
	<path d="M2609.7,1382.6c-0.5,0-1-0.1-1.4-0.3c-1.5-0.6-2.6-2.1-2.6-3.7v-195.8c0-2.2,1.8-4,4-4s4,1.8,4,4v185.4l18.4-20.4
		c1.5-1.6,4-1.8,5.6-0.3c1.6,1.5,1.8,4,0.3,5.6l-25.4,28.2C2611.9,1382.2,2610.8,1382.6,2609.7,1382.6z"/>
	<path d="M2609.7,1382.6c-1.1,0-2.2-0.5-3-1.4l-24.7-28.2c-1.5-1.7-1.3-4.2,0.4-5.6c1.7-1.5,4.2-1.3,5.6,0.4l24.7,28.2
		c1.5,1.7,1.3,4.2-0.4,5.6C2611.5,1382.3,2610.6,1382.6,2609.7,1382.6z"/>
	<path d="M2296.8,1489.8h-29.1c-8.8,0-16-7.2-16-16v-29.1c0-8.8,7.2-16,16-16h29.1c8.8,0,16,7.2,16,16v29.1
		C2312.8,1482.6,2305.7,1489.8,2296.8,1489.8z M2267.7,1436.7c-4.4,0-8,3.6-8,8v29.1c0,4.4,3.6,8,8,8h29.1c4.4,0,8-3.6,8-8v-29.1
		c0-4.4-3.6-8-8-8H2267.7z"/>
	<path d="M2377.4,1489.8h-29.1c-8.8,0-16-7.2-16-16v-29.1c0-8.8,7.2-16,16-16h29.1c8.8,0,16,7.2,16,16v29.1
		C2393.4,1482.6,2386.2,1489.8,2377.4,1489.8z M2348.3,1436.7c-4.4,0-8,3.6-8,8v29.1c0,4.4,3.6,8,8,8h29.1c4.4,0,8-3.6,8-8v-29.1
		c0-4.4-3.6-8-8-8H2348.3z"/>
	<path d="M2458.7,1489.8h-29.1c-8.8,0-16-7.2-16-16v-29.1c0-8.8,7.2-16,16-16h29.1c8.8,0,16,7.2,16,16v29.1
		C2474.7,1482.6,2467.6,1489.8,2458.7,1489.8z M2429.6,1436.7c-4.4,0-8,3.6-8,8v29.1c0,4.4,3.6,8,8,8h29.1c4.4,0,8-3.6,8-8v-29.1
		c0-4.4-3.6-8-8-8H2429.6z"/>
	<path d="M4288.6,2592.8c-50.5,0-91.6-41.1-91.6-91.6c0-50.5,41.1-91.6,91.6-91.6s91.6,41.1,91.6,91.6
		C4380.2,2551.7,4339.1,2592.8,4288.6,2592.8z M4288.6,2417.7c-46.1,0-83.6,37.5-83.6,83.6c0,46.1,37.5,83.6,83.6,83.6
		s83.6-37.5,83.6-83.6C4372.2,2455.2,4334.7,2417.7,4288.6,2417.7z"/>
	<path d="M3946.4,2532.2c-17.1,0-31-13.9-31-31c0-17.1,13.9-31,31-31c17.1,0,31,13.9,31,31
		C3977.4,2518.3,3963.5,2532.2,3946.4,2532.2z M3946.4,2478.2c-12.7,0-23,10.3-23,23c0,12.7,10.3,23,23,23c12.7,0,23-10.3,23-23
		C3969.4,2488.6,3959,2478.2,3946.4,2478.2z"/>
	<path d="M3849.1,2532.2c-17.1,0-31-13.9-31-31c0-17.1,13.9-31,31-31s31,13.9,31,31C3880.1,2518.3,3866.1,2532.2,3849.1,2532.2z
		 M3849.1,2478.2c-12.7,0-23,10.3-23,23c0,12.7,10.3,23,23,23s23-10.3,23-23C3872.1,2488.6,3861.7,2478.2,3849.1,2478.2z"/>
	<path d="M3751.8,2532.2c-17.1,0-31-13.9-31-31c0-17.1,13.9-31,31-31c17.1,0,31,13.9,31,31
		C3782.7,2518.3,3768.8,2532.2,3751.8,2532.2z M3751.8,2478.2c-12.7,0-23,10.3-23,23c0,12.7,10.3,23,23,23c12.7,0,23-10.3,23-23
		C3774.7,2488.6,3764.4,2478.2,3751.8,2478.2z"/>
	<path d="M4825.5,2532.2c-17.1,0-31-13.9-31-31c0-17.1,13.9-31,31-31c17.1,0,31,13.9,31,31
		C4856.5,2518.3,4842.6,2532.2,4825.5,2532.2z M4825.5,2478.2c-12.7,0-23,10.3-23,23c0,12.7,10.3,23,23,23c12.7,0,23-10.3,23-23
		C4848.5,2488.6,4838.2,2478.2,4825.5,2478.2z"/>
	<path d="M4728.2,2532.2c-17.1,0-31-13.9-31-31c0-17.1,13.9-31,31-31s31,13.9,31,31C4759.2,2518.3,4745.3,2532.2,4728.2,2532.2z
		 M4728.2,2478.2c-12.7,0-23,10.3-23,23c0,12.7,10.3,23,23,23s23-10.3,23-23C4751.2,2488.6,4740.9,2478.2,4728.2,2478.2z"/>
	<path d="M4630.9,2532.2c-17.1,0-31-13.9-31-31c0-17.1,13.9-31,31-31c17.1,0,31,13.9,31,31C4661.9,2518.3,4648,2532.2,4630.9,2532.2
		z M4630.9,2478.2c-12.7,0-23,10.3-23,23c0,12.7,10.3,23,23,23c12.7,0,23-10.3,23-23C4653.9,2488.6,4643.6,2478.2,4630.9,2478.2z"/>
	<path d="M3268.1,961.7H3153c-8.3,0-15-6.7-15-15V831.7c0-8.3,6.7-15,15-15h115.1c8.3,0,15,6.7,15,15v115.1
		C3283.1,955,3276.3,961.7,3268.1,961.7z M3153,824.7c-3.9,0-7,3.1-7,7v115.1c0,3.9,3.1,7,7,7h115.1c3.9,0,7-3.1,7-7V831.7
		c0-3.9-3.1-7-7-7H3153z"/>
	<path d="M3268.1,1204.4H3153c-8.3,0-15-6.7-15-15v-115.1c0-8.3,6.7-15,15-15h115.1c8.3,0,15,6.7,15,15v115.1
		C3283.1,1197.7,3276.3,1204.4,3268.1,1204.4z M3153,1067.3c-3.9,0-7,3.1-7,7v115.1c0,3.9,3.1,7,7,7h115.1c3.9,0,7-3.1,7-7v-115.1
		c0-3.9-3.1-7-7-7H3153z"/>
	<path d="M3871.7,1059.2h-324.6c-6.3,0-11.5-5.2-11.5-11.5V828.2c0-6.3,5.2-11.5,11.5-11.5h324.6c6.3,0,11.5,5.2,11.5,11.5v219.5
		C3883.2,1054.1,3878,1059.2,3871.7,1059.2z M3547.1,824.7c-1.9,0-3.5,1.6-3.5,3.5v219.5c0,1.9,1.6,3.5,3.5,3.5h324.6
		c1.9,0,3.5-1.6,3.5-3.5V828.2c0-1.9-1.6-3.5-3.5-3.5H3547.1z"/>
	<path d="M3786.8,1007.4H3702c-2.2,0-4-1.8-4-4s1.8-4,4-4h77l-34.6-48.5l-16.6,23.3c-1.3,1.8-3.8,2.2-5.6,0.9
		c-1.8-1.3-2.2-3.8-0.9-5.6l19.9-27.9c0.8-1.1,2-1.7,3.3-1.7s2.5,0.6,3.3,1.7l42.4,59.4c0.9,1.2,1,2.8,0.3,4.2
		C3789.7,1006.5,3788.3,1007.4,3786.8,1007.4z"/>
	<path d="M3744.4,1007.4h-122c-1.5,0-2.9-0.8-3.6-2.2c-0.7-1.3-0.6-2.9,0.3-4.2l61-85.5c0.8-1.1,2-1.7,3.3-1.7s2.5,0.6,3.3,1.7
		l61,85.5c0.9,1.2,1,2.8,0.3,4.2C3747.3,1006.5,3745.9,1007.4,3744.4,1007.4z M3630.2,999.4h106.4l-53.2-74.6L3630.2,999.4z"/>
	<path d="M3740.8,2227.1c-0.6,0-1.3-0.1-1.8-0.4c-1.3-0.7-2.2-2.1-2.2-3.6v-57.4c0-1.5,0.8-2.9,2.2-3.6c1.3-0.7,2.9-0.6,4.2,0.3
		l40.2,28.7c1.1,0.8,1.7,2,1.7,3.3s-0.6,2.5-1.7,3.3l-40.2,28.7C3742.4,2226.8,3741.6,2227.1,3740.8,2227.1z M3744.8,2173.5v41.9
		l29.3-20.9L3744.8,2173.5z"/>
	<path d="M4868.1,2223h-85.8c-1.5,0-2.9-0.8-3.6-2.2c-0.7-1.3-0.6-2.9,0.3-4.2l42.9-60.1c0.8-1.1,2-1.7,3.3-1.7s2.5,0.6,3.3,1.7
		l42.9,60.1c0.9,1.2,1,2.8,0.3,4.2C4870.9,2222.1,4869.6,2223,4868.1,2223z M4790.1,2215h70.2l-35.1-49.2L4790.1,2215z"/>
	<path d="M4701.6,578.5H4554c-1.4,0-2.7-0.8-3.5-2c-0.7-1.2-0.7-2.7,0-4l73.9-130.8c0.7-1.3,2-2,3.5-2h0c1.4,0,2.8,0.8,3.5,2
		l73.7,130.8c0.7,1.2,0.7,2.8,0,4C4704.4,577.7,4703.1,578.5,4701.6,578.5z M4560.9,570.5h133.9l-66.9-118.7L4560.9,570.5z"/>
	<path d="M3777,912.4c-12.7,0-23-10.3-23-23c0-12.7,10.3-23,23-23c12.7,0,23,10.3,23,23C3800,902.1,3789.7,912.4,3777,912.4z
		 M3777,874.5c-8.3,0-15,6.7-15,15c0,8.3,6.7,15,15,15c8.3,0,15-6.7,15-15C3792,881.2,3785.3,874.5,3777,874.5z"/>
	<path d="M4289.7,1502.7h-84.8c-2.2,0-4-1.8-4-4s1.8-4,4-4h77l-34.6-48.5l-16.6,23.3c-1.3,1.8-3.8,2.2-5.6,0.9
		c-1.8-1.3-2.2-3.8-0.9-5.6l19.9-27.9c0.8-1.1,2-1.7,3.3-1.7s2.5,0.6,3.3,1.7l42.4,59.4c0.9,1.2,1,2.8,0.3,4.2
		C4292.6,1501.9,4291.2,1502.7,4289.7,1502.7z"/>
	<path d="M4247.3,1502.7h-122c-1.5,0-2.9-0.8-3.6-2.2c-0.7-1.3-0.6-2.9,0.3-4.2l61-85.5c0.8-1.1,2-1.7,3.3-1.7s2.5,0.6,3.3,1.7
		l61,85.5c0.9,1.2,1,2.8,0.3,4.2C4250.2,1501.9,4248.8,1502.7,4247.3,1502.7z M4133.1,1494.7h106.4l-53.2-74.6L4133.1,1494.7z"/>
	<path d="M4279.9,1407.8c-12.7,0-23-10.3-23-23c0-12.7,10.3-23,23-23c12.7,0,23,10.3,23,23
		C4302.9,1397.5,4292.6,1407.8,4279.9,1407.8z M4279.9,1369.9c-8.3,0-15,6.7-15,15c0,8.3,6.7,15,15,15c8.3,0,15-6.7,15-15
		C4294.9,1376.6,4288.2,1369.9,4279.9,1369.9z"/>
	<path d="M3477.4,848.9h-131.7c-2.2,0-4-1.8-4-4c0-2.2,1.8-4,4-4h131.7c2.2,0,4,1.8,4,4C3481.4,847.1,3479.6,848.9,3477.4,848.9z"/>
	<path d="M3423.6,891.2h-77.8c-2.2,0-4-1.8-4-4c0-2.2,1.8-4,4-4h77.8c2.2,0,4,1.8,4,4C3427.6,889.4,3425.8,891.2,3423.6,891.2z"/>
	<path d="M3449.9,933.5h-104.2c-2.2,0-4-1.8-4-4c0-2.2,1.8-4,4-4h104.2c2.2,0,4,1.8,4,4C3453.9,931.7,3452.1,933.5,3449.9,933.5z"/>
	<path d="M3477.4,1093.6h-131.7c-2.2,0-4-1.8-4-4s1.8-4,4-4h131.7c2.2,0,4,1.8,4,4S3479.6,1093.6,3477.4,1093.6z"/>
	<path d="M3423.6,1135.9h-77.8c-2.2,0-4-1.8-4-4c0-2.2,1.8-4,4-4h77.8c2.2,0,4,1.8,4,4C3427.6,1134.1,3425.8,1135.9,3423.6,1135.9z"
		/>
	<path d="M3449.9,1178.2h-104.2c-2.2,0-4-1.8-4-4s1.8-4,4-4h104.2c2.2,0,4,1.8,4,4S3452.1,1178.2,3449.9,1178.2z"/>
	<path d="M3872.7,1204.4h-326.5c-5.8,0-10.5-4.7-10.5-10.5v-68.7c0-5.8,4.7-10.5,10.5-10.5h326.5c5.8,0,10.5,4.7,10.5,10.5v68.7
		C3883.2,1199.7,3878.5,1204.4,3872.7,1204.4z M3546.1,1122.6c-1.4,0-2.5,1.2-2.5,2.5v68.7c0,1.4,1.2,2.5,2.5,2.5h326.5
		c1.4,0,2.5-1.2,2.5-2.5v-68.7c0-1.4-1.2-2.5-2.5-2.5H3546.1z"/>
	<path d="M3596.2,1204.4c-2.2,0-4-1.8-4-4v-81.8c0-2.2,1.8-4,4-4s4,1.8,4,4v81.8C3600.2,1202.6,3598.4,1204.4,3596.2,1204.4z"/>
	<path d="M3652.8,1204.4c-2.2,0-4-1.8-4-4v-81.8c0-2.2,1.8-4,4-4c2.2,0,4,1.8,4,4v81.8C3656.8,1202.6,3655,1204.4,3652.8,1204.4z"/>
	<path d="M3709.4,1204.4c-2.2,0-4-1.8-4-4v-81.8c0-2.2,1.8-4,4-4s4,1.8,4,4v81.8C3713.4,1202.6,3711.6,1204.4,3709.4,1204.4z"/>
	<path d="M3766,1204.4c-2.2,0-4-1.8-4-4v-81.8c0-2.2,1.8-4,4-4c2.2,0,4,1.8,4,4v81.8C3770,1202.6,3768.2,1204.4,3766,1204.4z"/>
	<path d="M3822.6,1204.4c-2.2,0-4-1.8-4-4v-81.8c0-2.2,1.8-4,4-4s4,1.8,4,4v81.8C3826.6,1202.6,3824.8,1204.4,3822.6,1204.4z"/>
	<path d="M3204,917.3c-1,0-2-0.4-2.8-1.2l-23-23c-1.6-1.6-1.6-4.1,0-5.7c1.6-1.6,4.1-1.6,5.7,0l20.2,20.2l44.5-44.5
		c1.6-1.6,4.1-1.6,5.7,0c1.6,1.6,1.6,4.1,0,5.7l-47.4,47.4C3206,916.9,3205,917.3,3204,917.3z"/>
	<path d="M3204,1159.3c-1,0-2-0.4-2.8-1.2l-23-23c-1.6-1.6-1.6-4.1,0-5.7c1.6-1.6,4.1-1.6,5.7,0l20.2,20.2l44.5-44.5
		c1.6-1.6,4.1-1.6,5.7,0c1.6,1.6,1.6,4.1,0,5.7l-47.4,47.4C3206,1158.9,3205,1159.3,3204,1159.3z"/>
	<path d="M3484.3,1013.1h-6.3c-2.2,0-4-1.8-4-4s1.8-4,4-4h6.3c2.2,0,4,1.8,4,4S3486.5,1013.1,3484.3,1013.1z M3457,1013.1h-7
		c-2.2,0-4-1.8-4-4s1.8-4,4-4h7c2.2,0,4,1.8,4,4S3459.2,1013.1,3457,1013.1z M3429,1013.1h-7c-2.2,0-4-1.8-4-4s1.8-4,4-4h7
		c2.2,0,4,1.8,4,4S3431.2,1013.1,3429,1013.1z M3401,1013.1h-7c-2.2,0-4-1.8-4-4s1.8-4,4-4h7c2.2,0,4,1.8,4,4
		S3403.2,1013.1,3401,1013.1z M3373,1013.1h-7c-2.2,0-4-1.8-4-4s1.8-4,4-4h7c2.2,0,4,1.8,4,4S3375.2,1013.1,3373,1013.1z
		 M3345,1013.1h-7c-2.2,0-4-1.8-4-4s1.8-4,4-4h7c2.2,0,4,1.8,4,4S3347.2,1013.1,3345,1013.1z M3317,1013.1h-7c-2.2,0-4-1.8-4-4
		s1.8-4,4-4h7c2.2,0,4,1.8,4,4S3319.2,1013.1,3317,1013.1z M3289,1013.1h-7c-2.2,0-4-1.8-4-4s1.8-4,4-4h7c2.2,0,4,1.8,4,4
		S3291.2,1013.1,3289,1013.1z M3261,1013.1h-7c-2.2,0-4-1.8-4-4s1.8-4,4-4h7c2.2,0,4,1.8,4,4S3263.2,1013.1,3261,1013.1z
		 M3233,1013.1h-7c-2.2,0-4-1.8-4-4s1.8-4,4-4h7c2.2,0,4,1.8,4,4S3235.2,1013.1,3233,1013.1z M3205,1013.1h-7c-2.2,0-4-1.8-4-4
		s1.8-4,4-4h7c2.2,0,4,1.8,4,4S3207.2,1013.1,3205,1013.1z M3177,1013.1h-7c-2.2,0-4-1.8-4-4s1.8-4,4-4h7c2.2,0,4,1.8,4,4
		S3179.2,1013.1,3177,1013.1z M3149,1013.1h-7c-2.2,0-4-1.8-4-4s1.8-4,4-4h7c2.2,0,4,1.8,4,4S3151.2,1013.1,3149,1013.1z"/>
	<path d="M3451.5,1760.6h-203.6c-2.2,0-4-1.8-4-4v-54c0-10.4-6.4-14.1-18.8-20.1c-19-9.3-45-22-48.2-78.7l0-0.2v-144.4
		c0-43.1,7.7-72.3,25-94.8c21.5-28,58.1-44.7,112-51.1c2.2-0.3,4.2,1.3,4.4,3.5c0.3,2.2-1.3,4.2-3.5,4.4
		c-51.6,6.1-86.5,21.8-106.6,48c-16.1,21-23.3,48.8-23.3,90v144.3c3,51.8,25.6,62.9,43.7,71.8c12,5.9,23.3,11.4,23.3,27.3v50h195.6
		l-0.6-55.1c0-1.1,0.4-2.1,1.2-2.9c0.8-0.8,1.8-1.2,2.8-1.2h0l1.1,0c10.8,0,36.1,0.1,48.6-12.5c5-5,7.4-11.4,7.3-19.6
		c-0.3-46.3,0.9-88.4,0.9-88.9c0.1-2.2,1.8-3.9,4-3.9h37.6l-37.2-78.3c-0.3-0.5-0.4-1.1-0.4-1.7v-56c0-0.2,0-0.3,0-0.5
		c0-0.4,4.2-39.9-23.5-71.8c-23-26.4-60.8-40.5-112.6-41.8c-2.2-0.1-4-1.9-3.9-4.1s1.9-3.9,4.1-3.9c54.1,1.4,94,16.4,118.5,44.6
		c29.2,33.7,25.8,73.8,25.4,77.7v54.9l39.5,83.2c0.6,1.2,0.5,2.7-0.2,3.9c-0.7,1.2-2,1.9-3.4,1.9h-40.1c-0.3,11.5-1,46.6-0.8,84.7
		c0.1,10.3-3.2,18.8-9.7,25.3c-13.7,13.8-38.4,14.8-51.4,14.8l0.6,55.1c0,1.1-0.4,2.1-1.2,2.9
		C3453.6,1760.2,3452.6,1760.6,3451.5,1760.6z"/>
	<path d="M3345.7,1606.4c-49.1,0-89-39.9-89-89c0-49.1,39.9-89,89-89s89,39.9,89,89C3434.7,1566.4,3394.8,1606.4,3345.7,1606.4z
		 M3345.7,1436.3c-44.7,0-81,36.3-81,81s36.3,81,81,81c44.7,0,81-36.3,81-81S3390.4,1436.3,3345.7,1436.3z"/>
	<path d="M3345.7,1563.8c-25.6,0-46.5-20.9-46.5-46.5c0-25.6,20.9-46.5,46.5-46.5s46.5,20.9,46.5,46.5
		C3392.2,1543,3371.4,1563.8,3345.7,1563.8z M3345.7,1478.8c-21.2,0-38.5,17.3-38.5,38.5c0,21.2,17.3,38.5,38.5,38.5
		s38.5-17.3,38.5-38.5C3384.2,1496.1,3366.9,1478.8,3345.7,1478.8z"/>
	<path d="M3376.1,1438.3c-2.2,0-4-1.8-4-4v-132.2c0-4.4-3.6-8-8-8h-36.7c-4.4,0-8,3.6-8,8v132.2c0,2.2-1.8,4-4,4s-4-1.8-4-4v-132.2
		c0-8.8,7.2-16,16-16h36.7c8.8,0,16,7.2,16,16v132.2C3380.1,1436.5,3378.3,1438.3,3376.1,1438.3z"/>
	<path d="M3345.7,1381.9c-2.2,0-4-1.8-4-4v-87.8c0-2.2,1.8-4,4-4c2.2,0,4,1.8,4,4v87.8C3349.7,1380.2,3347.9,1381.9,3345.7,1381.9z"
		/>
	<path d="M3663.9,1454.6h-7c-2.2,0-4-1.8-4-4s1.8-4,4-4h7c2.2,0,4,1.8,4,4S3666.1,1454.6,3663.9,1454.6z M3635.9,1454.6h-7
		c-2.2,0-4-1.8-4-4s1.8-4,4-4h7c2.2,0,4,1.8,4,4S3638.1,1454.6,3635.9,1454.6z M3607.9,1454.6h-7c-2.2,0-4-1.8-4-4s1.8-4,4-4h7
		c2.2,0,4,1.8,4,4S3610.1,1454.6,3607.9,1454.6z M3579.9,1454.6h-7c-2.2,0-4-1.8-4-4s1.8-4,4-4h7c2.2,0,4,1.8,4,4
		S3582.1,1454.6,3579.9,1454.6z M3551.9,1454.6h-7c-2.2,0-4-1.8-4-4s1.8-4,4-4h7c2.2,0,4,1.8,4,4S3554.1,1454.6,3551.9,1454.6z
		 M3523.9,1454.6h-7c-2.2,0-4-1.8-4-4s1.8-4,4-4h7c2.2,0,4,1.8,4,4S3526.1,1454.6,3523.9,1454.6z"/>
	<path d="M3865.4,1585.5h-174.7c-9.3,0-16.8-7.6-16.8-16.8v-231.4c0-9.3,7.6-16.8,16.8-16.8h174.7c9.3,0,16.8,7.6,16.8,16.8v231.4
		C3882.2,1577.9,3874.7,1585.5,3865.4,1585.5z M3690.7,1328.4c-4.9,0-8.8,4-8.8,8.8v231.4c0,4.9,4,8.8,8.8,8.8h174.7
		c4.9,0,8.8-4,8.8-8.8v-231.4c0-4.9-4-8.8-8.8-8.8H3690.7z"/>
	<path d="M3778,1492.8c-39.4,0-70.6-35.7-71.9-37.3c-1.3-1.5-1.3-3.7,0-5.2c1.3-1.5,32.5-37.3,71.9-37.3s70.6,35.7,71.9,37.3
		c1.3,1.5,1.3,3.7,0,5.2C3848.6,1457.1,3817.5,1492.8,3778,1492.8z M3714.6,1452.9c7.8,8,33.6,31.9,63.4,31.9
		c29.8,0,55.6-23.8,63.4-31.9c-7.8-8-33.6-31.9-63.4-31.9C3748.1,1421.1,3722.4,1444.9,3714.6,1452.9z"/>
	<path d="M3778,1479.1c-14.4,0-26.1-11.7-26.1-26.1c0-14.4,11.7-26.1,26.1-26.1s26.1,11.7,26.1,26.1
		C3804.2,1467.4,3792.4,1479.1,3778,1479.1z M3778,1434.8c-10,0-18.1,8.1-18.1,18.1c0,10,8.1,18.1,18.1,18.1
		c10,0,18.1-8.1,18.1-18.1C3796.2,1442.9,3788,1434.8,3778,1434.8z"/>
	<path d="M3594.1,1736.7h-28.7c-8.5,0-15.5-6.9-15.5-15.5v-54.2c0-8.5,6.9-15.5,15.5-15.5h28.7c2.2,0,4,1.8,4,4v77.1
		C3598.1,1734.9,3596.3,1736.7,3594.1,1736.7z M3565.4,1659.6c-4.1,0-7.5,3.4-7.5,7.5v54.2c0,4.1,3.4,7.5,7.5,7.5h24.7v-69.1H3565.4
		z"/>
	<path d="M3671.9,1768.3c-0.5,0-1-0.1-1.5-0.3l-77.5-31.8c-2-0.8-3-3.2-2.2-5.2c0.8-2,3.2-3,5.2-2.2l71.9,29.5v-128.9l-74.1,29.4
		c-2.1,0.8-4.4-0.2-5.2-2.2c-0.8-2.1,0.2-4.4,2.2-5.2l79.6-31.6c1.2-0.5,2.6-0.3,3.7,0.4c1.1,0.7,1.8,2,1.8,3.3v140.7
		c0,1.3-0.7,2.6-1.8,3.3C3673.5,1768.1,3672.7,1768.3,3671.9,1768.3z"/>
	<path d="M3675.3,1725.1c-2.2,0-4-1.8-4-4s1.8-4,4-4c12.7,0,23.1-10.4,23.1-23.1s-10.4-23.1-23.1-23.1c-2.2,0-4-1.8-4-4s1.8-4,4-4
		c17.2,0,31.1,14,31.1,31.1S3692.4,1725.1,3675.3,1725.1z"/>
	<path d="M3728.5,1725.4c-1,0-2-0.4-2.8-1.2c-1.6-1.6-1.6-4.1,0-5.7c12.7-12.7,12.7-33.3,0-46c-1.6-1.6-1.6-4.1,0-5.7
		c1.6-1.6,4.1-1.6,5.7,0c15.8,15.8,15.8,41.5,0,57.4C3730.6,1725,3729.5,1725.4,3728.5,1725.4z"/>
	<path d="M3747.3,1750.7c-1.2,0-2.3-0.5-3.1-1.5c-1.4-1.7-1.1-4.2,0.6-5.6c15.6-12.6,24-28.6,24.3-46.3c0.3-18.8-8.6-37.4-24.4-51.1
		c-1.7-1.4-1.9-4-0.4-5.6c1.4-1.7,4-1.9,5.6-0.4c17.6,15.2,27.5,36.1,27.2,57.3c-0.3,20.2-9.8,38.3-27.3,52.4
		C3749,1750.4,3748.1,1750.7,3747.3,1750.7z"/>
	<path d="M3867.6,1768.3h-25.5c-8.3,0-15.1-6.8-15.1-15.1v-110.4c0-8.3,6.8-15.1,15.1-15.1h25.5c8.3,0,15.1,6.8,15.1,15.1v110.4
		C3882.7,1761.5,3876,1768.3,3867.6,1768.3z M3842.2,1635.8c-3.9,0-7.1,3.2-7.1,7.1v110.4c0,3.9,3.2,7.1,7.1,7.1h25.5
		c3.9,0,7.1-3.2,7.1-7.1v-110.4c0-3.9-3.2-7.1-7.1-7.1H3842.2z"/>
	<path d="M3878.7,1670.8h-47.6c-2.2,0-4-1.8-4-4s1.8-4,4-4h47.6c2.2,0,4,1.8,4,4S3880.9,1670.8,3878.7,1670.8z"/>
	<path d="M3878.7,1702h-47.6c-2.2,0-4-1.8-4-4s1.8-4,4-4h47.6c2.2,0,4,1.8,4,4S3880.9,1702,3878.7,1702z"/>
	<path d="M3878.7,1733.2h-47.6c-2.2,0-4-1.8-4-4s1.8-4,4-4h47.6c2.2,0,4,1.8,4,4S3880.9,1733.2,3878.7,1733.2z"/>
	<path d="M2550.6,2150.3c-31.3,0-47-10-47.8-10.5c-1-0.6-1.6-1.6-1.8-2.8l-8.2-57.3c-0.3-2.2,1.2-4.2,3.4-4.5
		c2.2-0.3,4.2,1.2,4.5,3.4l7.9,55.4c5.4,2.8,25.6,11.5,60.7,7.2c35.7-4.4,52.7-23.6,56.7-28.6l-10.5-53.3c-0.4-2.2,1-4.3,3.1-4.7
		c2.2-0.4,4.3,1,4.7,3.1l10.9,55c0.2,1,0,2.1-0.6,2.9c-0.7,1.1-18.4,28-63.3,33.5C2563.2,2150,2556.6,2150.3,2550.6,2150.3z"/>
	<path d="M2567.2,2101.6c-0.4,0-0.7,0-1.1-0.2l-104.4-29.6c-1.5-0.4-2.6-1.7-2.9-3.3c-0.2-1.6,0.5-3.1,1.9-4l90.4-56
		c0.9-0.5,1.9-0.7,2.9-0.5l101.6,19.8c1.6,0.3,2.8,1.5,3.1,3c0.4,1.5-0.2,3.1-1.5,4.1l-87.5,65.8
		C2568.9,2101.3,2568.1,2101.6,2567.2,2101.6z M2472.6,2066.6l93.8,26.6l78.7-59.2l-91.2-17.8L2472.6,2066.6z"/>
	<path d="M2398.4,2281.2h-95.7c-5.2,0-9.5-4.2-9.5-9.5V2142c0-5.2,4.3-9.5,9.5-9.5h95.7c5.2,0,9.5,4.2,9.5,9.5v129.7
		C2407.8,2276.9,2403.6,2281.2,2398.4,2281.2z M2302.7,2140.5c-0.8,0-1.5,0.7-1.5,1.5v129.7c0,0.8,0.7,1.5,1.5,1.5h95.7
		c0.8,0,1.5-0.7,1.5-1.5V2142c0-0.8-0.7-1.5-1.5-1.5H2302.7z"/>
	<path d="M2379.5,2186.3c-0.8,0-1.5-0.2-2.2-0.6l-13.3-8.5l-13.3,8.5c-1.2,0.8-2.8,0.8-4.1,0.1c-1.3-0.7-2.1-2-2.1-3.5v-45.8
		c0-2.2,1.8-4,4-4c2.2,0,4,1.8,4,4v38.5l9.3-6c1.3-0.8,3-0.8,4.3,0l9.3,6v-38.5c0-2.2,1.8-4,4-4s4,1.8,4,4v45.8
		c0,1.5-0.8,2.8-2.1,3.5C2380.9,2186.1,2380.2,2186.3,2379.5,2186.3z"/>
	<path d="M3065.9,2517.9c-91.8,0-166.5-74.7-166.5-166.5c0-91.8,74.7-166.5,166.5-166.5c91.8,0,166.5,74.7,166.5,166.5
		C3232.4,2443.2,3157.7,2517.9,3065.9,2517.9z M3065.9,2192.9c-87.4,0-158.5,71.1-158.5,158.5c0,87.4,71.1,158.5,158.5,158.5
		c87.4,0,158.5-71.1,158.5-158.5C3224.4,2264,3153.3,2192.9,3065.9,2192.9z"/>
	<path d="M3065.9,2478.4c-70,0-127-57-127-127s57-127,127-127c70,0,127,57,127,127S3135.9,2478.4,3065.9,2478.4z M3065.9,2232.4
		c-65.6,0-119,53.4-119,119c0,65.6,53.4,119,119,119c65.6,0,119-53.4,119-119C3184.9,2285.8,3131.5,2232.4,3065.9,2232.4z"/>
	<path d="M3065.9,2378.4c-13.3,0-24-10.8-24-24c0-13.3,10.8-24,24-24c13.3,0,24,10.8,24,24
		C3089.9,2367.6,3079.1,2378.4,3065.9,2378.4z M3065.9,2338.3c-8.8,0-16,7.2-16,16c0,8.8,7.2,16,16,16c8.8,0,16-7.2,16-16
		C3081.9,2345.5,3074.7,2338.3,3065.9,2338.3z"/>
	<path d="M3065.9,2338.3c-2.2,0-4-1.8-4-4v-83.6c0-2.2,1.8-4,4-4c2.2,0,4,1.8,4,4v83.6C3069.9,2336.5,3068.1,2338.3,3065.9,2338.3z"
		/>
	<path d="M3065.9,2462.9c-2.2,0-4-1.8-4-4v-21.9c0-2.2,1.8-4,4-4c2.2,0,4,1.8,4,4v21.9C3069.9,2461.1,3068.1,2462.9,3065.9,2462.9z"
		/>
	<path d="M3170,2358.8h-21.9c-2.2,0-4-1.8-4-4c0-2.2,1.8-4,4-4h21.9c2.2,0,4,1.8,4,4C3174,2357,3172.2,2358.8,3170,2358.8z"/>
	<path d="M2983.7,2358.8h-21.9c-2.2,0-4-1.8-4-4c0-2.2,1.8-4,4-4h21.9c2.2,0,4,1.8,4,4C2987.7,2357,2985.9,2358.8,2983.7,2358.8z"/>
	<path d="M3139.5,2432.4c-1,0-2-0.4-2.8-1.2l-59.7-59.7c-1.6-1.6-1.6-4.1,0-5.7c1.6-1.6,4.1-1.6,5.7,0l59.7,59.7
		c1.6,1.6,1.6,4.1,0,5.7C3141.5,2432,3140.5,2432.4,3139.5,2432.4z"/>
	<path d="M3702,574.2c-37.5,0-68-30.5-68-68c0-37.5,30.5-68,68-68c37.5,0,68,30.5,68,68C3770,543.7,3739.5,574.2,3702,574.2z
		 M3702,446.2c-33.1,0-60,26.9-60,60s26.9,60,60,60s60-26.9,60-60S3735.1,446.2,3702,446.2z"/>
	<path d="M4005,473.5h-172.7c-2.2,0-4-1.8-4-4c0-2.2,1.8-4,4-4H4005c2.2,0,4,1.8,4,4C4009,471.7,4007.2,473.5,4005,473.5z"/>
	<path d="M3962.5,515.7h-130.2c-2.2,0-4-1.8-4-4c0-2.2,1.8-4,4-4h130.2c2.2,0,4,1.8,4,4C3966.5,513.9,3964.7,515.7,3962.5,515.7z"/>
	<path d="M4005,557.9h-4.7c-2.2,0-4-1.8-4-4s1.8-4,4-4h4.7c2.2,0,4,1.8,4,4S4007.2,557.9,4005,557.9z M3979.3,557.9h-7
		c-2.2,0-4-1.8-4-4s1.8-4,4-4h7c2.2,0,4,1.8,4,4S3981.5,557.9,3979.3,557.9z M3951.3,557.9h-7c-2.2,0-4-1.8-4-4s1.8-4,4-4h7
		c2.2,0,4,1.8,4,4S3953.5,557.9,3951.3,557.9z M3923.3,557.9h-7c-2.2,0-4-1.8-4-4s1.8-4,4-4h7c2.2,0,4,1.8,4,4
		S3925.5,557.9,3923.3,557.9z M3895.3,557.9h-7c-2.2,0-4-1.8-4-4s1.8-4,4-4h7c2.2,0,4,1.8,4,4S3897.5,557.9,3895.3,557.9z
		 M3867.3,557.9h-7c-2.2,0-4-1.8-4-4s1.8-4,4-4h7c2.2,0,4,1.8,4,4S3869.5,557.9,3867.3,557.9z M3839.3,557.9h-7c-2.2,0-4-1.8-4-4
		s1.8-4,4-4h7c2.2,0,4,1.8,4,4S3841.5,557.9,3839.3,557.9z"/>
	<path d="M4438.1,473.5h-136.7c-2.2,0-4-1.8-4-4c0-2.2,1.8-4,4-4h136.7c2.2,0,4,1.8,4,4C4442.1,471.7,4440.3,473.5,4438.1,473.5z"/>
	<path d="M4474,515.7h-172.7c-2.2,0-4-1.8-4-4c0-2.2,1.8-4,4-4H4474c2.2,0,4,1.8,4,4C4478,513.9,4476.2,515.7,4474,515.7z"/>
	<path d="M4392.3,557.9h-7c-2.2,0-4-1.8-4-4s1.8-4,4-4h7c2.2,0,4,1.8,4,4S4394.5,557.9,4392.3,557.9z M4364.3,557.9h-7
		c-2.2,0-4-1.8-4-4s1.8-4,4-4h7c2.2,0,4,1.8,4,4S4366.5,557.9,4364.3,557.9z M4336.3,557.9h-7c-2.2,0-4-1.8-4-4s1.8-4,4-4h7
		c2.2,0,4,1.8,4,4S4338.5,557.9,4336.3,557.9z M4308.3,557.9h-7c-2.2,0-4-1.8-4-4s1.8-4,4-4h7c2.2,0,4,1.8,4,4
		S4310.5,557.9,4308.3,557.9z"/>
	<path d="M4930.3,473.5h-172.7c-2.2,0-4-1.8-4-4c0-2.2,1.8-4,4-4h172.7c2.2,0,4,1.8,4,4C4934.3,471.7,4932.5,473.5,4930.3,473.5z"/>
	<path d="M4876.6,515.7h-7c-2.2,0-4-1.8-4-4c0-2.2,1.8-4,4-4h7c2.2,0,4,1.8,4,4C4880.6,513.9,4878.9,515.7,4876.6,515.7z
		 M4848.6,515.7h-7c-2.2,0-4-1.8-4-4c0-2.2,1.8-4,4-4h7c2.2,0,4,1.8,4,4C4852.6,513.9,4850.9,515.7,4848.6,515.7z M4820.6,515.7h-7
		c-2.2,0-4-1.8-4-4c0-2.2,1.8-4,4-4h7c2.2,0,4,1.8,4,4C4824.6,513.9,4822.9,515.7,4820.6,515.7z M4792.6,515.7h-7c-2.2,0-4-1.8-4-4
		c0-2.2,1.8-4,4-4h7c2.2,0,4,1.8,4,4C4796.6,513.9,4794.9,515.7,4792.6,515.7z M4764.6,515.7h-7c-2.2,0-4-1.8-4-4c0-2.2,1.8-4,4-4h7
		c2.2,0,4,1.8,4,4C4768.6,513.9,4766.9,515.7,4764.6,515.7z"/>
	<path d="M4834.9,557.9h-77.2c-2.2,0-4-1.8-4-4s1.8-4,4-4h77.2c2.2,0,4,1.8,4,4S4837.1,557.9,4834.9,557.9z"/>
	<path d="M4235,574.2h-128c-2.2,0-4-1.8-4-4v-128c0-2.2,1.8-4,4-4h128c2.2,0,4,1.8,4,4v128C4239,572.4,4237.2,574.2,4235,574.2z
		 M4111,566.2h120v-120h-120V566.2z"/>
	<path d="M2570.4,741.5h-559.2c-8.8,0-16-7.2-16-16V649c0-8.8,7.2-16,16-16h559.2c8.8,0,16,7.2,16,16v76.6
		C2586.4,734.4,2579.2,741.5,2570.4,741.5z M2011.2,641c-4.4,0-8,3.6-8,8v76.6c0,4.4,3.6,8,8,8h559.2c4.4,0,8-3.6,8-8V649
		c0-4.4-3.6-8-8-8H2011.2z"/>
	<path d="M3911,2295.3h-308c-8.8,0-16-7.2-16-16v-173c0-8.8,7.2-16,16-16h308c8.8,0,16,7.2,16,16v173
		C3927,2288.1,3919.8,2295.3,3911,2295.3z M3603,2098.2c-4.4,0-8,3.6-8,8v173c0,4.4,3.6,8,8,8h308c4.4,0,8-3.6,8-8v-173
		c0-4.4-3.6-8-8-8H3603z"/>
	<path d="M3752.3,2253.3c-33.4,0-60.5-27.2-60.5-60.5c0-33.4,27.2-60.5,60.5-60.5c33.4,0,60.5,27.2,60.5,60.5
		C3812.8,2226.1,3785.6,2253.3,3752.3,2253.3z M3752.3,2140.2c-29,0-52.5,23.6-52.5,52.5s23.6,52.5,52.5,52.5
		c29,0,52.5-23.6,52.5-52.5S3781.2,2140.2,3752.3,2140.2z"/>
	<path d="M2064,702.2c-2.2,0-4-1.8-4-4V637c0-2.2,1.8-4,4-4s4,1.8,4,4v61.2C2068,700.4,2066.2,702.2,2064,702.2z"/>
	<path d="M2128.8,702.2c-2.2,0-4-1.8-4-4V637c0-2.2,1.8-4,4-4s4,1.8,4,4v61.2C2132.8,700.4,2131,702.2,2128.8,702.2z"/>
	<path d="M2193.6,702.2c-2.2,0-4-1.8-4-4V637c0-2.2,1.8-4,4-4c2.2,0,4,1.8,4,4v61.2C2197.6,700.4,2195.8,702.2,2193.6,702.2z"/>
	<path d="M2258.4,702.2c-2.2,0-4-1.8-4-4V637c0-2.2,1.8-4,4-4c2.2,0,4,1.8,4,4v61.2C2262.4,700.4,2260.6,702.2,2258.4,702.2z"/>
	<path d="M2323.2,702.2c-2.2,0-4-1.8-4-4V637c0-2.2,1.8-4,4-4s4,1.8,4,4v61.2C2327.2,700.4,2325.4,702.2,2323.2,702.2z"/>
	<path d="M2388,702.2c-2.2,0-4-1.8-4-4V637c0-2.2,1.8-4,4-4s4,1.8,4,4v61.2C2392,700.4,2390.2,702.2,2388,702.2z"/>
	<path d="M2452.8,702.2c-2.2,0-4-1.8-4-4V637c0-2.2,1.8-4,4-4s4,1.8,4,4v61.2C2456.8,700.4,2455,702.2,2452.8,702.2z"/>
	<path d="M2517.6,702.2c-2.2,0-4-1.8-4-4V637c0-2.2,1.8-4,4-4s4,1.8,4,4v61.2C2521.6,700.4,2519.8,702.2,2517.6,702.2z"/>
	<path d="M4268.9,2140.2h-260.8c-7,0-12.7-5.7-12.7-12.7v-24.7c0-7,5.7-12.7,12.7-12.7h260.8c7,0,12.7,5.7,12.7,12.7v24.7
		C4281.6,2134.5,4275.9,2140.2,4268.9,2140.2z M4008.2,2098.2c-2.6,0-4.7,2.1-4.7,4.7v24.7c0,2.6,2.1,4.7,4.7,4.7h260.8
		c2.6,0,4.7-2.1,4.7-4.7v-24.7c0-2.6-2.1-4.7-4.7-4.7H4008.2z"/>
	<path d="M4894.5,2295.3h-138.7c-8.8,0-16-7.2-16-16v-173c0-8.8,7.2-16,16-16h138.7c8.8,0,16,7.2,16,16v173
		C4910.5,2288.1,4903.4,2295.3,4894.5,2295.3z M4755.8,2098.2c-4.4,0-8,3.6-8,8v173c0,4.4,3.6,8,8,8h138.7c4.4,0,8-3.6,8-8v-173
		c0-4.4-3.6-8-8-8H4755.8z"/>
	<path d="M4486.2,2223.8c-17.1,0-31.1-14-31.1-31.1c0-17.1,14-31.1,31.1-31.1s31.1,14,31.1,31.1
		C4517.3,2209.9,4503.4,2223.8,4486.2,2223.8z M4486.2,2169.6c-12.7,0-23.1,10.4-23.1,23.1s10.4,23.1,23.1,23.1s23.1-10.4,23.1-23.1
		S4499,2169.6,4486.2,2169.6z"/>
	<path d="M4613.4,2152.4c-17.1,0-31.1-14-31.1-31.1s14-31.1,31.1-31.1s31.1,14,31.1,31.1S4630.6,2152.4,4613.4,2152.4z
		 M4613.4,2098.2c-12.7,0-23.1,10.4-23.1,23.1c0,12.7,10.4,23.1,23.1,23.1s23.1-10.4,23.1-23.1
		C4636.5,2108.6,4626.1,2098.2,4613.4,2098.2z"/>
	<path d="M4613.4,2295.3c-17.1,0-31.1-14-31.1-31.1c0-17.1,14-31.1,31.1-31.1s31.1,14,31.1,31.1
		C4644.5,2281.3,4630.6,2295.3,4613.4,2295.3z M4613.4,2241.1c-12.7,0-23.1,10.4-23.1,23.1c0,12.7,10.4,23.1,23.1,23.1
		s23.1-10.4,23.1-23.1C4636.5,2251.4,4626.1,2241.1,4613.4,2241.1z"/>
	<path d="M4588.3,2257.9c-0.7,0-1.4-0.2-2.1-0.6l-78.6-47.7c-1.9-1.1-2.5-3.6-1.3-5.5c1.1-1.9,3.6-2.5,5.5-1.3l78.6,47.7
		c1.9,1.1,2.5,3.6,1.3,5.5C4591,2257.2,4589.7,2257.9,4588.3,2257.9z"/>
	<path d="M4509.8,2183.3c-1.4,0-2.8-0.8-3.5-2.1c-1-2-0.3-4.4,1.7-5.4l81-43.1c1.9-1,4.4-0.3,5.4,1.7c1,2,0.3,4.4-1.7,5.4l-81,43.1
		C4511,2183.1,4510.4,2183.3,4509.8,2183.3z"/>
	<path d="M4066.5,2137c-2.2,0-4-1.8-4-4v-38.8c0-2.2,1.8-4,4-4s4,1.8,4,4v38.8C4070.5,2135.2,4068.7,2137,4066.5,2137z"/>
	<path d="M4138.5,2137c-2.2,0-4-1.8-4-4v-38.8c0-2.2,1.8-4,4-4s4,1.8,4,4v38.8C4142.5,2135.2,4140.7,2137,4138.5,2137z"/>
	<path d="M4208.5,2137c-2.2,0-4-1.8-4-4v-38.8c0-2.2,1.8-4,4-4s4,1.8,4,4v38.8C4212.5,2135.2,4210.7,2137,4208.5,2137z"/>
	<path d="M4376.2,2295.3c-2.2,0-4-1.8-4-4v-1c0-2.2,1.8-4,4-4s4,1.8,4,4v1C4380.2,2293.5,4378.4,2295.3,4376.2,2295.3z
		 M4376.2,2273.2c-2.2,0-4-1.8-4-4v-7c0-2.2,1.8-4,4-4s4,1.8,4,4v7C4380.2,2271.4,4378.4,2273.2,4376.2,2273.2z M4376.2,2245.2
		c-2.2,0-4-1.8-4-4v-7c0-2.2,1.8-4,4-4s4,1.8,4,4v7C4380.2,2243.4,4378.4,2245.2,4376.2,2245.2z M4376.2,2217.2c-2.2,0-4-1.8-4-4v-7
		c0-2.2,1.8-4,4-4s4,1.8,4,4v7C4380.2,2215.4,4378.4,2217.2,4376.2,2217.2z M4376.2,2189.2c-2.2,0-4-1.8-4-4v-7c0-2.2,1.8-4,4-4
		s4,1.8,4,4v7C4380.2,2187.4,4378.4,2189.2,4376.2,2189.2z M4376.2,2161.2c-2.2,0-4-1.8-4-4v-7c0-2.2,1.8-4,4-4s4,1.8,4,4v7
		C4380.2,2159.4,4378.4,2161.2,4376.2,2161.2z M4376.2,2133.2c-2.2,0-4-1.8-4-4v-7c0-2.2,1.8-4,4-4s4,1.8,4,4v7
		C4380.2,2131.4,4378.4,2133.2,4376.2,2133.2z M4376.2,2105.2c-2.2,0-4-1.8-4-4v-7c0-2.2,1.8-4,4-4s4,1.8,4,4v7
		C4380.2,2103.4,4378.4,2105.2,4376.2,2105.2z"/>
	<path d="M4268.6,2292.5h-260.1c-7.2,0-13-5.8-13-13v-94.2c0-7.2,5.8-13,13-13h260.1c7.2,0,13,5.8,13,13v94.2
		C4281.6,2286.7,4275.7,2292.5,4268.6,2292.5z M4008.5,2180.4c-2.8,0-5,2.2-5,5v94.2c0,2.8,2.2,5,5,5h260.1c2.8,0,5-2.2,5-5v-94.2
		c0-2.8-2.2-5-5-5H4008.5z"/>
	<path d="M4277.6,2236.4h-278.1c-2.2,0-4-1.8-4-4c0-2.2,1.8-4,4-4h278.1c2.2,0,4,1.8,4,4C4281.6,2234.7,4279.8,2236.4,4277.6,2236.4
		z"/>
	<path d="M4731,1186.8c-1.5,0-3-0.9-3.7-2.4l-141-318.1l-141,318.1c-0.9,2-3.3,2.9-5.3,2c-2-0.9-2.9-3.3-2-5.3l144.7-326.3
		c0.6-1.4,2.1-2.4,3.7-2.4s3,0.9,3.7,2.4l144.7,326.3c0.9,2,0,4.4-2,5.3C4732.1,1186.7,4731.5,1186.8,4731,1186.8z"/>
	<path d="M4394.8,1606.4h-356.7c-9.7,0-17.6-7.9-17.6-17.6v-290.5c0-9.7,7.9-17.6,17.6-17.6h356.7c9.7,0,17.6,7.9,17.6,17.6v290.5
		C4412.4,1598.4,4404.5,1606.4,4394.8,1606.4z M4038.1,1288.6c-5.3,0-9.6,4.3-9.6,9.6v290.5c0,5.3,4.3,9.6,9.6,9.6h356.7
		c5.3,0,9.6-4.3,9.6-9.6v-290.5c0-5.3-4.3-9.6-9.6-9.6H4038.1z"/>
	<path d="M4674.4,1059.2h-176.2c-2.2,0-4-1.8-4-4s1.8-4,4-4h176.2c2.2,0,4,1.8,4,4S4676.6,1059.2,4674.4,1059.2z"/>
	<path d="M4216.4,824.7h-192c-2.2,0-4-1.8-4-4s1.8-4,4-4h192c2.2,0,4,1.8,4,4S4218.6,824.7,4216.4,824.7z"/>
	<path d="M4383.9,824.7h-7c-2.2,0-4-1.8-4-4s1.8-4,4-4h7c2.2,0,4,1.8,4,4S4386.1,824.7,4383.9,824.7z M4355.9,824.7h-7
		c-2.2,0-4-1.8-4-4s1.8-4,4-4h7c2.2,0,4,1.8,4,4S4358.1,824.7,4355.9,824.7z M4327.9,824.7h-7c-2.2,0-4-1.8-4-4s1.8-4,4-4h7
		c2.2,0,4,1.8,4,4S4330.1,824.7,4327.9,824.7z M4299.9,824.7h-7c-2.2,0-4-1.8-4-4s1.8-4,4-4h7c2.2,0,4,1.8,4,4
		S4302.1,824.7,4299.9,824.7z M4271.9,824.7h-7c-2.2,0-4-1.8-4-4s1.8-4,4-4h7c2.2,0,4,1.8,4,4S4274.1,824.7,4271.9,824.7z"/>
	<path d="M4216.4,870h-192c-2.2,0-4-1.8-4-4s1.8-4,4-4h192c2.2,0,4,1.8,4,4S4218.6,870,4216.4,870z"/>
	<path d="M4461.3,870h-192c-2.2,0-4-1.8-4-4s1.8-4,4-4h192c2.2,0,4,1.8,4,4S4463.5,870,4461.3,870z"/>
	<path d="M4107,919.3h-82.5c-2.2,0-4-1.8-4-4c0-2.2,1.8-4,4-4h82.5c2.2,0,4,1.8,4,4C4111,917.5,4109.2,919.3,4107,919.3z"/>
	<path d="M4216.4,964.6h-192c-2.2,0-4-1.8-4-4s1.8-4,4-4h192c2.2,0,4,1.8,4,4S4218.6,964.6,4216.4,964.6z"/>
	<path d="M4171,1009.3h-146.5c-2.2,0-4-1.8-4-4s1.8-4,4-4H4171c2.2,0,4,1.8,4,4S4173.2,1009.3,4171,1009.3z"/>
	<path d="M4090.7,1058.7h-66.2c-2.2,0-4-1.8-4-4s1.8-4,4-4h66.2c2.2,0,4,1.8,4,4S4092.9,1058.7,4090.7,1058.7z"/>
	<path d="M4143.5,1104h-7c-2.2,0-4-1.8-4-4c0-2.2,1.8-4,4-4h7c2.2,0,4,1.8,4,4C4147.5,1102.2,4145.7,1104,4143.5,1104z M4115.5,1104
		h-7c-2.2,0-4-1.8-4-4c0-2.2,1.8-4,4-4h7c2.2,0,4,1.8,4,4C4119.5,1102.2,4117.7,1104,4115.5,1104z M4087.5,1104h-7c-2.2,0-4-1.8-4-4
		c0-2.2,1.8-4,4-4h7c2.2,0,4,1.8,4,4C4091.5,1102.2,4089.7,1104,4087.5,1104z M4059.5,1104h-7c-2.2,0-4-1.8-4-4c0-2.2,1.8-4,4-4h7
		c2.2,0,4,1.8,4,4C4063.5,1102.2,4061.7,1104,4059.5,1104z M4031.5,1104h-7c-2.2,0-4-1.8-4-4c0-2.2,1.8-4,4-4h7c2.2,0,4,1.8,4,4
		C4035.5,1102.2,4033.7,1104,4031.5,1104z"/>
	<path d="M4190.8,1149h-166.3c-2.2,0-4-1.8-4-4s1.8-4,4-4h166.3c2.2,0,4,1.8,4,4S4193,1149,4190.8,1149z"/>
	<path d="M4163,1196.3h-138.5c-2.2,0-4-1.8-4-4s1.8-4,4-4H4163c2.2,0,4,1.8,4,4S4165.2,1196.3,4163,1196.3z"/>
	<path d="M4718.8,1289.1h-7c-2.2,0-4-1.8-4-4s1.8-4,4-4h7c2.2,0,4,1.8,4,4S4721,1289.1,4718.8,1289.1z M4690.8,1289.1h-7
		c-2.2,0-4-1.8-4-4s1.8-4,4-4h7c2.2,0,4,1.8,4,4S4693,1289.1,4690.8,1289.1z M4662.8,1289.1h-7c-2.2,0-4-1.8-4-4s1.8-4,4-4h7
		c2.2,0,4,1.8,4,4S4665,1289.1,4662.8,1289.1z M4634.8,1289.1h-7c-2.2,0-4-1.8-4-4s1.8-4,4-4h7c2.2,0,4,1.8,4,4
		S4637,1289.1,4634.8,1289.1z"/>
	<path d="M4760.2,1334.1h-132.4c-2.2,0-4-1.8-4-4c0-2.2,1.8-4,4-4h132.4c2.2,0,4,1.8,4,4C4764.2,1332.3,4762.4,1334.1,4760.2,1334.1
		z"/>
	<path d="M4738.1,1381.4h-110.2c-2.2,0-4-1.8-4-4s1.8-4,4-4h110.2c2.2,0,4,1.8,4,4S4740.3,1381.4,4738.1,1381.4z"/>
	<path d="M4718.8,1426.9h-7c-2.2,0-4-1.8-4-4s1.8-4,4-4h7c2.2,0,4,1.8,4,4S4721,1426.9,4718.8,1426.9z M4690.8,1426.9h-7
		c-2.2,0-4-1.8-4-4s1.8-4,4-4h7c2.2,0,4,1.8,4,4S4693,1426.9,4690.8,1426.9z M4662.8,1426.9h-7c-2.2,0-4-1.8-4-4s1.8-4,4-4h7
		c2.2,0,4,1.8,4,4S4665,1426.9,4662.8,1426.9z M4634.8,1426.9h-7c-2.2,0-4-1.8-4-4s1.8-4,4-4h7c2.2,0,4,1.8,4,4
		S4637,1426.9,4634.8,1426.9z"/>
	<path d="M4760.2,1471.9h-132.4c-2.2,0-4-1.8-4-4s1.8-4,4-4h132.4c2.2,0,4,1.8,4,4S4762.4,1471.9,4760.2,1471.9z"/>
	<path d="M4738.1,1519.2h-110.2c-2.2,0-4-1.8-4-4s1.8-4,4-4h110.2c2.2,0,4,1.8,4,4S4740.3,1519.2,4738.1,1519.2z"/>
	<path d="M4523.8,1606.4c-2.2,0-4-1.8-4-4v-158.7c0-2.2,1.8-4,4-4s4,1.8,4,4v158.7C4527.8,1604.6,4526,1606.4,4523.8,1606.4z"/>
	<path d="M4281.5,919.3h-6.5c-2.2,0-4-1.8-4-4c0-2.2,1.8-4,4-4h6.5c2.2,0,4,1.8,4,4C4285.5,917.5,4283.7,919.3,4281.5,919.3z
		 M4254,919.3h-7c-2.2,0-4-1.8-4-4c0-2.2,1.8-4,4-4h7c2.2,0,4,1.8,4,4C4258,917.5,4256.2,919.3,4254,919.3z M4226,919.3h-7
		c-2.2,0-4-1.8-4-4c0-2.2,1.8-4,4-4h7c2.2,0,4,1.8,4,4C4230,917.5,4228.2,919.3,4226,919.3z M4198,919.3h-7c-2.2,0-4-1.8-4-4
		c0-2.2,1.8-4,4-4h7c2.2,0,4,1.8,4,4C4202,917.5,4200.2,919.3,4198,919.3z M4170,919.3h-7c-2.2,0-4-1.8-4-4c0-2.2,1.8-4,4-4h7
		c2.2,0,4,1.8,4,4C4174,917.5,4172.2,919.3,4170,919.3z"/>
	<path d="M4454.5,919.3H4336c-2.2,0-4-1.8-4-4c0-2.2,1.8-4,4-4h118.5c2.2,0,4,1.8,4,4C4458.5,917.5,4456.7,919.3,4454.5,919.3z"/>
	<path d="M4390.9,964.6h-192c-2.2,0-4-1.8-4-4s1.8-4,4-4h192c2.2,0,4,1.8,4,4S4393.1,964.6,4390.9,964.6z"/>
	<path d="M4341.4,1009.3h-7c-2.2,0-4-1.8-4-4s1.8-4,4-4h7c2.2,0,4,1.8,4,4S4343.6,1009.3,4341.4,1009.3z M4313.4,1009.3h-7
		c-2.2,0-4-1.8-4-4s1.8-4,4-4h7c2.2,0,4,1.8,4,4S4315.6,1009.3,4313.4,1009.3z M4285.4,1009.3h-7c-2.2,0-4-1.8-4-4s1.8-4,4-4h7
		c2.2,0,4,1.8,4,4S4287.6,1009.3,4285.4,1009.3z M4257.4,1009.3h-7c-2.2,0-4-1.8-4-4s1.8-4,4-4h7c2.2,0,4,1.8,4,4
		S4259.6,1009.3,4257.4,1009.3z M4229.4,1009.3h-7c-2.2,0-4-1.8-4-4s1.8-4,4-4h7c2.2,0,4,1.8,4,4S4231.6,1009.3,4229.4,1009.3z"/>
	<path d="M4265.2,1058.7h-133.7c-2.2,0-4-1.8-4-4s1.8-4,4-4h133.7c2.2,0,4,1.8,4,4S4267.4,1058.7,4265.2,1058.7z"/>
	<path d="M4407.6,1058.7h-94.7c-2.2,0-4-1.8-4-4s1.8-4,4-4h94.7c2.2,0,4,1.8,4,4S4409.8,1058.7,4407.6,1058.7z"/>
	<path d="M4320.8,1104h-121.8c-2.2,0-4-1.8-4-4c0-2.2,1.8-4,4-4h121.8c2.2,0,4,1.8,4,4C4324.8,1102.2,4323,1104,4320.8,1104z"/>
	<path d="M4359.2,1149h-7c-2.2,0-4-1.8-4-4s1.8-4,4-4h7c2.2,0,4,1.8,4,4S4361.4,1149,4359.2,1149z M4331.2,1149h-7c-2.2,0-4-1.8-4-4
		s1.8-4,4-4h7c2.2,0,4,1.8,4,4S4333.4,1149,4331.2,1149z M4303.2,1149h-7c-2.2,0-4-1.8-4-4s1.8-4,4-4h7c2.2,0,4,1.8,4,4
		S4305.4,1149,4303.2,1149z M4275.2,1149h-7c-2.2,0-4-1.8-4-4s1.8-4,4-4h7c2.2,0,4,1.8,4,4S4277.4,1149,4275.2,1149z M4247.2,1149
		h-7c-2.2,0-4-1.8-4-4s1.8-4,4-4h7c2.2,0,4,1.8,4,4S4249.4,1149,4247.2,1149z"/>
	<path d="M4337.5,1196.3h-138.5c-2.2,0-4-1.8-4-4s1.8-4,4-4h138.5c2.2,0,4,1.8,4,4S4339.7,1196.3,4337.5,1196.3z"/>
	<path d="M4558.5,1381.9h-69.3c-8.8,0-16-7.2-16-16v-69.3c0-8.8,7.2-16,16-16h69.3c8.8,0,16,7.2,16,16v69.3
		C4574.5,1374.8,4567.3,1381.9,4558.5,1381.9z M4489.1,1288.6c-4.4,0-8,3.6-8,8v69.3c0,4.4,3.6,8,8,8h69.3c4.4,0,8-3.6,8-8v-69.3
		c0-4.4-3.6-8-8-8H4489.1z"/>
	<path d="M4560.1,1606.4h-72.5c-7.9,0-14.4-6.5-14.4-14.4v-142.2c0-7.9,6.5-14.4,14.4-14.4h72.5c7.9,0,14.4,6.5,14.4,14.4V1592
		C4574.5,1599.9,4568,1606.4,4560.1,1606.4z M4487.5,1443.3c-3.5,0-6.4,2.9-6.4,6.4V1592c0,3.5,2.9,6.4,6.4,6.4h72.5
		c3.5,0,6.4-2.9,6.4-6.4v-142.2c0-3.5-2.9-6.4-6.4-6.4H4487.5z"/>
	<path d="M4066.5,1766.2c-24.9,0-45.2-20.3-45.2-45.2s20.3-45.2,45.2-45.2s45.2,20.3,45.2,45.2S4091.4,1766.2,4066.5,1766.2z
		 M4066.5,1683.9c-20.5,0-37.2,16.7-37.2,37.2s16.7,37.2,37.2,37.2s37.2-16.7,37.2-37.2S4087,1683.9,4066.5,1683.9z"/>
	<path d="M4215.9,1766.2c-24.9,0-45.2-20.3-45.2-45.2s20.3-45.2,45.2-45.2s45.2,20.3,45.2,45.2S4240.8,1766.2,4215.9,1766.2z
		 M4215.9,1683.9c-20.5,0-37.2,16.7-37.2,37.2s16.7,37.2,37.2,37.2s37.2-16.7,37.2-37.2S4236.4,1683.9,4215.9,1683.9z"/>
	<path d="M4215.9,1740.9c-11,0-19.9-8.9-19.9-19.9c0-11,8.9-19.9,19.9-19.9s19.9,8.9,19.9,19.9
		C4235.8,1732,4226.8,1740.9,4215.9,1740.9z M4215.9,1709.2c-6.6,0-11.9,5.3-11.9,11.9c0,6.6,5.3,11.9,11.9,11.9
		c6.6,0,11.9-5.3,11.9-11.9C4227.8,1714.5,4222.4,1709.2,4215.9,1709.2z"/>
	<path d="M4367.3,1766.2c-24.9,0-45.2-20.3-45.2-45.2s20.3-45.2,45.2-45.2s45.2,20.3,45.2,45.2S4392.2,1766.2,4367.3,1766.2z
		 M4367.3,1683.9c-20.5,0-37.2,16.7-37.2,37.2s16.7,37.2,37.2,37.2s37.2-16.7,37.2-37.2S4387.8,1683.9,4367.3,1683.9z"/>
	<path d="M4174.7,1725.1h-67.1c-2.2,0-4-1.8-4-4s1.8-4,4-4h67.1c2.2,0,4,1.8,4,4S4176.9,1725.1,4174.7,1725.1z"/>
	<path d="M4325.2,1725.1h-67.1c-2.2,0-4-1.8-4-4s1.8-4,4-4h67.1c2.2,0,4,1.8,4,4S4327.4,1725.1,4325.2,1725.1z"/>
	<path d="M4748.2,1760.6h-259.1c-8.8,0-16-7.2-16-16v-47.2c0-8.8,7.2-16,16-16h259.1c8.8,0,16,7.2,16,16v47.2
		C4764.2,1753.4,4757,1760.6,4748.2,1760.6z M4489.1,1689.3c-4.4,0-8,3.6-8,8v47.2c0,4.4,3.6,8,8,8h259.1c4.4,0,8-3.6,8-8v-47.2
		c0-4.4-3.6-8-8-8H4489.1z"/>
	<path class="st1" d="M341.2,2197.7c0,12.3-10,22.2-22.2,22.2s-22.2-10-22.2-22.2c0-12.3,10-22.2,22.2-22.2
		S341.2,2185.5,341.2,2197.7z"/>
	<path class="st3" d="M2589.5,1843.9c0,12.3-10,22.2-22.2,22.2s-22.2-10-22.2-22.2c0-12.3,10-22.2,22.2-22.2
		S2589.5,1831.7,2589.5,1843.9z"/>
	<path class="st3" d="M2816,507.1c0,12.3-10,22.2-22.2,22.2s-22.2-10-22.2-22.2c0-12.3,10-22.2,22.2-22.2S2816,494.8,2816,507.1z"/>
	
		<ellipse transform="matrix(0.2298 -0.9732 0.9732 0.2298 -129.3076 406.9557)" class="st2" cx="192.5" cy="285.2" rx="22.2" ry="22.2"/>
</g>
</svg>
