<?xml version="1.0" encoding="UTF-8" standalone="no"?>
<svg
   xmlns:dc="http://purl.org/dc/elements/1.1/"
   xmlns:cc="http://creativecommons.org/ns#"
   xmlns:rdf="http://www.w3.org/1999/02/22-rdf-syntax-ns#"
   xmlns:svg="http://www.w3.org/2000/svg"
   xmlns="http://www.w3.org/2000/svg"
   viewBox="0 0 684.67999 433.37332"
   height="433.37332"
   width="684.67999"
   xml:space="preserve"
   id="svg2"
   version="1.1"><metadata
     id="metadata8"><rdf:RDF><cc:Work
         rdf:about=""><dc:format>image/svg+xml</dc:format><dc:type
           rdf:resource="http://purl.org/dc/dcmitype/StillImage" /></cc:Work></rdf:RDF></metadata><defs
     id="defs6"><clipPath
       id="clipPath28"
       clipPathUnits="userSpaceOnUse"><path
         id="path26"
         d="M 4891.57,3040 H 3588.73 v -780.32 h 0.11 l -0.11,-2.02 c 0,-44.73 36.26,-80.99 80.99,-80.99 18.5,0 46.45,6.1 60.09,16.54 19.33,14.81 20.9,38.23 20.9,64.45 l -0.1,2.02 h 1140.96 z" /></clipPath><linearGradient
       id="linearGradient34"
       spreadMethod="pad"
       gradientTransform="matrix(1228.11,771.103,771.103,-1228.11,3595.9,2245.32)"
       gradientUnits="userSpaceOnUse"
       y2="0"
       x2="1"
       y1="0"
       x1="0"><stop
         id="stop30"
         offset="0"
         style="stop-opacity:1;stop-color:#e9e9e7" /><stop
         id="stop32"
         offset="1"
         style="stop-opacity:1;stop-color:#ffffff" /></linearGradient><clipPath
       id="clipPath50"
       clipPathUnits="userSpaceOnUse"><path
         id="path48"
         d="M 2758.96,2044.88 H 1005.01 c 0,0 -33.248,-0.01 -33.248,-33.26 0,-29.77 0,-906.06 0,-1088.94 0,-33.25 33.248,-33.25 33.248,-33.25 h 1753.95 c 0,0 33.24,0 33.24,33.25 0,41.57 0,1047.37 0,1088.94 0,33.26 -33.24,33.26 -33.24,33.26 z" /></clipPath><linearGradient
       id="linearGradient58"
       spreadMethod="pad"
       gradientTransform="matrix(8.77028,1144.64,1144.64,-8.77028,1877.55,889.09)"
       gradientUnits="userSpaceOnUse"
       y2="0"
       x2="1"
       y1="0"
       x1="0"><stop
         id="stop52"
         offset="0"
         style="stop-opacity:1;stop-color:#e9e9e7" /><stop
         id="stop54"
         offset="0.189573"
         style="stop-opacity:1;stop-color:#ffffff" /><stop
         id="stop56"
         offset="1"
         style="stop-opacity:1;stop-color:#ffffff" /></linearGradient><clipPath
       id="clipPath98"
       clipPathUnits="userSpaceOnUse"><path
         id="path96"
         d="m 1119.78,801.309 31,29.941 335.5,324.19 h 294.57 c -5.4,-15.31 -14.22,-29.65 -26.69,-41.69 L 1461.8,831.25 1269.96,645.879 c -42.93,-41.469 -111.32,-40.297 -152.81,2.633 -41.47,42.91 -40.29,111.328 2.63,152.797 z" /></clipPath><linearGradient
       id="linearGradient106"
       spreadMethod="pad"
       gradientTransform="matrix(389.2,450.474,450.474,-389.2,1170.9,649.58)"
       gradientUnits="userSpaceOnUse"
       y2="0"
       x2="1"
       y1="0"
       x1="0"><stop
         id="stop100"
         offset="0"
         style="stop-opacity:1;stop-color:#de4c5c" /><stop
         id="stop102"
         offset="0.0473934"
         style="stop-opacity:1;stop-color:#de4c5c" /><stop
         id="stop104"
         offset="1"
         style="stop-opacity:1;stop-color:#f2595e" /></linearGradient><clipPath
       id="clipPath134"
       clipPathUnits="userSpaceOnUse"><path
         id="path132"
         d="M 2369.43,349.121 H 1794.7 l -2.13,157.938 h 355.41 c 0,0 24.94,0 24.94,24.941 0,24.93 0,224.43 0,249.371 0,24.938 -24.94,24.938 -24.94,24.938 h -498.75 c 0,0 -24.93,0 -24.93,-24.938 0,-24.941 0,-224.441 0,-249.371 0,-24.941 24.93,-24.941 24.93,-24.941 h 64.57 l -68.72,-157.938 h -174.57 -42.73 c 0,0 -48.7,0 -48.7,49.879 0,9.871 0,30.5 0,58.191 0,0.34 0,0.68 0,1.028 0,7.172 0,14.82 0,22.859 0,37.942 0,84.813 0,134.043 0,138.379 0,295.328 0,324.188 0,49.882 48.7,49.882 48.7,49.882 h 1.35 922.33 17.97 c 0,0 48.71,0 48.71,-49.882 0,-28.618 0,-185.911 0,-324.188 0,-49.34 0,-96.25 0,-134.043 0,-8.047 0,-15.699 0,-22.859 0,-0.348 0,-0.688 0,-1.028 0,-28.621 0,-49.429 0,-58.191 0,-49.879 -48.71,-49.879 -48.71,-49.879" /></clipPath><linearGradient
       id="linearGradient142"
       spreadMethod="pad"
       gradientTransform="matrix(333.879,720.196,720.196,-333.879,1703.08,247.4)"
       gradientUnits="userSpaceOnUse"
       y2="0"
       x2="1"
       y1="0"
       x1="0"><stop
         id="stop136"
         offset="0"
         style="stop-opacity:1;stop-color:#3f7380" /><stop
         id="stop138"
         offset="0.938389"
         style="stop-opacity:1;stop-color:#498398" /><stop
         id="stop140"
         offset="1"
         style="stop-opacity:1;stop-color:#498398" /></linearGradient><clipPath
       id="clipPath156"
       clipPathUnits="userSpaceOnUse"><path
         id="path154"
         d="m 1794.7,349.121 h -149.62 l 68.72,157.938 h 78.77 l 2.13,-157.938" /></clipPath><linearGradient
       id="linearGradient164"
       spreadMethod="pad"
       gradientTransform="matrix(333.879,720.196,720.196,-333.879,1703.08,247.4)"
       gradientUnits="userSpaceOnUse"
       y2="0"
       x2="1"
       y1="0"
       x1="0"><stop
         id="stop158"
         offset="0"
         style="stop-opacity:1;stop-color:#365f69" /><stop
         id="stop160"
         offset="0.938389"
         style="stop-opacity:1;stop-color:#3d6b7d" /><stop
         id="stop162"
         offset="1"
         style="stop-opacity:1;stop-color:#3d6b7d" /></linearGradient><clipPath
       id="clipPath176"
       clipPathUnits="userSpaceOnUse"><path
         id="path174"
         d="m 1979.87,698.25 h -162.52 c 0,0 -30.96,0 -30.96,-33.25 0,-33.25 0,-665 0,-665 h 224.44 c 0,0 0,631.75 0,665 0,33.25 -30.96,33.25 -30.96,33.25 z" /></clipPath><linearGradient
       id="linearGradient186"
       spreadMethod="pad"
       gradientTransform="matrix(224.438,0,0,-224.438,1786.39,349.12)"
       gradientUnits="userSpaceOnUse"
       y2="0"
       x2="1"
       y1="0"
       x1="0"><stop
         id="stop178"
         offset="0"
         style="stop-opacity:1;stop-color:#1e4056" /><stop
         id="stop180"
         offset="0.118483"
         style="stop-opacity:1;stop-color:#1e4056" /><stop
         id="stop182"
         offset="0.938389"
         style="stop-opacity:1;stop-color:#234b6b" /><stop
         id="stop184"
         offset="1"
         style="stop-opacity:1;stop-color:#234b6b" /></linearGradient></defs><g
     transform="matrix(1.3333333,0,0,-1.3333333,0,433.37333)"
     id="g10"><g
       transform="scale(0.1)"
       id="g12"><path
         id="path14"
         style="fill:#82b7ad;fill-opacity:1;fill-rule:nonzero;stroke:none"
         d="M 0,0 H 5135.11 V 3250.32 H 0 Z" /><path
         id="path16"
         style="fill:#1d4158;fill-opacity:1;fill-rule:nonzero;stroke:none"
         d="m 2734.01,0 h 33.26 v 457.191 h -33.26 V 0" /><path
         id="path18"
         style="fill:#1d4158;fill-opacity:1;fill-rule:nonzero;stroke:none"
         d="m 3623.45,0 h 33.25 v 457.191 h -33.25 V 0" /><path
         id="path20"
         style="fill:#6d9791;fill-opacity:1;fill-rule:nonzero;stroke:none"
         d="m 4887.62,2240.59 h -58.39 v 749.54 L 3589.07,3040 3526.39,2209.81 h 0.1 l -0.1,-2.03 c 0,-43.75 34.72,-79.32 78.12,-80.84 l -0.18,-0.15 H 4870.6 c 20.11,14.74 33.24,38.46 33.24,65.32 0,18.21 -6.08,34.96 -16.22,48.48" /><g
         id="g22"><g
           clip-path="url(#clipPath28)"
           id="g24"><path
             id="path36"
             style="fill:url(#linearGradient34);fill-opacity:1;fill-rule:nonzero;stroke:none"
             d="M 4891.57,3040 H 3588.73 v -780.32 h 0.11 l -0.11,-2.02 c 0,-44.73 36.26,-80.99 80.99,-80.99 18.5,0 46.45,6.1 60.09,16.54 19.33,14.81 20.9,38.23 20.9,64.45 l -0.1,2.02 H 4891.57 V 3040" /></g></g><path
         id="path38"
         style="fill:#f2595e;fill-opacity:1;fill-rule:nonzero;stroke:none"
         d="m 4966.18,2241.98 c 0,18.21 -6.07,34.96 -16.22,48.48 H 3683.69 c 10.15,-13.52 16.22,-30.27 16.22,-48.48 0,-26.85 -13.12,-50.58 -33.24,-65.31 h 1266.27 c 20.12,14.73 33.24,38.46 33.24,65.31" /><path
         id="path40"
         style="fill:#17334f;fill-opacity:1;fill-rule:nonzero;stroke:none"
         d="m 3719.07,2955.24 c 0,17.31 -14.03,31.35 -31.35,31.35 -17.31,0 -31.34,-14.04 -31.34,-31.35 0,-17.32 14.03,-31.35 31.34,-31.35 17.32,0 31.35,14.03 31.35,31.35" /><path
         id="path42"
         style="fill:#17334f;fill-opacity:1;fill-rule:nonzero;stroke:none"
         d="m 4826.85,2955.24 c 0,17.31 -14.04,31.35 -31.35,31.35 -17.32,0 -31.37,-14.04 -31.37,-31.35 0,-17.32 14.05,-31.35 31.37,-31.35 17.31,0 31.35,14.03 31.35,31.35" /><g
         id="g44"><g
           clip-path="url(#clipPath50)"
           id="g46"><path
             id="path60"
             style="fill:url(#linearGradient58);fill-opacity:1;fill-rule:nonzero;stroke:none"
             d="M 2758.96,2044.88 H 1005.01 c 0,0 -33.248,-0.01 -33.248,-33.26 0,-29.77 0,-906.06 0,-1088.94 0,-33.25 33.248,-33.25 33.248,-33.25 h 1753.95 c 0,0 33.24,0 33.24,33.25 0,41.57 0,1047.37 0,1088.94 0,33.26 -33.24,33.26 -33.24,33.26" /></g></g><path
         id="path62"
         style="fill:#e0bd50;fill-opacity:1;fill-rule:nonzero;stroke:none"
         d="M 2667.51,1920.19 H 1096.45 v -839.57 h 1571.06 v 839.57" /><path
         id="path64"
         style="fill:#c09b41;fill-opacity:1;fill-rule:nonzero;stroke:none"
         d="m 1113.08,1920.19 h -16.63 v -839.57 h 16.63 v 839.57" /><path
         id="path66"
         style="fill:#c09b41;fill-opacity:1;fill-rule:nonzero;stroke:none"
         d="M 2667.51,1920.19 H 1113.08 v -16.63 h 1554.43 v 16.63" /><path
         id="path68"
         style="fill:#c09b41;fill-opacity:1;fill-rule:nonzero;stroke:none"
         d="m 2650.89,1080.62 h 16.62 v 831.25 h -16.62 v -831.25" /><path
         id="path70"
         style="fill:#17334f;fill-opacity:1;fill-rule:nonzero;stroke:none"
         d="m 730.699,457.191 h 3042.38 v 157.93 H 730.699 Z" /><path
         id="path72"
         style="fill:#17334f;fill-opacity:1;fill-rule:nonzero;stroke:none"
         d="M 996.699,482.129 H 880.328 V 0 h 116.371 v 482.129" /><path
         id="path74"
         style="fill:#102534;fill-opacity:1;fill-rule:nonzero;stroke:none"
         d="M 996.699,457.191 H 880.328 v -133 z" /><path
         id="path76"
         style="fill:#17334f;fill-opacity:1;fill-rule:nonzero;stroke:none"
         d="m 2767.27,0 h 856.18 V 465.5 H 2767.27 V 0" /><path
         id="path78"
         style="fill:#102534;fill-opacity:1;fill-rule:nonzero;stroke:none"
         d="m 2767.27,324.191 v 133 h 856.18 z" /><path
         id="path80"
         style="fill:#f4f3f2;fill-opacity:1;fill-rule:nonzero;stroke:none"
         d="M 3315.89,249.371 H 3074.82 V 199.5 h 241.07 v 49.871" /><path
         id="path82"
         style="fill:#e0bd50;fill-opacity:1;fill-rule:nonzero;stroke:none"
         d="m 3365.76,257.68 h -66.49 v -66.489 h 66.49 v 66.489" /><path
         id="path84"
         style="fill:#e0bd50;fill-opacity:1;fill-rule:nonzero;stroke:none"
         d="m 3091.46,257.68 h -66.51 v -66.489 h 66.51 v 66.489" /><path
         id="path86"
         style="fill:#234b6b;fill-opacity:1;fill-rule:nonzero;stroke:none"
         d="m 730.699,458.219 h 3042.38 v 22.8594 H 730.699 Z" /><path
         id="path88"
         style="fill:#f2595e;fill-opacity:1;fill-rule:nonzero;stroke:none"
         d="m 2359.95,1055.68 -340.81,99.76 h -266 L 1420.64,1055.68 1470.51,665 V 0 h 839.57 v 665 l 49.87,390.68" /><path
         id="path90"
         style="fill:#f2595e;fill-opacity:1;fill-rule:nonzero;stroke:none"
         d="m 2662.26,801.309 -31,29.941 -335.5,324.19 h -294.58 c 5.4,-15.31 14.23,-29.65 26.69,-41.69 l 292.37,-282.5 191.84,-185.371 c 42.93,-41.469 111.32,-40.297 152.8,2.633 41.47,42.91 40.3,111.328 -2.62,152.797" /><g
         id="g92"><g
           clip-path="url(#clipPath98)"
           id="g94"><path
             id="path108"
             style="fill:url(#linearGradient106);fill-opacity:1;fill-rule:nonzero;stroke:none"
             d="m 1119.78,801.309 31,29.941 335.5,324.19 h 294.57 c -5.4,-15.31 -14.22,-29.65 -26.69,-41.69 L 1461.8,831.25 1269.96,645.879 c -42.93,-41.469 -111.32,-40.297 -152.81,2.633 -41.47,42.91 -40.29,111.328 2.63,152.797" /></g></g><path
         id="path110"
         style="fill:#f6dcae;fill-opacity:1;fill-rule:nonzero;stroke:none"
         d="m 2087.29,1378.38 h -392.31 v -139.82 h 392.31 v 139.82" /><path
         id="path112"
         style="fill:#f6dcae;fill-opacity:1;fill-rule:nonzero;stroke:none"
         d="m 2120.97,1490.02 c 0,-11.49 9.3,-20.78 20.78,-20.78 11.48,0 20.78,9.29 20.78,20.78 v 99.74 c 0,11.48 -9.3,20.78 -20.78,20.78 -11.48,0 -20.78,-9.3 -20.78,-20.78 v -99.74" /><path
         id="path114"
         style="fill:#f6dcae;fill-opacity:1;fill-rule:nonzero;stroke:none"
         d="m 1615.98,1490.02 c 0,-11.49 9.3,-20.78 20.78,-20.78 11.48,0 20.78,9.29 20.78,20.78 v 99.74 c 0,11.48 -9.3,20.78 -20.78,20.78 -11.48,0 -20.78,-9.3 -20.78,-20.78 v -99.74" /><path
         id="path116"
         style="fill:#361f16;fill-opacity:1;fill-rule:nonzero;stroke:none"
         d="m 2145.9,1695.57 c 0,120.13 -113.51,183.06 -253.53,183.06 -140.02,0 -253.53,-62.93 -253.53,-183.06 l 16.63,-251.97 c 0,-120.13 96.88,-217.51 236.9,-217.51 140.02,0 236.91,97.38 236.91,217.51 l 16.62,251.97" /><path
         id="path118"
         style="fill:#361f16;fill-opacity:1;fill-rule:nonzero;stroke:none"
         d="m 1948.48,1820.44 c 0,36.73 -57.68,66.5 -128.84,66.5 -71.16,0 -157.24,-71.34 -157.24,-108.07 0,-36.72 86.08,-24.94 157.24,-24.94 71.16,0 128.84,29.78 128.84,66.51" /><path
         id="path120"
         style="fill:#361f16;fill-opacity:1;fill-rule:nonzero;stroke:none"
         d="m 2129.98,1768.48 c 0,36.73 -93.72,120.54 -164.87,120.54 -71.16,0 -128.85,-29.78 -128.85,-66.51 0,-36.73 57.69,-66.5 128.85,-66.5 71.15,0 164.87,-24.25 164.87,12.47" /><path
         id="path122"
         style="fill:#f2595e;fill-opacity:1;fill-rule:nonzero;stroke:none"
         d="m 2110.58,1255.18 h -440.57 v -116.37 h 440.57 v 116.37" /><path
         id="path124"
         style="fill:#f2595e;fill-opacity:1;fill-rule:nonzero;stroke:none"
         d="M 2118.89,1255.18 H 1661.7 c 0,0 -16.62,0 -16.62,-16.62 0,-16.63 0,-24.94 0,-41.56 0,-16.63 16.62,-16.63 16.62,-16.63 h 457.19 c 0,0 16.62,0 16.62,16.63 0,16.62 0,24.93 0,41.56 0,16.62 -16.62,16.62 -16.62,16.62" /><path
         id="path126"
         style="fill:#d34952;fill-opacity:1;fill-rule:nonzero;stroke:none"
         d="m 2110.58,1180.37 h -440.57 v -8.31 h 440.57 v 8.31" /><g
         id="g128"><g
           clip-path="url(#clipPath134)"
           id="g130"><path
             id="path144"
             style="fill:url(#linearGradient142);fill-opacity:1;fill-rule:nonzero;stroke:none"
             d="M 2369.43,349.121 H 1794.7 l -2.13,157.938 h 355.41 c 0,0 24.94,0 24.94,24.941 0,24.93 0,224.43 0,249.371 0,24.938 -24.94,24.938 -24.94,24.938 h -498.75 c 0,0 -24.93,0 -24.93,-24.938 0,-24.941 0,-224.441 0,-249.371 0,-24.941 24.93,-24.941 24.93,-24.941 h 64.57 l -68.72,-157.938 h -174.57 -42.73 c 0,0 -48.7,0 -48.7,49.879 0,9.871 0,30.5 0,58.191 0,0.34 0,0.68 0,1.028 0,7.172 0,14.82 0,22.859 0,37.942 0,84.813 0,134.043 0,138.379 0,295.328 0,324.188 0,49.882 48.7,49.882 48.7,49.882 h 1.35 922.33 17.97 c 0,0 48.71,0 48.71,-49.882 0,-28.618 0,-185.911 0,-324.188 0,-49.34 0,-96.25 0,-134.043 0,-8.047 0,-15.699 0,-22.859 0,-0.348 0,-0.688 0,-1.028 0,-28.621 0,-49.429 0,-58.191 0,-49.879 -48.71,-49.879 -48.71,-49.879" /></g></g><path
         id="path146"
         style="fill:#e9e9e7;fill-opacity:1;fill-rule:nonzero;stroke:none"
         d="m 2147.98,806.309 h -498.75 c 0,0 -24.93,0 -24.93,-24.938 0,-24.941 0,-224.441 0,-249.371 0,-24.941 24.93,-24.941 24.93,-24.941 h 498.75 c 0,0 24.94,0 24.94,24.941 0,24.93 0,224.43 0,249.371 0,24.938 -24.94,24.938 -24.94,24.938" /><path
         id="path148"
         style="fill:#ffffff;fill-opacity:1;fill-rule:nonzero;stroke:none"
         d="m 2147.98,806.309 h -498.75 c 0,0 -24.93,0 -24.93,-24.938 0,-24.941 0,-224.441 0,-249.371 0,-24.91 24.88,-24.941 24.93,-24.941 v 274.312 h 498.75 V 507.059 c 0,0 24.94,0 24.94,24.941 0,24.93 0,224.43 0,249.371 0,24.938 -24.94,24.938 -24.94,24.938" /><g
         id="g150"><g
           clip-path="url(#clipPath156)"
           id="g152"><path
             id="path166"
             style="fill:url(#linearGradient164);fill-opacity:1;fill-rule:nonzero;stroke:none"
             d="m 1794.7,349.121 h -149.62 l 68.72,157.938 h 78.77 l 2.13,-157.938" /></g></g><path
         id="path168"
         style="fill:#b7b9b8;fill-opacity:1;fill-rule:nonzero;stroke:none"
         d="m 1792.57,507.059 h -78.77 l 76.41,175.601 2.36,-175.601" /><g
         id="g170"><g
           clip-path="url(#clipPath176)"
           id="g172"><path
             id="path188"
             style="fill:url(#linearGradient186);fill-opacity:1;fill-rule:nonzero;stroke:none"
             d="m 1979.87,698.25 h -162.52 c 0,0 -30.96,0 -30.96,-33.25 0,-33.25 0,-665 0,-665 h 224.44 c 0,0 0,631.75 0,665 0,33.25 -30.96,33.25 -30.96,33.25" /></g></g><path
         id="path190"
         style="fill:#444749;fill-opacity:1;fill-rule:nonzero;stroke:none"
         d="m 3542.31,1063.19 99.8,-20.91 -81.73,-390.089 -99.77,20.911 81.7,390.088" /><path
         id="path192"
         style="fill:#444749;fill-opacity:1;fill-rule:nonzero;stroke:none"
         d="m 3377.19,1350 90.76,46.41 181.44,-354.85 -90.76,-46.419 L 3377.19,1350" /><path
         id="path194"
         style="fill:#2f3132;fill-opacity:1;fill-rule:nonzero;stroke:none"
         d="m 3481.42,1068 c 12.08,57.62 68.57,94.55 126.18,82.48 57.61,-12.07 94.55,-68.57 82.47,-126.2 -12.07,-57.608 -68.57,-94.542 -126.17,-82.471 -57.63,12.082 -94.55,68.581 -82.48,126.191" /><path
         id="path196"
         style="fill:#ffffff;fill-opacity:1;fill-rule:nonzero;stroke:none"
         d="m 3520.87,1046.15 c 0,35.84 29.04,64.88 64.87,64.88 35.84,0 64.89,-29.04 64.89,-64.88 0,-35.83 -29.05,-64.88 -64.89,-64.88 -35.83,0 -64.87,29.05 -64.87,64.88" /><path
         id="path198"
         style="fill:#2f3132;fill-opacity:1;fill-rule:nonzero;stroke:none"
         d="m 3562.58,1046.15 c 0,12.8 10.37,23.17 23.16,23.17 12.8,0 23.18,-10.37 23.18,-23.17 0,-12.79 -10.38,-23.17 -23.18,-23.17 -12.79,0 -23.16,10.38 -23.16,23.17" /><path
         id="path200"
         style="fill:#ffffff;fill-opacity:1;fill-rule:nonzero;stroke:none"
         d="m 3203.63,1237.19 c -38.94,-8 -81.62,10.09 -104.6,48.42 -23.01,38.39 -18.88,84.5 6.56,115.13 l 98.04,-163.55" /><path
         id="path202"
         style="fill:#ffffff;fill-opacity:1;fill-rule:nonzero;stroke:none"
         d="m 3521.42,1445.38 -82.82,136.56 -61.35,-37.2 82.83,-136.55 61.34,37.19" /><path
         id="path204"
         style="fill:#2f3132;fill-opacity:1;fill-rule:nonzero;stroke:none"
         d="m 3484.95,1399.56 -104.4,172.22 -154.67,-61.3 -63.08,-38.24 133.2,-219.71 63.8,38.73 125.15,108.3" /><path
         id="path206"
         style="fill:#2f3132;fill-opacity:1;fill-rule:nonzero;stroke:none"
         d="m 3283.5,1105.68 c 3.09,1.66 6.23,3.06 9.24,4.86 97.56,59.16 119.43,201.46 48.85,317.86 -70.55,116.41 -206.85,162.83 -304.4,103.71 -3.02,-1.83 -5.74,-3.97 -8.61,-5.93 l 254.92,-420.5" /><path
         id="path208"
         style="fill:#2f3132;fill-opacity:1;fill-rule:nonzero;stroke:none"
         d="m 3343.71,698.539 h 345 c 19.02,0 34.49,-18.711 34.49,-41.707 0,-22.992 -15.47,-41.711 -34.49,-41.711 h -345 c -19.03,0 -34.5,18.719 -34.5,41.711 0,22.996 15.47,41.707 34.5,41.707" /><path
         id="path210"
         style="fill:#bbbdbb;fill-opacity:1;fill-rule:nonzero;stroke:none"
         d="m 4667.08,2358.3 h -124.35 v -11.05 h 124.35 v 11.05" /><path
         id="path212"
         style="fill:#bbbdbb;fill-opacity:1;fill-rule:nonzero;stroke:none"
         d="m 3951.4,2361.07 v 403.43 h 547.13 v -403.43 z m 0,469.75 h 547.13 v -49.74 H 3951.4 Z m 555.42,16.57 h -563.7 c -4.58,0 -8.29,-3.71 -8.29,-8.28 v -66.32 -420.01 c 0,-4.58 3.71,-8.3 8.29,-8.3 h 563.7 c 4.58,0 8.29,3.72 8.29,8.3 v 420.01 66.32 c 0,4.57 -3.71,8.28 -8.29,8.28" /><path
         id="path214"
         style="fill:#bbbdbb;fill-opacity:1;fill-rule:nonzero;stroke:none"
         d="m 4462.61,2822.53 c -9.16,0 -16.59,-7.43 -16.59,-16.58 0,-9.15 7.43,-16.58 16.59,-16.58 9.15,0 16.57,7.43 16.57,16.58 0,9.15 -7.42,16.58 -16.57,16.58" /><path
         id="path216"
         style="fill:#bbbdbb;fill-opacity:1;fill-rule:nonzero;stroke:none"
         d="m 4053.65,2739.63 h -55.27 v -16.58 h 55.27 v 16.58" /><path
         id="path218"
         style="fill:#bbbdbb;fill-opacity:1;fill-rule:nonzero;stroke:none"
         d="m 4114.43,2739.63 h -44.21 v -16.58 h 44.21 v 16.58" /><path
         id="path220"
         style="fill:#bbbdbb;fill-opacity:1;fill-rule:nonzero;stroke:none"
         d="m 4026.02,2651.21 h -27.64 v -16.58 h 27.64 v 16.58" /><path
         id="path222"
         style="fill:#bbbdbb;fill-opacity:1;fill-rule:nonzero;stroke:none"
         d="m 4114.43,2634.63 v 16.58 h -66.31 v -16.58 h 66.31" /><path
         id="path224"
         style="fill:#bbbdbb;fill-opacity:1;fill-rule:nonzero;stroke:none"
         d="m 4385.23,2656.73 h -49.73 v -16.58 h 49.73 v 16.58" /><path
         id="path226"
         style="fill:#bbbdbb;fill-opacity:1;fill-rule:nonzero;stroke:none"
         d="m 4379.71,2739.63 h -44.21 v -16.58 h 44.21 v 16.58" /><path
         id="path228"
         style="fill:#bbbdbb;fill-opacity:1;fill-rule:nonzero;stroke:none"
         d="m 4396.29,2723.05 h 55.26 v 16.58 h -55.26 v -16.58" /><path
         id="path230"
         style="fill:#bbbdbb;fill-opacity:1;fill-rule:nonzero;stroke:none"
         d="m 4114.43,2695.42 h -116.05 v -16.58 h 116.05 v 16.58" /><path
         id="path232"
         style="fill:#bbbdbb;fill-opacity:1;fill-rule:nonzero;stroke:none"
         d="m 4335.5,2678.84 h 116.05 v 16.58 H 4335.5 v -16.58" /><path
         id="path234"
         style="fill:#bbbdbb;fill-opacity:1;fill-rule:nonzero;stroke:none"
         d="m 4401.82,2640.15 h 49.73 v 16.58 h -49.73 v -16.58" /><path
         id="path236"
         style="fill:#bbbdbb;fill-opacity:1;fill-rule:nonzero;stroke:none"
         d="m 4097.86,2496.47 h -82.9 v 82.89 h 82.9 z m 16.57,99.47 h -116.05 v -116.05 h 116.05 v 116.05" /><path
         id="path238"
         style="fill:#bbbdbb;fill-opacity:1;fill-rule:nonzero;stroke:none"
         d="m 4263.65,2496.47 h -82.9 v 82.89 h 82.9 z m 16.58,99.47 h -116.06 v -116.05 h 116.06 v 116.05" /><path
         id="path240"
         style="fill:#bbbdbb;fill-opacity:1;fill-rule:nonzero;stroke:none"
         d="m 4352.07,2579.36 h 82.9 v -82.89 h -82.9 z m -16.57,-99.47 h 116.05 v 116.05 H 4335.5 v -116.05" /><path
         id="path242"
         style="fill:#bbbdbb;fill-opacity:1;fill-rule:nonzero;stroke:none"
         d="m 3992.85,2402.52 h 458.7 v 33.15 h -458.7 v -33.15" /><path
         id="path244"
         style="fill:#bbbdbb;fill-opacity:1;fill-rule:nonzero;stroke:none"
         d="m 4667.08,2839.11 h -124.35 v -11.06 h 124.35 v 11.06" /><path
         id="path246"
         style="fill:#bbbdbb;fill-opacity:1;fill-rule:nonzero;stroke:none"
         d="m 4611.82,2385.93 h 11.05 v 414.26 h -11.05 v -414.26" /><path
         id="path248"
         style="fill:#bbbdbb;fill-opacity:1;fill-rule:nonzero;stroke:none"
         d="m 4617.35,2828.05 -22.12,-44.21 22.12,5.53 22.1,-5.53 -22.1,44.21" /><path
         id="path250"
         style="fill:#bbbdbb;fill-opacity:1;fill-rule:nonzero;stroke:none"
         d="m 4617.35,2358.3 22.1,44.22 -22.1,-5.53 -22.12,5.53 22.12,-44.22" /><path
         id="path252"
         style="fill:#bbbdbb;fill-opacity:1;fill-rule:nonzero;stroke:none"
         d="m 3954.17,2993.85 h -11.05 v -121.58 h 11.05 v 121.58" /><path
         id="path254"
         style="fill:#bbbdbb;fill-opacity:1;fill-rule:nonzero;stroke:none"
         d="m 4512.34,2993.85 h -11.05 v -121.58 h 11.05 v 121.58" /><path
         id="path256"
         style="fill:#bbbdbb;fill-opacity:1;fill-rule:nonzero;stroke:none"
         d="M 4473.66,2944.11 H 3981.8 v -11.06 h 491.86 v 11.06" /><path
         id="path258"
         style="fill:#bbbdbb;fill-opacity:1;fill-rule:nonzero;stroke:none"
         d="m 4457.07,2960.69 5.54,-22.11 -5.54,-22.1 44.22,22.1 -44.22,22.11" /><path
         id="path260"
         style="fill:#bbbdbb;fill-opacity:1;fill-rule:nonzero;stroke:none"
         d="m 3998.38,2960.69 -5.53,-22.11 5.53,-22.1 -44.21,22.1 44.21,22.11" /><path
         id="path262"
         style="fill:#6d9791;fill-opacity:1;fill-rule:nonzero;stroke:none"
         d="m 135.105,2178.34 v -610 h 600 v 740 h -600 v -130" /><path
         id="path264"
         style="fill:#6d9791;fill-opacity:1;fill-rule:nonzero;stroke:none"
         d="m 3935.11,1818.34 v -740 h 600 v 740 h -600" /><path
         id="path266"
         style="fill:#6d9791;fill-opacity:1;fill-rule:nonzero;stroke:none"
         d="m 1135.11,2858.34 v -610 h 600 v 740 h -600 v -130" /><path
         id="path268"
         style="fill:#6d9791;fill-opacity:1;fill-rule:nonzero;stroke:none"
         d="m 2405.11,2858.34 v -610 h 600 v 740 h -600 v -130" /><path
         id="path270"
         style="fill:#f3f9f8;fill-opacity:1;fill-rule:nonzero;stroke:none"
         d="m 765.105,2338.34 h -600 v -740 h 600 v 740" /><path
         id="path272"
         style="fill:#767a7c;fill-opacity:1;fill-rule:nonzero;stroke:none"
         d="m 765.105,2338.34 h -600 v -130 h 600 v 130" /><path
         id="path274"
         style="fill:#f3f9f8;fill-opacity:1;fill-rule:nonzero;stroke:none"
         d="m 265.105,2273.34 c 0,19.33 -15.667,35 -35,35 -19.328,0 -35,-15.67 -35,-35 0,-19.33 15.672,-35 35,-35 19.333,0 35,15.67 35,35" /><path
         id="path276"
         style="fill:#f3f9f8;fill-opacity:1;fill-rule:nonzero;stroke:none"
         d="m 375.105,2273.34 c 0,19.33 -15.667,35 -35,35 -19.328,0 -35,-15.67 -35,-35 0,-19.33 15.672,-35 35,-35 19.333,0 35,15.67 35,35" /><path
         id="path278"
         style="fill:#f3f9f8;fill-opacity:1;fill-rule:nonzero;stroke:none"
         d="m 735.105,2273.34 c 0,19.33 -15.667,35 -35,35 -19.328,0 -35,-15.67 -35,-35 0,-19.33 15.672,-35 35,-35 19.333,0 35,15.67 35,35" /><path
         id="path280"
         style="fill:#a5a8a6;fill-opacity:1;fill-rule:nonzero;stroke:none"
         d="m 715.105,2118.34 h -500 v -40 h 500 v 40" /><path
         id="path282"
         style="fill:#a5a8a6;fill-opacity:1;fill-rule:nonzero;stroke:none"
         d="m 715.105,1858.34 h -500 v -40 h 500 v 40" /><path
         id="path284"
         style="fill:#f2595e;fill-opacity:1;fill-rule:nonzero;stroke:none"
         d="m 355.105,2038.34 h -140 v -140 h 140 v 140" /><path
         id="path286"
         style="fill:#f2595e;fill-opacity:1;fill-rule:nonzero;stroke:none"
         d="m 715.105,2038.34 h -140 v -140 h 140 v 140" /><path
         id="path288"
         style="fill:#f2595e;fill-opacity:1;fill-rule:nonzero;stroke:none"
         d="m 535.105,2038.34 h -140 v -140 h 140 v 140" /><path
         id="path290"
         style="fill:#f2595e;fill-opacity:1;fill-rule:nonzero;stroke:none"
         d="m 445.105,1778.34 h -230 v -90 h 230 v 90" /><path
         id="path292"
         style="fill:#f2595e;fill-opacity:1;fill-rule:nonzero;stroke:none"
         d="m 485.105,1778.34 v -90 h 230 v 90 h -230" /><path
         id="path294"
         style="fill:#f3f9f8;fill-opacity:1;fill-rule:nonzero;stroke:none"
         d="m 4565.11,1848.34 h -600 v -740 h 600 v 740" /><path
         id="path296"
         style="fill:#767a7c;fill-opacity:1;fill-rule:nonzero;stroke:none"
         d="m 4565.11,1848.34 h -600 v -130 h 600 v 130" /><path
         id="path298"
         style="fill:#f3f9f8;fill-opacity:1;fill-rule:nonzero;stroke:none"
         d="m 4065.11,1783.34 c 0,19.33 -15.67,35 -35,35 -19.34,0 -35,-15.67 -35,-35 0,-19.33 15.66,-35 35,-35 19.33,0 35,15.67 35,35" /><path
         id="path300"
         style="fill:#f3f9f8;fill-opacity:1;fill-rule:nonzero;stroke:none"
         d="m 4175.11,1783.34 c 0,19.33 -15.67,35 -35,35 -19.34,0 -35,-15.67 -35,-35 0,-19.33 15.66,-35 35,-35 19.33,0 35,15.67 35,35" /><path
         id="path302"
         style="fill:#f3f9f8;fill-opacity:1;fill-rule:nonzero;stroke:none"
         d="m 4535.11,1783.34 c 0,19.33 -15.67,35 -35,35 -19.34,0 -35,-15.67 -35,-35 0,-19.33 15.66,-35 35,-35 19.33,0 35,15.67 35,35" /><path
         id="path304"
         style="fill:#f2595e;fill-opacity:1;fill-rule:nonzero;stroke:none"
         d="m 4515.11,1658.34 h -500 v -200 h 500 v 200" /><path
         id="path306"
         style="fill:#f2595e;fill-opacity:1;fill-rule:nonzero;stroke:none"
         d="m 4155.11,1418.34 h -140 v -140 h 140 v 140" /><path
         id="path308"
         style="fill:#a5a8a6;fill-opacity:1;fill-rule:nonzero;stroke:none"
         d="m 4335.11,1418.34 h -140 v -140 h 140 v 140" /><path
         id="path310"
         style="fill:#f2595e;fill-opacity:1;fill-rule:nonzero;stroke:none"
         d="m 4515.11,1418.34 h -140 v -140 h 140 v 140" /><path
         id="path312"
         style="fill:#f2595e;fill-opacity:1;fill-rule:nonzero;stroke:none"
         d="m 4415.11,1238.34 h -300 v -40 h 300 v 40" /><path
         id="path314"
         style="fill:#f3f9f8;fill-opacity:1;fill-rule:nonzero;stroke:none"
         d="m 1765.11,3018.34 h -600 v -740 h 600 v 740" /><path
         id="path316"
         style="fill:#767a7c;fill-opacity:1;fill-rule:nonzero;stroke:none"
         d="m 1765.11,3018.34 h -600 v -130 h 600 v 130" /><path
         id="path318"
         style="fill:#f3f9f8;fill-opacity:1;fill-rule:nonzero;stroke:none"
         d="m 1265.11,2953.34 c 0,19.33 -15.67,35 -35,35 -19.34,0 -35,-15.67 -35,-35 0,-19.33 15.66,-35 35,-35 19.33,0 35,15.67 35,35" /><path
         id="path320"
         style="fill:#f3f9f8;fill-opacity:1;fill-rule:nonzero;stroke:none"
         d="m 1375.11,2953.34 c 0,19.33 -15.67,35 -35,35 -19.34,0 -35,-15.67 -35,-35 0,-19.33 15.66,-35 35,-35 19.33,0 35,15.67 35,35" /><path
         id="path322"
         style="fill:#f3f9f8;fill-opacity:1;fill-rule:nonzero;stroke:none"
         d="m 1735.11,2953.34 c 0,19.33 -15.67,35 -35,35 -19.34,0 -35,-15.67 -35,-35 0,-19.33 15.66,-35 35,-35 19.33,0 35,15.67 35,35" /><path
         id="path324"
         style="fill:#dbdcd9;fill-opacity:1;fill-rule:nonzero;stroke:none"
         d="m 1501.32,2796.38 -286.17,0.06 -0.04,-218.05 286.16,-0.05 0.05,218.04" /><path
         id="path326"
         style="fill:#575a5b;fill-opacity:1;fill-rule:nonzero;stroke:none"
         d="m 1412.74,2735.08 -68.17,-136.27 136.28,-0.03 z" /><path
         id="path328"
         style="fill:#575a5b;fill-opacity:1;fill-rule:nonzero;stroke:none"
         d="m 1303.7,2687.39 -68.16,-88.55 136.28,-0.03 z" /><path
         id="path330"
         style="fill:#f2595e;fill-opacity:1;fill-rule:nonzero;stroke:none"
         d="m 1310.53,2748.73 c 0,18.81 -15.25,34.07 -34.07,34.07 -18.81,0.01 -34.07,-15.25 -34.07,-34.06 0,-18.82 15.25,-34.07 34.06,-34.07 18.82,-0.01 34.08,15.24 34.08,34.06" /><path
         id="path332"
         style="fill:#a5a8a6;fill-opacity:1;fill-rule:nonzero;stroke:none"
         d="m 1715.11,2798.34 h -170 v -40 h 170 v 40" /><path
         id="path334"
         style="fill:#a5a8a6;fill-opacity:1;fill-rule:nonzero;stroke:none"
         d="m 1715.11,2708.34 h -170 v -40 h 170 v 40" /><path
         id="path336"
         style="fill:#a5a8a6;fill-opacity:1;fill-rule:nonzero;stroke:none"
         d="m 1715.11,2618.34 h -170 v -40 h 170 v 40" /><path
         id="path338"
         style="fill:#f2595e;fill-opacity:1;fill-rule:nonzero;stroke:none"
         d="m 1715.11,2538.34 h -500 v -40 h 500 v 40" /><path
         id="path340"
         style="fill:#a5a8a6;fill-opacity:1;fill-rule:nonzero;stroke:none"
         d="m 1375.11,2458.34 h -160 v -90 h 160 v 90" /><path
         id="path342"
         style="fill:#a5a8a6;fill-opacity:1;fill-rule:nonzero;stroke:none"
         d="m 1715.11,2458.34 h -300 v -90 h 300 v 90" /><path
         id="path344"
         style="fill:#f3f9f8;fill-opacity:1;fill-rule:nonzero;stroke:none"
         d="m 3035.11,3018.34 h -600 v -740 h 600 v 740" /><path
         id="path346"
         style="fill:#767a7c;fill-opacity:1;fill-rule:nonzero;stroke:none"
         d="m 3035.11,3018.34 h -600 v -130 h 600 v 130" /><path
         id="path348"
         style="fill:#f3f9f8;fill-opacity:1;fill-rule:nonzero;stroke:none"
         d="m 2535.11,2953.34 c 0,19.33 -15.67,35 -35,35 -19.34,0 -35,-15.67 -35,-35 0,-19.33 15.66,-35 35,-35 19.33,0 35,15.67 35,35" /><path
         id="path350"
         style="fill:#f3f9f8;fill-opacity:1;fill-rule:nonzero;stroke:none"
         d="m 2645.11,2953.34 c 0,19.33 -15.67,35 -35,35 -19.34,0 -35,-15.67 -35,-35 0,-19.33 15.66,-35 35,-35 19.33,0 35,15.67 35,35" /><path
         id="path352"
         style="fill:#f3f9f8;fill-opacity:1;fill-rule:nonzero;stroke:none"
         d="m 3005.11,2953.34 c 0,19.33 -15.67,35 -35,35 -19.34,0 -35,-15.67 -35,-35 0,-19.33 15.66,-35 35,-35 19.33,0 35,15.67 35,35" /><path
         id="path354"
         style="fill:#f2595e;fill-opacity:1;fill-rule:nonzero;stroke:none"
         d="m 2615.11,2828.34 h -130 v -50 h 130 v 50" /><path
         id="path356"
         style="fill:#a5a8a6;fill-opacity:1;fill-rule:nonzero;stroke:none"
         d="m 2985.11,2828.34 h -330 v -50 h 330 v 50" /><path
         id="path358"
         style="fill:#f2595e;fill-opacity:1;fill-rule:nonzero;stroke:none"
         d="m 2615.11,2738.34 h -130 v -50 h 130 v 50" /><path
         id="path360"
         style="fill:#a5a8a6;fill-opacity:1;fill-rule:nonzero;stroke:none"
         d="m 2985.11,2738.34 h -330 v -50 h 330 v 50" /><path
         id="path362"
         style="fill:#f2595e;fill-opacity:1;fill-rule:nonzero;stroke:none"
         d="m 2615.11,2648.34 h -130 v -50 h 130 v 50" /><path
         id="path364"
         style="fill:#a5a8a6;fill-opacity:1;fill-rule:nonzero;stroke:none"
         d="m 2985.11,2648.34 h -330 v -50 h 330 v 50" /><path
         id="path366"
         style="fill:#f2595e;fill-opacity:1;fill-rule:nonzero;stroke:none"
         d="m 2985.11,2408.34 h -500 v -40 h 500 v 40" /><path
         id="path368"
         style="fill:#a5a8a6;fill-opacity:1;fill-rule:nonzero;stroke:none"
         d="m 2985.11,2558.34 h -500 v -110 h 500 v 110" /></g></g></svg>