<?xml version="1.0" encoding="utf-8"?>
<!-- Generator: Adobe Illustrator 22.1.0, SVG Export Plug-In . SVG Version: 6.00 Build 0)  -->
<svg version="1.1" xmlns="http://www.w3.org/2000/svg" xmlns:xlink="http://www.w3.org/1999/xlink" x="0px" y="0px"
	 viewBox="0 0 353 330" style="enable-background:new 0 0 353 330;" xml:space="preserve">
<style type="text/css">
	.st0{fill:#C7E6FE;}
	.st1{fill:#FFFFFF;}
	.st2{fill:#6B50C7;}
	.st3{opacity:0.3;fill:#A8BCFF;}
	.st4{fill:#2E3054;}
	.st5{fill:#5C75C3;}
	.st6{fill:#97B8DA;}
	.st7{fill:#7AB6F6;}
	.st8{fill:#B0BCD8;}
	.st9{opacity:0.3;fill:#FFFFFF;}
	.st10{opacity:0.3;fill:#DA97B8;}
	.st11{fill:#D6F0FE;}
	.st12{opacity:0.2;fill:#DA97B8;}
	.st13{fill:#BFD4F8;}
	.st14{fill:#FA7071;}
	.st15{fill:#3D4166;}
	.st16{fill:#364E57;}
	.st17{fill:#FA9A95;}
	.st18{fill:#FFC5C0;}
	.st19{fill:#DA97B8;}
	.st20{fill:#F5B29C;}
	.st21{fill:#DF5244;}
	.st22{fill:#B9B3C0;}
	.st23{fill:#0B1238;}
	.st24{fill:#312555;}
	.st25{fill:#505B7A;}
	.st26{fill:#3D5278;}
	.st27{fill:#F59C6F;}
	.st28{opacity:0.4;fill:#FFFFFF;}
	.st29{fill:#C34135;}
	.st30{fill:#A32B18;}
	.st31{fill:#F3A9B8;}
	.st32{fill:#2A2B7C;}
</style>
<g id="Layer_1">
	<rect class="st0" width="353" height="330"/>
	
		<image style="overflow:visible;" width="1413" height="1231" xlink:href="BE9974769CECD4DA.png"  transform="matrix(0.24 0 0 0.24 -2.707979e-03 18.44)">
	</image>
	<rect class="st1" width="353" height="330"/>
</g>
<g id="Layer_2">
	<path class="st2" d="M353,0h-74.8c-7.3,4.1-12.3,11.9-21,13.9c-8.8,2-21.5-2-31.2-0.9c-24.9,2.8-60.9,20.7-61.7,50
		c-11.2-5-22.7-8-34.2-8.9c-21.9-1.8-47.8,5.6-67.3,16c-19.2,10.3-32.2,30.3-38.6,51.2c-3.9,12.6-4.8,26.7-3.7,40.1
		c2.1,25.5,23.4,59.4,14.1,84.4C30,258,19.9,266.8,13.5,278c-6,10.4-9.1,24.2-4.1,35.8c3.8,9,11.6,14.2,20.2,16.2H353V0z"/>
	<path class="st3" d="M158.1,246.2c0,0.8-9.9,1.5-22.2,1.5c-12.2,0-22.2-0.7-22.2-1.5c0-0.8,9.9-1.5,22.2-1.5
		C148.2,244.7,158.1,245.3,158.1,246.2z"/>
	<g>
		<path class="st4" d="M150,258c1.3-2.5,3.4-3.8,2.5-7.1c-0.3-1.3-1.3-2.1-1.8-3.3c-0.6-1.4-0.1-1.7,0.1-3.3c0.4-3.3-1.7-4-2.9-6.5
			c-0.8-1.8-0.6-3.8-1.7-5.7c-1.1-1.9-3.2-3.6-3.7-5.8c-0.3,4-2.8,10,0.2,13.4c-1.8,1.2-2.2,3.6-1.3,5.5c0.4,0.9,1.7,1.6,2,2.5
			c0.3,1.3-0.5,1.3-0.6,2.5c-0.3,3.6,10.1,8.7,7.4,12.4L150,258z"/>
		<g>
			<path class="st1" d="M143.9,234.3c-1-0.4-1.7-0.8-2.4-1.3c0-0.1,0-0.2,0-0.3c0.7,0.6,1.4,1,2.3,1.3c-0.1-0.5-0.2-1-0.2-1.5
				c-0.1-0.4-0.1-0.9-0.2-1.3c-0.1-0.4-0.1-0.8-0.2-1.2c-0.1-0.3-0.1-0.7-0.2-1c0-0.2-0.1-0.5-0.1-0.7c-0.1-0.5-0.2-1.1-0.3-1.6
				c0-0.1,0-0.1,0-0.2c0.1,0.5,0.2,0.9,0.4,1.3c0,0.2,0.1,0.3,0.1,0.4c0.1,0.3,0.1,0.5,0.1,0.7c0.1,0.3,0.1,0.7,0.2,1
				c0.1,0.4,0.2,0.8,0.2,1.2c0.1,0.4,0.1,0.9,0.2,1.3c0.2,1.1,0.3,2.2,0.5,3.3c1-0.6,1.4-2.3,1.6-3.8c0.1,0.1,0.2,0.2,0.2,0.4
				c-0.2,1.5-0.7,3.2-1.8,3.7c0,0.1,0,0.2,0.1,0.4c0.2,1.1,0.5,2.1,0.8,3.1c0.9-1.1,1.6-2.4,2-3.7c0,0.2,0.1,0.4,0.1,0.6
				c-0.4,1.2-1.1,2.4-2,3.4c0.3,0.9,0.5,1.8,0.8,2.6c0,0.1,0,0.1,0,0.1c0.1,0.2,0.2,0.5,0.2,0.7c0.2-0.3,0.5-0.6,0.7-0.9
				c0.3-0.3,0.5-0.6,0.7-0.9c0.5-0.7,0.7-1.4,0.9-2.1c0.1,0.1,0.1,0.2,0.2,0.3c-0.2,0.7-0.4,1.3-0.8,2c-0.2,0.3-0.5,0.6-0.8,0.9
				c-0.3,0.3-0.6,0.7-0.8,1l-0.1,0c0.3,1.1,0.7,2.2,1,3.4c0,0.1,0,0.1,0,0.2c0.2-0.4,0.6-0.8,1-1.2c0.2-0.2,0.5-0.5,0.6-0.7
				c0.6-0.8,1.2-1.8,1.5-2.7c0,0.2,0.1,0.4,0.1,0.5c-0.4,0.8-0.9,1.6-1.4,2.4c-0.1,0.2-0.4,0.5-0.6,0.7c-0.5,0.5-1,1.1-1.1,1.5
				c0.5,1.8,1,3.7,1.5,5.6c0.4,1.4,0.6,2.8,0.8,4.2c0,0.1,0,0.2,0,0.3c-0.1,0.1-0.1,0.2-0.2,0.3l0.1,1.1c-0.1-0.6-0.2-1.1-0.2-1.7
				c-0.2-1.4-0.4-2.8-0.8-4.2c-0.5-1.9-1.1-3.8-1.5-5.6c-0.1-0.2-0.1-0.4-0.2-0.6c-0.1-0.4-0.2-0.8-0.3-1.2
				c-0.5-0.2-1.2-0.3-1.8-0.4c-0.5-0.1-1-0.1-1.4-0.2c-1.1-0.3-1.9-0.8-2.6-1.3c0-0.1,0-0.2,0-0.4c0.8,0.6,1.6,1.1,2.8,1.4
				c0.4,0.1,0.9,0.2,1.4,0.2c0.6,0.1,1.2,0.2,1.7,0.3c-0.3-0.9-0.6-1.9-0.8-2.8c-0.3-0.2-0.6-0.2-1-0.3c-0.3,0-0.6-0.1-0.8-0.2
				c-0.6-0.2-1.7-0.6-2.4-1.3c0.1-0.1,0.1-0.2,0.2-0.2c0.6,0.6,1.4,1,2.3,1.3c0.2,0.1,0.5,0.1,0.8,0.2c0.3,0.1,0.6,0.1,0.8,0.2
				c-0.4-1.4-0.9-2.8-1.2-4.2c-0.1,0-0.2,0-0.3,0c-0.9-0.1-2-0.5-2.9-1c0-0.1,0-0.3-0.1-0.4c0.9,0.7,2.3,1.1,3.2,1.1
				c-0.1-0.5-0.2-0.9-0.3-1.4C144.1,235.7,144,235,143.9,234.3z"/>
			<path class="st1" d="M150.2,260.3c0-0.2-0.1-0.4-0.1-0.6c0.1,0.2,0.2,0.4,0.3,0.6L150.2,260.3z"/>
		</g>
		<path class="st5" d="M131.6,241.8c2.7,1.6,10.5,0.8,9.5,5.7c3.6-0.5,4.7,0.9,4.5,4.3c0-0.4,1.3-0.1,1.5,0c0.3,0.2,0.7,0.8,0.9,1.1
			c0.6,1,0.6,2.2,0.8,3.3c0.2,1.3,0.5,2.7,0.8,4c-2.3-2.8-10.6-2.7-9.2-6.2c-1.3,0.2-3.7,0.6-4.7-0.5c-1.3-1.3,0.2-2.7,1.4-3.4
			c-5-0.6-4.5-2.8-3.8-5.3l-0.9-1.1C132.1,243.2,131.8,242.5,131.6,241.8z"/>
		<g>
			<g>
				<path class="st6" d="M150.2,261c6.8-4.2,6.8-21.2,6.8-21.3l-0.2,0c0,0.2,0,17-6.7,21.2L150.2,261z"/>
			</g>
			<g>
				<path class="st6" d="M152.5,258.4c0,0.1-0.9-4-2.7-3.7C148,255,152.5,258.5,152.5,258.4L152.5,258.4z"/>
			</g>
			<g>
				<path class="st6" d="M153.9,256.3c0,0-1.8-4.6-3.2-3.7C149.4,253.5,153.9,256.3,153.9,256.3z"/>
			</g>
			<g>
				<path class="st6" d="M154.9,253.6c0,0-2.2-4.9-4-3.7C149.6,250.9,154.9,253.6,154.9,253.6z"/>
			</g>
			<g>
				<path class="st6" d="M156,249c0,0-1.7-4.8-3.1-3.6C151.5,246.6,156,249,156,249z"/>
			</g>
			<g>
				<path class="st6" d="M155.7,250.8c0,0-2.9-4.3-3.8-2.8C151.2,249,155.7,250.8,155.7,250.8z"/>
			</g>
			<g>
				<path class="st6" d="M156.4,245.8c0,0-2-5.3-3.3-3.9C151.8,243.3,156.4,245.8,156.4,245.8z"/>
			</g>
			<g>
				<path class="st6" d="M156.6,242.4c0,0-1.2-4.6-1.9-3.2C154,240.5,156.6,242.4,156.6,242.4z"/>
			</g>
			<g>
				<path class="st6" d="M156.9,241.1c0,0,1.8-4.2,0.4-4.2C155.9,236.9,156.9,241.1,156.9,241.1z"/>
			</g>
			<g>
				<path class="st6" d="M156.6,242.4c0,0,4.3-1.3,3.1-2.5C158.5,238.7,156.6,242.4,156.6,242.4z"/>
			</g>
			<g>
				<path class="st6" d="M156.6,245c0,0,5-1.4,4.4-3.1C160.4,240.2,156.6,245,156.6,245z"/>
			</g>
			<g>
				<path class="st6" d="M156,247.6c0,0,6.7-1.6,5.6-3.3C160.6,242.6,156,247.6,156,247.6z"/>
			</g>
			<g>
				<path class="st6" d="M155.6,250.2c0,0,7.5-0.8,7-2.8C162,245.3,155.6,250.2,155.6,250.2z"/>
			</g>
			<g>
				<path class="st6" d="M154.5,254.4c0,0,6.7-2.5,7.2-0.6C162.3,255.6,154.5,254.4,154.5,254.4z"/>
			</g>
			<g>
				<path class="st6" d="M155.5,251.8c0,0,5.5-3.1,6.2-1.3C162.4,252.4,155.5,251.8,155.5,251.8z"/>
			</g>
			<g>
				<path class="st6" d="M154,255.9c0,0,6-1.5,5.6,0.5c-0.4,2-5.7-0.1-5.7-0.1L154,255.9z"/>
			</g>
		</g>
		<path class="st7" d="M142.6,257c0,8.1,2.9,14.7,6.5,14.7c3.6,0,6.5-6.6,6.5-14.7H142.6z"/>
		<path class="st8" d="M142.6,271.2c0,0.5,2.9,0.9,6.5,0.9c3.6,0,6.5-0.4,6.5-0.9H142.6z"/>
		<path class="st9" d="M143.8,259.5c0,0.7,0.6,1.3,1.4,1.3c0.8,0,1.4-0.6,1.4-1.3s-0.6-1.3-1.4-1.3
			C144.4,258.2,143.8,258.8,143.8,259.5z"/>
	</g>
	<path class="st10" d="M316.6,269.5c0,2-11.7,3.6-26.1,3.6s-26.1-1.6-26.1-3.6s11.7-3.6,26.1-3.6S316.6,267.6,316.6,269.5z"/>
	<path class="st10" d="M231.1,243.3c0,1.3-7.5,2.3-16.8,2.3c-9.3,0-16.8-1-16.8-2.3c0-1.3,7.5-2.3,16.8-2.3
		C223.6,241,231.1,242,231.1,243.3z"/>
	<path class="st3" d="M223.8,141.9c0,24.7-20,44.7-44.7,44.7c-24.7,0-44.7-20-44.7-44.7c0-24.7,20-44.7,44.7-44.7
		C203.8,97.3,223.8,117.3,223.8,141.9z"/>
	<path class="st11" d="M282.6,88.4c0,15.7-12.7,28.4-28.4,28.4c-15.7,0-28.4-12.7-28.4-28.4c0-15.7,12.7-28.4,28.4-28.4
		C269.9,60,282.6,72.7,282.6,88.4z"/>
	<path class="st10" d="M293.3,121.5c0,5.1-4.1,9.2-9.2,9.2c-5.1,0-9.2-4.1-9.2-9.2c0-5.1,4.1-9.2,9.2-9.2
		C289.2,112.3,293.3,116.4,293.3,121.5z"/>
	<path class="st9" d="M298.1,169.5c0,22.5-18.2,40.7-40.7,40.7c-22.5,0-40.7-18.2-40.7-40.7s18.2-40.7,40.7-40.7
		C279.9,128.9,298.1,147.1,298.1,169.5z"/>
	<path class="st9" d="M308.1,76.5c0,16.1-13,29.1-29.1,29.1c-16.1,0-29.1-13-29.1-29.1c0-16.1,13-29.1,29.1-29.1
		C295,47.4,308.1,60.4,308.1,76.5z"/>
	<path class="st3" d="M131.9,105.5c0,3.6-2.9,6.5-6.5,6.5c-3.6,0-6.5-2.9-6.5-6.5c0-3.6,2.9-6.5,6.5-6.5
		C129,99,131.9,101.9,131.9,105.5z"/>
	<path class="st3" d="M210.9,204.1c0,7.5-6.1,13.6-13.6,13.6c-7.5,0-13.6-6.1-13.6-13.6c0-7.5,6.1-13.6,13.6-13.6
		C204.8,190.5,210.9,196.6,210.9,204.1z"/>
	<path class="st12" d="M310.6,131.8c0,37-30,67-67,67c-37,0-67-30-67-67c0-37,30-67,67-67C280.6,64.8,310.6,94.8,310.6,131.8z"/>
	<g>
		<polygon class="st13" points="264.9,86.7 265.4,89.2 268,90.8 284.8,87.2 283.3,80 273.4,73.6 		"/>
		<polygon class="st1" points="281,85.8 265.4,89.1 262.1,73.5 281,69.5 283.7,81.8 		"/>
		<polygon class="st1" points="284.4,85.1 283.7,81.8 281.1,85.8 		"/>
		
			<rect x="262.3" y="71.5" transform="matrix(0.978 -0.2087 0.2087 0.978 -9.2947 58.3777)" class="st14" width="19.4" height="3.5"/>
		<g>
			
				<rect x="263.4" y="71" transform="matrix(0.9778 -0.2097 0.2097 0.9778 -9.3874 56.9823)" class="st15" width="1.3" height="3.5"/>
			
				<rect x="266.4" y="70.4" transform="matrix(0.9781 -0.2081 0.2081 0.9781 -9.1647 57.1458)" class="st15" width="1.3" height="3.5"/>
			
				<rect x="269.3" y="69.7" transform="matrix(0.978 -0.2085 0.2085 0.978 -8.9736 57.8669)" class="st15" width="1.3" height="3.5"/>
			
				<rect x="272.3" y="69.1" transform="matrix(0.9779 -0.2092 0.2092 0.9779 -8.7846 58.6653)" class="st15" width="1.3" height="3.5"/>
			
				<rect x="275.3" y="68.5" transform="matrix(0.9779 -0.209 0.209 0.9779 -8.5846 59.2282)" class="st15" width="1.3" height="3.5"/>
			
				<rect x="278.3" y="67.8" transform="matrix(0.978 -0.2084 0.2084 0.978 -8.3806 59.6636)" class="st15" width="1.3" height="3.5"/>
		</g>
		<g>
			
				<rect x="265.1" y="77.4" transform="matrix(0.9779 -0.209 0.209 0.9779 -10.5307 57.456)" class="st13" width="2.9" height="2.2"/>
			
				<rect x="269.4" y="76.5" transform="matrix(0.9779 -0.2089 0.2089 0.9779 -10.2395 58.2933)" class="st13" width="2.9" height="2.2"/>
			
				<rect x="273.8" y="75.6" transform="matrix(0.978 -0.2086 0.2086 0.978 -9.9475 59.1057)" class="st13" width="2.9" height="2.2"/>
			
				<rect x="278.1" y="74.7" transform="matrix(0.978 -0.2087 0.2087 0.978 -9.6612 60.0073)" class="st13" width="2.9" height="2.2"/>
		</g>
		<g>
			
				<rect x="265.9" y="81" transform="matrix(0.978 -0.2085 0.2085 0.978 -11.2544 57.5458)" class="st13" width="2.9" height="2.2"/>
			
				<rect x="270.2" y="80.1" transform="matrix(0.978 -0.2088 0.2088 0.978 -10.9742 58.513)" class="st14" width="2.9" height="2.2"/>
			
				<rect x="274.5" y="79.2" transform="matrix(0.978 -0.2084 0.2084 0.978 -10.6781 59.2782)" class="st14" width="2.9" height="2.2"/>
			
				<rect x="278.8" y="78.3" transform="matrix(0.978 -0.2087 0.2087 0.978 -10.3978 60.2567)" class="st13" width="2.9" height="2.2"/>
		</g>
		<g>
			
				<rect x="266.7" y="84.7" transform="matrix(0.978 -0.2086 0.2086 0.978 -11.9918 57.806)" class="st13" width="2.9" height="2.2"/>
			
				<rect x="271" y="83.7" transform="matrix(0.9779 -0.209 0.209 0.9779 -11.7153 58.8019)" class="st13" width="2.9" height="2.2"/>
			
				<rect x="275.3" y="82.8" transform="matrix(0.978 -0.2087 0.2087 0.978 -11.4215 59.6159)" class="st13" width="2.9" height="2.2"/>
			
				<rect x="279.6" y="81.9" transform="matrix(0.978 -0.2085 0.2085 0.978 -11.1295 60.4379)" class="st13" width="2.9" height="2.2"/>
		</g>
	</g>
	<g>
		
			<rect x="254.3" y="129.8" transform="matrix(0.923 -0.3847 0.3847 0.923 -33.2357 112.6193)" class="st13" width="21.2" height="19.1"/>
		
			<rect x="255.9" y="131.2" transform="matrix(0.9231 -0.3846 0.3846 0.9231 -33.0668 112.4833)" class="st1" width="17.6" height="15.4"/>
		<polygon class="st7" points="273.5,137.2 268.8,134.2 267.4,141.9 262.9,140.2 259.5,149.4 275.7,142.6 		"/>
		<path class="st7" d="M260.7,136.4c0.4,0.9,0,1.9-0.9,2.3c-0.9,0.4-1.9-0.1-2.3-0.9c-0.4-0.9,0-1.9,0.9-2.3
			C259.3,135.1,260.3,135.5,260.7,136.4z"/>
	</g>
	<g>
		<path class="st14" d="M235.5,164.1c0.2,0.5-0.1,1-0.6,1.2l-14.9,5.2c-0.5,0.2-1-0.1-1.2-0.6l-4-11.5c-0.2-0.5,0.1-1,0.6-1.2
			l14.9-5.2c0.5-0.2,1,0.1,1.2,0.6L235.5,164.1z"/>
		<polygon class="st1" points="222.7,157.7 227.2,159.9 225,164.5 		"/>
		<g>
			<polygon class="st1" points="231,164.2 222.1,167.3 221.9,166.8 230.8,163.7 			"/>
			<path class="st16" d="M224.2,166.2c0.1,0.4-0.1,0.8-0.4,0.9c-0.4,0.1-0.8-0.1-0.9-0.4c-0.1-0.4,0.1-0.8,0.4-0.9
				C223.6,165.6,224,165.8,224.2,166.2z"/>
		</g>
	</g>
	<g>
		
			<rect x="236.4" y="182" transform="matrix(0.9089 0.4171 -0.4171 0.9089 102.0345 -84.5717)" class="st1" width="16.2" height="18.3"/>
		
			<rect x="237.2" y="190.4" transform="matrix(0.9086 0.4177 -0.4177 0.9086 102.4333 -81.7692)" class="st17" width="1.7" height="5.5"/>
		
			<rect x="240.7" y="188.2" transform="matrix(0.9088 0.4172 -0.4172 0.9088 102.4635 -83.2143)" class="st7" width="1.7" height="9.1"/>
		
			<rect x="244.4" y="185.8" transform="matrix(0.9086 0.4177 -0.4177 0.9086 102.746 -84.8465)" class="st14" width="1.7" height="13"/>
		
			<rect x="246.5" y="190.1" transform="matrix(0.9093 0.4161 -0.4161 0.9093 103.5782 -85.2371)" class="st13" width="1.7" height="9.8"/>
	</g>
	<g>
		
			<rect x="214.7" y="132.3" transform="matrix(0.3676 -0.93 0.93 0.3676 11.0933 293.6367)" class="st7" width="13.6" height="12.8"/>
		<path class="st1" d="M221.1,133.6c0,0-1,2.4-1,2.4c0,0-1.6,4.1-1.6,4.1l-0.4-0.3c-0.4-0.3-1-0.5-1.6-0.5c-0.7,0-1.4,0.3-1.8,0.7
			c-0.2,0.2-0.3,0.4-0.3,0.7c0,0.8,1,1.4,2.1,1.4c0.8,0,1.6-0.4,1.9-0.9c0.1-0.1,0.1-0.1,0.1-0.1l2-5.1l5.3,1l-2,4.9l-0.4-0.3
			c-0.4-0.3-1-0.5-1.6-0.5c-0.7,0-1.4,0.3-1.8,0.7c-0.2,0.2-0.3,0.4-0.3,0.7c0,0.8,1,1.4,2.1,1.4c0.8,0,1.6-0.4,1.9-0.9
			c0.1-0.1,0.1-0.1,0.1-0.1l2.6-6.5l0-0.1c0,0,0.7-1.7,0.7-1.8C227,134.7,221.1,133.6,221.1,133.6z"/>
	</g>
	<g>
		
			<rect x="250.2" y="69.9" transform="matrix(0.152 -0.9884 0.9884 0.152 142.8155 313.9149)" class="st18" width="8.2" height="7.7"/>
		<path class="st1" d="M253.5,70.8c0,0-0.2,1.5-0.2,1.5c0,0-0.4,2.6-0.4,2.6l-0.3-0.1c-0.3-0.1-0.7-0.2-1-0.1
			c-0.4,0.1-0.8,0.4-1,0.7c-0.1,0.1-0.1,0.3-0.1,0.5c0.1,0.5,0.8,0.7,1.4,0.5c0.5-0.1,0.9-0.4,1-0.8c0-0.1,0-0.1,0-0.1l0.5-3.3
			l3.3-0.1l-0.5,3.2l-0.3-0.1c-0.3-0.1-0.7-0.2-1-0.1c-0.4,0.1-0.8,0.4-1,0.7c-0.1,0.1-0.1,0.3-0.1,0.5c0.1,0.5,0.8,0.7,1.4,0.5
			c0.5-0.1,0.9-0.4,1-0.8c0-0.1,0-0.1,0-0.1l0.6-4.2c0-0.1,0.2-1.2,0.2-1.2C257.1,70.6,253.5,70.8,253.5,70.8z"/>
	</g>
	<path class="st19" d="M207.8,88.9c0,2.1-1.7,3.7-3.7,3.7c-2.1,0-3.7-1.7-3.7-3.7c0-2.1,1.7-3.7,3.7-3.7
		C206.1,85.2,207.8,86.9,207.8,88.9z"/>
	<path class="st19" d="M216.3,180.2c0,4.4-3.6,8-8,8c-4.4,0-8-3.6-8-8c0-4.4,3.6-8,8-8C212.7,172.2,216.3,175.8,216.3,180.2z"/>
	<path class="st9" d="M179.5,188c0,4.6-3.7,8.3-8.3,8.3c-4.6,0-8.3-3.7-8.3-8.3c0-4.6,3.7-8.3,8.3-8.3
		C175.8,179.7,179.5,183.4,179.5,188z"/>
	<path class="st9" d="M213.1,81.7c0,7.5-6.1,13.6-13.6,13.6c-7.5,0-13.6-6.1-13.6-13.6s6.1-13.6,13.6-13.6
		C207,68.1,213.1,74.2,213.1,81.7z"/>
	<path class="st9" d="M305.5,106.8c0,5.8-4.7,10.4-10.4,10.4c-5.8,0-10.4-4.7-10.4-10.4c0-5.8,4.7-10.4,10.4-10.4
		C300.8,96.4,305.5,101.1,305.5,106.8z"/>
	<g>
		<g>
			
				<rect x="184.1" y="132.3" transform="matrix(0.3985 -0.9172 0.9172 0.3985 -16.5054 261.5837)" class="st1" width="14.1" height="22.2"/>
		</g>
		<g>
			<g>
				<path class="st13" d="M197.9,154.2c0,0-19.3-8.4-19.3-8.4c-0.1,0-0.1-0.1-0.1-0.2c0-0.1,0.1-0.2,0.2-0.2l13.2-3.9
					c0.1,0,0.2,0,0.3,0.1l6.1,12.3c0,0.1,0.1,0.1,0,0.2C198.2,154.2,198,154.3,197.9,154.2z M179.4,145.7l18.2,7.9l-5.8-11.6
					L179.4,145.7z"/>
			</g>
		</g>
		<g>
			<g>
				<path class="st13" d="M198.5,154.5l-20.4-8.9c-0.1,0-0.2-0.2-0.1-0.3l5.6-12.9c0-0.1,0.2-0.2,0.3-0.1l20.4,8.9
					c0.1,0,0.2,0.2,0.1,0.3l-5.6,12.9C198.7,154.5,198.6,154.5,198.5,154.5z M178.5,145.3l20,8.7l5.4-12.5l-20-8.7L178.5,145.3z"/>
			</g>
		</g>
		<g>
			<polygon class="st1" points="203.6,141.1 190.5,145 184.3,132.7 			"/>
		</g>
		<g>
			<g>
				<path class="st13" d="M190.4,145.2c0,0-0.1-0.1-0.1-0.1l-6.1-12.3c0-0.1,0-0.2,0-0.3c0.1-0.1,0.2-0.1,0.3,0l19.3,8.4
					c0.1,0,0.1,0.1,0.1,0.2c0,0.1-0.1,0.2-0.2,0.2l-13.2,3.9C190.5,145.3,190.4,145.3,190.4,145.2z M184.8,133.2l5.8,11.6l12.4-3.7
					L184.8,133.2z"/>
			</g>
		</g>
	</g>
	<g>
		<g>
			
				<rect x="222.7" y="62.9" transform="matrix(0.8992 -0.4375 0.4375 0.8992 -7.0571 109.3464)" class="st1" width="22.2" height="14.1"/>
		</g>
		<g>
			<g>
				<path class="st13" d="M246.4,71.9c0,0-18.9,9.2-18.9,9.2c-0.1,0-0.2,0-0.3,0c-0.1-0.1-0.1-0.2,0-0.3l5.6-12.6
					c0-0.1,0.2-0.2,0.3-0.1l13.3,3.3c0.1,0,0.1,0.1,0.2,0.1C246.6,71.7,246.6,71.9,246.4,71.9z M227.9,80.5l17.8-8.7l-12.5-3.2
					L227.9,80.5z"/>
			</g>
		</g>
		<g>
			<g>
				<path class="st13" d="M247,71.7l-20,9.7c-0.1,0.1-0.2,0-0.3-0.1l-6.2-12.7c-0.1-0.1,0-0.2,0.1-0.3l20-9.7c0.1-0.1,0.2,0,0.3,0.1
					l6.2,12.7C247.1,71.5,247.1,71.6,247,71.7z M227,80.9l19.6-9.5l-6-12.3L221,68.6L227,80.9z"/>
			</g>
		</g>
		<g>
			<polygon class="st1" points="240.2,59.1 234.6,71.6 221.3,68.3 			"/>
		</g>
		<g>
			<g>
				<path class="st13" d="M234.7,71.8c0,0-0.1,0-0.2,0l-13.3-3.4c-0.1,0-0.2-0.1-0.2-0.2c0-0.1,0-0.2,0.1-0.2l18.9-9.2
					c0.1,0,0.2,0,0.3,0c0.1,0.1,0.1,0.2,0,0.3l-5.6,12.6C234.8,71.8,234.7,71.8,234.7,71.8z M221.9,68.2l12.5,3.2l5.3-11.8
					L221.9,68.2z"/>
			</g>
		</g>
	</g>
	<path class="st10" d="M117,268.3c0,1.5-9.1,2.8-20.4,2.8c-11.3,0-20.4-1.3-20.4-2.8c0-1.6,9.1-2.8,20.4-2.8
		C107.9,265.5,117,266.7,117,268.3z"/>
	<g>
		<path class="st1" d="M188.3,99.5l8.9,13.7c1,1.6,0.6,3.7-1,4.7c-1.6,1-3.7,0.6-4.7-1l-8.9-13.7L188.3,99.5z"/>
		<path class="st15" d="M184,102.3l8.7,13.4c0.5,0.8,1.6,1,2.4,0.5c0.8-0.5,1-1.6,0.5-2.4l-8.7-13.4L184,102.3z"/>
		<polygon class="st1" points="160.9,111.7 181.4,98.4 190.9,113 192.6,116.2 196.7,117.5 169.9,135 159.4,118.9 		"/>
		<polygon class="st7" points="163.7,116.1 160.9,111.7 159.4,118.9 		"/>
		<g>
			<path class="st15" d="M166.6,115.7l-2.6-4l0.6-0.4l2.6,1.2c0.6,0.3,1.1,0.5,1.5,0.8c-0.4-0.5-0.7-1-1.1-1.6l-1.1-1.7l0.5-0.3
				l2.6,4l-0.5,0.3l-2.6-1.2c-0.6-0.3-1.1-0.5-1.6-0.8c0.3,0.5,0.7,1,1.1,1.6l1.1,1.7L166.6,115.7z"/>
			<path class="st15" d="M171.3,110l-1.5,1l0.9,1.4l1.7-1.1l0.3,0.4l-2.2,1.4l-2.6-4l2.1-1.4l0.3,0.4l-1.6,1.1l0.8,1.2l1.5-1
				L171.3,110z"/>
			<path class="st15" d="M174.1,110.9l-3.6-3.3l0.5-0.4l1.8,1.7c0.4,0.4,0.9,0.8,1.2,1.2c-0.2-0.4-0.4-1-0.6-1.6l-0.8-2.3l0.5-0.3
				l1.8,1.7c0.4,0.4,0.8,0.8,1.2,1.2c-0.2-0.5-0.4-1-0.6-1.6l-0.8-2.3l0.5-0.3l1.4,4.7l-0.5,0.3l-1.8-1.7c-0.5-0.4-0.8-0.8-1.1-1.1
				c0.2,0.4,0.3,0.9,0.5,1.5l0.8,2.4L174.1,110.9z"/>
			<path class="st15" d="M177.9,107.5c0.3,0,0.7-0.1,1.1-0.3c0.5-0.3,0.6-0.8,0.4-1.2c-0.2-0.4-0.6-0.4-1.3-0.3
				c-0.8,0.2-1.4,0.1-1.8-0.4c-0.4-0.6-0.2-1.4,0.6-1.9c0.4-0.3,0.8-0.4,1-0.4l0.1,0.5c-0.2,0-0.5,0.1-0.9,0.3
				c-0.5,0.4-0.5,0.8-0.4,1.1c0.2,0.4,0.6,0.4,1.3,0.3c0.8-0.2,1.4-0.1,1.8,0.5c0.4,0.6,0.3,1.4-0.6,2c-0.4,0.2-0.9,0.4-1.2,0.4
				L177.9,107.5z"/>
		</g>
		<polygon class="st14" points="183.9,107.2 162.9,120.8 162.5,120.2 183.4,106.5 		"/>
		<g>
			<g>
				
					<rect x="163.5" y="120.6" transform="matrix(0.8382 -0.5454 0.5454 0.8382 -38.8876 110.7907)" class="st13" width="7.5" height="0.6"/>
				
					<rect x="164.4" y="121.9" transform="matrix(0.8381 -0.5456 0.5456 0.8381 -39.4731 111.5099)" class="st13" width="7.5" height="0.6"/>
				
					<rect x="165.2" y="123.3" transform="matrix(0.838 -0.5457 0.5457 0.838 -40.059 112.2437)" class="st13" width="7.5" height="0.6"/>
				<polygon class="st13" points="173.2,123.1 166.9,127.2 166.5,126.7 172.8,122.6 				"/>
			</g>
			<g>
				
					<rect x="167" y="126" transform="matrix(0.8382 -0.5454 0.5454 0.8382 -41.2586 113.5671)" class="st13" width="7.5" height="0.6"/>
				<polygon class="st13" points="174.9,125.9 168.6,130 168.3,129.4 174.6,125.3 				"/>
				
					<rect x="168.7" y="128.6" transform="matrix(0.838 -0.5456 0.5456 0.838 -42.4296 114.9972)" class="st13" width="7.5" height="0.6"/>
			</g>
			<g>
				<polygon class="st13" points="178.7,113.9 172.4,117.9 172.1,117.4 178.4,113.3 				"/>
				
					<rect x="172.5" y="116.6" transform="matrix(0.838 -0.5456 0.5456 0.838 -35.2696 115.1008)" class="st13" width="7.5" height="0.6"/>
				
					<rect x="173.4" y="118" transform="matrix(0.838 -0.5456 0.5456 0.838 -35.853 115.7843)" class="st13" width="7.5" height="0.6"/>
				
					<rect x="174.2" y="119.3" transform="matrix(0.838 -0.5457 0.5457 0.838 -36.4362 116.4849)" class="st13" width="7.5" height="0.6"/>
			</g>
			<g>
				
					<rect x="175.1" y="120.7" transform="matrix(0.8381 -0.5456 0.5456 0.8381 -37.0585 117.1899)" class="st13" width="7.5" height="0.6"/>
				
					<rect x="176" y="122" transform="matrix(0.8381 -0.5455 0.5455 0.8381 -37.6413 117.863)" class="st13" width="7.5" height="0.6"/>
				<polygon class="st13" points="183.9,121.9 177.6,126 177.3,125.5 183.6,121.4 				"/>
			</g>
		</g>
		
			<rect x="181.9" y="109.8" transform="matrix(0.838 -0.5457 0.5457 0.838 -32.607 119.8626)" class="st7" width="7.4" height="10.1"/>
	</g>
	<g>
		<g>
			<path class="st14" d="M214.9,96c-8.8,0-15.9,7.1-15.9,15.9c0,3.1,0.9,6,2.5,8.5c0.1,0.2,0.3,0.5,0.6,0.9c0.2,0.3,0.4,0.5,0.5,0.8
				c3,5.2-4.4,5.7-4.4,5.7h16.1c0.2,0,0.4,0,0.6,0c8.8,0,15.9-7.1,15.9-15.9C230.8,103.1,223.7,96,214.9,96z"/>
			<g>
				<path class="st1" d="M208.8,112.3c0,0.9-0.8,1.7-1.7,1.7c-0.9,0-1.7-0.8-1.7-1.7c0-0.9,0.8-1.7,1.7-1.7
					C208.1,110.7,208.8,111.4,208.8,112.3z"/>
				<path class="st1" d="M216.8,112.3c0,0.9-0.8,1.7-1.7,1.7c-0.9,0-1.7-0.8-1.7-1.7c0-0.9,0.8-1.7,1.7-1.7
					C216,110.7,216.8,111.4,216.8,112.3z"/>
				<path class="st1" d="M224.7,112.3c0,0.9-0.8,1.7-1.7,1.7c-0.9,0-1.7-0.8-1.7-1.7c0-0.9,0.8-1.7,1.7-1.7
					C223.9,110.7,224.7,111.4,224.7,112.3z"/>
			</g>
		</g>
	</g>
	<g>
		<g>
			<path class="st5" d="M288.5,161c-5.7,0-10.4,4.7-10.4,10.4c0,2,0.6,3.9,1.6,5.6c0.1,0.2,0.2,0.4,0.4,0.6c0.1,0.2,0.2,0.3,0.3,0.5
				c2,3.4-2.9,3.7-2.9,3.7h10.5c0.1,0,0.3,0,0.4,0c5.7,0,10.4-4.7,10.4-10.4C298.9,165.7,294.2,161,288.5,161z"/>
			<g>
				<path class="st1" d="M284.5,171.7c0,0.6-0.5,1.1-1.1,1.1c-0.6,0-1.1-0.5-1.1-1.1c0-0.6,0.5-1.1,1.1-1.1
					C284,170.6,284.5,171.1,284.5,171.7z"/>
				<path class="st1" d="M289.7,171.7c0,0.6-0.5,1.1-1.1,1.1c-0.6,0-1.1-0.5-1.1-1.1c0-0.6,0.5-1.1,1.1-1.1
					C289.2,170.6,289.7,171.1,289.7,171.7z"/>
				<path class="st1" d="M294.9,171.7c0,0.6-0.5,1.1-1.1,1.1c-0.6,0-1.1-0.5-1.1-1.1c0-0.6,0.5-1.1,1.1-1.1
					C294.4,170.6,294.9,171.1,294.9,171.7z"/>
			</g>
		</g>
	</g>
	<g>
		<path class="st18" d="M201.4,167.3c0,6.7-5.4,12.2-12.2,12.2c-6.7,0-12.2-5.4-12.2-12.2c0-6.7,5.4-12.2,12.2-12.2
			C195.9,155.1,201.4,160.6,201.4,167.3z"/>
		<g>
			<g>
				<g>
					<path class="st1" d="M184.8,167.3c-1.7,0-3.1-1.4-3.1-3.2c0-1.8,1.4-3.2,3.1-3.2c1.7,0,3.1,1.4,3.1,3.2
						C187.8,165.9,186.5,167.3,184.8,167.3z M184.8,162c-1.1,0-2,1-2,2.1c0,1.2,0.9,2.1,2,2.1c1.1,0,2-1,2-2.1
						C186.8,162.9,185.9,162,184.8,162z"/>
				</g>
			</g>
			<g>
				<g>
					<path class="st1" d="M193,174.4c-1.7,0-3.1-1.4-3.1-3.2c0-1.8,1.4-3.2,3.1-3.2c1.7,0,3.1,1.4,3.1,3.2
						C196,173,194.7,174.4,193,174.4z M193,169.1c-1.1,0-2,1-2,2.1c0,1.2,0.9,2.1,2,2.1c1.1,0,2-1,2-2.1
						C195,170,194.1,169.1,193,169.1z"/>
				</g>
			</g>
			<polygon class="st1" points="191.9,160.1 183.5,175.4 185.6,175.4 194,160.1 			"/>
		</g>
	</g>
	<g>
		<path class="st20" d="M87.7,237.2l-1.6,31.1c0,0,6.1,1.5,7.3,1.7c1.1,0.2-3.1-2.5-3.6-3.8c-0.5-1.3-1.3-1.8-0.6-5
			c0.7-3.2,5.8-35.3,5.8-35.3h-6.5L87.7,237.2z"/>
		<path class="st1" d="M87.6,211.1c0,0.1,0,0.1,0,0.2c0.7,0.2,2.7,0.6,5,0.3c1.6-0.2,3.2-0.8,4.8-1.9l-0.1-0.2
			C93.5,212.3,88.7,211.4,87.6,211.1z"/>
		<path class="st4" d="M90.6,267.2c-2.3,0.7-3.6,0.3-4.4-0.2l-0.1,1.3c0,0,6.1,1.5,7.3,1.7C94.3,270.1,91.9,268.5,90.6,267.2z"/>
		<path class="st7" d="M94.2,194.4c-1.3,1.2-1.7,2.8,0.8,3.8c2.5,1,8,2.5,12.2-1.4c4.2-3.9,5.1-6.7,5.1-6.7l-1.7-1.4
			c0,0-2.9,4.7-7.4,6C98.7,196.2,95.7,193.1,94.2,194.4z"/>
		<path class="st21" d="M96.9,177l9.9,24.6c0,0,2.4-1,2.6-0.6c0,0,8.9-3.2,5.8-9.3c-3.1-6.1-8-12.3-6.8-16.8
			C109.5,170.3,96.9,177,96.9,177z"/>
		<path class="st20" d="M95.6,237.9l4.8,30.7c0,0,6.3,0.1,7.4,0c1.1,0-3.6-1.7-4.3-2.9c-0.8-1.2-1.6-1.5-1.6-4.7
			c0-3.3,0-35.5,0-35.5l-8.2-1L95.6,237.9z"/>
		<path class="st20" d="M94.2,195.3c0.2,1.1-1.9,3.5-2.8,4c-1.5,0.9-3.8,0.5-5.4-0.1c-0.9-0.3-2.7-0.2-3.1-1.1
			c-0.6-1.5,1.9-2,2.6-2.4c1.1-0.7,1.5-2.8,1.3-4c1.1-0.2,2.3-0.5,3.4-0.6c0.1,1.4,1,2.6,2.2,3.3C93,194.5,94.1,194.8,94.2,195.3z"
			/>
		<path class="st4" d="M104.5,266.6c-2.1,1.2-3.5,1.1-4.3,0.8l0.2,1.2c0,0,6.3,0.1,7.4,0C108.7,268.6,106.1,267.6,104.5,266.6z"/>
		<path class="st4" d="M93.5,217.4c0.5,2.1-0.6,3.6-1.1,5.6c-0.4,1.9-0.4,4-0.3,5.9c0.3,4.2,1.3,8.2,2.6,12.1c1.3,3.9,4,23.1,4,23.1
			s3.4-0.7,4.6-0.3c-0.3-4.3,0.8-21.6,0.9-26.1c0.1-3.8-0.5-7.8-0.8-11.6c-0.3-3.7-0.9-7.2-3.6-9.7L93.5,217.4z"/>
		<path class="st15" d="M89.2,216.9c0.1,2.2-1.7,2.7-2.6,4.6c-0.8,1.7-0.9,4.5-1.1,6.3c-0.6,4.2-0.4,8.3,0.1,12.4
			c0.5,4.1,0.1,20,0,23.8c1.2,0.3,2.7-0.2,3.7,0.4c0.6-4.3,3.3-19.9,4.3-24.2c0.8-3.7,2.2-9.9,2.7-13.7c0.5-3.7,1.4-6.1-0.7-9.1
			L89.2,216.9z"/>
		<path class="st7" d="M86.4,196.3c-0.4-0.4-0.5-0.8-0.5-0.8c-0.1-0.3-3.6,1.4-3.8,1.7c-1.5,1.3-1.2,1.9-0.8,3.6
			c0.8,3.8,3.2,7.1,4.4,10.8c0.6,2.1,1.7,4.1,1.5,6.3c-0.1,2-1.1,3.4,1.3,4.4c2.6,1.1,10.3-0.6,12.6-2c1.6-1,1.3-1.9,1.4-3.8
			c0.3-4.9-0.7-9.1-2.6-13.6c-1-2.3-1.9-5.1-3.3-7.1c-0.7-1-0.5-1.1-1.7-1.5c-0.1,0-2.1,0-2.1,0.1c0,0.1,0.1,2.9-1.4,3.5
			c-1.5,0.6-2.6,0.1-3.4-0.4C87.6,197.3,86.9,196.8,86.4,196.3z"/>
		<path class="st14" d="M135.3,153.2c2.2,9.4-2.3,18.4-10.2,20.3L99,179.6c-7.8,1.8-15.9-4.3-18.1-13.6l-0.3-1.4
			c-2.2-9.4,2.3-18.4,10.2-20.3l26.2-6.1c7.8-1.8,15.9,4.3,18.1,13.6L135.3,153.2z"/>
		<path class="st22" d="M91,192.9c-0.4-0.5-0.6-1.2-0.7-1.9c-1.2,0.1-2.3,0.4-3.4,0.6c0,0.1,0,0.2,0,0.4
			C88.1,193.2,89.5,193.4,91,192.9z"/>
		<path class="st20" d="M91,191.2c3.3-1.9,1.6-6.1-0.6-8.2c-1.1-1.1-2.9-2.2-4.5-1.8c-1.6,0.4-4.2,1.8-3.9,3.7
			c0.1,1,1.1,1.7,1.5,2.5c0.7,1.2,1.2,2.5,2.3,3.4C87.4,192.3,89.2,192.2,91,191.2z"/>
		<path class="st23" d="M85.9,189.2c-0.8,0.3-1.4-0.3-1.4-1c0-1.4,0.9-0.8,1.6-1c0.4-0.2,0,0,0,0l-0.3-1.7c0,0,3-0.5,2-1.7
			c1-0.1,3.6-0.3,3.6-1.8c-0.1-2.8-4.9-1.5-6.2-0.9c-1.3,0.6-2.8,1.8-3.3,3.2c-0.9,2.4,1.8,7.7,4.8,7L85.9,189.2z"/>
		<path class="st1" d="M110.9,139.6l8.3,35.5c21-4.1,32.8,5.8,32.8,5.8l-14.3-61C137.7,119.8,131.5,133.9,110.9,139.6z"/>
		<path class="st14" d="M93.9,177.7c0,0,8.6,11.3,12.4,24c0,0,8.9-3.2,5.8-9.3c-3.1-6.1-8-12.3-6.8-16.8
			C106.6,171,93.9,177.7,93.9,177.7z"/>
		<path class="st7" d="M169.1,144.6c4.1,17.3-1.7,33.4-12.8,36c-11.1,2.6-23.5-9.3-27.5-26.5c-4.1-17.3,1.7-33.4,12.8-36
			C152.7,115.5,165,127.3,169.1,144.6z"/>
		<path class="st1" d="M168.3,144.8c3.6,15.2-1.5,29.4-11.3,31.7c-9.8,2.3-20.6-8.1-24.2-23.3c-3.6-15.2,1.5-29.4,11.3-31.7
			C153.9,119.2,164.7,129.6,168.3,144.8z"/>
		<path class="st1" d="M126,154.8c2.3,9.8-1,18.9-7.4,20.4c-6.4,1.5-13.4-5.2-15.7-14.9c-2.3-9.8,1-18.9,7.4-20.4
			C116.6,138.4,123.7,145.1,126,154.8z"/>
		<path class="st14" d="M150.6,136.6c0,0-7.4,3.8-18.4,0.3c-0.9,4.9-0.8,10.5,0.5,16.3c1.7,7.4,4.7,12.8,8.9,17.1
			c1.4-1.8,4.9-6.5,14.9-10.1C149.6,153.2,146.9,140.7,150.6,136.6z"/>
		<path class="st21" d="M161.1,146.7c1.5,6.6-0.6,12.7-4.9,13.7c-4.2,1-8.9-3.5-10.5-10.1c-1.5-6.6,0.6-12.7,4.9-13.7
			C154.8,135.6,159.5,140.1,161.1,146.7z"/>
		<path class="st13" d="M83.5,197.7c-1.8,1.7-2.4,4,1.1,5.4c3.5,1.4,11.2,3.6,17.1-1.9c5.9-5.5,7.1-9.4,7.1-9.4l-2.4-1.9
			c0,0-4.1,6.7-10.4,8.5C89.7,200.2,85.5,195.8,83.5,197.7z"/>
		<path class="st20" d="M110.7,189.5c-0.3,0.6-1.1,1-1.5,1.6c-0.6,0.9-1,1.8-1.4,2.8c-0.5-0.6-1-1.2-1.6-1.8
			c-0.7-0.8-0.7-0.9-0.1-1.8c0.3-0.6,0.7-1.2,1-1.8c0.1-0.1,1.1-3,1.2-2.9c0.4,0.4,0.2,1.2,0.6,1.5c0.4-0.4,0.5-1,0.9-1.4
			c0.2,0.7,0.1,1.4-0.1,2.1c0.2-0.3,0.4-0.4,0.6-0.6c0.1,0.5,0.1,0.9-0.1,1.3c0.1-0.1,0.3-0.3,0.4-0.4
			C110.7,188.2,110.9,189.1,110.7,189.5z"/>
		<path class="st20" d="M110.4,183.8c-0.6,0.4-0.3,1.2,0.4,0.9c0,0.6-0.1,1.1,0.1,1.7c0.4-0.1,0.6-0.4,0.8-0.8c0,0.7-0.1,1.3,0.1,2
			c1.1-0.1,1.1-1.6,0.7-2.4c-0.4-0.8-1.5-1.1-2.1-1.8L110.4,183.8z"/>
		<path class="st4" d="M114,232.2c0,0-0.1,0-0.1,0H114z"/>
	</g>
	<g>
		
			<rect x="242.5" y="100.6" transform="matrix(0.2351 -0.972 0.972 0.2351 83.4527 325.0217)" class="st7" width="11.4" height="17.7"/>
		<polygon class="st5" points="238.6,113 248.2,109.5 255.1,117 		"/>
		<polygon class="st13" points="258,106 247.5,112.3 241.2,101.9 		"/>
	</g>
	<g>
		<path class="st3" d="M287.2,256.8c0,1.7-11.6,3-25.9,3c-14.3,0-25.9-1.4-25.9-3c0-1.7,11.6-3,25.9-3
			C275.6,253.7,287.2,255.1,287.2,256.8z"/>
		<path class="st24" d="M273.3,248.5c-9.6,1.7-15,1.6-19.9,0.6c-4.9-1-9.3-1.1-10.6,1.8c-1.3,3,5.2,7.4,12.2,6.8
			c4.3,0,11.7-2.4,12.4-0.6c0.7,2,8.3,1.2,8.6-2C276.2,253,282.9,246.8,273.3,248.5z"/>
		<path class="st20" d="M259.3,223.6c-0.4,0.7,0.2,2.3-0.2,3.1c-0.4,0.8-1,1.6-1.7,2.1c-0.7,0.5-1.6,1-1,1.8
			c0.6,0.9,5.5,4.1,6.6,3.5c1.9-1,3.8-3.7,1-5.4c-0.7-0.5-1.1-1.3-1.3-2.1c-0.2-0.8,0.1-2.7-0.4-3.1c-0.3-0.2-2.3-0.3-2.6-0.1
			C259.4,223.4,259.3,223.5,259.3,223.6z"/>
		<path class="st14" d="M256.9,229.4c0,0,1.9,1,2.9,1.2c0.9,0.2,1.9,0.2,2.9-0.1c1-0.2,2.1-1.3,1.8-1.3c-0.4,0,6.1-0.8,7.3,2.6
			c1.2,3.3,2.5,10.9,3,12.8c0.2,0.7,0.6,1.6,0.7,2.3c0.1,1.5,0.2,1.2-1.2,2c-1.4,0.8-3,0.5-4.5,1c-1.4,0.5-4.4,0.1-4.4,0.1
			s-5.5,1.2-8.3,0.3c-2.5-0.8-9.1,0-8.4-3.9c0.7-4,2.2-7.9,2.3-12.1C251,230.8,256.9,229.4,256.9,229.4z"/>
		<path class="st22" d="M261.6,225.9c0.1-0.1,0.3-0.3,0.4-0.4c0.1-0.2,0.3-0.4,0.4-0.6c0-0.4-0.1-0.7-0.3-0.9
			c-0.3-0.2-2.3-0.3-2.6-0.2c-0.1,0.1-0.2,0.2-0.3,0.3c-0.3,0.7,0,2-0.1,2.9C260,226.9,260.9,226.6,261.6,225.9z"/>
		<path class="st20" d="M261.1,225.5c0.2-0.1,0.3-0.2,0.5-0.3c2.1-1.3,3-4.5,2.9-6.8c-0.1-1.5-1.2-3.3-2.8-3.5
			c-1.8-0.2-2.4,1.7-3.4,2.9c-1.5,1.9-2.7,2.3-2.3,5C256.3,225.2,259,226.4,261.1,225.5z"/>
		<path class="st23" d="M257.8,218.1c1.8-1,4-1.4,4.6,1.2c0.2,1.1-0.2,2.7,0.4,3.7c0.9,1.4,1.9,0.7,2.6-0.4c1.5-2.4,1.8-5.9-0.8-7.6
			c-2.4-1.6-6.4-0.1-6.7,2.9L257.8,218.1z"/>
		<path class="st1" d="M261.6,250.9h-7.6l-2.4-10.1c-0.1-0.4,0-0.9,0.3-1.3c0.3-0.4,0.7-0.6,1.1-0.6h8.7h8.7c0.4,0,0.8,0.2,1.1,0.6
			c0.3,0.4,0.4,0.8,0.3,1.3l-2.4,10.1H261.6z"/>
		<path class="st25" d="M263.3,245.2c0,0.6-0.8,1.1-1.8,1.1c-1,0-1.8-0.5-1.8-1.1c0-0.6,0.8-1.1,1.8-1.1
			C262.5,244.2,263.3,244.7,263.3,245.2z"/>
		<path class="st20" d="M256.8,255.4l-4.9,1l-1.3,0.3c0,0-0.5,3.2,0.6,4.7c1.1,1.5,0.5-2.3,2-2.8c1.5-0.5,3.6-0.9,3.6-0.9V255.4z"/>
		<path class="st26" d="M279,248.5c-3.8-1.1-21.7,6.4-23.6,7c0.1,1.1-0.1,1.6,0,2.7c0.2,0,14.2,0.8,19-1.2
			C279.2,254.9,282.7,249.7,279,248.5z"/>
		<path class="st23" d="M264.4,216.1c-1.1-0.8,0.7-2.7,1.6-2.9c1.3-0.3,2.8,0.4,3.4,1.5c0.6,1.2,0.4,2.9-0.8,3.5
			c-1.3,0.7-2.7,0-4-0.4L264.4,216.1z"/>
	</g>
	<path class="st1" d="M251.9,247.3c0,0-0.5,3.2,0.6,4.7c0.6,0.8,0.7,0.1,0.9-0.9c-0.7-1.2-0.1-4.1-0.1-4.1L251.9,247.3z"/>
	<g>
		<path class="st3" d="M235.9,265.5c0,3-16,5.4-35.7,5.4c-19.7,0-35.7-2.4-35.7-5.4c0-3,16-5.4,35.7-5.4
			C220,260,235.9,262.5,235.9,265.5z"/>
		<path class="st27" d="M221.8,262.3c3,1.3,3,4.2,3.3,4.2c0.3,0,0.9-1.6,1.6-1.4c0.7,0.2,3.2,1.2,5.4,0.8c2.3-0.4-5.1-1.6-8.1-5.2
			L221.8,262.3z"/>
		<path class="st24" d="M188.1,257.5c10.1,1.8,15.8,1.7,20.9,0.6c5.1-1.1,9.8-1.2,11.2,1.9c1.4,3.1-5.5,7.8-12.8,7.1
			c-4.5-0.4-8.9-1.6-13.4-1c-3.9,0.5-8.7-1.8-10.5-5.4C181.5,256.9,185,256.9,188.1,257.5z"/>
		<path class="st15" d="M182.2,257.5c4-1.2,22.9,6.8,24.9,7.4c-0.1,1.1,0.1,1.7,0,2.8c-0.2,0-14.9,0.8-20-1.3
			C181.9,264.3,178.2,258.7,182.2,257.5z"/>
		<path class="st15" d="M192.6,261.3c-0.1,0.1-0.2,0.2-0.3,0.3c-1.8,2-0.6,4.4,1.5,5.6c2.2,1.2,4.9,0.8,7.3,1.1
			c1.6,0.2,3.1,0.5,4.7,0.2c3.2-0.5,5.1-2.7,3.3-5.8c-0.6-1-1.2-2.8-2.2-3.5c-3.1,0.3-6.2,0.6-9.3,0.9
			C195.9,260.4,193.9,260.2,192.6,261.3z"/>
		<path class="st27" d="M183.4,260.4c-0.6,0.9-1.9,1.5-2.9,1.9c-0.8,0.3-1.7,0.7-2.5,1c-0.8,0.3-1.6,0.6-1.9,1.6
			c2.1-0.7,2.9-0.4,4.4-0.5c0.5,0,1.2-0.1,1.7,0.1c0.5,0.3,0.7,0.7,1.4,0.8c0.4-0.4,0.2-0.7,0.2-1.1c0-0.7,0.1-1.2,0.5-1.7
			c0.4-0.5,1.5-0.9,0.7-1.7L183.4,260.4z"/>
		<path class="st27" d="M193.5,239.8c2.1-0.3,4.5-2.2,4.8-4.2c1.4-0.1,2.9-0.1,4.4,0c0.1,1.7-0.1,3.4,1.2,4.8
			c-1.8,0.6-3.8,0.5-5.7,0.5L193.5,239.8z"/>
		<path class="st1" d="M204.3,263c1.1-0.1,2.2-0.4,3.2-0.8c1.6-0.6,3.1-1,2.8-2.8c-0.3-2.1-1.8-4.2-2.7-6.1
			c2.4-0.1,7.8,5.7,10.5,7.1c1.8,1,4.5,3.2,4.5,3.2l3.9-2.3c0,0-3.8-3.4-6.3-6.1c-3.1-3.4-7.1-5.9-10-9.4c-3.2-3.8-3.8-6-9.1-6.5
			c-3.2-0.3-6-1.4-8.4,1.2c-1.6,1.7-2.7,4-3.3,6.2c-1.8,5.9-2.3,15.2,5.9,16C198.2,263.1,201.3,263.4,204.3,263z"/>
		<path class="st27" d="M199.4,236.5c2.3,2.5,7.3-1.3,7.2-3.7c0-4.5-3.6-6.1-3.6-6.1c-2.5-2.3-3.7-2.3-6.3-1.1
			C196.7,225.6,192.6,229,199.4,236.5z"/>
		<path class="st23" d="M202.2,227.8c-1,0.8-0.6,1.3-0.4,2.8c0.4,2.5,0.8,6.2-2.4,6.8c-3.6,0.8-6.5-6.2-6.1-8.9
			c0.3-2.4,4.1-4.5,6.2-4.9c0.9-0.2,3-0.6,3.8-0.1c0.8,0.5,0.6,2.2,0,1.7c1.5,1.2,0.3,1.6-0.7,2.3
			C202.4,227.6,202.3,227.7,202.2,227.8z"/>
		<path class="st1" d="M190.8,244.6c-2.6,2.2-3.1,6.4-4.6,9.2c-1.5,2.6-3.4,5.4-5.8,7.2c1.9-0.2,3.9,0.2,5.5,0.9
			c2-2.3,3-4.8,5.9-6.2L190.8,244.6z"/>
	</g>
	<polygon class="st28" points="246.5,94.4 248.2,86.5 240.3,84.8 241.5,86.7 234.2,91.4 237.9,97.2 245.2,92.4 	"/>
	<polygon class="st28" points="302.5,151 309.1,143.9 302,137.2 302.1,140 291.5,140.4 291.8,148.7 302.4,148.3 	"/>
	<g>
		<g>
			<path class="st21" d="M278.6,115.4c0.3-0.9-2.2,6.2-5.3,8.9l3.4-1.5l0.9,3.5c0,0,4.7-8.1,5-11.5
				C282.7,111.4,278.6,115.4,278.6,115.4z"/>
			<path class="st21" d="M284.2,115.2c-0.4-0.9,3,6,6.4,8.5l-4-0.8l-0.1,3.3c0,0-5.7-7.7-6.3-11.2
				C279.5,111.6,284.2,115.2,284.2,115.2z"/>
			<path class="st29" d="M278.6,115.4c0.2-0.6-0.7,1.7-2,4.2c0.1,0,0.2,0.1,0.3,0l0.7-0.2c0.3-0.1,0.6,0.1,0.7,0.4l0.2,0.7
				c0.1,0.3,0.4,0.4,0.7,0.2l0.6-0.4c0.2-0.2,0.6-0.1,0.8,0.1c0.9-2.1,1.8-4.2,1.8-5.5C282.7,111.4,278.6,115.4,278.6,115.4z"/>
			<path class="st30" d="M286.6,119.3c-1.6-2.4-2.7-4.6-2.5-4c0,0-4.7-3.6-4.1-0.2c0.2,1.3,1.2,3.3,2.3,5.2c0.2-0.1,0.5-0.1,0.7,0
				l0.6,0.4c0.3,0.2,0.6,0.1,0.7-0.2l0.2-0.7c0.1-0.3,0.4-0.5,0.7-0.4l0.7,0.2C286.4,119.7,286.6,119.6,286.6,119.3z"/>
			<g>
				<path class="st14" d="M281.2,103.6c0.2-0.3,0.5-0.3,0.7,0l0.4,0.6c0.2,0.3,0.6,0.3,0.8,0.1l0.6-0.4c0.3-0.2,0.6-0.1,0.7,0.2
					l0.2,0.7c0.1,0.3,0.4,0.5,0.7,0.4l0.7-0.2c0.3-0.1,0.6,0.1,0.6,0.4l0,0.8c0,0.3,0.3,0.6,0.6,0.6l0.8,0c0.3,0,0.5,0.3,0.4,0.6
					l-0.2,0.7c-0.1,0.3,0.1,0.6,0.4,0.7l0.7,0.2c0.3,0.1,0.4,0.4,0.2,0.7l-0.4,0.6c-0.2,0.3-0.1,0.6,0.1,0.8l0.6,0.4
					c0.3,0.2,0.3,0.5,0,0.7l-0.6,0.4c-0.3,0.2-0.3,0.6-0.1,0.8l0.4,0.6c0.2,0.3,0.1,0.6-0.2,0.7l-0.7,0.2c-0.3,0.1-0.5,0.4-0.4,0.7
					l0.2,0.7c0.1,0.3-0.1,0.6-0.4,0.6l-0.8,0c-0.3,0-0.6,0.3-0.6,0.6l0,0.8c0,0.3-0.3,0.5-0.6,0.4l-0.7-0.2
					c-0.3-0.1-0.6,0.1-0.7,0.4l-0.2,0.7c-0.1,0.3-0.4,0.4-0.7,0.2l-0.6-0.4c-0.3-0.2-0.6-0.1-0.8,0.1l-0.4,0.6
					c-0.2,0.3-0.5,0.3-0.7,0l-0.4-0.6c-0.2-0.3-0.6-0.3-0.8-0.1l-0.6,0.4c-0.3,0.2-0.6,0.1-0.7-0.2l-0.2-0.7
					c-0.1-0.3-0.4-0.5-0.7-0.4l-0.7,0.2c-0.3,0.1-0.6-0.1-0.6-0.4l0-0.8c0-0.3-0.3-0.6-0.6-0.6l-0.8,0c-0.3,0-0.5-0.3-0.4-0.6
					l0.2-0.7c0.1-0.3-0.1-0.6-0.4-0.7l-0.7-0.2c-0.3-0.1-0.4-0.4-0.2-0.7l0.4-0.6c0.2-0.3,0.1-0.6-0.1-0.8l-0.6-0.4
					c-0.3-0.2-0.3-0.5,0-0.7l0.6-0.4c0.3-0.2,0.3-0.6,0.1-0.8l-0.4-0.6c-0.2-0.3-0.1-0.6,0.2-0.7l0.7-0.2c0.3-0.1,0.5-0.4,0.4-0.7
					l-0.2-0.7c-0.1-0.3,0.1-0.6,0.4-0.6l0.8,0c0.3,0,0.6-0.3,0.6-0.6l0-0.8c0-0.3,0.3-0.5,0.6-0.4l0.7,0.2c0.3,0.1,0.6-0.1,0.7-0.4
					l0.2-0.7c0.1-0.3,0.4-0.4,0.7-0.2l0.6,0.4c0.3,0.2,0.6,0.1,0.8-0.1L281.2,103.6z"/>
			</g>
			<path class="st1" d="M287.3,111.9c0,3.2-2.6,5.8-5.8,5.8c-3.2,0-5.8-2.6-5.8-5.8c0-3.2,2.6-5.8,5.8-5.8
				C284.7,106.1,287.3,108.7,287.3,111.9z"/>
		</g>
		<path class="st4" d="M277,113.6l0-3.2l0.5,0l1,1.6c0.2,0.4,0.4,0.7,0.6,1c0-0.4,0-0.8,0-1.3l0-1.3h0.4l0,3.2l-0.4,0l-1-1.6
			c-0.2-0.4-0.4-0.7-0.6-1.1c0,0.4,0,0.8,0,1.3l0,1.4L277,113.6z"/>
		<path class="st4" d="M281.8,112.1l-1.2,0l0,1.2l1.4,0l0,0.3l-1.8,0l0-3.2l1.7,0v0.3l-1.3,0l0,1l1.2,0L281.8,112.1z"/>
		<path class="st4" d="M283,113.6l-0.8-3.2l0.4,0l0.4,1.6c0.1,0.4,0.2,0.8,0.2,1.1c0.1-0.3,0.2-0.7,0.3-1.1l0.4-1.6l0.4,0l0.4,1.6
			c0.1,0.4,0.2,0.8,0.2,1.1c0.1-0.4,0.2-0.7,0.3-1.1l0.4-1.6h0.4l-0.9,3.2l-0.4,0l-0.4-1.7c-0.1-0.4-0.2-0.7-0.2-1
			c-0.1,0.3-0.1,0.6-0.3,1l-0.4,1.7L283,113.6z"/>
	</g>
	<g>
		<polygon class="st21" points="215.6,86.4 213.8,84.9 212.2,86.4 212.2,79.5 215.6,79.5 		"/>
		<path class="st14" d="M213.6,77.1c0.2-0.4,0.6-0.4,0.8,0c0.2,0.4,0.8,0.6,1.2,0.4c0.4-0.2,0.7,0,0.7,0.5c-0.1,0.5,0.3,0.9,0.7,1
			c0.5,0.1,0.6,0.5,0.3,0.8c-0.3,0.3-0.3,0.9,0,1.3c0.3,0.3,0.2,0.7-0.3,0.8c-0.5,0.1-0.8,0.6-0.7,1c0.1,0.5-0.3,0.7-0.7,0.5
			c-0.4-0.2-1,0-1.2,0.4c-0.2,0.4-0.6,0.4-0.8,0c-0.2-0.4-0.8-0.6-1.2-0.4c-0.4,0.2-0.7,0-0.7-0.5c0.1-0.5-0.3-0.9-0.7-1
			c-0.5-0.1-0.6-0.5-0.3-0.8c0.3-0.3,0.3-0.9,0-1.3c-0.3-0.3-0.2-0.7,0.3-0.8c0.5-0.1,0.8-0.6,0.7-1c-0.1-0.5,0.3-0.7,0.7-0.5
			C212.8,77.7,213.3,77.5,213.6,77.1z"/>
	</g>
	<g>
		<rect x="246" y="158.6" transform="matrix(0.914 -0.4057 0.4057 0.914 -44.5154 116.1587)" class="st1" width="11.5" height="9"/>
		<path class="st14" d="M244.8,163.4l-0.9-2c-0.3-0.8,0-1.7,0.8-2l8.9-4c0.8-0.3,1.7,0,2,0.8l0.9,2L244.8,163.4z"/>
		<g>
			<path class="st5" d="M252.6,152.4c-0.9-0.7-2.2-0.5-2.8,0.4c-0.7,0.9-1,4.7-1,4.7s3.6-1.4,4.2-2.3
				C253.7,154.4,253.5,153.1,252.6,152.4z M249.8,156.3c0,0,0.3-2.4,0.7-2.9c0.4-0.5,1.1-0.6,1.6-0.2c0.5,0.4,0.6,1.1,0.2,1.6
				C252,155.3,249.8,156.3,249.8,156.3z"/>
			<path class="st5" d="M244.9,158.9c1.1,0.1,4.6-1.6,4.6-1.6s-3-2.3-4.2-2.4c-1.1-0.1-2.1,0.7-2.2,1.8
				C243,157.8,243.8,158.7,244.9,158.9z M245,158c-0.6-0.1-1.1-0.6-1.1-1.3c0.1-0.6,0.6-1.1,1.3-1.1c0.6,0.1,2.6,1.4,2.6,1.4
				S245.7,158.1,245,158z"/>
		</g>
	</g>
	<path class="st1" d="M230.6,177.3c0,1.2-1,2.1-2.1,2.1c-1.2,0-2.1-1-2.1-2.1c0-1.2,1-2.1,2.1-2.1
		C229.6,175.2,230.6,176.2,230.6,177.3z"/>
	<path class="st1" d="M241,122.7c0,1.5-1.3,2.8-2.8,2.8c-1.5,0-2.8-1.3-2.8-2.8c0-1.5,1.3-2.8,2.8-2.8
		C239.7,119.9,241,121.2,241,122.7z"/>
	<path class="st1" d="M301.6,130.4c0,1.5-1.2,2.7-2.7,2.7c-1.5,0-2.7-1.2-2.7-2.7c0-1.5,1.2-2.7,2.7-2.7
		C300.4,127.7,301.6,128.9,301.6,130.4z"/>
	<path class="st1" d="M192.4,92.4c0,2.1-1.7,3.7-3.7,3.7c-2.1,0-3.7-1.7-3.7-3.7c0-2.1,1.7-3.7,3.7-3.7
		C190.7,88.7,192.4,90.4,192.4,92.4z"/>
	<g>
		<path class="st5" d="M284.9,236.2c0,6.4,2.7,11.6,6,11.6c3.3,0,6-5.2,6-11.6H284.9z"/>
		<g>
			<path class="st31" d="M292,237c1.8-1,5.3-2,6-4.5c1.2-3.9-3.5-3-5.4-2.2c1.1-1.1,5.8-3.3,4.7-5.3c-1.1-2.1-4.6,1.2-4.4,3
				c1.4-2.8,2.2-9.7,0.3-12.5c-1.7-2.5-3.4-0.4-3.8,1.8c-0.5,2.9,0.1,5.9,1.4,8.5c-0.9-1.3-2.8-4.3-4.7-2.9c0.3,2.6,3,5.2,4.2,7.4
				c-1.2-0.8-5.1-2-5,0.6c0.2,2.3,4.7,2.9,5.5,4.4L292,237z"/>
			<path class="st7" d="M291.5,236.3c0.3-1.4,0.6-4.1,1.7-5.2c1.7-1.7,1.5,0.8,0.8,1.9c1.7-1.4,4.4-5.6,6.6-6.1
				c3.3-0.7-1.5,3.8-2,4.5c1.4-0.1,6.3-2.4,6.4-0.1c0.2,2.5-5.7,2.8-7.3,3.4c1,0.6,2.2,1.6,1.9,2.9c-2.1,0.8-3-0.3-4.8-1.1
				c-1,1.3-3,1.5-4.1,0.2L291.5,236.3z"/>
			<path class="st32" d="M292,237.4c-0.4-0.5-3-8.9-3.9-5.2c-0.9-1.8-3.8-7.9-6.4-5.1c-2.5,2.7,1.2,6.4,3.9,6.6
				c-1.2,0.9-3,2.4-0.7,3.1c1.6,0.5,3.8-0.5,5.3-0.6L292,237.4z"/>
		</g>
	</g>
	<path class="st8" d="M284.4,247.3c0,0.5,2.9,0.9,6.5,0.9c3.6,0,6.5-0.4,6.5-0.9H284.4z"/>
</g>
</svg>
